<?xml version="1.0" encoding="UTF-8"?>
<!DOCTYPE svg PUBLIC "-//W3C//DTD SVG 1.1//EN" "http://www.w3.org/Graphics/SVG/1.1/DTD/svg11.dtd">
<svg xmlns="http://www.w3.org/2000/svg" version="1.1" width="1032px" height="1032px" style="shape-rendering:geometricPrecision; text-rendering:geometricPrecision; image-rendering:optimizeQuality; fill-rule:evenodd; clip-rule:evenodd" xmlns:xlink="http://www.w3.org/1999/xlink">
<g><path style="opacity:1" fill="#fffed8" d="M -0.5,-0.5 C 42.5,-0.5 85.5,-0.5 128.5,-0.5C 128.5,42.5 128.5,85.5 128.5,128.5C 85.5,128.5 42.5,128.5 -0.5,128.5C -0.5,85.5 -0.5,42.5 -0.5,-0.5 Z"/></g>
<g><path style="opacity:1" fill="#489784" d="M 128.5,-0.5 C 171.5,-0.5 214.5,-0.5 257.5,-0.5C 257.5,42.5 257.5,85.5 257.5,128.5C 214.5,128.5 171.5,128.5 128.5,128.5C 128.5,85.5 128.5,42.5 128.5,-0.5 Z"/></g>
<g><path style="opacity:1" fill="#feffd7" d="M 257.5,-0.5 C 300.5,-0.5 343.5,-0.5 386.5,-0.5C 386.5,42.5 386.5,85.5 386.5,128.5C 343.5,128.5 300.5,128.5 257.5,128.5C 257.5,85.5 257.5,42.5 257.5,-0.5 Z"/></g>
<g><path style="opacity:1" fill="#7b9c5b" d="M 386.5,-0.5 C 429.5,-0.5 472.5,-0.5 515.5,-0.5C 515.5,42.5 515.5,85.5 515.5,128.5C 472.5,128.5 429.5,128.5 386.5,128.5C 386.5,85.5 386.5,42.5 386.5,-0.5 Z"/></g>
<g><path style="opacity:1" fill="#feffd7" d="M 515.5,-0.5 C 558.5,-0.5 601.5,-0.5 644.5,-0.5C 644.5,42.5 644.5,85.5 644.5,128.5C 601.5,128.5 558.5,128.5 515.5,128.5C 515.5,85.5 515.5,42.5 515.5,-0.5 Z"/></g>
<g><path style="opacity:1" fill="#7b9c5b" d="M 644.5,-0.5 C 687.5,-0.5 730.5,-0.5 773.5,-0.5C 773.5,42.5 773.5,85.5 773.5,128.5C 730.5,128.5 687.5,128.5 644.5,128.5C 644.5,85.5 644.5,42.5 644.5,-0.5 Z"/></g>
<g><path style="opacity:1" fill="#feffd7" d="M 773.5,-0.5 C 816.5,-0.5 859.5,-0.5 902.5,-0.5C 902.5,42.5 902.5,85.5 902.5,128.5C 859.5,128.5 816.5,128.5 773.5,128.5C 773.5,85.5 773.5,42.5 773.5,-0.5 Z"/></g>
<g><path style="opacity:1" fill="#7b9c5b" d="M 902.5,-0.5 C 945.5,-0.5 988.5,-0.5 1031.5,-0.5C 1031.5,42.5 1031.5,85.5 1031.5,128.5C 988.5,128.5 945.5,128.5 902.5,128.5C 902.5,85.5 902.5,42.5 902.5,-0.5 Z"/></g>
<g><path style="opacity:1" fill="#e6ecc0" d="M 1022.5,4.5 C 1024.14,4.28649 1025.64,4.61983 1027,5.5C 1026.6,8.06126 1026.77,10.7279 1027.5,13.5C 1025.83,13.5 1024.17,13.5 1022.5,13.5C 1023.83,10.5 1023.83,7.5 1022.5,4.5 Z"/></g>
<g><path style="opacity:1" fill="#7b9c5b" d="M -0.5,128.5 C 42.5,128.5 85.5,128.5 128.5,128.5C 128.5,171.5 128.5,214.5 128.5,257.5C 120.167,257.5 111.833,257.5 103.5,257.5C 99.8333,257.5 96.1667,257.5 92.5,257.5C 86.8333,257.5 81.1667,257.5 75.5,257.5C 66.8333,257.5 58.1667,257.5 49.5,257.5C 43.8333,257.5 38.1667,257.5 32.5,257.5C 28.5,257.5 24.5,257.5 20.5,257.5C 13.5,257.5 6.5,257.5 -0.5,257.5C -0.5,214.5 -0.5,171.5 -0.5,128.5 Z"/></g>
<g><path style="opacity:1" fill="#feffd7" d="M 128.5,128.5 C 171.5,128.5 214.5,128.5 257.5,128.5C 257.5,171.5 257.5,214.5 257.5,257.5C 214.5,257.5 171.5,257.5 128.5,257.5C 128.5,214.5 128.5,171.5 128.5,128.5 Z"/></g>
<g><path style="opacity:1" fill="#7b9c5b" d="M 257.5,128.5 C 300.5,128.5 343.5,128.5 386.5,128.5C 386.5,171.5 386.5,214.5 386.5,257.5C 343.5,257.5 300.5,257.5 257.5,257.5C 257.5,214.5 257.5,171.5 257.5,128.5 Z"/></g>
<g><path style="opacity:1" fill="#fdfdd6" d="M 386.5,128.5 C 429.5,128.5 472.5,128.5 515.5,128.5C 515.5,171.5 515.5,214.5 515.5,257.5C 472.5,257.5 429.5,257.5 386.5,257.5C 386.5,214.5 386.5,171.5 386.5,128.5 Z"/></g>
<g><path style="opacity:1" fill="#7b9c5b" d="M 515.5,128.5 C 558.5,128.5 601.5,128.5 644.5,128.5C 644.5,171.5 644.5,214.5 644.5,257.5C 601.5,257.5 558.5,257.5 515.5,257.5C 515.5,214.5 515.5,171.5 515.5,128.5 Z"/></g>
<g><path style="opacity:1" fill="#feffd7" d="M 644.5,128.5 C 687.5,128.5 730.5,128.5 773.5,128.5C 773.5,171.5 773.5,214.5 773.5,257.5C 730.5,257.5 687.5,257.5 644.5,257.5C 644.5,214.5 644.5,171.5 644.5,128.5 Z"/></g>
<g><path style="opacity:1" fill="#7b9c5b" d="M 773.5,128.5 C 816.5,128.5 859.5,128.5 902.5,128.5C 902.5,171.5 902.5,214.5 902.5,257.5C 859.5,257.5 816.5,257.5 773.5,257.5C 773.5,214.5 773.5,171.5 773.5,128.5 Z"/></g>
<g><path style="opacity:1" fill="#fefed7" d="M 902.5,128.5 C 945.5,128.5 988.5,128.5 1031.5,128.5C 1031.5,171.5 1031.5,214.5 1031.5,257.5C 988.5,257.5 945.5,257.5 902.5,257.5C 902.5,214.5 902.5,171.5 902.5,128.5 Z"/></g>
<g><path style="opacity:1" fill="#7e9363" d="M 1021.5,133.5 C 1023.5,133.5 1025.5,133.5 1027.5,133.5C 1027.45,136.928 1026.29,139.928 1024,142.5C 1023.57,140.331 1024.07,138.331 1025.5,136.5C 1023.67,135.943 1022.34,134.943 1021.5,133.5 Z"/></g>
<g><path style="opacity:1" fill="#0b0b0a" d="M 445.5,146.5 C 450.208,147.559 452.208,150.559 451.5,155.5C 466.869,157.102 478.702,164.436 487,177.5C 492.832,189.494 496.165,202.161 497,215.5C 497.667,224.167 497.667,232.833 497,241.5C 474.196,242.829 451.363,242.829 428.5,241.5C 427.108,236.97 427.608,232.637 430,228.5C 435.292,221.54 440.958,214.873 447,208.5C 449.147,203.947 449.98,199.28 449.5,194.5C 444.553,199.951 438.886,204.451 432.5,208C 428.797,211.367 425.464,215.034 422.5,219C 419.672,219.969 417.338,219.303 415.5,217C 404.36,216.508 399.86,210.675 402,199.5C 408.305,186.22 415.639,173.554 424,161.5C 423.637,157.199 423.637,152.866 424,148.5C 425.049,147.483 426.216,147.316 427.5,148C 430.432,150.614 433.599,152.781 437,154.5C 440.052,152.057 442.886,149.39 445.5,146.5 Z"/></g>
<g><path style="opacity:1" fill="#fafafa" d="M 492.5,220.5 C 492.5,226.167 492.5,231.833 492.5,237.5C 472.5,237.5 452.5,237.5 432.5,237.5C 432.009,234.124 432.842,230.79 435,227.5C 439.022,222.48 443.356,217.814 448,213.5C 454.559,202.866 457.392,191.366 456.5,179C 455.552,178.517 454.552,178.351 453.5,178.5C 453.702,180.989 453.202,183.323 452,185.5C 445.277,193.611 437.444,200.444 428.5,206C 426.037,209.465 423.204,212.631 420,215.5C 419.952,213.456 420.452,211.456 421.5,209.5C 417.107,205.192 414.773,206.192 414.5,212.5C 412.208,212.756 410.041,212.423 408,211.5C 406.069,208.386 405.402,205.053 406,201.5C 411.463,187.9 418.463,175.233 427,163.5C 428.576,160.718 428.743,157.884 427.5,155C 427.833,154.5 428.167,154 428.5,153.5C 430.027,155.193 431.36,157.027 432.5,159C 435.167,159.667 437.833,159.667 440.5,159C 441.67,155.822 443.67,153.322 446.5,151.5C 447.167,153.833 447.833,156.167 448.5,158.5C 468.658,160.487 481.824,171.154 488,190.5C 491.039,200.274 492.539,210.274 492.5,220.5 Z"/></g>
<g><path style="opacity:1" fill="#0b0b0b" d="M 427.5,167.5 C 430.261,166.915 431.927,167.915 432.5,170.5C 431.558,174.09 429.558,176.757 426.5,178.5C 424.261,178.426 423.261,177.259 423.5,175C 424.597,172.395 425.93,169.895 427.5,167.5 Z"/></g>
<g><path style="opacity:1" fill="#0d0d0d" d="M 410.5,198.5 C 414.701,198.426 416.035,200.259 414.5,204C 409.221,204.585 407.888,202.751 410.5,198.5 Z"/></g>
<g><path style="opacity:1" fill="#bcbcbc" d="M 492.5,220.5 C 493.49,226.31 493.823,232.31 493.5,238.5C 472.993,238.83 452.66,238.497 432.5,237.5C 452.5,237.5 472.5,237.5 492.5,237.5C 492.5,231.833 492.5,226.167 492.5,220.5 Z"/></g>
<g><path style="opacity:1" fill="#fefbd4" d="M -0.5,257.5 C 6.5,257.5 13.5,257.5 20.5,257.5C 17.9405,260.458 14.9405,262.958 11.5,265C 7.63459,269.694 3.63459,274.194 -0.5,278.5C -0.5,271.5 -0.5,264.5 -0.5,257.5 Z"/></g>
<g><path style="opacity:1" fill="#479582" d="M 128.5,257.5 C 171.5,257.5 214.5,257.5 257.5,257.5C 257.5,300.5 257.5,343.5 257.5,386.5C 214.5,386.5 171.5,386.5 128.5,386.5C 128.5,378.167 128.5,369.833 128.5,361.5C 128.5,356.167 128.5,350.833 128.5,345.5C 128.5,332.833 128.5,320.167 128.5,307.5C 128.5,302.833 128.5,298.167 128.5,293.5C 128.5,289.833 128.5,286.167 128.5,282.5C 128.5,274.167 128.5,265.833 128.5,257.5 Z"/></g>
<g><path style="opacity:1" fill="#feffd7" d="M 257.5,257.5 C 300.5,257.5 343.5,257.5 386.5,257.5C 386.5,300.5 386.5,343.5 386.5,386.5C 343.5,386.5 300.5,386.5 257.5,386.5C 257.5,343.5 257.5,300.5 257.5,257.5 Z"/></g>
<g><path style="opacity:1" fill="#7b9c5b" d="M 386.5,257.5 C 429.5,257.5 472.5,257.5 515.5,257.5C 515.5,300.5 515.5,343.5 515.5,386.5C 472.5,386.5 429.5,386.5 386.5,386.5C 386.5,343.5 386.5,300.5 386.5,257.5 Z"/></g>
<g><path style="opacity:1" fill="#fdfdd6" d="M 515.5,257.5 C 558.5,257.5 601.5,257.5 644.5,257.5C 644.5,300.5 644.5,343.5 644.5,386.5C 601.5,386.5 558.5,386.5 515.5,386.5C 515.5,343.5 515.5,300.5 515.5,257.5 Z"/></g>
<g><path style="opacity:1" fill="#7b9c5b" d="M 644.5,257.5 C 687.5,257.5 730.5,257.5 773.5,257.5C 773.5,300.5 773.5,343.5 773.5,386.5C 730.5,386.5 687.5,386.5 644.5,386.5C 644.5,343.5 644.5,300.5 644.5,257.5 Z"/></g>
<g><path style="opacity:1" fill="#feffd7" d="M 773.5,257.5 C 816.5,257.5 859.5,257.5 902.5,257.5C 902.5,300.5 902.5,343.5 902.5,386.5C 859.5,386.5 816.5,386.5 773.5,386.5C 773.5,343.5 773.5,300.5 773.5,257.5 Z"/></g>
<g><path style="opacity:1" fill="#7b9c5b" d="M 902.5,257.5 C 945.5,257.5 988.5,257.5 1031.5,257.5C 1031.5,300.5 1031.5,343.5 1031.5,386.5C 988.5,386.5 945.5,386.5 902.5,386.5C 902.5,343.5 902.5,300.5 902.5,257.5 Z"/></g>
<g><path style="opacity:1" fill="#f7b59a" d="M 49.5,257.5 C 58.1667,257.5 66.8333,257.5 75.5,257.5C 83.4697,260.332 91.4697,263.499 99.5,267C 106.575,271.738 112.742,277.572 118,284.5C 122.119,292.06 125.619,299.726 128.5,307.5C 128.5,320.167 128.5,332.833 128.5,345.5C 120.5,364.833 106.833,378.5 87.5,386.5C 74.8333,386.5 62.1667,386.5 49.5,386.5C 43.3281,384.712 37.3281,382.212 31.5,379C 24.6924,372.862 17.8591,366.695 11,360.5C 6.85474,353.859 3.0214,347.192 -0.5,340.5C -0.5,329.5 -0.5,318.5 -0.5,307.5C 7.14039,281.86 23.8071,265.193 49.5,257.5 Z"/></g>
<g><path style="opacity:1" fill="#fdf2cd" d="M 103.5,257.5 C 111.833,257.5 120.167,257.5 128.5,257.5C 128.5,265.833 128.5,274.167 128.5,282.5C 121.851,272.518 113.518,264.184 103.5,257.5 Z"/></g>
<g><path style="opacity:1" fill="#e6ecc0" d="M 1023.5,262.5 C 1028.22,262.225 1028.55,263.059 1024.5,265C 1026.41,265.408 1027.41,266.575 1027.5,268.5C 1027.57,270.266 1026.73,271.266 1025,271.5C 1020.86,269.253 1020.36,266.253 1023.5,262.5 Z"/></g>
<g><path style="opacity:1" fill="#f8c3a5" d="M 32.5,257.5 C 38.1667,257.5 43.8333,257.5 49.5,257.5C 23.8071,265.193 7.14039,281.86 -0.5,307.5C -0.5,301.833 -0.5,296.167 -0.5,290.5C 7.16667,276.167 18.1667,265.167 32.5,257.5 Z"/></g>
<g><path style="opacity:1" fill="#080909" d="M 189.5,271.5 C 197.212,270.715 200.712,274.048 200,281.5C 198.485,283.677 196.985,285.844 195.5,288C 197.643,298.551 199.977,309.051 202.5,319.5C 206.681,310.304 210.681,300.971 214.5,291.5C 207.979,286.16 207.979,280.994 214.5,276C 220.431,275.088 224.098,277.588 225.5,283.5C 224.57,286.359 222.904,288.693 220.5,290.5C 219.334,300.817 219.168,311.151 220,321.5C 224.667,314.167 229.333,306.833 234,299.5C 232.918,295.977 232.585,292.31 233,288.5C 237.714,283.177 242.38,283.177 247,288.5C 248.372,295.136 245.706,299.136 239,300.5C 237.108,312.186 235.108,323.852 233,335.5C 229.947,338.887 227.28,342.553 225,346.5C 224.333,348.5 224.333,350.5 225,352.5C 228.478,356.876 229.812,361.876 229,367.5C 228.097,368.701 226.931,369.535 225.5,370C 203.107,373.15 180.774,372.817 158.5,369C 157.333,368.5 156.5,367.667 156,366.5C 155.22,360.949 156.887,356.282 161,352.5C 161.667,350.5 161.667,348.5 161,346.5C 158.72,342.553 156.053,338.887 153,335.5C 150.892,323.852 148.892,312.186 147,300.5C 138.69,298.504 136.357,293.838 140,286.5C 146.557,282.781 151.057,284.447 153.5,291.5C 152.058,294.028 151.558,296.695 152,299.5C 156.667,306.833 161.333,314.167 166,321.5C 166.832,310.818 166.666,300.151 165.5,289.5C 158.918,284.504 158.918,279.67 165.5,275C 175.44,274.385 178.274,278.552 174,287.5C 173.075,288.047 172.242,288.713 171.5,289.5C 175.578,299.575 179.744,309.575 184,319.5C 186.103,308.82 188.269,298.153 190.5,287.5C 184.234,282.56 183.9,277.226 189.5,271.5 Z"/></g>
<g><path style="opacity:1" fill="#0d0d0c" d="M 578.5,272.5 C 581.776,273.122 583.109,275.122 582.5,278.5C 584.527,278.338 586.527,278.505 588.5,279C 589.833,280 589.833,281 588.5,282C 586.527,282.495 584.527,282.662 582.5,282.5C 582.336,285.187 582.503,287.854 583,290.5C 589.105,294.04 592.105,299.373 592,306.5C 599.518,301.327 607.684,300.161 616.5,303C 631.119,311.364 633.285,322.197 623,335.5C 619.283,338.885 615.283,341.885 611,344.5C 610.667,351.167 610.333,357.833 610,364.5C 605.973,367.596 601.473,369.763 596.5,371C 579.032,375.742 562.532,373.575 547,364.5C 546.831,357.144 546.331,349.811 545.5,342.5C 533.052,335.946 528.552,325.946 532,312.5C 537.768,302.537 546.268,299.037 557.5,302C 560.994,303.579 564.327,305.413 567.5,307.5C 567.617,300.264 570.617,294.597 576.5,290.5C 577.48,287.914 577.813,285.247 577.5,282.5C 574.843,282.838 572.51,282.171 570.5,280.5C 570.709,279.914 571.043,279.414 571.5,279C 573.473,278.505 575.473,278.338 577.5,278.5C 577.325,276.379 577.659,274.379 578.5,272.5 Z"/></g>
<g><path style="opacity:1" fill="#fbddbb" d="M 20.5,257.5 C 24.5,257.5 28.5,257.5 32.5,257.5C 18.1667,265.167 7.16667,276.167 -0.5,290.5C -0.5,286.5 -0.5,282.5 -0.5,278.5C 3.63459,274.194 7.63459,269.694 11.5,265C 14.9405,262.958 17.9405,260.458 20.5,257.5 Z"/></g>
<g><path style="opacity:1" fill="#e3e3e3" d="M 190.5,275.5 C 196.158,274.679 197.825,276.846 195.5,282C 189.741,283.139 188.074,280.972 190.5,275.5 Z"/></g>
<g><path style="opacity:1" fill="#efefef" d="M 166.5,278.5 C 168.167,278.5 169.833,278.5 171.5,278.5C 171.662,280.527 171.495,282.527 171,284.5C 165.651,285.895 164.151,283.895 166.5,278.5 Z"/></g>
<g><path style="opacity:1" fill="#fad7b6" d="M 92.5,257.5 C 96.1667,257.5 99.8333,257.5 103.5,257.5C 113.518,264.184 121.851,272.518 128.5,282.5C 128.5,286.167 128.5,289.833 128.5,293.5C 120.543,277.509 108.543,265.509 92.5,257.5 Z"/></g>
<g><path style="opacity:1" fill="#f8c3a5" d="M 75.5,257.5 C 81.1667,257.5 86.8333,257.5 92.5,257.5C 108.543,265.509 120.543,277.509 128.5,293.5C 128.5,298.167 128.5,302.833 128.5,307.5C 125.619,299.726 122.119,292.06 118,284.5C 112.742,277.572 106.575,271.738 99.5,267C 91.4697,263.499 83.4697,260.332 75.5,257.5 Z"/></g>
<g><path style="opacity:1" fill="#e6e6e6" d="M 216.5,279.5 C 220.473,280.075 221.473,282.242 219.5,286C 215.32,287.12 213.486,285.62 214,281.5C 214.995,280.934 215.828,280.267 216.5,279.5 Z"/></g>
<g><path style="opacity:1" fill="#e9e9e9" d="M 143.5,288.5 C 149.148,288.311 150.482,290.478 147.5,295C 142.57,295.427 141.237,293.26 143.5,288.5 Z"/></g>
<g><path style="opacity:1" fill="#e5e5e5" d="M 238.5,288.5 C 243.328,288.385 244.661,290.552 242.5,295C 236.686,295.374 235.353,293.207 238.5,288.5 Z"/></g>
<g><path style="opacity:1" fill="#f1f1f1" d="M 576.5,294.5 C 582.549,293.053 586.049,295.386 587,301.5C 588.18,308.629 585.847,314.295 580,318.5C 578.395,317.899 577.062,316.899 576,315.5C 571.429,308.227 571.596,301.227 576.5,294.5 Z"/></g>
<g><path style="opacity:1" fill="#f9f9f9" d="M 199.5,326.5 C 195.5,326.5 191.5,326.5 187.5,326.5C 187.5,325.5 187.5,324.5 187.5,323.5C 189.266,314.838 191.099,306.171 193,297.5C 195.237,307.187 197.403,316.854 199.5,326.5 Z"/></g>
<g><path style="opacity:1" fill="#f5a98f" d="M 59.5,258.5 C 92.1249,259.312 113.958,274.978 125,305.5C 131.15,342.044 117.317,367.544 83.5,382C 55.8001,389.545 32.6334,382.378 14,360.5C 1.6627,342.803 -1.67063,323.47 4,302.5C 14.0982,277.205 32.5982,262.538 59.5,258.5 Z"/></g>
<g><path style="opacity:1" fill="#f49a82" d="M 62.5,261.5 C 92.7204,262.852 112.554,277.852 122,306.5C 128.096,336.215 118.263,359.049 92.5,375C 63.0359,387.907 37.5359,382.407 16,358.5C -0.370174,334.126 -0.370174,309.793 16,285.5C 28.0994,270.702 43.5994,262.702 62.5,261.5 Z"/></g>
<g><path style="opacity:1" fill="#f18a75" d="M 63.5,264.5 C 83.195,265.738 99.0284,274.071 111,289.5C 125,311.167 125,332.833 111,354.5C 89.9208,377.985 64.7542,383.485 35.5,371C 31.793,367.823 28.1263,364.657 24.5,361.5C 20.3917,356.054 16.2251,350.721 12,345.5C 1.73722,317.386 8.23722,293.886 31.5,275C 41.3303,268.714 51.997,265.214 63.5,264.5 Z"/></g>
<g><path style="opacity:1" fill="#ea6e5d" d="M 94.5,362.5 C 94.5,362.167 94.5,361.833 94.5,361.5C 94.5,359.5 94.5,357.5 94.5,355.5C 94.5,354.167 94.5,352.833 94.5,351.5C 94.5,349.5 94.5,347.5 94.5,345.5C 94.5,345.167 94.5,344.833 94.5,344.5C 102.449,341.051 108.283,335.384 112,327.5C 114.677,320.387 113.51,314.054 108.5,308.5C 109.376,308.631 110.043,308.298 110.5,307.5C 109.772,303.698 108.606,300.031 107,296.5C 103.07,292.849 99.2365,289.016 95.5,285C 86.8842,277.736 76.8842,273.903 65.5,273.5C 64.791,272.596 63.791,272.263 62.5,272.5C 62.5,274.5 62.5,276.5 62.5,278.5C 59.7212,278.279 57.0545,278.612 54.5,279.5C 49.113,280.19 44.113,282.023 39.5,285C 34.7879,290.043 30.4546,295.377 26.5,301C 26.7284,301.399 27.0618,301.565 27.5,301.5C 14.3707,308.724 11.204,319.057 18,332.5C 20.7663,335.777 23.933,338.443 27.5,340.5C 27.9731,341.906 28.9731,342.573 30.5,342.5C 30.5,343.5 30.5,344.5 30.5,345.5C 30.5,347.5 30.5,349.5 30.5,351.5C 30.5,352.833 30.5,354.167 30.5,355.5C 30.2053,357.735 30.5386,359.735 31.5,361.5C 31.1667,362.167 30.8333,362.833 30.5,363.5C 29.6618,363.158 29.3284,362.492 29.5,361.5C 9.79068,339.483 7.62401,315.816 23,290.5C 39.3136,272.397 59.147,266.897 82.5,274C 110.437,288.046 120.27,310.213 112,340.5C 108.281,349.653 102.447,356.987 94.5,362.5 Z"/></g>
<g><path style="opacity:1" fill="#f1806c" d="M 94.5,364.5 C 94.5,363.833 94.5,363.167 94.5,362.5C 102.447,356.987 108.281,349.653 112,340.5C 120.27,310.213 110.437,288.046 82.5,274C 59.147,266.897 39.3136,272.397 23,290.5C 7.62401,315.816 9.79068,339.483 29.5,361.5C 12.4095,345.936 7.24279,326.936 14,304.5C 27.3874,275.058 49.8874,264.225 81.5,272C 86.9448,273.888 91.9448,276.555 96.5,280C 100.732,284.57 105.232,288.736 110,292.5C 111.263,297.621 112.929,302.621 115,307.5C 119.176,324.619 116.176,340.286 106,354.5C 102.571,358.439 98.7372,361.772 94.5,364.5 Z"/></g>
<g><path style="opacity:1" fill="#e7372e" d="M 61.5,283.5 C 62.2938,288.759 60.2938,292.426 55.5,294.5C 53.7538,292.145 51.7538,291.978 49.5,294C 47.1667,295.667 44.8333,297.333 42.5,299C 43.1667,299.333 43.8333,299.667 44.5,300C 43.244,300.417 42.5774,301.25 42.5,302.5C 40.5,302.167 38.5,301.833 36.5,301.5C 35.3915,300.71 34.0581,300.21 32.5,300C 39.7464,290.373 49.4131,284.873 61.5,283.5 Z"/></g>
<g><path style="opacity:1" fill="#e73b31" d="M 73.5,281.5 C 84.0659,284.565 92.5659,290.565 99,299.5C 99.5281,300.816 99.0281,301.483 97.5,301.5C 94.5,301.5 91.5,301.5 88.5,301.5C 88.1412,299.629 87.1412,298.129 85.5,297C 81.8654,293.343 77.5321,291.677 72.5,292C 73.1667,292.333 73.8333,292.667 74.5,293C 73.5842,293.278 72.9175,293.778 72.5,294.5C 70.825,292.998 68.9917,291.665 67,290.5C 66.5026,287.854 66.3359,285.187 66.5,282.5C 68.9496,282.702 71.283,282.369 73.5,281.5 Z"/></g>
<g><path style="opacity:1" fill="#eb6252" d="M 65.5,273.5 C 76.8842,273.903 86.8842,277.736 95.5,285C 99.2365,289.016 103.07,292.849 107,296.5C 108.606,300.031 109.772,303.698 110.5,307.5C 110.043,308.298 109.376,308.631 108.5,308.5C 105.308,305.405 101.641,303.072 97.5,301.5C 99.0281,301.483 99.5281,300.816 99,299.5C 92.5659,290.565 84.0659,284.565 73.5,281.5C 73.5858,280.504 73.2524,279.671 72.5,279C 70.1902,278.503 67.8568,278.337 65.5,278.5C 65.5,276.833 65.5,275.167 65.5,273.5 Z"/></g>
<g><path style="opacity:1" fill="#e74d41" d="M 54.5,279.5 C 54.4142,280.496 54.7476,281.329 55.5,282C 57.7078,282.191 59.7078,282.691 61.5,283.5C 49.4131,284.873 39.7464,290.373 32.5,300C 34.0581,300.21 35.3915,300.71 36.5,301.5C 33.5,301.5 30.5,301.5 27.5,301.5C 27.0618,301.565 26.7284,301.399 26.5,301C 30.4546,295.377 34.7879,290.043 39.5,285C 44.113,282.023 49.113,280.19 54.5,279.5 Z"/></g>
<g><path style="opacity:1" fill="#0b0605" d="M 65.5,273.5 C 65.5,275.167 65.5,276.833 65.5,278.5C 67.8568,278.337 70.1902,278.503 72.5,279C 73.2524,279.671 73.5858,280.504 73.5,281.5C 71.283,282.369 68.9496,282.702 66.5,282.5C 66.3359,285.187 66.5026,287.854 67,290.5C 68.9917,291.665 70.825,292.998 72.5,294.5C 74.8091,298.124 75.9758,302.124 76,306.5C 79.731,303.756 83.8977,302.089 88.5,301.5C 91.5,301.5 94.5,301.5 97.5,301.5C 101.641,303.072 105.308,305.405 108.5,308.5C 113.51,314.054 114.677,320.387 112,327.5C 108.283,335.384 102.449,341.051 94.5,344.5C 94.4142,343.504 94.7476,342.671 95.5,342C 100.731,338.976 105.231,335.143 109,330.5C 115.246,314.929 110.08,306.262 93.5,304.5C 80.4734,305.263 70.64,311.263 64,322.5C 55.4788,308.989 43.3121,303.156 27.5,305C 16.518,310.074 13.3513,318.241 18,329.5C 21.0024,333.334 24.1691,337 27.5,340.5C 23.933,338.443 20.7663,335.777 18,332.5C 11.204,319.057 14.3707,308.724 27.5,301.5C 30.5,301.5 33.5,301.5 36.5,301.5C 38.5,301.833 40.5,302.167 42.5,302.5C 45.6339,303.901 48.6339,305.568 51.5,307.5C 51.9488,302.847 53.2822,298.513 55.5,294.5C 60.2938,292.426 62.2938,288.759 61.5,283.5C 59.7078,282.691 57.7078,282.191 55.5,282C 54.7476,281.329 54.4142,280.496 54.5,279.5C 57.0545,278.612 59.7212,278.279 62.5,278.5C 62.5,276.5 62.5,274.5 62.5,272.5C 63.791,272.263 64.791,272.596 65.5,273.5 Z"/></g>
<g><path style="opacity:1" fill="#b7b7b7" d="M 172.5,303.5 C 171.508,311.316 171.174,319.316 171.5,327.5C 170.342,318.343 170.176,309.009 171,299.5C 172.188,300.563 172.688,301.897 172.5,303.5 Z"/></g>
<g><path style="opacity:1" fill="#de110e" d="M 55.5,294.5 C 53.2822,298.513 51.9488,302.847 51.5,307.5C 48.6339,305.568 45.6339,303.901 42.5,302.5C 42.5774,301.25 43.244,300.417 44.5,300C 43.8333,299.667 43.1667,299.333 42.5,299C 44.8333,297.333 47.1667,295.667 49.5,294C 51.7538,291.978 53.7538,292.145 55.5,294.5 Z"/></g>
<g><path style="opacity:1" fill="#e21612" d="M 88.5,301.5 C 83.8977,302.089 79.731,303.756 76,306.5C 75.9758,302.124 74.8091,298.124 72.5,294.5C 72.9175,293.778 73.5842,293.278 74.5,293C 73.8333,292.667 73.1667,292.333 72.5,292C 77.5321,291.677 81.8654,293.343 85.5,297C 87.1412,298.129 88.1412,299.629 88.5,301.5 Z"/></g>
<g><path style="opacity:1" fill="#b2b2b2" d="M 204.5,326.5 C 207.833,326.5 211.167,326.5 214.5,326.5C 214.825,318.648 214.492,310.982 213.5,303.5C 213.783,302.711 214.283,302.044 215,301.5C 215.5,310.16 215.666,318.827 215.5,327.5C 211.629,327.815 207.962,327.482 204.5,326.5 Z"/></g>
<g><path style="opacity:1" fill="#f7f7f7" d="M 172.5,303.5 C 175.688,311.059 178.688,318.726 181.5,326.5C 178.232,327.487 174.898,327.82 171.5,327.5C 171.174,319.316 171.508,311.316 172.5,303.5 Z"/></g>
<g><path style="opacity:1" fill="#f3f3f3" d="M 213.5,303.5 C 214.492,310.982 214.825,318.648 214.5,326.5C 211.167,326.5 207.833,326.5 204.5,326.5C 207.344,318.812 210.344,311.145 213.5,303.5 Z"/></g>
<g><path style="opacity:1" fill="#d6d6d6" d="M 94.5,344.5 C 94.5,344.833 94.5,345.167 94.5,345.5C 88.856,344.017 83.1893,342.517 77.5,341C 67.1667,339 56.8333,339 46.5,341C 41.1605,342.615 35.8271,344.115 30.5,345.5C 30.5,344.5 30.5,343.5 30.5,342.5C 30.0269,341.094 29.0269,340.427 27.5,340.5C 24.1691,337 21.0024,333.334 18,329.5C 13.3513,318.241 16.518,310.074 27.5,305C 43.3121,303.156 55.4788,308.989 64,322.5C 70.64,311.263 80.4734,305.263 93.5,304.5C 110.08,306.262 115.246,314.929 109,330.5C 105.231,335.143 100.731,338.976 95.5,342C 94.7476,342.671 94.4142,343.504 94.5,344.5 Z"/></g>
<g><path style="opacity:1" fill="#f9f9f9" d="M 545.5,305.5 C 559.731,304.885 570.231,310.885 577,323.5C 577.499,327.486 577.666,331.486 577.5,335.5C 567.94,335.045 558.774,336.712 550,340.5C 535.889,334.306 531.889,324.306 538,310.5C 540.426,308.548 542.926,306.881 545.5,305.5 Z"/></g>
<g><path style="opacity:1" fill="#f9f9f9" d="M 601.5,305.5 C 609.461,304.046 616.294,306.046 622,311.5C 627.113,321.547 624.947,330.047 615.5,337C 613.319,338.84 610.819,340.007 608,340.5C 599.755,337.484 591.255,335.818 582.5,335.5C 580.742,326.64 583.076,319.14 589.5,313C 593.396,310.225 597.396,307.725 601.5,305.5 Z"/></g>
<g><path style="opacity:1" fill="#020202" d="M 29.5,308.5 C 43.3986,308.695 53.8986,314.695 61,326.5C 61.4974,329.146 61.6641,331.813 61.5,334.5C 52.7442,334.825 44.2442,336.492 36,339.5C 31.2985,336.649 26.9651,333.315 23,329.5C 18.6609,320.356 20.8276,313.356 29.5,308.5 Z"/></g>
<g><path style="opacity:1" fill="#020202" d="M 88.5,308.5 C 95.375,307.523 101.208,309.523 106,314.5C 108.263,322.852 105.763,329.686 98.5,335C 95.9579,336.77 93.2913,338.27 90.5,339.5C 82.9854,337.037 75.3187,335.371 67.5,334.5C 65.9614,329.219 67.128,324.552 71,320.5C 75.851,314.843 81.6843,310.843 88.5,308.5 Z"/></g>
<g><path style="opacity:1" fill="#e8e8e8" d="M 152.5,307.5 C 157.274,314.047 161.274,321.047 164.5,328.5C 161.518,328.963 158.518,329.296 155.5,329.5C 154.717,322.136 153.717,314.803 152.5,307.5 Z"/></g>
<g><path style="opacity:1" fill="#e6e6e6" d="M 232.5,308.5 C 233.139,309.097 233.472,309.93 233.5,311C 232.006,317.131 230.673,323.297 229.5,329.5C 226.916,328.607 224.249,328.274 221.5,328.5C 224.627,321.582 228.294,314.916 232.5,308.5 Z"/></g>
<g><path style="opacity:1" fill="#474747" d="M 187.5,323.5 C 187.5,324.5 187.5,325.5 187.5,326.5C 191.5,326.5 195.5,326.5 199.5,326.5C 195.366,327.485 191.032,327.818 186.5,327.5C 186.232,325.901 186.566,324.568 187.5,323.5 Z"/></g>
<g><path style="opacity:1" fill="#f1f1f1" d="M 184.5,330.5 C 199.24,330.616 213.907,331.616 228.5,333.5C 227.712,336.97 225.712,339.637 222.5,341.5C 212.254,339.97 201.921,339.304 191.5,339.5C 181.481,339.788 171.481,339.955 161.5,340C 159.457,338.292 157.79,336.292 156.5,334C 165.933,332.413 175.266,331.247 184.5,330.5 Z"/></g>
<g><path style="opacity:1" fill="#060606" d="M 94.5,345.5 C 94.5,347.5 94.5,349.5 94.5,351.5C 73.1937,342.223 51.8604,342.223 30.5,351.5C 30.5,349.5 30.5,347.5 30.5,345.5C 35.8271,344.115 41.1605,342.615 46.5,341C 56.8333,339 67.1667,339 77.5,341C 83.1893,342.517 88.856,344.017 94.5,345.5 Z"/></g>
<g><path style="opacity:1" fill="#efefef" d="M 567.5,339.5 C 580.745,338.466 593.578,340.133 606,344.5C 606.667,346.5 606.667,348.5 606,350.5C 596.925,346.586 587.425,344.919 577.5,345.5C 568.166,344.711 559.333,346.377 551,350.5C 550.192,348.421 550.359,346.421 551.5,344.5C 556.858,342.501 562.191,340.834 567.5,339.5 Z"/></g>
<g><path style="opacity:1" fill="#000000" d="M 27.5,340.5 C 29.0269,340.427 30.0269,341.094 30.5,342.5C 28.9731,342.573 27.9731,341.906 27.5,340.5 Z"/></g>
<g><path style="opacity:1" fill="#f0f0f0" d="M 173.5,343.5 C 189.186,343.284 204.852,343.617 220.5,344.5C 220.5,346.833 220.5,349.167 220.5,351.5C 202.221,349.224 183.888,348.891 165.5,350.5C 165.5,348.5 165.5,346.5 165.5,344.5C 168.385,344.806 171.052,344.473 173.5,343.5 Z"/></g>
<g><path style="opacity:1" fill="#d2d2d2" d="M 94.5,351.5 C 94.5,352.833 94.5,354.167 94.5,355.5C 88.8775,354.034 83.2109,352.534 77.5,351C 68.8802,349.536 60.2135,349.202 51.5,350C 44.3853,351.541 37.3853,353.374 30.5,355.5C 30.5,354.167 30.5,352.833 30.5,351.5C 51.8604,342.223 73.1937,342.223 94.5,351.5 Z"/></g>
<g><path style="opacity:1" fill="#060606" d="M 94.5,355.5 C 94.5,357.5 94.5,359.5 94.5,361.5C 73.4947,352.168 52.4947,352.168 31.5,361.5C 30.5386,359.735 30.2053,357.735 30.5,355.5C 37.3853,353.374 44.3853,351.541 51.5,350C 60.2135,349.202 68.8802,349.536 77.5,351C 83.2109,352.534 88.8775,354.034 94.5,355.5 Z"/></g>
<g><path style="opacity:1" fill="#ededed" d="M 567.5,349.5 C 580.977,348.309 593.977,349.975 606.5,354.5C 606.662,356.527 606.495,358.527 606,360.5C 597.066,356.788 587.733,355.122 578,355.5C 568.555,355.018 559.555,356.685 551,360.5C 550.192,358.421 550.359,356.421 551.5,354.5C 556.858,352.501 562.191,350.834 567.5,349.5 Z"/></g>
<g><path style="opacity:1" fill="#f8f8f8" d="M 177.5,353.5 C 192.586,352.97 207.586,353.804 222.5,356C 223.316,359.269 224.316,362.436 225.5,365.5C 203.875,367.984 182.208,368.151 160.5,366C 159.248,362.083 160.248,358.75 163.5,356C 168.294,355.098 172.961,354.265 177.5,353.5 Z"/></g>
<g><path style="opacity:1" fill="#d3d3d3" d="M 94.5,361.5 C 94.5,361.833 94.5,362.167 94.5,362.5C 94.5,363.167 94.5,363.833 94.5,364.5C 94.1583,365.338 93.4916,365.672 92.5,365.5C 72.7948,357.596 53.1282,357.596 33.5,365.5C 31.8212,365.715 30.8212,365.048 30.5,363.5C 30.8333,362.833 31.1667,362.167 31.5,361.5C 52.4947,352.168 73.4947,352.168 94.5,361.5 Z"/></g>
<g><path style="opacity:1" fill="#080504" d="M 92.5,365.5 C 72.7346,376.127 53.0679,376.127 33.5,365.5C 53.1282,357.596 72.7948,357.596 92.5,365.5 Z"/></g>
<g><path style="opacity:1" fill="#f3f3f3" d="M 567.5,359.5 C 575.174,359.334 582.841,359.5 590.5,360C 595.118,360.569 599.451,361.902 603.5,364C 586.808,369.973 570.141,369.973 553.5,364C 558.184,362.17 562.851,360.67 567.5,359.5 Z"/></g>
<g><path style="opacity:1" fill="#f8c2a5" d="M -0.5,340.5 C 3.0214,347.192 6.85474,353.859 11,360.5C 17.8591,366.695 24.6924,372.862 31.5,379C 37.3281,382.212 43.3281,384.712 49.5,386.5C 43.8333,386.5 38.1667,386.5 32.5,386.5C 25.7914,382.64 19.458,378.14 13.5,373C 8.19473,366.877 3.52807,360.377 -0.5,353.5C -0.5,349.167 -0.5,344.833 -0.5,340.5 Z"/></g>
<g><path style="opacity:1" fill="#fdf4cf" d="M -0.5,361.5 C 6.18441,371.518 14.5177,379.851 24.5,386.5C 16.1667,386.5 7.83333,386.5 -0.5,386.5C -0.5,378.167 -0.5,369.833 -0.5,361.5 Z"/></g>
<g><path style="opacity:1" fill="#fbdbba" d="M -0.5,353.5 C 3.52807,360.377 8.19473,366.877 13.5,373C 19.458,378.14 25.7914,382.64 32.5,386.5C 29.8333,386.5 27.1667,386.5 24.5,386.5C 14.5177,379.851 6.18441,371.518 -0.5,361.5C -0.5,358.833 -0.5,356.167 -0.5,353.5 Z"/></g>
<g><path style="opacity:1" fill="#fad8b7" d="M 128.5,345.5 C 128.5,350.833 128.5,356.167 128.5,361.5C 121.9,371.102 113.9,379.435 104.5,386.5C 98.8333,386.5 93.1667,386.5 87.5,386.5C 106.833,378.5 120.5,364.833 128.5,345.5 Z"/></g>
<g><path style="opacity:1" fill="#fef5d0" d="M 128.5,361.5 C 128.5,369.833 128.5,378.167 128.5,386.5C 120.5,386.5 112.5,386.5 104.5,386.5C 113.9,379.435 121.9,371.102 128.5,361.5 Z"/></g>
<g><path style="opacity:1" fill="#7b9c5b" d="M -0.5,386.5 C 7.83333,386.5 16.1667,386.5 24.5,386.5C 27.1667,386.5 29.8333,386.5 32.5,386.5C 38.1667,386.5 43.8333,386.5 49.5,386.5C 62.1667,386.5 74.8333,386.5 87.5,386.5C 93.1667,386.5 98.8333,386.5 104.5,386.5C 112.5,386.5 120.5,386.5 128.5,386.5C 128.5,429.5 128.5,472.5 128.5,515.5C 85.5,515.5 42.5,515.5 -0.5,515.5C -0.5,472.5 -0.5,429.5 -0.5,386.5 Z"/></g>
<g><path style="opacity:1" fill="#feffd7" d="M 128.5,386.5 C 171.5,386.5 214.5,386.5 257.5,386.5C 257.5,429.5 257.5,472.5 257.5,515.5C 214.5,515.5 171.5,515.5 128.5,515.5C 128.5,472.5 128.5,429.5 128.5,386.5 Z"/></g>
<g><path style="opacity:1" fill="#7b9c5b" d="M 257.5,386.5 C 300.5,386.5 343.5,386.5 386.5,386.5C 386.5,429.5 386.5,472.5 386.5,515.5C 343.5,515.5 300.5,515.5 257.5,515.5C 257.5,472.5 257.5,429.5 257.5,386.5 Z"/></g>
<g><path style="opacity:1" fill="#feffd7" d="M 386.5,386.5 C 429.5,386.5 472.5,386.5 515.5,386.5C 515.5,429.5 515.5,472.5 515.5,515.5C 472.5,515.5 429.5,515.5 386.5,515.5C 386.5,472.5 386.5,429.5 386.5,386.5 Z"/></g>
<g><path style="opacity:1" fill="#7b9c5b" d="M 515.5,386.5 C 558.5,386.5 601.5,386.5 644.5,386.5C 644.5,429.5 644.5,472.5 644.5,515.5C 601.5,515.5 558.5,515.5 515.5,515.5C 515.5,472.5 515.5,429.5 515.5,386.5 Z"/></g>
<g><path style="opacity:1" fill="#feffd7" d="M 644.5,386.5 C 687.5,386.5 730.5,386.5 773.5,386.5C 773.5,429.5 773.5,472.5 773.5,515.5C 730.5,515.5 687.5,515.5 644.5,515.5C 644.5,472.5 644.5,429.5 644.5,386.5 Z"/></g>
<g><path style="opacity:1" fill="#7b9c5b" d="M 773.5,386.5 C 816.5,386.5 859.5,386.5 902.5,386.5C 902.5,429.5 902.5,472.5 902.5,515.5C 859.5,515.5 816.5,515.5 773.5,515.5C 773.5,472.5 773.5,429.5 773.5,386.5 Z"/></g>
<g><path style="opacity:1" fill="#fefed7" d="M 902.5,386.5 C 945.5,386.5 988.5,386.5 1031.5,386.5C 1031.5,429.5 1031.5,472.5 1031.5,515.5C 988.5,515.5 945.5,515.5 902.5,515.5C 902.5,472.5 902.5,429.5 902.5,386.5 Z"/></g>
<g><path style="opacity:1" fill="#758b5a" d="M 1022.5,391.5 C 1024.29,391.215 1025.95,391.548 1027.5,392.5C 1026.62,393.251 1025.62,393.751 1024.5,394C 1027.2,394.949 1028.03,396.783 1027,399.5C 1025.61,400.554 1024.11,400.72 1022.5,400C 1023.45,399.517 1024.45,399.351 1025.5,399.5C 1025.5,398.5 1025.5,397.5 1025.5,396.5C 1024.5,396.5 1023.5,396.5 1022.5,396.5C 1022.5,394.833 1022.5,393.167 1022.5,391.5 Z"/></g>
<g><path style="opacity:1" fill="#feffd7" d="M -0.5,515.5 C 42.5,515.5 85.5,515.5 128.5,515.5C 128.5,558.5 128.5,601.5 128.5,644.5C 85.5,644.5 42.5,644.5 -0.5,644.5C -0.5,601.5 -0.5,558.5 -0.5,515.5 Z"/></g>
<g><path style="opacity:1" fill="#7b9c5b" d="M 128.5,515.5 C 171.5,515.5 214.5,515.5 257.5,515.5C 257.5,558.5 257.5,601.5 257.5,644.5C 214.5,644.5 171.5,644.5 128.5,644.5C 128.5,601.5 128.5,558.5 128.5,515.5 Z"/></g>
<g><path style="opacity:1" fill="#feffd7" d="M 257.5,515.5 C 300.5,515.5 343.5,515.5 386.5,515.5C 386.5,558.5 386.5,601.5 386.5,644.5C 343.5,644.5 300.5,644.5 257.5,644.5C 257.5,601.5 257.5,558.5 257.5,515.5 Z"/></g>
<g><path style="opacity:1" fill="#7b9c5b" d="M 386.5,515.5 C 429.5,515.5 472.5,515.5 515.5,515.5C 515.5,558.5 515.5,601.5 515.5,644.5C 472.5,644.5 429.5,644.5 386.5,644.5C 386.5,601.5 386.5,558.5 386.5,515.5 Z"/></g>
<g><path style="opacity:1" fill="#feffd7" d="M 515.5,515.5 C 558.5,515.5 601.5,515.5 644.5,515.5C 644.5,558.5 644.5,601.5 644.5,644.5C 601.5,644.5 558.5,644.5 515.5,644.5C 515.5,601.5 515.5,558.5 515.5,515.5 Z"/></g>
<g><path style="opacity:1" fill="#7b9c5b" d="M 644.5,515.5 C 687.5,515.5 730.5,515.5 773.5,515.5C 773.5,558.5 773.5,601.5 773.5,644.5C 730.5,644.5 687.5,644.5 644.5,644.5C 644.5,601.5 644.5,558.5 644.5,515.5 Z"/></g>
<g><path style="opacity:1" fill="#feffd7" d="M 773.5,515.5 C 816.5,515.5 859.5,515.5 902.5,515.5C 902.5,558.5 902.5,601.5 902.5,644.5C 859.5,644.5 816.5,644.5 773.5,644.5C 773.5,601.5 773.5,558.5 773.5,515.5 Z"/></g>
<g><path style="opacity:1" fill="#7b9c5b" d="M 902.5,515.5 C 945.5,515.5 988.5,515.5 1031.5,515.5C 1031.5,558.5 1031.5,601.5 1031.5,644.5C 988.5,644.5 945.5,644.5 902.5,644.5C 902.5,601.5 902.5,558.5 902.5,515.5 Z"/></g>
<g><path style="opacity:1" fill="#e4ebbe" d="M 1025.5,520.5 C 1027.14,522.203 1028.14,524.37 1028.5,527C 1027.95,527.925 1027.29,528.758 1026.5,529.5C 1025,528.248 1023.33,527.248 1021.5,526.5C 1022.84,524.471 1024.18,522.471 1025.5,520.5 Z"/></g>
<g><path style="opacity:1" fill="#7b9c5b" d="M -0.5,644.5 C 42.5,644.5 85.5,644.5 128.5,644.5C 128.5,687.5 128.5,730.5 128.5,773.5C 85.5,773.5 42.5,773.5 -0.5,773.5C -0.5,730.5 -0.5,687.5 -0.5,644.5 Z"/></g>
<g><path style="opacity:1" fill="#feffd7" d="M 128.5,644.5 C 171.5,644.5 214.5,644.5 257.5,644.5C 257.5,687.5 257.5,730.5 257.5,773.5C 214.5,773.5 171.5,773.5 128.5,773.5C 128.5,730.5 128.5,687.5 128.5,644.5 Z"/></g>
<g><path style="opacity:1" fill="#7b9c5b" d="M 257.5,644.5 C 300.5,644.5 343.5,644.5 386.5,644.5C 386.5,687.5 386.5,730.5 386.5,773.5C 343.5,773.5 300.5,773.5 257.5,773.5C 257.5,730.5 257.5,687.5 257.5,644.5 Z"/></g>
<g><path style="opacity:1" fill="#feffd7" d="M 386.5,644.5 C 429.5,644.5 472.5,644.5 515.5,644.5C 515.5,687.5 515.5,730.5 515.5,773.5C 472.5,773.5 429.5,773.5 386.5,773.5C 386.5,730.5 386.5,687.5 386.5,644.5 Z"/></g>
<g><path style="opacity:1" fill="#7b9c5b" d="M 515.5,644.5 C 558.5,644.5 601.5,644.5 644.5,644.5C 644.5,687.5 644.5,730.5 644.5,773.5C 601.5,773.5 558.5,773.5 515.5,773.5C 515.5,730.5 515.5,687.5 515.5,644.5 Z"/></g>
<g><path style="opacity:1" fill="#feffd7" d="M 644.5,644.5 C 687.5,644.5 730.5,644.5 773.5,644.5C 773.5,687.5 773.5,730.5 773.5,773.5C 730.5,773.5 687.5,773.5 644.5,773.5C 644.5,730.5 644.5,687.5 644.5,644.5 Z"/></g>
<g><path style="opacity:1" fill="#7b9c5b" d="M 773.5,644.5 C 816.5,644.5 859.5,644.5 902.5,644.5C 902.5,687.5 902.5,730.5 902.5,773.5C 859.5,773.5 816.5,773.5 773.5,773.5C 773.5,730.5 773.5,687.5 773.5,644.5 Z"/></g>
<g><path style="opacity:1" fill="#fefed7" d="M 902.5,644.5 C 945.5,644.5 988.5,644.5 1031.5,644.5C 1031.5,687.5 1031.5,730.5 1031.5,773.5C 988.5,773.5 945.5,773.5 902.5,773.5C 902.5,730.5 902.5,687.5 902.5,644.5 Z"/></g>
<g><path style="opacity:1" fill="#798f5e" d="M 1022.5,649.5 C 1024.66,649.116 1026.33,649.783 1027.5,651.5C 1026.94,653.426 1026.77,655.426 1027,657.5C 1025.61,658.554 1024.11,658.72 1022.5,658C 1023.45,657.517 1024.45,657.351 1025.5,657.5C 1025.52,655.857 1024.85,654.524 1023.5,653.5C 1024.03,652.808 1024.69,652.308 1025.5,652C 1023.88,651.764 1022.88,650.931 1022.5,649.5 Z"/></g>
<g><path style="opacity:1" fill="#feffd7" d="M -0.5,773.5 C 42.5,773.5 85.5,773.5 128.5,773.5C 128.5,816.5 128.5,859.5 128.5,902.5C 85.5,902.5 42.5,902.5 -0.5,902.5C -0.5,859.5 -0.5,816.5 -0.5,773.5 Z"/></g>
<g><path style="opacity:1" fill="#7b9c5b" d="M 128.5,773.5 C 171.5,773.5 214.5,773.5 257.5,773.5C 257.5,816.5 257.5,859.5 257.5,902.5C 214.5,902.5 171.5,902.5 128.5,902.5C 128.5,859.5 128.5,816.5 128.5,773.5 Z"/></g>
<g><path style="opacity:1" fill="#feffd7" d="M 257.5,773.5 C 300.5,773.5 343.5,773.5 386.5,773.5C 386.5,816.5 386.5,859.5 386.5,902.5C 343.5,902.5 300.5,902.5 257.5,902.5C 257.5,859.5 257.5,816.5 257.5,773.5 Z"/></g>
<g><path style="opacity:1" fill="#7b9c5b" d="M 386.5,773.5 C 429.5,773.5 472.5,773.5 515.5,773.5C 515.5,816.5 515.5,859.5 515.5,902.5C 472.5,902.5 429.5,902.5 386.5,902.5C 386.5,859.5 386.5,816.5 386.5,773.5 Z"/></g>
<g><path style="opacity:1" fill="#feffd7" d="M 515.5,773.5 C 558.5,773.5 601.5,773.5 644.5,773.5C 644.5,816.5 644.5,859.5 644.5,902.5C 601.5,902.5 558.5,902.5 515.5,902.5C 515.5,859.5 515.5,816.5 515.5,773.5 Z"/></g>
<g><path style="opacity:1" fill="#7b9c5b" d="M 644.5,773.5 C 687.5,773.5 730.5,773.5 773.5,773.5C 773.5,816.5 773.5,859.5 773.5,902.5C 730.5,902.5 687.5,902.5 644.5,902.5C 644.5,859.5 644.5,816.5 644.5,773.5 Z"/></g>
<g><path style="opacity:1" fill="#feffd7" d="M 773.5,773.5 C 816.5,773.5 859.5,773.5 902.5,773.5C 902.5,816.5 902.5,859.5 902.5,902.5C 859.5,902.5 816.5,902.5 773.5,902.5C 773.5,859.5 773.5,816.5 773.5,773.5 Z"/></g>
<g><path style="opacity:1" fill="#7b9c5b" d="M 902.5,773.5 C 945.5,773.5 988.5,773.5 1031.5,773.5C 1031.5,816.5 1031.5,859.5 1031.5,902.5C 988.5,902.5 945.5,902.5 902.5,902.5C 902.5,859.5 902.5,816.5 902.5,773.5 Z"/></g>
<g><path style="opacity:1" fill="#eaefc4" d="M 1022.5,778.5 C 1027.8,778.549 1028.8,780.715 1025.5,785C 1026.62,785.249 1027.62,785.749 1028.5,786.5C 1026.5,787.833 1024.5,787.833 1022.5,786.5C 1023.75,784.999 1024.75,783.332 1025.5,781.5C 1024.01,780.859 1023.01,779.859 1022.5,778.5 Z"/></g>
<g><path style="opacity:1" fill="#7b9c5b" d="M -0.5,902.5 C 42.5,902.5 85.5,902.5 128.5,902.5C 128.5,945.5 128.5,988.5 128.5,1031.5C 85.5,1031.5 42.5,1031.5 -0.5,1031.5C -0.5,988.5 -0.5,945.5 -0.5,902.5 Z"/></g>
<g><path style="opacity:1" fill="#fefed7" d="M 128.5,902.5 C 171.5,902.5 214.5,902.5 257.5,902.5C 257.5,945.5 257.5,988.5 257.5,1031.5C 214.5,1031.5 171.5,1031.5 128.5,1031.5C 128.5,988.5 128.5,945.5 128.5,902.5 Z"/></g>
<g><path style="opacity:1" fill="#7b9c5b" d="M 257.5,902.5 C 300.5,902.5 343.5,902.5 386.5,902.5C 386.5,945.5 386.5,988.5 386.5,1031.5C 343.5,1031.5 300.5,1031.5 257.5,1031.5C 257.5,988.5 257.5,945.5 257.5,902.5 Z"/></g>
<g><path style="opacity:1" fill="#fefed7" d="M 386.5,902.5 C 429.5,902.5 472.5,902.5 515.5,902.5C 515.5,945.5 515.5,988.5 515.5,1031.5C 472.5,1031.5 429.5,1031.5 386.5,1031.5C 386.5,988.5 386.5,945.5 386.5,902.5 Z"/></g>
<g><path style="opacity:1" fill="#7b9c5b" d="M 515.5,902.5 C 558.5,902.5 601.5,902.5 644.5,902.5C 644.5,945.5 644.5,988.5 644.5,1031.5C 601.5,1031.5 558.5,1031.5 515.5,1031.5C 515.5,988.5 515.5,945.5 515.5,902.5 Z"/></g>
<g><path style="opacity:1" fill="#fefed7" d="M 644.5,902.5 C 687.5,902.5 730.5,902.5 773.5,902.5C 773.5,945.5 773.5,988.5 773.5,1031.5C 730.5,1031.5 687.5,1031.5 644.5,1031.5C 644.5,988.5 644.5,945.5 644.5,902.5 Z"/></g>
<g><path style="opacity:1" fill="#7b9c5b" d="M 773.5,902.5 C 816.5,902.5 859.5,902.5 902.5,902.5C 902.5,945.5 902.5,988.5 902.5,1031.5C 859.5,1031.5 816.5,1031.5 773.5,1031.5C 773.5,988.5 773.5,945.5 773.5,902.5 Z"/></g>
<g><path style="opacity:1" fill="#fefed7" d="M 902.5,902.5 C 945.5,902.5 988.5,902.5 1031.5,902.5C 1031.5,945.5 1031.5,988.5 1031.5,1031.5C 988.5,1031.5 945.5,1031.5 902.5,1031.5C 902.5,988.5 902.5,945.5 902.5,902.5 Z"/></g>
<g><path style="opacity:1" fill="#738a58" d="M 1024.5,907.5 C 1025.76,908.514 1026.43,910.014 1026.5,912C 1026.17,913.5 1025.83,915 1025.5,916.5C 1024.96,914.031 1023.96,911.864 1022.5,910C 1023.38,909.292 1024.05,908.458 1024.5,907.5 Z"/></g>
<g><path style="opacity:1" fill="#7a905f" d="M 650.5,1018.5 C 651.552,1018.35 652.552,1018.52 653.5,1019C 653.324,1021.67 652.657,1024.5 651.5,1027.5C 649.961,1024.52 649.627,1021.52 650.5,1018.5 Z"/></g>
<g><path style="opacity:1" fill="#7f9464" d="M 906.5,1017.5 C 908.048,1017.82 908.715,1018.82 908.5,1020.5C 909.822,1020.33 910.989,1020.66 912,1021.5C 912.808,1023.58 912.641,1025.58 911.5,1027.5C 910.548,1025.95 910.215,1024.29 910.5,1022.5C 909.5,1022.5 908.5,1022.5 907.5,1022.5C 907.66,1024.2 907.494,1025.87 907,1027.5C 906.502,1024.18 906.335,1020.85 906.5,1017.5 Z"/></g>
<g><path style="opacity:1" fill="#5e5e4f" d="M 1028.5,1020.5 C 1029.24,1020.37 1029.91,1020.54 1030.5,1021C 1027.62,1024.59 1024.28,1027.25 1020.5,1029C 1023.37,1026.3 1026.04,1023.46 1028.5,1020.5 Z"/></g>
<g><path style="opacity:1" fill="#8a9d6d" d="M 394.5,1018.5 C 396.388,1020.99 397.055,1023.99 396.5,1027.5C 394.801,1027.66 393.134,1027.49 391.5,1027C 390.941,1026.28 390.608,1025.44 390.5,1024.5C 391.254,1022.03 392.587,1020.03 394.5,1018.5 Z"/></g>
<g><path style="opacity:1" fill="#e0e8bb" d="M 777.5,1020.5 C 779.167,1020.5 780.833,1020.5 782.5,1020.5C 782.665,1023.52 782.498,1026.52 782,1029.5C 780.186,1030.76 778.353,1030.76 776.5,1029.5C 777.729,1028.72 779.062,1028.22 780.5,1028C 776.487,1026.84 775.487,1024.34 777.5,1020.5 Z"/></g>
<g><path style="opacity:1" fill="#e5ebbf" d="M 263.5,1020.5 C 264.978,1020.24 266.311,1020.57 267.5,1021.5C 266.675,1022.39 265.675,1022.72 264.5,1022.5C 264.5,1023.5 264.5,1024.5 264.5,1025.5C 265.675,1025.28 266.675,1025.61 267.5,1026.5C 265.994,1027.75 264.494,1027.75 263,1026.5C 262.322,1024.4 262.489,1022.4 263.5,1020.5 Z"/></g>
<g><path style="opacity:1" fill="#e9efc4" d="M 521.5,1020.5 C 524.95,1019.76 526.616,1021.09 526.5,1024.5C 522.029,1024.67 521.696,1025.51 525.5,1027C 520.57,1027.43 519.237,1025.26 521.5,1020.5 Z"/></g>
<g><path style="opacity:1" fill="#e5ebbf" d="M 4.5,1020.5 C 6.14387,1020.29 7.64387,1020.62 9,1021.5C 9.49546,1023.47 9.66212,1025.47 9.5,1027.5C 7.5,1027.5 5.5,1027.5 3.5,1027.5C 3.21958,1024.61 4.55291,1023.11 7.5,1023C 5.88066,1022.76 4.88066,1021.93 4.5,1020.5 Z"/></g>
<g><path style="opacity:1" fill="#8da070" d="M 133.5,1017.5 C 135.048,1017.82 135.715,1018.82 135.5,1020.5C 139.225,1020.78 140.392,1022.78 139,1026.5C 137.301,1027.41 135.467,1027.74 133.5,1027.5C 133.5,1024.17 133.5,1020.83 133.5,1017.5 Z"/></g>
</svg>
