<?xml version="1.0" encoding="UTF-8"?>
<svg id="Layer_1" data-name="Layer 1" xmlns="http://www.w3.org/2000/svg" viewBox="0 0 474.26 292.67">
  <defs>
    <style>
      .cls-1 {
        fill: #f3f000;
      }

      .cls-2 {
        fill: #2dd92d;
      }

      .cls-3 {
        fill: red;
      }

      .cls-4 {
        fill: #3e96ee;
      }
    </style>
  </defs>
  <circle class="cls-4" cx="238.09" cy="146.33" r="146.33"/>
  <ellipse class="cls-2" cx="237.13" cy="147.78" rx="237.13" ry="52.16"/>
  <g>
    <path class="cls-1" d="M131.01,218.29c-3.1,0-6.07-.5-8.81-1.49-4-1.44-7.4-3.73-10.1-6.79-2.71-3.06-4.66-6.82-5.81-11.17-1.14-4.31-1.31-9.05-.51-14.09.77-4.88,2.25-9.64,4.38-14.14,2.13-4.5,4.81-8.58,7.97-12.15,3.18-3.59,6.88-6.61,10.99-8.97,4.17-2.4,8.73-3.9,13.55-4.46.02,0,.03,0,.05,0,.94-.1,1.92-.14,2.92-.14.82,0,1.68.03,2.55.1,2.02.15,4.01.57,5.94,1.25,1.98.7,3.84,1.7,5.51,2.99,1.8,1.38,3.28,3.16,4.4,5.31,1.12,2.15,1.78,4.7,1.95,7.59.17,2.77-.24,5.99-1.2,9.56-.3,1.12-1.11,1.99-2.13,2.32l1.9-.09s.09,0,.14,0c.95,0,1.86.46,2.46,1.26.64.83.87,1.95.62,2.99-.37,1.61-.79,3.31-1.23,5.08,2.07-2.82,4.57-5.14,7.48-6.92-.26-.17-.49-.38-.69-.63-.85-1.02-1.05-2.5-.51-3.74l5.98-13.62c.37-.83,1.03-1.47,1.84-1.78,1.53-.56,3.2-1.02,4.97-1.36,1.53-.28,3.29-.45,5.24-.51.23,0,.46-.01.69-.01,1.81,0,3.78.2,5.86.6.05.01.09.02.13.03,1.37.33,2.9.78,4.55,1.34,1.95.67,3.78,1.75,5.44,3.22,1.71,1.52,3.14,3.56,4.24,6.09,1.11,2.55,1.65,5.66,1.65,9.53,0,.77-.14,1.75-.46,3.19l-.06.25c-.27,1.19-.61,2.55-1.02,4.06l-.43,1.59c-.38,1.36-.79,2.82-1.24,4.36-.43,1.5-.88,3.01-1.34,4.49l-1.23,4c-1.22,3.95-2.57,8.27-4.01,12.83-.35,1.12-1.22,1.96-2.29,2.23l-17.37,4.36c-.24.06-.49.09-.72.09-.94,0-1.86-.45-2.47-1.27-.73-.97-.91-2.29-.48-3.44-1.05.13-2.11.19-3.17.19-1.81,0-3.6-.23-5.33-.67-1.85-.47-3.52-1.23-4.99-2.26-1.59-1.12-2.88-2.6-3.81-4.41-.95-1.84-1.44-4.02-1.44-6.49v-.04c0-.22,0-.44.01-.67-.64,1.35-1.34,2.67-2.09,3.97-1.57,2.72-3.51,5.21-5.77,7.41-2.27,2.21-4.95,4.11-7.96,5.64-3.04,1.55-6.58,2.59-10.52,3.1-1.42.19-2.84.29-4.21.29h0ZM185.9,193.72c.16.07.34.13.56.16.03-.09.18-.56.18-.56.37-1.13.75-2.28,1.15-3.4-.48.35-1.38,1.22-1.86,3.62,0,.07-.02.13-.03.18ZM141.45,168.18c-.13,0-.27.01-.42.03-.01,0-.03,0-.04,0-1.59.2-3.04.76-4.42,1.72-1.5,1.04-2.85,2.36-4.03,3.92-1.22,1.6-2.24,3.37-3.03,5.26-.8,1.9-1.35,3.8-1.64,5.67-.3,1.9-.39,3.64-.29,5.18.09,1.27.37,2.35.83,3.21.1.18.21.35.32.51-.06-.41-.05-.83.04-1.24l2.89-14.45c.3-1.52,1.53-2.63,2.97-2.7l8.17-.38c-.45-.74-.62-1.66-.46-2.54.49-2.64.05-3.59-.11-3.82-.15-.23-.27-.38-.8-.38ZM296.57,215.83c-3.34,0-6.21-.63-8.53-1.86-2.46-1.31-4.46-3.15-5.94-5.48-1.4-2.21-2.38-4.78-2.92-7.62-.48-2.55-.73-5.23-.74-7.97-1.49,5.21-3.41,10.83-5.73,16.82-.47,1.21-1.54,2.03-2.76,2.1l-16.16,1c-.06,0-.12,0-.18,0-1,0-1.95-.51-2.56-1.38-.64-.93-.8-2.13-.43-3.22l.53-1.54c1.69-4.97,3.1-9.51,4.2-13.48.5-1.83.98-3.67,1.39-5.46.15-.65.29-1.28.41-1.87-.71,2.22-1.5,4.53-2.37,6.9l-.36.97c-1.18,3.19-2.35,6.5-3.47,9.83-.33.99-1.07,1.76-2.01,2.09-2,.69-4.4,1.2-7.37,1.53-1.07.12-2.2.18-3.37.18-2.1,0-4.41-.2-6.86-.58-.96-.15-1.8-.77-2.29-1.67s-.56-1.99-.21-2.97c1.63-4.46,2.98-8.52,4-12.06.35-1.27.69-2.54,1-3.79,0,0-.48,1.21-.48,1.21-.25.62-.47,1.2-.68,1.74-.74,1.96-1.44,3.85-2.06,5.61l-1.73,5.03-.3.88-.47,1.47c-.38,1.22-.74,2.4-1.08,3.51-.39,1.3-1.47,2.23-2.74,2.36l-14.94,1.46c-.1.01-.19.01-.29.01-.94,0-1.84-.45-2.45-1.24-.67-.87-.9-2.04-.61-3.12l1.01-3.78c.49-1.84.97-3.61,1.43-5.31,0-.01,0-.03.01-.04.33-1.14.64-2.32.94-3.49l.55-2.11.59-2.23c.15-.56.28-1.09.41-1.6l.22-.88c.17-.66.31-1.18.43-1.59.61-2.44,1.59-5.47,2.99-9.27l1.72-4.64c.99-2.65,2.13-5.67,3.4-9,.33-.87.98-1.56,1.8-1.89.74-.31,1.77-.61,3.22-.97l.27-.06c1.46-.35,3.02-.67,4.64-.96,1.33-.24,2.63-.45,3.87-.64l.73-.11c1.3-.19,2.29-.28,3.04-.28.24,0,.46.01.66.03.96.09,1.83.64,2.37,1.49.31.49.48,1.04.53,1.61,1.21-.41,2.52-.77,3.88-1.08,1.53-.35,3.08-.53,4.62-.53.41,0,.82.01,1.23.04.03,0,.06,0,.1,0,1.65.15,3.06.66,4.21,1.52,1.05.78,1.92,1.75,2.58,2.89.31.54.59,1.11.82,1.71.15-.09.31-.18.47-.28,1.56-.93,3.15-1.81,4.73-2.61,1.61-.81,3.21-1.52,4.73-2.09,1.66-.63,3.13-.93,4.49-.93h.36c3.66.11,5.69,2,6.75,3.57,1.25,1.87,2.03,4.23,2.3,7.03.24,2.48.15,5.28-.27,8.35-.01.09-.02.17-.04.26,1.3-2.75,2.89-5.5,4.76-8.2l.44-.62c1.8-2.61,4.14-5.04,6.96-7.19,2.82-2.15,5.88-3.78,9.11-4.83,2.48-.81,5.04-1.22,7.59-1.22.83,0,1.67.04,2.5.13,3.59.37,6.95,1.81,9.99,4.29,1.87,1.53,3.3,3.71,4.25,6.51.84,2.47,1.36,5.13,1.54,7.92.18,2.74.08,5.45-.32,8.06-.42,2.77-1.17,5.15-2.23,7.05-.58,1.03-1.61,1.66-2.73,1.66-1.55,0-3.23.07-5.02.2l3.33.36c1.02.11,1.93.74,2.44,1.7.51.96.56,2.12.13,3.12-1.09,2.57-2.44,5.03-4.02,7.31-1.64,2.37-3.62,4.47-5.9,6.26-2.28,1.79-4.9,3.23-7.79,4.28-2.9,1.06-6.2,1.62-9.81,1.68-.15.01-.31.01-.46.01h0ZM298.99,194.53c.44,0,.61-.06.61-.06.1-.04.21-.12.32-.24.23-.23.47-.55.71-.94,0,0,.38-.62.41-.66-.79.04-1.55.08-2.29.1-.05.38-.05.77,0,1.17.04.28.09.48.16.64.03,0,.05,0,.08,0ZM340.14,214.53c-2.86,0-5.35-.47-7.38-1.38-2.18-.98-3.97-2.28-5.32-3.87-1.37-1.61-2.35-3.45-2.89-5.47-.51-1.9-.7-3.73-.58-5.46.07-.93.48-1.79,1.16-2.38.62-.55,1.45-1.14,2.54-1.82l3.57-2.19c.78-.48,1.55-.95,2.32-1.42l1.15-.7c.69-.42,1.28-.79,1.77-1.13-.16-.08-.33-.16-.49-.25-1.27-.67-2.42-1.48-3.42-2.42-1.35-1.27-2.19-2.93-2.44-4.81-.31-2.34-.1-4.62.62-6.78.66-1.98,1.62-3.83,2.86-5.5,1.17-1.58,2.54-3.04,4.08-4.35,1.45-1.23,2.91-2.33,4.35-3.27,1.41-.92,2.78-1.72,4.05-2.38l.8-.41c.91-.45,1.64-.8,2.25-1.06,0,0,.02-.01.03-.01,2.6-1.08,5.41-1.77,8.34-2.02.85-.08,1.69-.11,2.52-.11,2.03,0,4.01.23,5.89.68,2.77.67,5.22,1.87,7.29,3.57,2.33,1.91,3.8,4.41,4.39,7.42.29,1.49-.37,3-1.61,3.72l-12.26,7.05c-.27.16-.55.27-.84.33h.02c1.39.49,2.65,1.22,3.77,2.18,1.09.94,2.03,2.05,2.78,3.3.77,1.27,1.32,2.67,1.64,4.15.34,1.55.37,3.12.1,4.65-.45,2.7-1.41,5.37-2.86,7.96-1.46,2.61-3.5,4.99-6.05,7.06-2.5,2.03-5.59,3.71-9.18,5-3.57,1.28-7.74,1.98-12.41,2.09-.19,0-.37.01-.55.01h0ZM347.39,193.67s.09,0,.14,0c.25,0,.54-.04.85-.12.36-.09.72-.21,1.07-.36-.04-.02-.08-.04-.12-.05-.95-.43-2.03-.84-3.22-1.21l-3.62-1.14h-.04c.23.45.45.87.64,1.21.2.36.43.64.67.84.17.14.46.27.82.36.7.17,1.65.33,2.82.46h0ZM355.87,175.26c.44.2.89.39,1.35.59.86.37,1.7.71,2.48,1.03-.41-.52-.92-.96-1.56-1.35-.37-.23-.88-.34-1.51-.34-.11,0-.22,0-.33.01-.14.02-.29.04-.43.06h0Z"/>
    <path class="cls-3" d="M163.49,183.18c.67-2.59,1.27-5.03,1.8-7.31l-29.87,1.4-2.88,14.46,12.7-.23c-.14.36-.48.84-1.01,1.44-.53.6-1.25,1.19-2.16,1.79-.92.6-2.01,1.14-3.28,1.63s-2.68.79-4.22.89c-2.07.15-3.78-.1-5.12-.78-1.35-.67-2.38-1.67-3.1-2.99-.72-1.32-1.14-2.89-1.26-4.71s-.01-3.81.32-5.99c.34-2.18.96-4.36,1.87-6.53.91-2.18,2.07-4.18,3.46-6.03,1.39-1.84,2.98-3.38,4.76-4.63,1.78-1.24,3.7-2,5.77-2.25,1.87-.26,3.28.34,4.22,1.79.94,1.45,1.15,3.6.61,6.46l16.23-2.33c.86-3.22,1.23-6.01,1.08-8.4-.14-2.38-.66-4.43-1.55-6.14s-2.04-3.11-3.46-4.2c-1.42-1.09-2.97-1.93-4.65-2.53-1.68-.6-3.4-.96-5.16-1.09-1.76-.13-3.4-.12-4.94.04-4.42.52-8.55,1.88-12.37,4.08-3.82,2.2-7.22,4.98-10.17,8.32-2.96,3.34-5.44,7.13-7.43,11.35-2,4.23-3.36,8.62-4.08,13.18s-.58,8.76.43,12.6c1.01,3.84,2.69,7.09,5.05,9.76,2.35,2.67,5.29,4.64,8.8,5.91,3.51,1.27,7.39,1.62,11.62,1.05,3.6-.47,6.78-1.4,9.52-2.8,2.74-1.4,5.13-3.1,7.18-5.09,2.04-2,3.77-4.23,5.19-6.69,1.42-2.46,2.62-5,3.6-7.62.99-2.63,1.82-5.23,2.49-7.83ZM183.39,191.4c-.19,1.02-.13,1.84.18,2.45.31.61.76,1.09,1.35,1.42.59.33,1.28.54,2.06.61.78.08,1.53.04,2.24-.12l.15-.35c.23-.56.48-1.27.76-2.12l.1-.29c.38-1.17.77-2.34,1.17-3.49l.33-.96c.22-.62.41-1.21.6-1.77l.66-2.05s.03-.09.04-.13l.03-.08v-.02c-2.27-.56-4.31-.27-6.11.88-1.8,1.15-2.99,3.15-3.56,6.01h0ZM210.33,176.65c-.26,1.14-.58,2.45-.98,3.92l-.43,1.58c-.37,1.34-.78,2.78-1.22,4.31-.43,1.48-.87,2.96-1.32,4.45l-1.23,4c-1.22,3.96-2.55,8.24-3.99,12.82l-17.34,4.37c.33-.77.64-1.53.92-2.3.19-.53.4-1.08.64-1.64l1-2.34c-1.18.56-2.54,1-4.05,1.3-1.52.3-3.06.46-4.62.46s-3.09-.19-4.58-.58c-1.49-.38-2.82-.98-3.98-1.8-1.16-.82-2.08-1.89-2.77-3.22-.69-1.33-1.03-2.94-1.03-4.83.05-4.5,1.18-8.48,3.41-11.95,2.23-3.47,5.09-6.15,8.6-8.04,1.61-.87,3.23-1.54,4.87-2.03,1.64-.49,3.2-.8,4.69-.96,1.49-.15,2.89-.19,4.19-.12s2.45.22,3.45.42c.05-.51.11-1,.18-1.46.07-.46.09-.89.07-1.3-.02-.41-.15-.78-.39-1.11-.24-.33-.64-.65-1.21-.96-1.28-.61-2.88-.84-4.8-.69-1.92.15-3.78.46-5.58.92-2.13.56-4.31,1.25-6.54,2.07l5.97-13.64c1.38-.51,2.87-.92,4.48-1.23,1.37-.26,2.96-.41,4.76-.46,1.8-.05,3.77.13,5.9.54,1.28.3,2.7.73,4.26,1.26,1.56.54,3.02,1.4,4.37,2.61,1.35,1.2,2.47,2.84,3.38,4.9.9,2.07,1.35,4.76,1.35,8.08,0,.48-.12,1.28-.37,2.4l-.06.25ZM273.43,160.1h-.23c-1-.01-2.16.23-3.49.73-1.43.54-2.9,1.19-4.42,1.96-1.52.77-3.04,1.6-4.53,2.5-1.5.9-2.82,1.71-3.96,2.42-.14-.82-.33-1.68-.57-2.58-.24-.9-.57-1.72-1-2.46-.43-.74-.99-1.37-1.68-1.88-.69-.51-1.58-.82-2.68-.92-1.66-.1-3.33.04-5,.42-1.66.38-3.19.83-4.57,1.35-1.62.62-3.19,1.33-4.71,2.15l1.57-5.46c-.57-.05-1.57.02-3,.23l-.72.11c-1.21.18-2.47.39-3.78.63-1.57.28-3.06.59-4.46.92l-.26.06c-1.27.31-2.2.58-2.78.82-1.26,3.32-2.39,6.31-3.39,8.98l-1.72,4.64c-1.36,3.7-2.32,6.7-2.89,9-.12.37-.25.87-.41,1.5l-.22.88c-.13.51-.27,1.07-.42,1.65l-.58,2.22-.54,2.1c-.31,1.21-.63,2.4-.96,3.58-.46,1.69-.93,3.46-1.42,5.3l-1,3.78,14.92-1.46c.34-1.14.71-2.33,1.09-3.57l.48-1.51.31-.92c.08-.23.15-.46.24-.7l1.5-4.37c.63-1.8,1.33-3.71,2.09-5.72.21-.54.44-1.14.7-1.78l.48-1.22c.45-1.13.98-2.18,1.57-3.15.59-.98,1.24-1.78,1.93-2.42.69-.64,1.46-.93,2.32-.88.52.05.86.45,1,1.19.14.74.16,1.71.04,2.89-.12,1.18-.35,2.51-.72,4-.35,1.49-.75,3-1.18,4.54-1.05,3.64-2.4,7.75-4.07,12.31,3.57.57,6.71.69,9.42.38,2.71-.31,4.95-.77,6.71-1.38,1.14-3.39,2.31-6.7,3.5-9.93l.35-.97c1.05-2.88,1.97-5.64,2.79-8.27.76-1.49,1.52-2.64,2.28-3.46s1.78-1.18,3.07-1.08c.52.05.83.53.93,1.42.09.9.05,2.06-.14,3.5s-.5,3.08-.93,4.92c-.43,1.85-.91,3.72-1.43,5.62-1.12,4.06-2.54,8.62-4.26,13.7l-.52,1.54,16.13-1c3.33-8.62,5.78-16.36,7.35-23.24.67-2.92,1.19-5.78,1.57-8.58.38-2.79.46-5.3.25-7.5-.21-2.21-.78-4-1.71-5.39-.93-1.39-2.33-2.1-4.24-2.15h0ZM312.6,172.94c0-.54-.11-1-.32-1.38-.21-.38-.58-.6-1.11-.65-2.67-.31-4.71.12-6.14,1.27s-2.55,2.68-3.36,4.58c.57.15,1.32.23,2.25.23s1.89-.01,2.89-.04c.8-.02,1.56-.05,2.28-.09l1.04-.06c.64-.03,1.15-.05,1.53-.05.24-.67.45-1.33.64-2,.19-.67.28-1.27.28-1.81h0ZM312.13,186.85l-1.81.17c-2.43.23-4.79.43-7.1.62-2.31.18-4.41.27-6.32.27-.29.46-.54,1.17-.75,2.12-.21.95-.26,1.91-.14,2.89.12.98.43,1.82.93,2.54.5.72,1.32,1.08,2.46,1.08.72,0,1.31-.1,1.79-.31.48-.21.91-.51,1.32-.92.4-.41.8-.92,1.18-1.54l.34-.55c.29-.48.61-1.02.95-1.6l17.06,1.85c-1,2.36-2.22,4.59-3.67,6.7-1.45,2.1-3.19,3.95-5.21,5.54-2.02,1.59-4.33,2.86-6.93,3.81-2.59.95-5.53,1.45-8.82,1.5-3.05.05-5.56-.45-7.53-1.5s-3.55-2.5-4.71-4.35c-1.16-1.85-1.97-3.98-2.43-6.39-.45-2.41-.68-4.92-.68-7.54,0-4.36.72-8.27,2.14-11.74,1.35-3.26,3.13-6.51,5.36-9.74l.42-.61c1.62-2.36,3.7-4.51,6.25-6.46,2.55-1.95,5.27-3.4,8.18-4.35,2.9-.95,5.85-1.27,8.85-.96,3,.31,5.78,1.51,8.35,3.62,1.38,1.13,2.44,2.78,3.18,4.96.74,2.18,1.19,4.51,1.36,7,.17,2.49.07,4.91-.29,7.27-.35,2.36-.96,4.31-1.82,5.85-2,0-4.18.1-6.53.31-1.76.15-3.55.31-5.36.48h0ZM362.52,173.31l12.24-7.06c-.43-2.2-1.5-4-3.2-5.41s-3.73-2.39-6.05-2.96c-2.33-.56-4.8-.73-7.44-.5-2.63.23-5.11.83-7.44,1.8-.55.24-1.24.56-2.06.98l-.79.4c-1.18.61-2.44,1.36-3.77,2.23-1.33.87-2.67,1.88-4.02,3.03-1.36,1.15-2.54,2.42-3.56,3.8-1.02,1.38-1.8,2.89-2.35,4.53-.54,1.64-.7,3.35-.46,5.14.14,1.08.6,1.98,1.39,2.72.78.74,1.68,1.38,2.7,1.92,1.02.54,2.07.97,3.17,1.3.73.22,1.38.41,1.96.58l.81.23,3.67,1.15c1.31.41,2.49.86,3.56,1.34,1.07.49,1.93.99,2.6,1.5.66.51.92,1.08.78,1.69-.14.61-.47,1.18-1,1.69-.53.51-1.12.93-1.78,1.27-.66.33-1.36.59-2.07.77-.71.18-1.37.24-1.99.19-1.33-.15-2.41-.33-3.24-.54s-1.52-.54-2.06-1c-.55-.46-1.02-1.05-1.42-1.76-.32-.57-.68-1.28-1.08-2.11l-.3-.65c-.66.51-1.57,1.11-2.7,1.8l-1.14.7c-.76.47-1.54.94-2.31,1.41l-3.55,2.18c-.93.58-1.63,1.08-2.11,1.5-.1,1.33.06,2.75.46,4.26.4,1.51,1.13,2.88,2.17,4.11,1.05,1.23,2.44,2.24,4.2,3.03,1.76.79,3.96,1.16,6.62,1.11,4.37-.1,8.19-.74,11.46-1.92,3.27-1.17,6.03-2.67,8.26-4.49,2.23-1.82,3.98-3.85,5.23-6.1,1.26-2.25,2.07-4.53,2.46-6.83.19-1.08.16-2.16-.07-3.26-.24-1.1-.64-2.12-1.21-3.07-.57-.95-1.27-1.78-2.1-2.49-.83-.72-1.77-1.25-2.81-1.61l-2.73-1.07c-.97-.38-2-.81-3.07-1.27-1.26-.54-2.44-1.08-3.56-1.61-1.12-.54-1.86-.99-2.24-1.34-.52-.46-.68-.93-.46-1.42.21-.49.65-.93,1.32-1.34.66-.41,1.45-.74,2.35-1,.9-.26,1.76-.43,2.56-.54,1.47-.1,2.7.15,3.7.77.99.62,1.83,1.36,2.49,2.23h0Z"/>
  </g>
  <g>
    <path class="cls-1" d="M83.66,145.85c-2.87,0-5.6-.47-8.14-1.38-3.69-1.34-6.84-3.46-9.34-6.3-2.5-2.84-4.31-6.33-5.37-10.36-1.05-4-1.21-8.39-.47-13.07.72-4.52,2.08-8.94,4.05-13.12,1.97-4.17,4.45-7.96,7.37-11.27,2.94-3.33,6.36-6.13,10.16-8.32,3.86-2.23,8.07-3.62,12.52-4.14.01,0,.03,0,.04,0,.87-.09,1.77-.13,2.7-.13.76,0,1.55.03,2.35.09,1.86.14,3.71.53,5.49,1.16,1.83.65,3.55,1.58,5.09,2.77,1.66,1.28,3.03,2.93,4.06,4.92,1.04,1.99,1.64,4.36,1.8,7.04.16,2.57-.22,5.56-1.11,8.88-.32,1.21-1.28,2.09-2.43,2.25l-15.03,2.16c-.13.02-.26.03-.39.03-.8,0-1.57-.35-2.13-.98-.65-.73-.93-1.76-.76-2.76.2-1.15.32-2.22.35-3.2.04-.92-.06-1.46-.15-1.75,0-.03-.01-.05-.02-.07,0,0-.08.01-.1.01-1.37.17-2.57.71-3.66,1.64-1.28,1.1-2.4,2.4-3.35,3.89-1,1.58-1.85,3.24-2.53,4.94-.7,1.75-1.21,3.29-1.53,4.57-.44,1.78-.72,3.54-.84,5.26-.11,1.52,0,2.85.31,3.95.25.86.62,1.48,1.18,1.95.36.3,1.01.46,1.86.46.19,0,.39,0,.59-.02,1.1-.08,2.05-.29,2.82-.65.81-.37,1.51-.83,2.08-1.36.57-.53,1.05-1.13,1.42-1.79.41-.72.74-1.49.99-2.26.4-1.3,1.53-2.17,2.78-2.17.05,0,.1,0,.15,0l16.9.94c.26.02.52.07.76.15.06-1.21.18-2.43.38-3.68.59-3.64,1.65-7.12,3.17-10.35,1.53-3.25,3.49-6.15,5.82-8.61,2.36-2.49,5.12-4.49,8.2-5.92,3.09-1.44,6.48-2.22,10.08-2.33h.04c.12,0,.24,0,.37,0,3.15,0,6.07.71,8.7,2.11,2.72,1.45,5.01,3.51,6.81,6.11,1.77,2.55,3.03,5.56,3.75,8.94.08.36.15.73.21,1.1.18-.43.37-.85.57-1.27,1.51-3.21,3.45-6.08,5.75-8.51,2.34-2.47,5.06-4.43,8.11-5.85,3.06-1.42,6.41-2.2,9.96-2.3h.04c.12,0,.24,0,.36,0,3.11,0,6.01.7,8.61,2.09,2.69,1.44,4.95,3.47,6.74,6.04,1.75,2.52,2.99,5.5,3.7,8.83.5,2.36.68,4.83.52,7.39l9.89-30.15c.39-1.18,1.39-2.01,2.55-2.1l16.39-1.28c.07,0,.14,0,.21,0,.9,0,1.76.45,2.32,1.23.6.84.77,1.95.46,2.95l-17.38,55.43c-.35,1.14-1.28,1.96-2.37,2.12l-17.65,2.63c-.13.02-.27.03-.4.03-.87,0-1.71-.42-2.27-1.16-.65-.86-.83-2.02-.49-3.06l3.33-10.15c-1.3,2.05-2.77,3.92-4.41,5.57-2.4,2.43-5.12,4.39-8.1,5.82-3.04,1.47-6.2,2.21-9.38,2.21-.11,0-.23,0-.34,0-3.16,0-6.09-.72-8.69-2.14-2.68-1.46-4.93-3.48-6.71-6.01-1.75-2.5-3-5.47-3.71-8.81-.08-.4-.16-.8-.23-1.21-.26.59-.54,1.18-.84,1.75-1.67,3.26-3.74,6.15-6.15,8.6-2.43,2.46-5.19,4.44-8.19,5.89-3.08,1.48-6.27,2.23-9.49,2.24-.11,0-.23,0-.34,0-3.2,0-6.16-.73-8.79-2.16-2.71-1.48-4.99-3.52-6.78-6.08-1.65-2.36-2.86-5.12-3.6-8.23-.83,2.18-1.87,4.19-3.09,6-1.89,2.79-4.14,5.18-6.68,7.13-2.5,1.92-5.31,3.47-8.33,4.62-2.97,1.13-6.07,1.91-9.2,2.32-1.31.19-2.62.28-3.89.28h0ZM134.8,123.17c.29,0,.63-.13,1.03-.38.71-.45,1.42-1.12,2.11-1.97.74-.91,1.41-2.01,1.99-3.25.58-1.23,1-2.52,1.26-3.84.21-1.12.45-2.44.69-3.93.21-1.29.28-2.52.23-3.65-.04-.81-.2-1.48-.48-1.98-.06-.02-.19-.06-.44-.08-.33.02-.72.21-1.17.57-.75.6-1.48,1.44-2.18,2.48-.74,1.11-1.4,2.37-1.94,3.75-.53,1.35-.9,2.69-1.08,3.98,0,.04-.01.09-.02.13-.17.89-.33,1.97-.47,3.21-.13,1.09-.16,2.14-.09,3.12.05.72.19,1.33.42,1.82.02,0,.04,0,.07.02.02,0,.04,0,.06,0h0ZM179.15,123.01c.28,0,.61-.12.99-.37.7-.45,1.4-1.1,2.07-1.94.72-.9,1.38-1.98,1.96-3.2.57-1.21.99-2.48,1.24-3.78.21-1.1.44-2.41.68-3.87.2-1.27.28-2.48.22-3.6-.04-.79-.19-1.43-.46-1.92-.06-.02-.18-.06-.41-.07-.31.02-.7.2-1.13.55-.73.59-1.46,1.42-2.14,2.44-.73,1.1-1.38,2.34-1.91,3.69-.52,1.33-.88,2.65-1.06,3.92,0,.04-.01.09-.02.13-.16.88-.32,1.95-.47,3.16-.13,1.07-.16,2.1-.09,3.07.05.7.19,1.29.4,1.76.01,0,.03,0,.05,0h.06Z"/>
    <path class="cls-3" d="M96.24,119.34c-.31,1-.73,1.97-1.27,2.9-.53.93-1.2,1.77-2,2.51-.8.74-1.74,1.36-2.83,1.86-1.09.5-2.34.8-3.76.9-1.91.14-3.39-.21-4.43-1.08-1.04-.86-1.78-2.03-2.2-3.51-.42-1.48-.57-3.18-.43-5.09.13-1.91.44-3.84.93-5.8.35-1.43.91-3.09,1.66-4.98.75-1.89,1.69-3.7,2.8-5.44,1.11-1.74,2.42-3.26,3.93-4.55,1.51-1.29,3.22-2.05,5.13-2.29l.18-.03c.8-.1,1.45.04,1.92.42.51.41.89,1,1.13,1.79.25.79.35,1.74.3,2.87-.04,1.12-.18,2.33-.4,3.62l14.99-2.15c.8-2.96,1.13-5.54,1-7.74-.13-2.2-.61-4.08-1.43-5.66-.82-1.58-1.89-2.86-3.2-3.87-1.31-1-2.74-1.78-4.3-2.33-1.55-.55-3.14-.88-4.76-1-1.62-.12-3.14-.11-4.56.03-4.09.48-7.9,1.73-11.43,3.76-3.53,2.03-6.66,4.59-9.39,7.66-2.73,3.08-5.02,6.57-6.86,10.46-1.84,3.89-3.1,7.94-3.76,12.14s-.53,8.07.4,11.6c.93,3.53,2.49,6.53,4.66,8.99,2.18,2.46,4.89,4.27,8.13,5.44,3.24,1.17,6.82,1.49,10.73.97,2.93-.38,5.79-1.1,8.56-2.15,2.78-1.05,5.31-2.45,7.59-4.19,2.29-1.74,4.29-3.87,6-6.37,1.71-2.51,2.99-5.43,3.83-8.77l-16.86-.92ZM144.81,105.53c-.07-1.37-.38-2.54-.94-3.51-.56-.96-1.51-1.47-2.86-1.52-.99,0-1.97.4-2.96,1.19-.99.8-1.92,1.84-2.79,3.14-.87,1.3-1.62,2.75-2.25,4.34-.63,1.59-1.05,3.16-1.28,4.7-.18.96-.35,2.09-.5,3.4-.16,1.3-.19,2.55-.1,3.76.09,1.2.36,2.25.81,3.14.45.89,1.21,1.41,2.28,1.55.94.1,1.9-.17,2.89-.8.99-.63,1.93-1.49,2.82-2.6.9-1.11,1.69-2.4,2.39-3.87.69-1.47,1.2-3,1.51-4.59.23-1.16.46-2.49.7-4.01.25-1.51.34-2.96.27-4.33ZM149.82,130.94c-2.2,2.22-4.65,3.97-7.36,5.28-2.71,1.3-5.48,1.95-8.3,1.95-2.87.05-5.46-.55-7.76-1.81-2.31-1.25-4.22-2.96-5.75-5.13-1.52-2.17-2.6-4.72-3.23-7.66-.63-2.94-.67-6.07-.13-9.4.54-3.32,1.5-6.46,2.89-9.4,1.39-2.94,3.14-5.52,5.25-7.73,2.11-2.22,4.54-3.96,7.3-5.24,2.76-1.28,5.75-1.96,8.97-2.06,2.82-.05,5.39.54,7.7,1.77,2.31,1.23,4.22,2.94,5.75,5.13,1.52,2.19,2.6,4.76,3.23,7.7s.67,6.07.13,9.4c-.54,3.32-1.57,6.47-3.09,9.43-1.52,2.96-3.38,5.55-5.58,7.77ZM186.46,118.41c-.68,1.45-1.47,2.72-2.35,3.82-.88,1.09-1.81,1.95-2.79,2.57-.98.62-1.92.88-2.85.79-1.06-.14-1.81-.65-2.26-1.53-.44-.88-.71-1.92-.8-3.1-.09-1.19-.06-2.42.1-3.71.16-1.29.32-2.4.5-3.35.22-1.52.64-3.07,1.26-4.64.62-1.57,1.36-3,2.22-4.28.86-1.28,1.78-2.32,2.75-3.1.97-.79,1.94-1.18,2.92-1.18,1.33.05,2.27.55,2.82,1.5.55.95.86,2.1.93,3.46.07,1.36-.02,2.78-.27,4.28-.24,1.5-.48,2.82-.7,3.96-.31,1.57-.81,3.08-1.5,4.53h0ZM202.28,104.46c-.62-2.9-1.68-5.43-3.19-7.6s-3.4-3.85-5.67-5.07c-2.28-1.21-4.81-1.8-7.6-1.75-3.19.09-6.14.77-8.86,2.03-2.72,1.26-5.12,2.98-7.2,5.17-2.08,2.19-3.81,4.73-5.18,7.63-1.37,2.9-2.32,5.99-2.85,9.27-.53,3.28-.49,6.37.13,9.27.62,2.9,1.68,5.42,3.19,7.56,1.5,2.14,3.4,3.83,5.67,5.07,2.28,1.24,4.83,1.83,7.66,1.78,2.79,0,5.52-.64,8.19-1.92s5.1-3.02,7.27-5.21c2.17-2.19,4-4.74,5.51-7.67,1.5-2.92,2.52-6.03,3.05-9.31s.48-6.37-.14-9.27ZM218.28,82.2l-18.59,56.41,17.6-2.61,17.34-55.07-16.36,1.27Z"/>
    <g>
      <path class="cls-3" d="M250.63,143.96c-.49,0-.95-.24-1.23-.65-.29-.42-.35-.95-.16-1.42,2.65-6.55,9.54-24.61,9.54-29.39,0-.28-.01-.47-.03-.59-2.03.06-3.94,2.19-5.66,6.35-2.32,5.62-5.89,17.66-5.92,17.78-.18.61-.72,1.03-1.35,1.07,0,0-17.12,1.01-17.15,1.01-.46,0-.9-.21-1.18-.58-.3-.39-.4-.9-.25-1.37l16.42-52.49c.18-.57.68-.98,1.27-1.04l17.86-1.94c.05,0,.11,0,.16,0,.46,0,.89.21,1.18.57.32.41.41.95.24,1.43l-5.75,16.15c3.33-.91,7.06-1.45,10.31-1.45,7.84,0,11.65,3.51,11.65,10.72,0,9.48-10.06,33.48-10.49,34.5-.23.54-.76.9-1.35.92,0,0-18.1.43-18.11.43Z"/>
      <path class="cls-1" d="M262.95,82.19l-6.77,19.01c3.82-1.44,8.71-2.3,12.75-2.3,6.48,0,10.15,2.38,10.15,9.22,0,9.29-10.37,33.92-10.37,33.92l-18.07.43s9.65-23.83,9.65-29.95c0-1.15-.14-2.09-1.44-2.09-3.67,0-5.91,4.32-7.13,7.27-2.38,5.76-5.98,17.93-5.98,17.93l-17.07,1.01,16.42-52.49,17.86-1.94M262.95,79.19c-.11,0-.22,0-.33.02l-17.86,1.94c-1.19.13-2.18.95-2.54,2.09l-16.42,52.49c-.29.94-.11,1.97.5,2.74.57.73,1.44,1.15,2.36,1.15.06,0,.12,0,.18,0l17.07-1.01c1.26-.07,2.34-.93,2.7-2.14.04-.12,3.58-12.09,5.87-17.64.95-2.29,1.83-3.63,2.56-4.4-1.12,5.8-5.98,18.97-9.19,26.9-.38.94-.26,2,.31,2.83.56.81,1.48,1.29,2.47,1.29.02,0,.05,0,.07,0l18.07-.43c1.18-.03,2.23-.75,2.69-1.83.11-.25,2.66-6.32,5.25-13.64,3.55-10.03,5.36-17.25,5.36-21.44,0-8.11-4.43-12.22-13.15-12.22-2.51,0-5.29.31-7.98.85l4.83-13.55c.35-.97.17-2.06-.47-2.87-.57-.72-1.44-1.14-2.35-1.14h0Z"/>
    </g>
    <g>
      <path class="cls-3" d="M298.21,144.59c-.44,0-.87-.2-1.16-.54-.36-.44-.45-1.05-.21-1.57.42-.93.83-1.88,1.25-2.84-1.9.46-3.93.7-6,.7-8.7,0-14.1-4.33-14.1-11.29,0-14.55,13.43-23.25,26.41-23.25,1.16,0,2.3.07,3.42.21.03-.23.05-.45.05-.66,0-.9-2.12-1.38-4.12-1.38-3.89,0-9.08,1.44-12.65,2.78-.17.06-.35.1-.53.1-.41,0-.81-.17-1.1-.48-.41-.45-.51-1.1-.25-1.66l6.05-12.82c.16-.34.44-.61.79-.75,3.18-1.31,7.57-1.77,10.36-1.77,13.27,0,20.58,6.36,20.58,17.92,0,2.69-3.01,12.62-9.48,31.25l-.32.92c-.17.49-.57.85-1.08.97l-17.57,4.1c-.11.03-.23.04-.34.04ZM305.42,118.38c-3.31,0-6.21,2.93-6.21,6.28,0,1.44,1.61,1.74,2.96,1.74.16,0,.32,0,.47,0,.65-1.65,1.25-3.37,1.83-5.04.34-.98.68-1.98,1.05-2.98-.04,0-.07,0-.1,0Z"/>
      <path class="cls-1" d="M306.42,90.89c10.8,0,19.08,4.39,19.08,16.42,0,3.89-7.85,26.28-9.72,31.68l-17.57,4.1c.86-1.94,1.73-3.96,2.59-5.9-2.74,1.15-5.76,1.66-8.71,1.66-6.34,0-12.6-2.52-12.6-9.79,0-13.39,12.46-21.75,24.91-21.75,1.58,0,3.17.14,4.68.43.07-.79.29-1.58.29-2.38,0-2.52-3.82-2.88-5.62-2.88-4.03,0-9.36,1.44-13.18,2.88l6.05-12.82c2.81-1.15,6.84-1.66,9.79-1.66M302.18,127.9c.5,0,1.01,0,1.51-.07,1.44-3.46,2.52-7.13,3.89-10.66-.72-.14-1.44-.29-2.16-.29-4.1,0-7.71,3.6-7.71,7.78,0,2.52,2.38,3.24,4.46,3.24M306.42,87.89c-3.07,0-7.55.49-10.93,1.88-.69.28-1.25.82-1.57,1.5l-6.05,12.82c-.52,1.11-.32,2.42.51,3.32.3.32.66.57,1.05.73-1.43.79-2.78,1.69-4.03,2.69-5.74,4.62-8.9,11.1-8.9,18.23,0,7.89,5.98,12.79,15.6,12.79,1.18,0,2.35-.07,3.49-.22-.04.08-.07.16-.11.25-.46,1.04-.3,2.25.43,3.13.58.7,1.43,1.09,2.31,1.09.23,0,.46-.03.68-.08l17.57-4.1c1-.23,1.81-.97,2.15-1.94l.32-.92c6.7-19.3,9.57-28.8,9.57-31.74,0-12.34-8.05-19.42-22.08-19.42h0ZM300.71,124.65c0-1.7,1.03-3.29,2.47-4.14-.04.12-.08.23-.12.35-.48,1.38-.94,2.71-1.43,4-.46-.05-.77-.14-.92-.22h0Z"/>
    </g>
    <g>
      <path class="cls-3" d="M345.72,142.9c-13.35,0-21.01-7.19-21.01-19.72,0-5.8,1.87-11.99,5.4-17.91,4.18-6.96,14.54-14.41,23.32-14.41h.36c7.97,0,16.56,4.14,17.54,12.04.05.43-.08.87-.37,1.19-3.03,3.36-7.25,6.01-10.98,8.34l-1.36.85c-.24.15-.52.23-.8.23-.2,0-.41-.04-.6-.12-.46-.2-.78-.61-.88-1.1-.34-1.78-1.72-4.61-4-4.61-5.34,0-10.02,8.8-10.02,14.13,0,4.26,2.05,4.26,3.04,4.26,3.46,0,6.16-2.74,8.55-5.71.26-.32.65-.52,1.06-.55.04,0,.07,0,.11,0,.38,0,.74.14,1.02.4,1.05.97,2.26,1.93,3.55,2.94,2.54,1.99,5.16,4.05,6.9,6.61.36.53.34,1.24-.05,1.75-5.44,7.13-13.2,11.39-20.78,11.39Z"/>
      <path class="cls-1" d="M353.78,92.36c6.62,0,15.12,3.24,16.06,10.73-3.24,3.6-7.92,6.34-12.02,8.93-.5-2.66-2.45-5.83-5.47-5.83-6.55,0-11.52,9.94-11.52,15.63,0,3.1,1.01,5.76,4.54,5.76,4.18,0,7.27-3.24,9.72-6.26,3.17,2.95,7.78,5.69,10.22,9.29-4.61,6.05-11.74,10.8-19.59,10.8-11.88,0-19.51-5.83-19.51-18.22,0-6.05,2.09-11.95,5.18-17.14,4.1-6.84,14.11-13.68,22.03-13.68h.36M353.78,89.36h-.36c-9.29,0-20.22,7.83-24.61,15.14-3.67,6.15-5.61,12.61-5.61,18.68,0,13.48,8.21,21.22,22.51,21.22,8.04,0,16.25-4.48,21.97-11.98.78-1.03.82-2.44.09-3.51-1.87-2.74-4.58-4.88-7.21-6.94-1.26-.99-2.45-1.92-3.45-2.86-.56-.52-1.29-.81-2.05-.81-.07,0-.14,0-.21,0-.83.06-1.6.46-2.12,1.11-2.17,2.68-4.56,5.15-7.39,5.15-.76,0-1.54,0-1.54-2.76,0-4.64,4.21-12.63,8.52-12.63,1.11,0,2.22,1.79,2.52,3.39.18.98.84,1.8,1.75,2.19.38.17.79.25,1.2.25.56,0,1.12-.16,1.6-.46.44-.28.89-.56,1.35-.85,3.81-2.39,8.13-5.09,11.3-8.61.58-.65.85-1.52.75-2.38-1.1-8.77-10.4-13.36-19.03-13.36h0Z"/>
    </g>
    <g>
      <path class="cls-3" d="M389.97,146.61c-.72,0-1.35-.52-1.48-1.24l-1.6-9.27-.52,1.85c-.17.6-.68,1.03-1.3,1.09l-18.15,1.8s-.1,0-.15,0c-.45,0-.87-.2-1.16-.55-.32-.39-.42-.91-.28-1.39l16.34-54c.18-.6.72-1.02,1.34-1.06,0,0,16.69-1.01,16.72-1.01.46,0,.89.21,1.17.57.3.38.4.89.26,1.36l-5.71,19.29,5.64-6.78c.27-.33.67-.52,1.1-.54,0,0,17.25-.65,17.27-.65.55,0,1.06.3,1.32.79.27.51.23,1.12-.11,1.59l-15.2,20.9,3.3,24.1c.06.41-.06.82-.32,1.14-.26.32-.64.52-1.05.56l-17.35,1.44s-.08,0-.12,0Z"/>
      <path class="cls-1" d="M399.76,84.34l-7.78,26.28,10.3-12.39,17.21-.65-15.55,21.39,3.38,24.7-17.35,1.44-2.74-15.84-2.3,8.28-18.15,1.8,16.34-54,16.63-1.01M399.76,81.34c-.06,0-.12,0-.18,0l-16.63,1.01c-1.25.08-2.33.92-2.69,2.13l-16.34,54c-.29.96-.08,2,.55,2.77.57.7,1.43,1.1,2.32,1.1.1,0,.2,0,.3-.01l18.15-1.8c.31-.03.6-.11.87-.22l.92,5.31c.25,1.45,1.51,2.49,2.95,2.49.08,0,.17,0,.25-.01l17.35-1.44c.82-.07,1.58-.47,2.09-1.11s.74-1.47.63-2.28l-3.22-23.5,14.84-20.41c.68-.93.76-2.16.22-3.18-.52-.98-1.54-1.59-2.65-1.59-.04,0-.08,0-.11,0l-17.21.65c-.85.03-1.65.42-2.19,1.08l-.98,1.18,3.64-12.3c.28-.94.08-1.95-.53-2.72-.57-.72-1.44-1.13-2.35-1.13h0Z"/>
    </g>
  </g>
</svg>