<?xml version="1.0" encoding="UTF-8"?>
<svg version="1.1" xmlns="http://www.w3.org/2000/svg" width="524" height="360">
<path d="M0 0 C172.92 0 345.84 0 524 0 C524 118.8 524 237.6 524 360 C351.08 360 178.16 360 0 360 C0 241.2 0 122.4 0 0 Z " fill="#798E99" transform="translate(0,0)"/>
<path d="M0 0 C29.04 0 58.08 0 88 0 C88 58.08 88 116.16 88 176 C58.96 176 29.92 176 0 176 C0 117.92 0 59.84 0 0 Z " fill="#5C7481" transform="translate(368,92)"/>
<path d="M0 0 C29.37 0 58.74 0 89 0 C89 58.74 89 117.48 89 178 C59.63 178 30.26 178 0 178 C0 164.8 0 151.6 0 138 C17.16 137.67 34.32 137.34 52 137 C52.33 134.69 52.66 132.38 53 130 C35.51 129.67 18.02 129.34 0 129 C0 86.43 0 43.86 0 0 Z " fill="#5F7986" transform="translate(269,91)"/>
<path d="M0 0 C29.7 0 59.4 0 90 0 C90 42.24 90 84.48 90 128 C87.69 128 85.38 128 83 128 C82.67 126.02 82.34 124.04 82 122 C67.361451 117.32812266 53.34082815 115.82159895 38 115.8125 C36.88238281 115.80025391 35.76476562 115.78800781 34.61328125 115.77539062 C33.01033203 115.77249023 33.01033203 115.77249023 31.375 115.76953125 C29.93253906 115.76336792 29.93253906 115.76336792 28.4609375 115.75708008 C25.74491041 115.83041115 25.74491041 115.83041115 23 118 C22.42006301 120.19454681 22.42006301 120.19454681 22.3125 122.625 C22.24675781 123.44226563 22.18101563 124.25953125 22.11328125 125.1015625 C22.07589844 125.72804688 22.03851563 126.35453125 22 127 C22.66 127 23.32 127 24 127 C24 127.66 24 128.32 24 129 C23.14535156 129.06058594 22.29070312 129.12117187 21.41015625 129.18359375 C20.30542969 129.26738281 19.20070313 129.35117188 18.0625 129.4375 C16.96035156 129.51871094 15.85820313 129.59992188 14.72265625 129.68359375 C12.08890097 129.70418084 12.08890097 129.70418084 11 131 C10.83333333 133.5 10.83333333 133.5 11 136 C12.9385661 137.9385661 16.61163977 137.17416339 19.2578125 137.18945312 C20.01713074 137.19774643 20.77644897 137.20603973 21.55877686 137.21458435 C23.21264529 137.23202191 24.86653895 137.24717849 26.52044678 137.26036072 C29.13365266 137.2813194 31.7467316 137.30834685 34.35986328 137.33703613 C39.90652725 137.39683601 45.45324949 137.44895115 51 137.5 C57.42468055 137.55912877 63.84929841 137.62134468 70.27386475 137.69187927 C72.85589611 137.71855265 75.43793342 137.73930756 78.02001953 137.7598877 C79.59407861 137.77648378 81.16813482 137.79335501 82.7421875 137.81054688 C83.46637878 137.81473129 84.19057007 137.81891571 84.93670654 137.82322693 C89.88615654 137.88615654 89.88615654 137.88615654 91 139 C91 151.87 91 164.74 91 178 C60.97 178 30.94 178 0 178 C0 119.26 0 60.52 0 0 Z " fill="#596F7C" transform="translate(68,91)"/>
<path d="M0 0 C20.79 0 41.58 0 63 0 C63 61.38 63 122.76 63 186 C42.21 186 21.42 186 0 186 C0 124.62 0 63.24 0 0 Z " fill="#576D7A" transform="translate(461,86)"/>
<path d="M0 0 C20.13 0 40.26 0 61 0 C61 61.05 61 122.1 61 185 C40.87 185 20.74 185 0 185 C0 123.95 0 62.9 0 0 Z " fill="#586E7B" transform="translate(0,86)"/>
<path d="M0 0 C32.34 0 64.68 0 98 0 C98 28.38 98 56.76 98 86 C65.66 86 33.32 86 0 86 C0 57.62 0 29.24 0 0 Z " fill="#4F6270" transform="translate(164,274)"/>
<path d="M0 0 C32.01 0 64.02 0 97 0 C97 28.38 97 56.76 97 86 C64.99 86 32.98 86 0 86 C0 57.62 0 29.24 0 0 Z " fill="#506270" transform="translate(64,274)"/>
<path d="M0 0 C31.68 0 63.36 0 96 0 C96 28.38 96 56.76 96 86 C64.32 86 32.64 86 0 86 C0 57.62 0 29.24 0 0 Z " fill="#465761" transform="translate(363,274)"/>
<path d="M0 0 C31.68 0 63.36 0 96 0 C96 28.38 96 56.76 96 86 C64.32 86 32.64 86 0 86 C0 57.62 0 29.24 0 0 Z " fill="#506370" transform="translate(264,274)"/>
<path d="M0 0 C32.34 0 64.68 0 98 0 C98 27.72 98 55.44 98 84 C65.66 84 33.32 84 0 84 C0 56.28 0 28.56 0 0 Z " fill="#566C79" transform="translate(164,0)"/>
<path d="M0 0 C32.34 0 64.68 0 98 0 C98 27.72 98 55.44 98 84 C65.66 84 33.32 84 0 84 C0 56.28 0 28.56 0 0 Z " fill="#576C79" transform="translate(63,0)"/>
<path d="M0 0 C31.68 0 63.36 0 96 0 C96 27.72 96 55.44 96 84 C64.32 84 32.64 84 0 84 C0 56.28 0 28.56 0 0 Z " fill="#758A95" transform="translate(363,0)"/>
<path d="M0 0 C31.68 0 63.36 0 96 0 C96 27.72 96 55.44 96 84 C64.32 84 32.64 84 0 84 C0 56.28 0 28.56 0 0 Z " fill="#5B727F" transform="translate(264,0)"/>
<path d="M0 0 C20.79 0 41.58 0 63 0 C63 28.38 63 56.76 63 86 C42.21 86 21.42 86 0 86 C0 57.62 0 29.24 0 0 Z " fill="#465761" transform="translate(461,274)"/>
<path d="M0 0 C20.79 0 41.58 0 63 0 C63 27.72 63 55.44 63 84 C42.21 84 21.42 84 0 84 C0 56.28 0 28.56 0 0 Z " fill="#576D7A" transform="translate(461,0)"/>
<path d="M0 0 C20.13 0 40.26 0 61 0 C61 28.38 61 56.76 61 86 C40.87 86 20.74 86 0 86 C0 57.62 0 29.24 0 0 Z " fill="#506371" transform="translate(0,274)"/>
<path d="M0 0 C20.13 0 40.26 0 61 0 C61 27.72 61 55.44 61 84 C40.87 84 20.74 84 0 84 C0 56.28 0 28.56 0 0 Z " fill="#576C7A" transform="translate(0,0)"/>
<path d="M0 0 C30.03 0 60.06 0 91 0 C91 13.2 91 26.4 91 40 C60.97 40 30.94 40 0 40 C0 26.8 0 13.6 0 0 Z " fill="#546673" transform="translate(168,229)"/>
<path d="M0 0 C32.34 0 64.68 0 98 0 C98 60.72 98 121.44 98 184 C65.66 184 33.32 184 0 184 C0 123.28 0 62.56 0 0 Z M5 4 C5 62.74 5 121.48 5 182 C35.03 182 65.06 182 96 182 C96 169.13 96 156.26 96 143 C94.0614339 141.0614339 90.38836023 141.82583661 87.7421875 141.81054688 C86.98286926 141.80225357 86.22355103 141.79396027 85.44122314 141.78541565 C83.78735471 141.76797809 82.13346105 141.75282151 80.47955322 141.73963928 C77.86634734 141.7186806 75.2532684 141.69165315 72.64013672 141.66296387 C67.09347275 141.60316399 61.54675051 141.55104885 56 141.5 C49.57531945 141.44087123 43.15070159 141.37865532 36.72613525 141.30812073 C34.14410389 141.28144735 31.56206658 141.26069244 28.97998047 141.2401123 C27.40592139 141.22351622 25.83186518 141.20664499 24.2578125 141.18945312 C23.53362122 141.18526871 22.80942993 141.18108429 22.06329346 141.17677307 C17.11384346 141.11384346 17.11384346 141.11384346 16 140 C15.875 137.5 15.875 137.5 16 135 C17.81115956 133.18884044 20.61278227 133.61800552 23.0625 133.4375 C24.16722656 133.35371094 25.27195312 133.26992187 26.41015625 133.18359375 C27.26480469 133.12300781 28.11945313 133.06242188 29 133 C29 132.34 29 131.68 29 131 C28.34 131 27.68 131 27 131 C27.08708669 129.54054712 27.19526907 128.08234132 27.3125 126.625 C27.37050781 125.81289062 27.42851563 125.00078125 27.48828125 124.1640625 C28 122 28 122 31 120 C33.4609375 119.75708008 33.4609375 119.75708008 36.375 119.76953125 C37.97794922 119.77243164 37.97794922 119.77243164 39.61328125 119.77539062 C40.73089844 119.78763672 41.84851563 119.79988281 43 119.8125 C44.63001953 119.8134668 44.63001953 119.8134668 46.29296875 119.81445312 C56.62342444 119.86999321 66.49810393 120.6359376 76.5625 123 C77.75069336 123.26683594 77.75069336 123.26683594 78.96289062 123.5390625 C84.69942111 124.84971056 84.69942111 124.84971056 87 126 C87.625 129.0625 87.625 129.0625 88 132 C90.31 132 92.62 132 95 132 C95 89.76 95 47.52 95 4 C65.3 4 35.6 4 5 4 Z " fill="#99A4AB" transform="translate(63,87)"/>
<path d="M0 0 C26.73 0 53.46 0 81 0 C81 12.87 81 25.74 81 39 C50.97 39 20.94 39 -10 39 C-10 26 -10 26 -9 22 C-3.88888889 18 -3.88888889 18 0 18 C0 12.06 0 6.12 0 0 Z " fill="#546674" transform="translate(78,230)"/>
<path d="M0 0 C29.04 0 58.08 0 88 0 C88 26.73 88 53.46 88 81 C81.73 81 75.46 81 69 81 C69.66 80.67 70.32 80.34 71 80 C70.98839844 79.31292969 70.97679687 78.62585938 70.96484375 77.91796875 C70.95582031 77.01691406 70.94679688 76.11585937 70.9375 75.1875 C70.92589844 74.29417969 70.91429687 73.40085937 70.90234375 72.48046875 C71 70 71 70 72 67 C66.39 67 60.78 67 55 67 C55 66.67 55 66.34 55 66 C60.94 66 66.88 66 73 66 C73 50.16 73 34.32 73 18 C66.4 18 59.8 18 53 18 C53 33.84 53 49.68 53 66 C50.36 65.67 47.72 65.34 45 65 C45 49.49 45 33.98 45 18 C37.74 18 30.48 18 23 18 C23 34.17 23 50.34 23 67 C22.505 66.01 22.505 66.01 22 65 C18.535 65.495 18.535 65.495 15 66 C14.67 50.49 14.34 34.98 14 19 C7.07 18.505 7.07 18.505 0 18 C0 12.06 0 6.12 0 0 Z " fill="#566C79" transform="translate(368,0)"/>
<path d="M0 0 C32.34 0 64.68 0 98 0 C98 61.05 98 122.1 98 185 C65.66 185 33.32 185 0 185 C0 123.95 0 62.9 0 0 Z M5 5 C5 47.24 5 89.48 5 133 C34.7 133 64.4 133 95 133 C95 90.76 95 48.52 95 5 C65.3 5 35.6 5 5 5 Z M4 143 C4 156.2 4 169.4 4 183 C34.03 183 64.06 183 95 183 C95 169.8 95 156.6 95 143 C64.97 143 34.94 143 4 143 Z " fill="#95A1A9" transform="translate(164,86)"/>
<path d="M0 0 C32.34 0 64.68 0 98 0 C98 28.38 98 56.76 98 86 C97.01 86 96.02 86 95 86 C95 65.87 95 45.74 95 25 C65.3 25 35.6 25 5 25 C5 45.13 5 65.26 5 86 C3.35 86 1.7 86 0 86 C0 57.62 0 29.24 0 0 Z " fill="#526573" transform="translate(164,274)"/>
<path d="M0 0 C31.68 0 63.36 0 96 0 C96 28.38 96 56.76 96 86 C95.01 86 94.02 86 93 86 C93 65.87 93 45.74 93 25 C63.96 25 34.92 25 5 25 C5 45.13 5 65.26 5 86 C3.35 86 1.7 86 0 86 C0 57.62 0 29.24 0 0 Z " fill="#627A87" transform="translate(264,274)"/>
<path d="M0 0 C32.01 0 64.02 0 97 0 C97 28.38 97 56.76 97 86 C96.01 86 95.02 86 94 86 C94 65.87 94 45.74 94 25 C64.3 25 34.6 25 4 25 C4 45.13 4 65.26 4 86 C2.68 86 1.36 86 0 86 C0 57.62 0 29.24 0 0 Z " fill="#526573" transform="translate(64,274)"/>
<path d="M0 0 C31.68 0 63.36 0 96 0 C96 28.38 96 56.76 96 86 C95.01 86 94.02 86 93 86 C93 65.54 93 45.08 93 24 C84.42 24.165 75.84 24.33 67 24.5 C46.32688406 24.88321307 25.67655353 25.10338277 5 25 C5 45.13 5 65.26 5 86 C3.35 86 1.7 86 0 86 C0 57.62 0 29.24 0 0 Z " fill="#5A717E" transform="translate(363,274)"/>
<path d="M0 0 C31.68 0 63.36 0 96 0 C96 61.05 96 122.1 96 185 C64.32 185 32.64 185 0 185 C0 123.95 0 62.9 0 0 Z M5 6 C5 64.08 5 122.16 5 182 C34.04 182 63.08 182 93 182 C93 123.92 93 65.84 93 6 C63.96 6 34.92 6 5 6 Z " fill="#909DA5" transform="translate(363,86)"/>
<path d="M0 0 C31.35 0 62.7 0 95 0 C95 60.72 95 121.44 95 184 C63.65 184 32.3 184 0 184 C0 123.28 0 62.56 0 0 Z M4 4 C4 46.57 4 89.14 4 133 C21.49 133.33 38.98 133.66 57 134 C56.67 136.31 56.34 138.62 56 141 C38.84 141.33 21.68 141.66 4 142 C4 155.2 4 168.4 4 182 C33.37 182 62.74 182 93 182 C93 123.26 93 64.52 93 4 C63.63 4 34.26 4 4 4 Z " fill="#8F9BA2" transform="translate(265,87)"/>
<path d="M0 0 C17.82 0 35.64 0 54 0 C54 19 54 19 53 22 C52.34 22 51.68 22 51 22 C50.96132813 22.8353125 50.96132813 22.8353125 50.921875 23.6875 C50.86515625 24.450625 50.8084375 25.21375 50.75 26 C50.70359375 26.7425 50.6571875 27.485 50.609375 28.25 C50 31 50 31 46 39 C30.82 39 15.64 39 0 39 C0 26.13 0 13.26 0 0 Z " fill="#536573" transform="translate(269,229)"/>
<path d="M0 0 C20.79 0 41.58 0 63 0 C63 8.25 63 16.5 63 25 C43.86 25 24.72 25 5 25 C5 45.13 5 65.26 5 86 C3.35 86 1.7 86 0 86 C0 57.62 0 29.24 0 0 Z " fill="#566C79" transform="translate(461,274)"/>
<path d="M0 0 C20.13 0 40.26 0 61 0 C61 28.38 61 56.76 61 86 C60.01 86 59.02 86 58 86 C58 65.87 58 45.74 58 25 C38.86 25 19.72 25 0 25 C0 16.75 0 8.5 0 0 Z " fill="#526573" transform="translate(0,274)"/>
<path d="M0 0 C1.06541016 0.00515625 2.13082031 0.0103125 3.22851562 0.015625 C4.89237305 0.0465625 4.89237305 0.0465625 6.58984375 0.078125 C8.2130957 0.08585938 8.2130957 0.08585938 9.86914062 0.09375 C20.13247292 0.19225829 30.01762403 0.96030428 40.02734375 3.265625 C40.81109375 3.43513672 41.59484375 3.60464844 42.40234375 3.77929688 C45.93423054 4.57457618 48.48656504 5.30093919 51.52734375 7.328125 C51.71484375 10.453125 51.71484375 10.453125 51.52734375 13.328125 C54.16734375 13.658125 56.80734375 13.988125 59.52734375 14.328125 C59.52734375 17.298125 59.52734375 20.268125 59.52734375 23.328125 C49.26158367 23.37439883 38.99584827 23.40996893 28.73000526 23.43174934 C23.96352081 23.44220112 19.19710754 23.45638564 14.43066406 23.47900391 C9.83359448 23.50068273 5.23659351 23.51268312 0.63947678 23.51787949 C-1.11726589 23.52158419 -2.87400466 23.52881822 -4.63071823 23.53958511 C-7.08511313 23.55403424 -9.53922198 23.55610573 -11.99365234 23.55517578 C-12.72517014 23.56236633 -13.45668793 23.56955688 -14.21037292 23.57696533 C-19.24455193 23.55622932 -19.24455193 23.55622932 -21.47265625 21.328125 C-21.72265625 18.828125 -21.72265625 18.828125 -21.47265625 16.328125 C-19.47265625 14.328125 -19.47265625 14.328125 -16.65234375 14.1328125 C-15.56179687 14.15601563 -14.47125 14.17921875 -13.34765625 14.203125 C-12.25195312 14.22117188 -11.15625 14.23921875 -10.02734375 14.2578125 C-9.18429688 14.28101563 -8.34125 14.30421875 -7.47265625 14.328125 C-7.47265625 13.668125 -7.47265625 13.008125 -7.47265625 12.328125 C-8.13265625 12.328125 -8.79265625 12.328125 -9.47265625 12.328125 C-9.58102078 10.89229499 -9.65841792 9.4541048 -9.72265625 8.015625 C-9.7690625 7.21511719 -9.81546875 6.41460937 -9.86328125 5.58984375 C-9.47265625 3.328125 -9.47265625 3.328125 -7.7902832 1.70727539 C-4.96627355 0.02679182 -3.26999271 -0.03195343 0 0 Z " fill="#D6D1BC" transform="translate(99.47265625,205.671875)"/>
<path d="M0 0 C29.7 0 59.4 0 90 0 C90 5.28 90 10.56 90 16 C60.3 16 30.6 16 0 16 C0 10.72 0 5.44 0 0 Z " fill="#3E454B" transform="translate(169,230)"/>
<path d="M0 0 C20.79 0 41.58 0 63 0 C63 1.65 63 3.3 63 5 C43.86 5 24.72 5 5 5 C5 63.74 5 122.48 5 183 C24.14 183 43.28 183 63 183 C63 183.99 63 184.98 63 186 C42.21 186 21.42 186 0 186 C0 124.62 0 63.24 0 0 Z " fill="#9BA8AF" transform="translate(461,86)"/>
<path d="M0 0 C24 0 24 0 30 1 C29.85930804 3.12534659 29.71229079 5.25027529 29.5625 7.375 C29.48128906 8.55835938 29.40007812 9.74171875 29.31640625 10.9609375 C29 14 29 14 28 16 C27.65193022 17.74327384 27.34637612 19.49512946 27.0625 21.25 C26.80146484 22.86261719 26.80146484 22.86261719 26.53515625 24.5078125 C25.82743151 29.12610388 25.1843536 33.75222411 24.5625 38.3828125 C23.85278234 42.94669132 22.90580795 47.47096025 22 52 C14.74 52 7.48 52 0 52 C0 34.84 0 17.68 0 0 Z " fill="#4F6270" transform="translate(368,308)"/>
<path d="M0 0 C26.4 0 52.8 0 80 0 C80 5.28 80 10.56 80 16 C53.6 16 27.2 16 0 16 C0 10.72 0 5.44 0 0 Z " fill="#3F464C" transform="translate(78,230)"/>
<path d="M0 0 C0.66 0 1.32 0 2 0 C2 27.72 2 55.44 2 84 C22.79 84 43.58 84 65 84 C65 84.66 65 85.32 65 86 C44.21 86 23.42 86 2 86 C2 147.38 2 208.76 2 272 C22.79 272 43.58 272 65 272 C65 272.66 65 273.32 65 274 C44.21 274 23.42 274 2 274 C2 302.38 2 330.76 2 360 C1.34 360 0.68 360 0 360 C0 331.29 0 302.58 0 273 C-31.68 273 -63.36 273 -96 273 C-96 272.67 -96 272.34 -96 272 C-64.32 272 -32.64 272 0 272 C0 210.62 0 149.24 0 86 C-32.01 86 -64.02 86 -97 86 C-96.505 85.01 -96.505 85.01 -96 84 C-64.32 84 -32.64 84 0 84 C0 56.28 0 28.56 0 0 Z " fill="#E9EDF0" transform="translate(459,0)"/>
<path d="M0 0 C32.34 0 64.68 0 98 0 C98 28.38 98 56.76 98 86 C97.01 86 96.02 86 95 86 C95 59.27 95 32.54 95 5 C65.3 5 35.6 5 5 5 C5 31.73 5 58.46 5 86 C3.35 86 1.7 86 0 86 C0 57.62 0 29.24 0 0 Z " fill="#929FA6" transform="translate(164,274)"/>
<path d="M0 0 C31.68 0 63.36 0 96 0 C96 28.38 96 56.76 96 86 C95.01 86 94.02 86 93 86 C93 59.27 93 32.54 93 5 C63.96 5 34.92 5 5 5 C5 31.73 5 58.46 5 86 C3.35 86 1.7 86 0 86 C0 57.62 0 29.24 0 0 Z " fill="#909CA4" transform="translate(363,274)"/>
<path d="M0 0 C32.01 0 64.02 0 97 0 C97 28.38 97 56.76 97 86 C96.01 86 95.02 86 94 86 C94 59.27 94 32.54 94 5 C64.3 5 34.6 5 4 5 C4 31.73 4 58.46 4 86 C2.68 86 1.36 86 0 86 C0 57.62 0 29.24 0 0 Z " fill="#919DA5" transform="translate(64,274)"/>
<path d="M0 0 C0 60.72 0 121.44 0 184 C-31.35 184 -62.7 184 -95 184 C-94.67 170.8 -94.34 157.6 -94 144 C-93.01 144 -92.02 144 -91 144 C-91 156.54 -91 169.08 -91 182 C-61.63 182 -32.26 182 -2 182 C-2 123.26 -2 64.52 -2 4 C-31.7 4 -61.4 4 -92 4 C-92 3.01 -92 2.02 -92 1 C-64.56927918 -12.71536041 -30.66847821 0 0 0 Z " fill="#909DA5" transform="translate(360,87)"/>
<path d="M0 0 C1.26070313 0.00257812 2.52140625 0.00515625 3.8203125 0.0078125 C5.70363281 0.00394531 5.70363281 0.00394531 7.625 0 C10.9453125 0.1328125 10.9453125 0.1328125 13.9453125 1.1328125 C15.43884079 4.11986907 15.21099112 7.1709376 15.2578125 10.4453125 C15.29519531 11.76144531 15.33257812 13.07757813 15.37109375 14.43359375 C14.9453125 18.1328125 14.9453125 18.1328125 12.859375 20.63671875 C10.55639765 23.08588664 10.55639765 23.08588664 11.10546875 26.734375 C11.38099657 28.08093578 11.68315896 29.42224461 12.0078125 30.7578125 C12.16048584 31.46784424 12.31315918 32.17787598 12.47045898 32.90942383 C13.54858127 37.80670424 14.87774962 42.62651844 16.26171875 47.4453125 C17.28374437 51.46333322 17.83144531 55.52418319 18.41796875 59.625 C18.98787902 63.41595872 19.66687809 67.1799092 20.3828125 70.9453125 C20.50825439 71.60781006 20.63369629 72.27030762 20.76293945 72.95288086 C21.29462266 75.7493527 21.83132926 78.54480991 22.37304688 81.33935547 C22.65837346 82.81149865 22.94233321 84.28390748 23.22485352 85.7565918 C23.61178015 87.77319504 24.00303176 89.78896703 24.39453125 91.8046875 C24.9453125 95.1328125 24.9453125 95.1328125 24.9453125 99.1328125 C22.3053125 99.1328125 19.6653125 99.1328125 16.9453125 99.1328125 C14.36867859 86.39367837 11.86510435 73.64060357 9.3828125 60.8828125 C9.16152176 59.7468866 9.16152176 59.7468866 8.9357605 58.5880127 C8.074444 54.16521372 7.21839714 49.74144069 6.36737061 45.31665039 C5.93699475 43.08977429 5.50012128 40.86423034 5.06298828 38.63867188 C4.7852539 37.20447119 4.50773852 35.77022808 4.23046875 34.3359375 C3.8593396 32.43569824 3.8593396 32.43569824 3.48071289 30.49707031 C3.0235511 27.6244349 2.83176956 25.03040065 2.9453125 22.1328125 C1.9759375 22.1534375 1.0065625 22.1740625 0.0078125 22.1953125 C-3.0546875 22.1328125 -3.0546875 22.1328125 -4.0546875 21.1328125 C-4.15349547 19.65628586 -4.18547995 18.17514014 -4.1875 16.6953125 C-4.18878906 15.80070313 -4.19007813 14.90609375 -4.19140625 13.984375 C-4.18560547 12.57285156 -4.18560547 12.57285156 -4.1796875 11.1328125 C-4.18355469 10.19179687 -4.18742187 9.25078125 -4.19140625 8.28125 C-4.19011719 7.38664063 -4.18882812 6.49203125 -4.1875 5.5703125 C-4.18580811 4.33087891 -4.18580811 4.33087891 -4.18408203 3.06640625 C-3.96666801 -0.18249755 -3.32135466 0.14440672 0 0 Z " fill="#4F5860" transform="translate(273.0546875,120.8671875)"/>
<path d="M0 0 C6.93 0 13.86 0 21 0 C21 15.84 21 31.68 21 48 C14.07 48 7.14 48 0 48 C0 32.16 0 16.32 0 0 Z " fill="#C2D5E3" transform="translate(391,18)"/>
<path d="M0 0 C0.66 0 1.32 0 2 0 C2 27.72 2 55.44 2 84 C33.68 84 65.36 84 98 84 C98 56.28 98 28.56 98 0 C98.66 0 99.32 0 100 0 C100.02313538 10.91769398 100.04092121 21.83538216 100.05181217 32.75309563 C100.05703837 37.82222228 100.06413128 42.8913322 100.07543945 47.96044922 C100.08627763 52.84928681 100.09227882 57.73810827 100.09487724 62.62695694 C100.09672981 64.49533467 100.10034721 66.36371148 100.10573006 68.23208237 C100.11295281 70.84207846 100.11399041 73.45200729 100.11352539 76.06201172 C100.11712067 76.8402832 100.12071594 77.61855469 100.12442017 78.42041016 C100.11405216 83.77189568 100.11405216 83.77189568 99 86 C66.99 86 34.98 86 2 86 C2.02320313 95.57773438 2.04640625 105.15546875 2.0703125 115.0234375 C2.08052635 121.0755219 2.09023646 127.1276001 2.09765625 133.1796875 C2.10953885 142.79494349 2.12353275 152.41016452 2.15087891 162.02539062 C2.17078257 169.027074 2.18370923 176.0287291 2.18817699 183.03043997 C2.19078952 186.73948962 2.19695048 190.44845837 2.21146011 194.15748215 C2.22750775 198.29301325 2.22798164 202.42840274 2.22705078 206.56396484 C2.23424133 207.80042252 2.24143188 209.03688019 2.24884033 210.31080627 C2.246091 211.43263809 2.24334167 212.55446991 2.24050903 213.71029663 C2.24235262 214.68924078 2.24419621 215.66818493 2.24609566 216.67679405 C2 219 2 219 0 221 C0 176.45 0 131.9 0 86 C-32.01 86 -64.02 86 -97 86 C-97 85.34 -97 84.68 -97 84 C-64.99 84 -32.98 84 0 84 C0 56.28 0 28.56 0 0 Z " fill="#E6EBEE" transform="translate(262,0)"/>
<path d="M0 0 C0.33 0 0.66 0 1 0 C1.33 40.59 1.66 81.18 2 123 C2.33 121.02 2.66 119.04 3 117 C3.33 117 3.66 117 4 117 C4 136.8 4 156.6 4 177 C34.03 177 64.06 177 95 177 C94.67 163.8 94.34 150.6 94 137 C94.33 134.03 94.66 131.06 95 128 C92.03 128 89.06 128 86 128 C86 127.67 86 127.34 86 127 C88.64 127 91.28 127 94 127 C94 85.09 94 43.18 94 0 C94.99 0 95.98 0 97 0 C97 59.07 97 118.14 97 179 C64.99 179 32.98 179 0 179 C0 119.93 0 60.86 0 0 Z " fill="#8C98A1" transform="translate(64,92)"/>
<path d="M0 0 C20.13 0 40.26 0 61 0 C61 61.05 61 122.1 61 185 C40.87 185 20.74 185 0 185 C0 184.34 0 183.68 0 183 C19.14 183 38.28 183 58 183 C58 124.26 58 65.52 58 5 C38.86 5 19.72 5 0 5 C0 3.35 0 1.7 0 0 Z " fill="#96A2A9" transform="translate(0,86)"/>
<path d="M0 0 C31.68 0 63.36 0 96 0 C96 28.38 96 56.76 96 86 C95.34 86 94.68 86 94 86 C93.67 59.27 93.34 32.54 93 5 C63.96 4.67 34.92 4.34 5 4 C5 31.06 5 58.12 5 86 C3.35 86 1.7 86 0 86 C0 57.62 0 29.24 0 0 Z " fill="#919DA5" transform="translate(264,274)"/>
<path d="M0 0 C1.65 0 3.3 0 5 0 C5 26.73 5 53.46 5 81 C34.7 81 64.4 81 95 81 C95 54.27 95 27.54 95 0 C95.99 0 96.98 0 98 0 C98 27.72 98 55.44 98 84 C65.66 84 33.32 84 0 84 C0 56.28 0 28.56 0 0 Z " fill="#939EA6" transform="translate(164,0)"/>
<path d="M0 0 C1.65 0 3.3 0 5 0 C5 26.73 5 53.46 5 81 C34.7 81 64.4 81 95 81 C95 54.27 95 27.54 95 0 C95.99 0 96.98 0 98 0 C98 27.72 98 55.44 98 84 C65.66 84 33.32 84 0 84 C0 56.28 0 28.56 0 0 Z " fill="#86949E" transform="translate(63,0)"/>
<path d="M0 0 C1.8253125 0.00193359 1.8253125 0.00193359 3.6875 0.00390625 C7.24066021 0.46900151 8.72389147 0.6704661 11 3.4375 C11.41002192 6.08756813 11.56073204 8.23568688 11.5 10.875 C11.5103125 12.19371094 11.520625 13.51242188 11.53125 14.87109375 C11 18.4375 11 18.4375 9.140625 20.89453125 C6.55479443 22.75840547 5.11965148 22.78412794 2 22.4375 C1.88398437 23.68402344 1.76796875 24.93054688 1.6484375 26.21484375 C1.01602326 31.89436743 -0.16454395 37.4198423 -1.375 43 C-2.87273295 50.02860845 -4.34260754 57.05372356 -5.625 64.125 C-6.87536788 70.94843613 -8.37206898 77.69486373 -10 84.4375 C-12.64 84.4375 -15.28 84.4375 -18 84.4375 C-16.02394932 72.66220767 -13.96861634 60.92605535 -11.43725586 49.25634766 C-10.12197461 43.15057058 -8.99413289 37.02352107 -7.95092773 30.86572266 C-7.41088484 27.68794311 -6.85129238 24.54829738 -6 21.4375 C-6.9590625 21.004375 -6.9590625 21.004375 -7.9375 20.5625 C-10 19.4375 -10 19.4375 -11 17.4375 C-11.17431846 15.31710174 -11.26709071 13.18956692 -11.3125 11.0625 C-11.36857422 9.34933594 -11.36857422 9.34933594 -11.42578125 7.6015625 C-11 4.4375 -11 4.4375 -9.41796875 2.05078125 C-6.15388281 -0.12703376 -3.89785657 -0.06193628 0 0 Z " fill="#3F474E" transform="translate(123,120.5625)"/>
<path d="M0 0 C17.82 0 35.64 0 54 0 C54 5.61 54 11.22 54 17 C36.18 17 18.36 17 0 17 C0 11.39 0 5.78 0 0 Z " fill="#41474D" transform="translate(269,229)"/>
<path d="M0 0 C0 3.63 0 7.26 0 11 C-11.03080711 11.02314739 -22.06160846 11.04092736 -33.09243488 11.05181217 C-38.21421986 11.05703573 -43.33598824 11.06412388 -48.45776367 11.07543945 C-53.39847668 11.08628697 -58.3391737 11.09228081 -63.27989769 11.09487724 C-65.16698648 11.09672812 -67.05407438 11.10034229 -68.94115639 11.10573006 C-71.57968679 11.11296518 -74.21815076 11.11398989 -76.85668945 11.11352539 C-78.03272987 11.1189183 -78.03272987 11.1189183 -79.23252869 11.12442017 C-82.4244772 11.11832022 -84.94877136 11.01707621 -88 10 C-88 7.03 -88 4.06 -88 1 C-58.67687399 -0.31381022 -29.34550861 -0.1005195 0 0 Z " fill="#3F4E5A" transform="translate(456,298)"/>
<path d="M0 0 C6.27 0 12.54 0 19 0 C19 15.84 19 31.68 19 48 C12.73 48 6.46 48 0 48 C0 32.16 0 16.32 0 0 Z " fill="#C2D5E3" transform="translate(333,18)"/>
<path d="M0 0 C29.7 0 59.4 0 90 0 C90 3.3 90 6.6 90 10 C60.3 10 30.6 10 0 10 C0 6.7 0 3.4 0 0 Z " fill="#3B4952" transform="translate(169,299)"/>
<path d="M0 0 C29.7 0 59.4 0 90 0 C90 3.3 90 6.6 90 10 C60.3 10 30.6 10 0 10 C0 6.7 0 3.4 0 0 Z " fill="#3B4952" transform="translate(68,299)"/>
<path d="M0 0 C29.04 0 58.08 0 88 0 C88 3.3 88 6.6 88 10 C58.96 10 29.92 10 0 10 C0 6.7 0 3.4 0 0 Z " fill="#435360" transform="translate(269,299)"/>
<path d="M0 0 C1.65 0 3.3 0 5 0 C5 26.73 5 53.46 5 81 C34.37 81 63.74 81 94 81 C94 54.27 94 27.54 94 0 C94.66 0 95.32 0 96 0 C96 27.72 96 55.44 96 84 C64.32 84 32.64 84 0 84 C0 56.28 0 28.56 0 0 Z " fill="#9CA7AF" transform="translate(264,0)"/>
<path d="M0 0 C14.19 0 28.38 0 43 0 C40.86562525 6.40312424 38.50669601 12.73325997 36 19 C53.16 19 70.32 19 88 19 C88 19.33 88 19.66 88 20 C58.96 20 29.92 20 0 20 C0 13.4 0 6.8 0 0 Z " fill="#526674" transform="translate(269,279)"/>
<path d="M0 0 C5.94 0 11.88 0 18 0 C18 15.18 18 30.36 18 46 C12.06 46 6.12 46 0 46 C0 30.82 0 15.64 0 0 Z " fill="#C6D9E7" transform="translate(422,19)"/>
<path d="M0 0 C29.7 0 59.4 0 90 0 C90 2.97 90 5.94 90 9 C60.3 9 30.6 9 0 9 C0 6.03 0 3.06 0 0 Z " fill="#DCD8C6" transform="translate(169,220)"/>
<path d="M0 0 C0.66 0 1.32 0 2 0 C2 27.72 2 55.44 2 84 C34.34 84 66.68 84 100 84 C100 84.66 100 85.32 100 86 C51.985 86.495 51.985 86.495 3 87 C2.67 129.9 2.34 172.8 2 217 C1.34 217.33 0.68 217.66 0 218 C0 174.44 0 130.88 0 86 C-20.13 86 -40.26 86 -61 86 C-61 85.34 -61 84.68 -61 84 C-40.87 84 -20.74 84 0 84 C0 56.28 0 28.56 0 0 Z " fill="#E9EDF1" transform="translate(61,0)"/>
<path d="M0 0 C0.99 0 1.98 0 3 0 C3.91358566 58.20542743 4.03634673 116.37954326 3.62664449 174.58998036 C3.55262721 185.15261192 3.48789282 195.71529581 3.42356598 206.2779901 C3.2919908 227.85206058 3.14994067 249.42604979 3 271 C2.01 271 1.02 271 0 271 C0 210.28 0 149.56 0 87 C-32.01 87 -64.02 87 -97 87 C-97 86.67 -97 86.34 -97 86 C-64.99 86 -32.98 86 0 86 C0 57.62 0 29.24 0 0 Z " fill="#D4DADD" transform="translate(161,0)"/>
<path d="M0 0 C20.79 0 41.58 0 63 0 C63 1.65 63 3.3 63 5 C43.86 5 24.72 5 5 5 C5 31.73 5 58.46 5 86 C3.35 86 1.7 86 0 86 C0 57.62 0 29.24 0 0 Z " fill="#8D9AA2" transform="translate(461,274)"/>
<path d="M0 0 C4.62 0 9.24 0 14 0 C14 15.18 14 30.36 14 46 C9.38 46 4.76 46 0 46 C0 30.82 0 15.64 0 0 Z " fill="#C6D9E7" transform="translate(368,19)"/>
<path d="M0 0 C11.55 0 23.1 0 35 0 C35 5.94 35 11.88 35 18 C23.45 18 11.9 18 0 18 C0 12.06 0 6.12 0 0 Z " fill="#43545D" transform="translate(179,25)"/>
<path d="M0 0 C11.22 0 22.44 0 34 0 C34 5.94 34 11.88 34 18 C22.78 18 11.56 18 0 18 C0 12.06 0 6.12 0 0 Z " fill="#43545C" transform="translate(179,48)"/>
<path d="M0 0 C11.22 0 22.44 0 34 0 C34 5.61 34 11.22 34 17 C33 18 33 18 29.85717773 18.11352539 C28.46597303 18.11336633 27.07476239 18.10767506 25.68359375 18.09765625 C24.95253922 18.0962413 24.22148468 18.09482635 23.46827698 18.09336853 C21.12464368 18.08775408 18.78110461 18.07519922 16.4375 18.0625 C14.85221492 18.05748686 13.26692834 18.05292363 11.68164062 18.04882812 C7.78769457 18.03862921 3.89395323 18.01905687 0 18 C0 12.06 0 6.12 0 0 Z " fill="#43535C" transform="translate(218,48)"/>
<path d="M0 0 C1.65 0 3.3 0 5 0 C5 26.73 5 53.46 5 81 C24.14 81 43.28 81 63 81 C63 81.99 63 82.98 63 84 C42.21 84 21.42 84 0 84 C0 56.28 0 28.56 0 0 Z " fill="#939FA7" transform="translate(461,0)"/>
<path d="M0 0 C0 5.94 0 11.88 0 18 C-11.22 18 -22.44 18 -34 18 C-34 12.39 -34 6.78 -34 1 C-29.83340316 0.83140938 -25.66673683 0.66506345 -21.5 0.5 C-19.74042969 0.42845703 -19.74042969 0.42845703 -17.9453125 0.35546875 C-16.22441406 0.28779297 -16.22441406 0.28779297 -14.46875 0.21875 C-13.42138672 0.17685547 -12.37402344 0.13496094 -11.29492188 0.09179688 C-7.53128393 -0.01305848 -3.7650983 0 0 0 Z " fill="#485963" transform="translate(426,192)"/>
<path d="M0 0 C0.33 0 0.66 0 1 0 C1 42.24 1 84.48 1 128 C30.7 128 60.4 128 91 128 C91 85.76 91 43.52 91 0 C91.66 0 92.32 0 93 0 C93 59.4 93 118.8 93 180 C91.68 179.67 90.36 179.34 89 179 C89.33 178.67 89.66 178.34 90 178 C90.1225355 176.46617321 90.17777938 174.92689481 90.20532227 173.38842773 C90.22550415 172.3937146 90.24568604 171.39900146 90.26647949 170.37414551 C90.28295532 169.32126343 90.29943115 168.26838135 90.31640625 167.18359375 C90.33505737 166.22134888 90.3537085 165.259104 90.3729248 164.2677002 C90.44145506 160.65773086 90.50145491 157.04760367 90.5625 153.4375 C90.706875 145.373125 90.85125 137.30875 91 129 C60.97 129 30.94 129 0 129 C0 86.43 0 43.86 0 0 Z " fill="#84949D" transform="translate(168,91)"/>
<path d="M0 0 C19.14 0 38.28 0 58 0 C58 3.3 58 6.6 58 10 C38.86 10 19.72 10 0 10 C0 6.7 0 3.4 0 0 Z " fill="#3C4955" transform="translate(466,299)"/>
<path d="M0 0 C19.14 0 38.28 0 58 0 C58 3.3 58 6.6 58 10 C38.86 10 19.72 10 0 10 C0 6.7 0 3.4 0 0 Z " fill="#3B4953" transform="translate(0,299)"/>
<path d="M0 0 C11.22 0 22.44 0 34 0 C34 5.61 34 11.22 34 17 C22.78 17 11.56 17 0 17 C0 11.39 0 5.78 0 0 Z " fill="#495C66" transform="translate(303,111)"/>
<path d="M0 0 C20.13 0 40.26 0 61 0 C61 28.38 61 56.76 61 86 C60.01 86 59.02 86 58 86 C58 59.27 58 32.54 58 5 C38.86 5 19.72 5 0 5 C0 3.35 0 1.7 0 0 Z " fill="#929EA6" transform="translate(0,274)"/>
<path d="M0 0 C9.9 0 19.8 0 30 0 C30 5.61 30 11.22 30 17 C19.94614806 17.70553347 10.08150835 18.10501571 0 18 C0 12.06 0 6.12 0 0 Z " fill="#44555E" transform="translate(27,220)"/>
<path d="M0 0 C1.65 0 3.3 0 5 0 C5 0.99 5 1.98 5 3 C34.04 3.33 63.08 3.66 93 4 C93 4.33 93 4.66 93 5 C63.96 5 34.92 5 5 5 C5 31.73 5 58.46 5 86 C3.35 86 1.7 86 0 86 C0 57.62 0 29.24 0 0 Z " fill="#88969E" transform="translate(363,274)"/>
<path d="M0 0 C1.32 0.33 2.64 0.66 4 1 C4 1.66 4 2.32 4 3 C34.03 3.33 64.06 3.66 95 4 C95 31.06 95 58.12 95 86 C94.67 86 94.34 86 94 86 C94 59.27 94 32.54 94 5 C64.3 5 34.6 5 4 5 C4 31.73 4 58.46 4 86 C2.68 86 1.36 86 0 86 C0 57.62 0 29.24 0 0 Z " fill="#85939C" transform="translate(64,274)"/>
<path d="M0 0 C0.33 0.66 0.66 1.32 1 2 C31.69 2 62.38 2 94 2 C94 2.33 94 2.66 94 3 C64.3 3 34.6 3 4 3 C4 29.73 4 56.46 4 84 C2.35 84 0.7 84 -1 84 C-1.02312312 73.19541915 -1.04091493 62.39084414 -1.05181217 51.58624363 C-1.05704107 46.5697753 -1.06413883 41.55332385 -1.07543945 36.53686523 C-1.0862681 31.69990306 -1.09227679 26.86295716 -1.09487724 22.02598381 C-1.09673153 20.17631715 -1.10035222 18.32665143 -1.10573006 16.47699165 C-1.1129402 13.89552986 -1.11399095 11.31413618 -1.11352539 8.73266602 C-1.11712067 7.96014999 -1.12071594 7.18763397 -1.12442017 6.39170837 C-1.11405216 1.11405216 -1.11405216 1.11405216 0 0 Z " fill="#88969F" transform="translate(165,276)"/>
<path d="M0 0 C8.58 0 17.16 0 26 0 C26 6.27 26 12.54 26 19 C17.42 19 8.84 19 0 19 C0 12.73 0 6.46 0 0 Z " fill="#44555E" transform="translate(430,192)"/>
<path d="M0 0 C0.33 0 0.66 0 1 0 C1 2.97 1 5.94 1 9 C-9.26576008 9.04627383 -19.53149548 9.08184393 -29.79733849 9.10362434 C-34.56382294 9.11407612 -39.33023621 9.12826064 -44.09667969 9.15087891 C-48.69374927 9.17255773 -53.29075024 9.18455812 -57.88786697 9.18975449 C-59.64460964 9.19345919 -61.40134841 9.20069322 -63.15806198 9.21146011 C-65.61245688 9.22590924 -68.06656573 9.22798073 -70.52099609 9.22705078 C-71.25251389 9.23424133 -71.98403168 9.24143188 -72.73771667 9.24884033 C-77.77189568 9.22810432 -77.77189568 9.22810432 -80 7 C-80.125 4.375 -80.125 4.375 -80 2 C-78.97987823 2.11038857 -78.97987823 2.11038857 -77.93914795 2.2230072 C-69.25801611 3.06433189 -60.65976464 3.04479804 -51.953125 2.87890625 C-50.44570735 2.8545382 -48.93828108 2.8306983 -47.43084717 2.80735779 C-43.50506604 2.74518046 -39.57944184 2.67593409 -35.65380859 2.60510254 C-31.63125624 2.53381111 -27.60859454 2.46936091 -23.5859375 2.40429688 C-15.72383707 2.27614281 -7.86188939 2.14050395 0 2 C0 1.34 0 0.68 0 0 Z " fill="#D6D2BD" transform="translate(158,220)"/>
<path d="M0 0 C26.4 0 52.8 0 80 0 C80 1.98 80 3.96 80 6 C69.71695462 6.02312376 59.43391538 6.04091525 49.15084934 6.05181217 C44.3765172 6.05704093 39.60220279 6.06413844 34.82788086 6.07543945 C30.22433738 6.0862686 25.62081101 6.09227689 21.01725578 6.09487724 C19.25690377 6.09673144 17.49655274 6.10035196 15.73620796 6.10573006 C13.27927723 6.11294086 10.82241805 6.11399093 8.36547852 6.11352539 C7.63036545 6.11712067 6.89525238 6.12071594 6.13786316 6.12442017 C1.11405216 6.11405216 1.11405216 6.11405216 0 5 C0 3.35 0 1.7 0 0 Z " fill="#2B2F34" transform="translate(78,230)"/>
<path d="M0 0 C7.22655492 -0.02529174 14.4530985 -0.04284219 21.6796875 -0.05493164 C24.13965278 -0.05996989 26.59961505 -0.0668006 29.05957031 -0.07543945 C32.58920025 -0.08752723 36.11879069 -0.09323329 39.6484375 -0.09765625 C40.75367767 -0.10281754 41.85891785 -0.10797882 42.99765015 -0.11329651 C44.01855743 -0.11337204 45.03946472 -0.11344757 46.09130859 -0.11352539 C46.99287689 -0.115746 47.89444519 -0.11796661 48.82333374 -0.12025452 C51 0 51 0 53 1 C53.04241723 3.33294775 53.04092937 5.66702567 53 8 C52 9 52 9 49.90562439 9.12025452 C48.98407059 9.11803391 48.06251678 9.11581329 47.11303711 9.11352539 C46.07203354 9.11344986 45.03102997 9.11337433 43.95848083 9.11329651 C42.8262056 9.10813522 41.69393036 9.10297394 40.52734375 9.09765625 C39.37456436 9.0962413 38.22178497 9.09482635 37.03407288 9.09336853 C33.33518936 9.08775005 29.63636536 9.07519442 25.9375 9.0625 C23.43684983 9.05748738 20.93619871 9.05292406 18.43554688 9.04882812 C12.29034412 9.03777462 6.14517631 9.02101852 0 9 C0 6.03 0 3.06 0 0 Z " fill="#D8D4BF" transform="translate(269,220)"/>
<path d="M0 0 C8.58 0 17.16 0 26 0 C26 5.94 26 11.88 26 18 C17.42 18 8.84 18 0 18 C0 12.06 0 6.12 0 0 Z " fill="#43545D" transform="translate(430,215)"/>
<path d="M0 0 C29.7 0 59.4 0 90 0 C90 1.65 90 3.3 90 5 C60.3 5 30.6 5 0 5 C0 3.35 0 1.7 0 0 Z " fill="#282D31" transform="translate(169,230)"/>
<path d="M0 0 C0.33 0 0.66 0 1 0 C1 27.39 1 54.78 1 83 C3.475 82.505 3.475 82.505 6 82 C7.33746278 81.91856112 8.67808202 81.87787144 10.01802063 81.87974548 C10.78216782 81.87837082 11.546315 81.87699615 12.33361816 81.87557983 C13.15720825 81.87917511 13.98079834 81.88277039 14.8293457 81.88647461 C15.70789719 81.88632858 16.58644867 81.88618256 17.49162292 81.8860321 C20.38636776 81.88672701 23.2810477 81.89449964 26.17578125 81.90234375 C28.18645696 81.90420943 30.19713312 81.90563263 32.20780945 81.90663147 C37.49318706 81.91044483 42.77853708 81.92026505 48.06390381 81.93133545 C54.40907471 81.94337607 60.75425484 81.94795743 67.0994339 81.95378876 C76.73297511 81.96347742 86.3664558 81.98264226 96 82 C96 54.94 96 27.88 96 0 C96.66 0 97.32 0 98 0 C98 27.72 98 55.44 98 84 C65.66 84 33.32 84 0 84 C0 56.28 0 28.56 0 0 Z " fill="#9BA5AC" transform="translate(63,0)"/>
<path d="M0 0 C20.46 0 40.92 0 62 0 C62 1.32 62 2.64 62 4 C42.86 4 23.72 4 4 4 C3.67 4.99 3.34 5.98 3 7 C2.34 7 1.68 7 1 7 C1 64.09 1 121.18 1 180 C0.67 180 0.34 180 0 180 C0 120.6 0 61.2 0 0 Z " fill="#8E9AA3" transform="translate(462,87)"/>
<path d="M0 0 C11.22 0 22.44 0 34 0 C32.68 1.32 31.36 2.64 30 4 C29.34 4 28.68 4 28 4 C28 4.66 28 5.32 28 6 C22.58823529 10 22.58823529 10 20 10 C20 10.66 20 11.32 20 12 C17.03812728 14.17204 14.49314009 15.83561997 11 17 C11 17.66 11 18.32 11 19 C8 20 8 20 0 20 C0 13.4 0 6.8 0 0 Z " fill="#5E7885" transform="translate(0,279)"/>
<path d="M0 0 C0.99 0 1.98 0 3 0 C3 27.72 3 55.44 3 84 C-17.13 84 -37.26 84 -58 84 C-58 83.01 -58 82.02 -58 81 C-38.86 81 -19.72 81 0 81 C0 54.27 0 27.54 0 0 Z " fill="#949FA7" transform="translate(58,0)"/>
<path d="M0 0 C1.32 0 2.64 0 4 0 C4 26.73 4 53.46 4 81 C33.04 81 62.08 81 92 81 C92 81.33 92 81.66 92 82 C46.46 82.495 46.46 82.495 0 83 C0 55.61 0 28.22 0 0 Z " fill="#8A99A2" transform="translate(265,0)"/>
<path d="M0 0 C1.8253125 0.00193359 1.8253125 0.00193359 3.6875 0.00390625 C7.24112967 0.46906296 8.72891348 0.66420761 11 3.4375 C11.38121721 6.10301876 11.51578456 8.28592621 11.4375 10.9375 C11.44458984 11.61425781 11.45167969 12.29101562 11.45898438 12.98828125 C11.42173546 15.89369675 11.32667072 17.95614109 9.671875 20.39453125 C7.14859995 21.96863041 4.89675344 21.6306169 2 21.4375 C2.66 18.1375 3.32 14.8375 4 11.4375 C1.69 11.4375 -0.62 11.4375 -3 11.4375 C-3.66 14.7375 -4.32 18.0375 -5 21.4375 C-9 20.4375 -9 20.4375 -11 17.4375 C-11.3359375 14.44140625 -11.3359375 14.44140625 -11.375 11 C-11.40335937 9.86691406 -11.43171875 8.73382813 -11.4609375 7.56640625 C-11 4.4375 -11 4.4375 -9.4140625 2.0546875 C-6.15283477 -0.13001845 -3.89890797 -0.06195299 0 0 Z " fill="#2C3136" transform="translate(123,120.5625)"/>
<path d="M0 0 C6.93 0 13.86 0 21 0 C21 5.61 21 11.22 21 17 C14.07 17 7.14 17 0 17 C0 11.39 0 5.78 0 0 Z " fill="#42535B" transform="translate(503,148)"/>
<path d="M0 0 C8.25004758 -0.50510495 19.03675063 0.35783375 26 5 C26.1875 8.125 26.1875 8.125 26 11 C28.31 11.33 30.62 11.66 33 12 C33 12.66 33 13.32 33 14 C28.85982833 14.77242154 24.90338725 15.1485672 20.69433594 15.22119141 C18.85147003 15.25595078 18.85147003 15.25595078 16.97137451 15.29141235 C15.65566467 15.3112619 14.33995483 15.33111145 12.984375 15.3515625 C11.60442734 15.37472301 10.22448352 15.39811359 8.84454346 15.42172241 C5.9564601 15.47003897 3.06834825 15.5149726 0.18017578 15.55761719 C-3.49569953 15.61224502 -7.17134425 15.67616433 -10.8470192 15.74279213 C-13.69708268 15.79324403 -16.5472139 15.83820461 -19.39739227 15.88163376 C-21.40351246 15.91327987 -23.40955359 15.9498183 -25.41558838 15.98648071 C-32.35545101 16.08079834 -39.11511887 15.91097249 -46 15 C-45.67 14.01 -45.34 13.02 -45 12 C-23.22 11.67 -1.44 11.34 21 11 C21 10.01 21 9.02 21 8 C14.16047845 5.18372642 7.22245615 3.55238768 0 2 C0 1.34 0 0.68 0 0 Z " fill="#E7E4D6" transform="translate(125,208)"/>
<path d="M0 0 C29.7 0 59.4 0 90 0 C89.67 18.48 89.34 36.96 89 56 C88.67 56 88.34 56 88 56 C87.67 38.84 87.34 21.68 87 4 C58.29 3.67 29.58 3.34 0 3 C0 2.01 0 1.02 0 0 Z " fill="#919EA7" transform="translate(71,88)"/>
<path d="M0 0 C5.94 0 11.88 0 18 0 C18 5.94 18 11.88 18 18 C12.06 18 6.12 18 0 18 C0 12.06 0 6.12 0 0 Z " fill="#42545C" transform="translate(140,48)"/>
<path d="M0 0 C5.94 0 11.88 0 18 0 C18 5.94 18 11.88 18 18 C12.06 18 6.12 18 0 18 C0 12.06 0 6.12 0 0 Z " fill="#43545C" transform="translate(0,29)"/>
<path d="M0 0 C1.26070313 0.00257812 2.52140625 0.00515625 3.8203125 0.0078125 C5.70363281 0.00394531 5.70363281 0.00394531 7.625 0 C10.9453125 0.1328125 10.9453125 0.1328125 13.9453125 1.1328125 C15.45460633 4.15140016 15.17041323 7.26182204 15.1953125 10.5703125 C15.2159375 11.25158203 15.2365625 11.93285156 15.2578125 12.63476562 C15.29698341 17.63395348 15.29698341 17.63395348 13.5546875 20.10546875 C11.9453125 21.1328125 11.9453125 21.1328125 9.9453125 21.1328125 C8.7875619 17.65956069 8.87664598 14.77213802 8.9453125 11.1328125 C6.3053125 11.1328125 3.6653125 11.1328125 0.9453125 11.1328125 C1.2753125 14.4328125 1.6053125 17.7328125 1.9453125 21.1328125 C-0.0346875 21.1328125 -2.0146875 21.1328125 -4.0546875 21.1328125 C-4.08356896 17.82033063 -4.10144549 14.50788083 -4.1171875 11.1953125 C-4.12556641 10.24978516 -4.13394531 9.30425781 -4.14257812 8.33007812 C-4.14580078 7.43095703 -4.14902344 6.53183594 -4.15234375 5.60546875 C-4.15758057 4.77281494 -4.16281738 3.94016113 -4.16821289 3.08227539 C-3.9781664 -0.18121117 -3.33043527 0.14480153 0 0 Z " fill="#33393F" transform="translate(273.0546875,120.8671875)"/>
<path d="M0 0 C11.22 0 22.44 0 34 0 C34 1.32 34 2.64 34 4 C33.34 4 32.68 4 32 4 C31.67 5.65 31.34 7.3 31 9 C20.77 9 10.54 9 0 9 C0 6.03 0 3.06 0 0 Z " fill="#3B4852" transform="translate(270,299)"/>
<path d="M0 0 C0 1.98 0 3.96 0 6 C-17.16 6 -34.32 6 -52 6 C-52 4.35 -52 2.7 -52 1 C-44.75512963 0.85744828 -37.5102563 0.71504754 -30.26538086 0.57275391 C-27.79858329 0.52428647 -25.33178642 0.47578391 -22.86499023 0.42724609 C-19.32796403 0.35765594 -15.7909354 0.28819031 -12.25390625 0.21875 C-10.58830406 0.18593933 -10.58830406 0.18593933 -8.88905334 0.15246582 C-7.86807053 0.13244507 -6.84708771 0.11242432 -5.79516602 0.09179688 C-4.43948265 0.06514954 -4.43948265 0.06514954 -3.05641174 0.03796387 C-1 0 -1 0 0 0 Z " fill="#282D31" transform="translate(322,229)"/>
<path d="M0 0 C0.66 0 1.32 0 2 0 C2 27.39 2 54.78 2 83 C-28.36 82.67 -58.72 82.34 -90 82 C-90 81.67 -90 81.34 -90 81 C-60.3 81 -30.6 81 0 81 C0 54.27 0 27.54 0 0 Z " fill="#84939E" transform="translate(259,0)"/>
<path d="M0 0 C0.99 0 1.98 0 3 0 C3 28.38 3 56.76 3 86 C2.01 86 1.02 86 0 86 C0 57.62 0 29.24 0 0 Z " fill="#DEE3E4" transform="translate(161,274)"/>
<path d="M0 0 C0.99 0 1.98 0 3 0 C3 28.38 3 56.76 3 86 C2.01 86 1.02 86 0 86 C0 57.62 0 29.24 0 0 Z " fill="#98A3AB" transform="translate(58,274)"/>
<path d="M0 0 C0.66 0 1.32 0 2 0 C2 27.39 2 54.78 2 83 C-27.7 82.67 -57.4 82.34 -88 82 C-88 81.67 -88 81.34 -88 81 C-58.96 81 -29.92 81 0 81 C0 54.27 0 27.54 0 0 Z " fill="#87959F" transform="translate(456,0)"/>
<path d="M0 0 C0.33 0 0.66 0 1 0 C1.33 10.56 1.66 21.12 2 32 C2.66 31.67 3.32 31.34 4 31 C4 47.5 4 64 4 81 C2.68 81 1.36 81 0 81 C0 54.27 0 27.54 0 0 Z " fill="#8D9AA2" transform="translate(265,279)"/>
<path d="M0 0 C0.33 0 0.66 0 1 0 C1 28.38 1 56.76 1 86 C0.01 86 -0.98 86 -2 86 C-2.04632306 75.37762933 -2.08186908 64.75528265 -2.10362434 54.13283157 C-2.11406532 49.20049728 -2.1282303 44.26823205 -2.15087891 39.3359375 C-2.17259601 34.5767626 -2.18456626 29.81765416 -2.18975449 25.05843353 C-2.19345227 23.24194034 -2.20067303 21.42545082 -2.21146011 19.6089859 C-2.22595996 17.06639214 -2.22797857 14.52407371 -2.22705078 11.98144531 C-2.23424133 11.22906586 -2.24143188 10.4766864 -2.24884033 9.70150757 C-2.2341056 5.97426681 -2.07760692 3.16371495 0 0 Z " fill="#9CA7AD" transform="translate(458,274)"/>
<path d="M0 0 C2.31 0 4.62 0 7 0 C7.33 0.66 7.66 1.32 8 2 C7.34 2 6.68 2 6 2 C5.98541748 3.0194873 5.97083496 4.03897461 5.95581055 5.08935547 C5.89791534 8.86543166 5.82068335 12.64090596 5.73754883 16.41650391 C5.70425786 18.05182134 5.67623894 19.68725482 5.65356445 21.32275391 C5.62009372 23.67140243 5.56778564 26.01898337 5.51171875 28.3671875 C5.50532883 29.10057343 5.4989389 29.83395935 5.49235535 30.58956909 C5.43237305 32.65185547 5.43237305 32.65185547 5 36 C4.01 36.66 3.02 37.32 2 38 C1.52454116 40.13331595 1.52454116 40.13331595 1.56762695 42.63330078 C1.54783279 43.59414581 1.52803864 44.55499084 1.50764465 45.54495239 C1.50125473 46.58457123 1.49486481 47.62419006 1.48828125 48.6953125 C1.47033005 49.75789276 1.45237885 50.82047302 1.43388367 51.91525269 C1.37957998 55.31846107 1.34582037 58.72152764 1.3125 62.125 C1.27934468 64.42840524 1.24485671 66.73179172 1.20898438 69.03515625 C1.12384223 74.68997699 1.05557768 80.34481564 1 86 C0.67 86 0.34 86 0 86 C0 57.62 0 29.24 0 0 Z " fill="#A0ACB5" transform="translate(264,274)"/>
<path d="M0 0 C0.33 0 0.66 0 1 0 C0.48446121 6.49850211 -0.46667709 12.66226532 -2 19 C-2.75925781 19.06058594 -3.51851562 19.12117188 -4.30078125 19.18359375 C-5.29464844 19.26738281 -6.28851563 19.35117188 -7.3125 19.4375 C-8.29863281 19.51871094 -9.28476563 19.59992188 -10.30078125 19.68359375 C-13.09375599 19.91812559 -13.09375599 19.91812559 -16 21 C-18.1385485 18.8614515 -18.42655063 17.86724686 -19 15 C-18.154375 14.46375 -17.30875 13.9275 -16.4375 13.375 C-13.28505636 11.28576259 -10.51046545 8.88199509 -7.67578125 6.38671875 C-5.59426921 4.6642554 -3.32452044 3.36736497 -1 2 C-0.67 1.34 -0.34 0.68 0 0 Z " fill="#617A86" transform="translate(107,187)"/>
<path d="M0 0 C0.99 0.33 1.98 0.66 3 1 C2.67 29.05 2.34 57.1 2 86 C1.34 86 0.68 86 0 86 C0 57.62 0 29.24 0 0 Z " fill="#9EA7AD" transform="translate(461,274)"/>
<path d="M0 0 C0.33 0 0.66 0 1 0 C1 15.84 1 31.68 1 48 C-0.32 48 -1.64 48 -3 48 C-3 34.14 -3 20.28 -3 6 C-2.01 6 -1.02 6 0 6 C0 4.02 0 2.04 0 0 Z " fill="#556A78" transform="translate(356,17)"/>
<path d="M0 0 C8.25 0 16.5 0 25 0 C25.495 2.475 25.495 2.475 26 5 C6.53 5 -12.94 5 -33 5 C-33 4.67 -33 4.34 -33 4 C-22.11 3.67 -11.22 3.34 0 3 C0 2.01 0 1.02 0 0 Z " fill="#86959E" transform="translate(33,274)"/>
<path d="M0 0 C7.08413941 -0.02529271 14.16826723 -0.04284261 21.25244141 -0.05493164 C23.66390417 -0.05996974 26.07536386 -0.06680034 28.48681641 -0.07543945 C31.94694779 -0.08752787 35.4070389 -0.09323344 38.8671875 -0.09765625 C39.95055389 -0.10281754 41.03392029 -0.10797882 42.15011597 -0.11329651 C43.1510025 -0.11337204 44.15188904 -0.11344757 45.18310547 -0.11352539 C46.06690887 -0.115746 46.95071228 -0.11796661 47.86129761 -0.12025452 C50 0 50 0 52 1 C52 2.98 52 4.96 52 7 C50 5.625 50 5.625 48 4 C48 3.34 48 2.68 48 2 C32.16 2 16.32 2 0 2 C0 1.34 0 0.68 0 0 Z " fill="#E8E9DD" transform="translate(270,220)"/>
<path d="M0 0 C7.92 0 15.84 0 24 0 C24 1.32 24 2.64 24 4 C15.75 4 7.5 4 -1 4 C-0.67 2.68 -0.34 1.36 0 0 Z " fill="#576D79" transform="translate(432,211)"/>
<path d="M0 0 C1.10794922 -0.00128906 2.21589844 -0.00257813 3.35742188 -0.00390625 C4.51951172 -0.00003906 5.68160156 0.00382813 6.87890625 0.0078125 C8.03712891 0.00394531 9.19535156 0.00007812 10.38867188 -0.00390625 C12.0525293 -0.00197266 12.0525293 -0.00197266 13.75 0 C14.76892334 0.00112793 15.78784668 0.00225586 16.83764648 0.00341797 C19.44140625 0.1328125 19.44140625 0.1328125 22.44140625 1.1328125 C22.44140625 2.1228125 22.44140625 3.1128125 22.44140625 4.1328125 C12.21140625 4.1328125 1.98140625 4.1328125 -8.55859375 4.1328125 C-8.22859375 3.1428125 -7.89859375 2.1528125 -7.55859375 1.1328125 C-4.92691927 -0.18302474 -2.94383587 0.00326238 0 0 Z " fill="#E6E5D9" transform="translate(99.55859375,205.8671875)"/>
<path d="M0 0 C1.65 0 3.3 0 5 0 C5 5.94 5 11.88 5 18 C3.35 18 1.7 18 0 18 C0 12.06 0 6.12 0 0 Z " fill="#42525B" transform="translate(169,48)"/>
<path d="M0 0 C1.65 0 3.3 0 5 0 C5 5.94 5 11.88 5 18 C3.35 18 1.7 18 0 18 C0 12.06 0 6.12 0 0 Z " fill="#8C9AA1" transform="translate(363,0)"/>
<path d="M0 0 C21.45 0 42.9 0 65 0 C65 0.33 65 0.66 65 1 C45.53 1 26.06 1 6 1 C5.67 1.99 5.34 2.98 5 4 C4.67 3.34 4.34 2.68 4 2 C2.68 2.99 1.36 3.98 0 5 C0 3.35 0 1.7 0 0 Z " fill="#526874" transform="translate(169,92)"/>
<path d="M0 0 C0.66 0.33 1.32 0.66 2 1 C2 1.66 2 2.32 2 3 C2.66 3 3.32 3 4 3 C4 4.65 4 6.3 4 8 C5.32 8 6.64 8 8 8 C8 8.99 8 9.98 8 11 C6.02 11 4.04 11 2 11 C1.938125 10.05125 1.87625 9.1025 1.8125 8.125 C1.544375 7.09375 1.27625 6.0625 1 5 C-1.46255685 3.54708727 -1.46255685 3.54708727 -4 3 C-2.68 2.67 -1.36 2.34 0 2 C0 1.34 0 0.68 0 0 Z " fill="#657D88" transform="translate(149,208)"/>
<path d="M0 0 C3.63 0 7.26 0 11 0 C11 0.99 11 1.98 11 3 C7.04 2.67 3.08 2.34 -1 2 C-0.67 1.34 -0.34 0.68 0 0 Z " fill="#ECE8DA" transform="translate(111,207)"/>
<path d="M0 0 C2.31 0.33 4.62 0.66 7 1 C5.25 4.875 5.25 4.875 3 6 C0.6670134 6.04022391 -1.66706666 6.04320247 -4 6 C-4 5.67 -4 5.34 -4 5 C-2.35 4.67 -0.7 4.34 1 4 C0.67 2.68 0.34 1.36 0 0 Z " fill="#6A808A" transform="translate(123,201)"/>
<path d="M0 0 C1.98 0 3.96 0 6 0 C5.25 1.9375 5.25 1.9375 4 4 C1.875 4.75 1.875 4.75 0 5 C0 3.35 0 1.7 0 0 Z " fill="#43525F" transform="translate(0,299)"/>
<path d="M0 0 C2.64 0 5.28 0 8 0 C8 0.33 8 0.66 8 1 C6.35 1 4.7 1 3 1 C3 1.66 3 2.32 3 3 C3.99 3.33 4.98 3.66 6 4 C3.36 4 0.72 4 -2 4 C-1.34 3.67 -0.68 3.34 0 3 C0 2.01 0 1.02 0 0 Z " fill="#D7D9CE" transform="translate(122,207)"/>
<path d="M0 0 C0.66 0.33 1.32 0.66 2 1 C2 2.32 2 3.64 2 5 C-0.31 5 -2.62 5 -5 5 C-3.35 3.35 -1.7 1.7 0 0 Z " fill="#516572" transform="translate(56,263)"/>
<path d="M0 0 C1.32 0 2.64 0 4 0 C4 1.32 4 2.64 4 4 C4.66 4.33 5.32 4.66 6 5 C4.02 5 2.04 5 0 5 C0 3.35 0 1.7 0 0 Z " fill="#5F7A87" transform="translate(114,200)"/>
<path d="M0 0 C0.33 0 0.66 0 1 0 C1 1.98 1 3.96 1 6 C-0.98 6 -2.96 6 -5 6 C-1.125 1.125 -1.125 1.125 0 0 Z " fill="#5F7983" transform="translate(258,75)"/>
<path d="M0 0 C0.33 0 0.66 0 1 0 C3.29612756 9.41002278 3.29612756 9.41002278 3 14 C1 10.25 1 10.25 1 8 C0.34 8 -0.32 8 -1 8 C-0.67 5.36 -0.34 2.72 0 0 Z " fill="#56656E" transform="translate(287,162)"/>
<path d="M0 0 C2.97 0.495 2.97 0.495 6 1 C6 1.99 6 2.98 6 4 C4.68 4.33 3.36 4.66 2 5 C1.34 3.35 0.68 1.7 0 0 Z " fill="#ECE9DE" transform="translate(144,211)"/>
</svg>
