<?xml version="1.0" encoding="UTF-8"?>
<svg version="1.1" xmlns="http://www.w3.org/2000/svg" width="144" height="144">
<path d="M0 0 C47.52 0 95.04 0 144 0 C144 47.52 144 95.04 144 144 C96.48 144 48.96 144 0 144 C0 96.48 0 48.96 0 0 Z " fill="#FEFEFE" transform="translate(0,0)"/>
<path d="M0 0 C8.91 0 17.82 0 27 0 C27 1.32 27 2.64 27 4 C29.97 4 32.94 4 36 4 C36 5.32 36 6.64 36 8 C37.32 8 38.64 8 40 8 C40 9.65 40 11.3 40 13 C41.65 13 43.3 13 45 13 C45 14.32 45 15.64 45 17 C46.32 17 47.64 17 49 17 C49 19.97 49 22.94 49 26 C50.65 26 52.3 26 54 26 C54 34.91 54 43.82 54 53 C52.35 53.33 50.7 53.66 49 54 C49 56.97 49 59.94 49 63 C47.68 63 46.36 63 45 63 C45 64.32 45 65.64 45 67 C43.35 67 41.7 67 40 67 C40 68.65 40 70.3 40 72 C38.68 72 37.36 72 36 72 C36 73.32 36 74.64 36 76 C33.03 76 30.06 76 27 76 C26.67 77.65 26.34 79.3 26 81 C17.09 81 8.18 81 -1 81 C-1 79.35 -1 77.7 -1 76 C-3.97 76 -6.94 76 -10 76 C-10 74.68 -10 73.36 -10 72 C-11.32 72 -12.64 72 -14 72 C-14 70.35 -14 68.7 -14 67 C-15.65 67 -17.3 67 -19 67 C-19 65.68 -19 64.36 -19 63 C-20.32 63 -21.64 63 -23 63 C-23 60.03 -23 57.06 -23 54 C-24.32 54 -25.64 54 -27 54 C-27 45.09 -27 36.18 -27 27 C-25.68 27 -24.36 27 -23 27 C-23 23.7 -23 20.4 -23 17 C-21.68 17 -20.36 17 -19 17 C-19 15.68 -19 14.36 -19 13 C-17.35 13 -15.7 13 -14 13 C-14 11.35 -14 9.7 -14 8 C-12.68 8 -11.36 8 -10 8 C-10 6.68 -10 5.36 -10 4 C-6.7 4 -3.4 4 0 4 C0 2.68 0 1.36 0 0 Z " fill="#FC943A" transform="translate(59,32)"/>
<path d="M0 0 C8.91 0 17.82 0 27 0 C27 1.32 27 2.64 27 4 C29.97 4 32.94 4 36 4 C36 5.32 36 6.64 36 8 C37.32 8 38.64 8 40 8 C40 9.65 40 11.3 40 13 C41.65 13 43.3 13 45 13 C45 14.32 45 15.64 45 17 C46.32 17 47.64 17 49 17 C49 19.97 49 22.94 49 26 C50.65 26 52.3 26 54 26 C54 34.91 54 43.82 54 53 C52.35 53.33 50.7 53.66 49 54 C49 56.97 49 59.94 49 63 C47.68 63 46.36 63 45 63 C45 64.32 45 65.64 45 67 C43.35 67 41.7 67 40 67 C40 68.65 40 70.3 40 72 C38.68 72 37.36 72 36 72 C36 73.32 36 74.64 36 76 C33.03 76 30.06 76 27 76 C26.67 77.65 26.34 79.3 26 81 C17.09 81 8.18 81 -1 81 C-1 79.35 -1 77.7 -1 76 C-3.97 76 -6.94 76 -10 76 C-10 74.68 -10 73.36 -10 72 C-11.32 72 -12.64 72 -14 72 C-14 70.35 -14 68.7 -14 67 C-11.36 67 -8.72 67 -6 67 C-5.67 68.32 -5.34 69.64 -5 71 C5.23 71 15.46 71 26 71 C26.495 69.02 26.495 69.02 27 67 C32.94 66.505 32.94 66.505 39 66 C39.495 64.02 39.495 64.02 40 62 C41.32 62 42.64 62 44 62 C44 60.68 44 59.36 44 58 C41.03 58 38.06 58 35 58 C35 59.32 35 60.64 35 62 C26.42 62 17.84 62 9 62 C9 57.71 9 53.42 9 49 C10.32 49 11.64 49 13 49 C13 50.65 13 52.3 13 54 C17.62 54 22.24 54 27 54 C27 52.68 27 51.36 27 50 C29.64458379 48.67770811 31.67761301 48.90322806 34.625 48.9375 C36.12933594 48.95103516 36.12933594 48.95103516 37.6640625 48.96484375 C38.43492188 48.97644531 39.20578125 48.98804688 40 49 C40 47.35 40 45.7 40 44 C41.65 44 43.3 44 45 44 C45 38.72 45 33.44 45 28 C44.34 28 43.68 28 43 28 C43.33 24.7 43.66 21.4 44 18 C42.576875 17.87625 42.576875 17.87625 41.125 17.75 C38 17 38 17 36.625 14.9375 C36.41875 14.298125 36.2125 13.65875 36 13 C35.01 13.66 34.02 14.32 33 15 C30.71602968 14.65394389 29.06590963 14.03295481 27 13 C27 12.34 27 11.68 27 11 C25.68 10.67 24.36 10.34 23 10 C23.33 9.01 23.66 8.02 24 7 C24.66 7 25.32 7 26 7 C26 6.01 26 5.02 26 4 C17.42 4 8.84 4 0 4 C0 2.68 0 1.36 0 0 Z " fill="#4C5357" transform="translate(59,32)"/>
<path d="M0 0 C0.33 0 0.66 0 1 0 C1 5.61 1 11.22 1 17 C9.58 17 18.16 17 27 17 C27 15.68 27 14.36 27 13 C29.97 13 32.94 13 36 13 C36 14.32 36 15.64 36 17 C34.68 17 33.36 17 32 17 C31.505 19.475 31.505 19.475 31 22 C27.04 22 23.08 22 19 22 C18.505 24.475 18.505 24.475 18 27 C13.95834861 27.02915731 9.9167245 27.04685173 5.875 27.0625 C4.16183594 27.07506836 4.16183594 27.07506836 2.4140625 27.08789062 C1.30546875 27.09111328 0.196875 27.09433594 -0.9453125 27.09765625 C-2.46922607 27.10551147 -2.46922607 27.10551147 -4.02392578 27.11352539 C-7.09114726 26.99652309 -9.98633134 26.56776417 -13 26 C-13.33 25.01 -13.66 24.02 -14 23 C-16.64 22.67 -19.28 22.34 -22 22 C-22 20.35 -22 18.7 -22 17 C-23.32 17 -24.64 17 -26 17 C-26 15.68 -26 14.36 -26 13 C-23.03 13 -20.06 13 -17 13 C-17 14.32 -17 15.64 -17 17 C-15.68 17 -14.36 17 -13 17 C-13 14.03 -13 11.06 -13 8 C-11.68 8 -10.36 8 -9 8 C-9 6.68 -9 5.36 -9 4 C-6.03 4 -3.06 4 0 4 C0 2.68 0 1.36 0 0 Z " fill="#D3CAEC" transform="translate(67,77)"/>
<path d="M0 0 C2.64 0.99 5.28 1.98 8 3 C8.125 9.625 8.125 9.625 7 13 C7.66 13 8.32 13 9 13 C10.23004981 15.46009963 10.13314027 17.13172806 10.125 19.875 C10.12886719 21.17050781 10.12886719 21.17050781 10.1328125 22.4921875 C10.01023921 24.80665971 9.64966445 26.78289116 9 29 C7.35 29 5.7 29 4 29 C4 30.65 4 32.3 4 34 C-2.435 34.495 -2.435 34.495 -9 35 C-9 36.32 -9 37.64 -9 39 C-13.62 39 -18.24 39 -23 39 C-23 37.35 -23 35.7 -23 34 C-21.35 34 -19.7 34 -18 34 C-18 32.35 -18 30.7 -18 29 C-15.36 29 -12.72 29 -10 29 C-10 27.68 -10 26.36 -10 25 C-8.35 25 -6.7 25 -5 25 C-5 22.03 -5 19.06 -5 16 C-3.35 16 -1.7 16 0 16 C0 10.72 0 5.44 0 0 Z " fill="#DB5D37" transform="translate(95,47)"/>
<path d="M0 0 C2.64 0 5.28 0 8 0 C8.33 1.32 8.66 2.64 9 4 C19.23 4 29.46 4 40 4 C40.33 2.68 40.66 1.36 41 0 C43.97 0 46.94 0 50 0 C50 1.32 50 2.64 50 4 C51.32 4.33 52.64 4.66 54 5 C52.68 5 51.36 5 50 5 C50 6.32 50 7.64 50 9 C47.03 9 44.06 9 41 9 C40.67 10.65 40.34 12.3 40 14 C31.09 14 22.18 14 13 14 C13 12.35 13 10.7 13 9 C10.03 9 7.06 9 4 9 C4 7.68 4 6.36 4 5 C2.68 5 1.36 5 0 5 C0 3.35 0 1.7 0 0 Z " fill="#9D9CAF" transform="translate(45,99)"/>
<path d="M0 0 C1.32 0 2.64 0 4 0 C4 4.29 4 8.58 4 13 C5.65 13 7.3 13 9 13 C9 14.32 9 15.64 9 17 C10.32 17 11.64 17 13 17 C13 18.65 13 20.3 13 22 C14.299375 21.979375 15.59875 21.95875 16.9375 21.9375 C18.29165633 21.91600546 19.64756083 21.92851801 21 22 C22 23 22 23 22.09765625 25.72265625 C22.08605469 26.82480469 22.07445313 27.92695312 22.0625 29.0625 C22.05347656 30.16722656 22.04445313 31.27195312 22.03515625 32.41015625 C22.02355469 33.26480469 22.01195313 34.11945313 22 35 C20.68 35 19.36 35 18 35 C18 33.68 18 32.36 18 31 C15.03 31 12.06 31 9 31 C9 32.32 9 33.64 9 35 C10.32 35 11.64 35 13 35 C13 36.65 13 38.3 13 40 C11.35 40 9.7 40 8 40 C8 38.68 8 37.36 8 36 C6.68 36 5.36 36 4 36 C4 33.03 4 30.06 4 27 C2.68 27 1.36 27 0 27 C0 18.09 0 9.18 0 0 Z " fill="#4F4E4B" transform="translate(32,59)"/>
<path d="M0 0 C0.33 0 0.66 0 1 0 C1 5.61 1 11.22 1 17 C9.58 17 18.16 17 27 17 C27 15.68 27 14.36 27 13 C29.97 13 32.94 13 36 13 C36 14.32 36 15.64 36 17 C34.68 17 33.36 17 32 17 C31.505 19.475 31.505 19.475 31 22 C30.01 22 29.02 22 28 22 C28 20.68 28 19.36 28 18 C19.09 18 10.18 18 1 18 C1 19.32 1 20.64 1 22 C-3.62 22 -8.24 22 -13 22 C-13 17.38 -13 12.76 -13 8 C-11.68 8 -10.36 8 -9 8 C-9 6.68 -9 5.36 -9 4 C-6.03 4 -3.06 4 0 4 C0 2.68 0 1.36 0 0 Z " fill="#9C97A1" transform="translate(67,77)"/>
<path d="M0 0 C8.91 0 17.82 0 27 0 C27 1.32 27 2.64 27 4 C29.97 4 32.94 4 36 4 C36 5.32 36 6.64 36 8 C37.32 8 38.64 8 40 8 C40 9.65 40 11.3 40 13 C41.32 13 42.64 13 44 13 C44 14.65 44 16.3 44 18 C41.125 17.75 41.125 17.75 38 17 C36.625 14.9375 36.625 14.9375 36 13 C35.01 13.66 34.02 14.32 33 15 C30.71602968 14.65394389 29.06590963 14.03295481 27 13 C27 12.34 27 11.68 27 11 C25.68 10.67 24.36 10.34 23 10 C23.33 9.01 23.66 8.02 24 7 C24.66 7 25.32 7 26 7 C26 6.01 26 5.02 26 4 C17.42 4 8.84 4 0 4 C0 2.68 0 1.36 0 0 Z " fill="#DB8A4C" transform="translate(59,32)"/>
<path d="M0 0 C1.32 0 2.64 0 4 0 C4 8.91 4 17.82 4 27 C2.68 27 1.36 27 0 27 C0 29.97 0 32.94 0 36 C-1.32 36 -2.64 36 -4 36 C-4 37.32 -4 38.64 -4 40 C-5.65 40 -7.3 40 -9 40 C-9 41.32 -9 42.64 -9 44 C-10.32 44 -11.64 44 -13 44 C-13 42.68 -13 41.36 -13 40 C-11.515 39.505 -11.515 39.505 -10 39 C-9.26676204 36.98491642 -9.26676204 36.98491642 -9 35 C-7.68 35 -6.36 35 -5 35 C-5 33.68 -5 32.36 -5 31 C-6.32 31 -7.64 31 -9 31 C-9 29.35 -9 27.7 -9 26 C-8.01 26 -7.02 26 -6 26 C-6 24.68 -6 23.36 -6 22 C-4.02 21.67 -2.04 21.34 0 21 C0 14.07 0 7.14 0 0 Z " fill="#5E5C61" transform="translate(108,59)"/>
<path d="M0 0 C2.97 0 5.94 0 9 0 C9.66 1.32 10.32 2.64 11 4 C11.99 4.33 12.98 4.66 14 5 C14 7.64 14 10.28 14 13 C12.68 13 11.36 13 10 13 C10 14.65 10 16.3 10 18 C6.7 18 3.4 18 0 18 C0 16.68 0 15.36 0 14 C-0.66 14 -1.32 14 -2 14 C-2 11.03 -2 8.06 -2 5 C-1.01 5 -0.02 5 1 5 C0.67 3.35 0.34 1.7 0 0 Z " fill="#F5CD59" transform="translate(49,45)"/>
<path d="M0 0 C0.99 0.33 1.98 0.66 3 1 C3.6875 3.0625 3.6875 3.0625 4 5 C5.98 4.67 7.96 4.34 10 4 C10 3.34 10 2.68 10 2 C12.45840605 1.97308315 14.91651882 1.95320198 17.375 1.9375 C18.07367188 1.92912109 18.77234375 1.92074219 19.4921875 1.91210938 C24.7734375 1.88671875 24.7734375 1.88671875 27 3 C27 3.99 27 4.98 27 6 C28.32 6.66 29.64 7.32 31 8 C31 8.33 31 8.66 31 9 C25.72 9 20.44 9 15 9 C15 10.32 15 11.64 15 13 C13.68 13 12.36 13 11 13 C10.67 12.01 10.34 11.02 10 10 C7.36 9.67 4.72 9.34 2 9 C2 7.35 2 5.7 2 4 C0.68 4 -0.64 4 -2 4 C-2 3.01 -2 2.02 -2 1 C-1.34 0.67 -0.68 0.34 0 0 Z " fill="#F0974D" transform="translate(43,72)"/>
<path d="M0 0 C0.33 1.32 0.66 2.64 1 4 C2.32 4 3.64 4 5 4 C5 6.97 5 9.94 5 13 C6.65 13 8.3 13 10 13 C10 21.91 10 30.82 10 40 C9.67 40 9.34 40 9 40 C9 31.42 9 22.84 9 14 C7.68 14 6.36 14 5 14 C5 20.93 5 27.86 5 35 C0.545 35.495 0.545 35.495 -4 36 C-4 34.35 -4 32.7 -4 31 C-2.35 31 -0.7 31 1 31 C1 25.72 1 20.44 1 15 C0.34 15 -0.32 15 -1 15 C-0.67 10.05 -0.34 5.1 0 0 Z " fill="#AD776C" transform="translate(103,45)"/>
<path d="M0 0 C1.32 0 2.64 0 4 0 C4 1.65 4 3.3 4 5 C8.62 5 13.24 5 18 5 C18 3.68 18 2.36 18 1 C21.00313748 -0.50156874 23.79067522 -0.09281204 27.125 -0.0625 C28.40632813 -0.05347656 29.68765625 -0.04445313 31.0078125 -0.03515625 C31.99523437 -0.02355469 32.98265625 -0.01195313 34 0 C34 1.32 34 2.64 34 4 C33.39671875 4.04898438 32.7934375 4.09796875 32.171875 4.1484375 C31.37265625 4.22320312 30.5734375 4.29796875 29.75 4.375 C28.96109375 4.44460937 28.1721875 4.51421875 27.359375 4.5859375 C24.87914019 5.0212105 23.14017625 5.68369691 21 7 C20.67 7.66 20.34 8.32 20 9 C14.39 9 8.78 9 3 9 C3 8.34 3 7.68 3 7 C2.2575 6.319375 2.2575 6.319375 1.5 5.625 C0 4 0 4 0 0 Z " fill="#5B4B47" transform="translate(68,81)"/>
<path d="M0 0 C8.58 0 17.16 0 26 0 C26 1.32 26 2.64 26 4 C17.42 4 8.84 4 0 4 C0 2.68 0 1.36 0 0 Z " fill="#1F1F26" transform="translate(59,108)"/>
<path d="M0 0 C2.97 0 5.94 0 9 0 C9 1.32 9 2.64 9 4 C10.32 4 11.64 4 13 4 C13 5.65 13 7.3 13 9 C16.3 9 19.6 9 23 9 C23 9.66 23 10.32 23 11 C20.03 11 17.06 11 14 11 C13.67 11.66 13.34 12.32 13 13 C12.67 12.01 12.34 11.02 12 10 C9.36 9.67 6.72 9.34 4 9 C4 7.35 4 5.7 4 4 C2.68 4 1.36 4 0 4 C0 2.68 0 1.36 0 0 Z " fill="#D3CFEB" transform="translate(41,90)"/>
<path d="M0 0 C1.32 0 2.64 0 4 0 C4 8.58 4 17.16 4 26 C2.68 26 1.36 26 0 26 C0 17.42 0 8.84 0 0 Z " fill="#341813" transform="translate(108,59)"/>
<path d="M0 0 C8.58 0 17.16 0 26 0 C26 1.32 26 2.64 26 4 C17.42 4 8.84 4 0 4 C0 2.68 0 1.36 0 0 Z " fill="#2F1D0E" transform="translate(59,32)"/>
<path d="M0 0 C1.32 0 2.64 0 4 0 C4 8.25 4 16.5 4 25 C2.68 25.33 1.36 25.66 0 26 C0 17.42 0 8.84 0 0 Z " fill="#271E16" transform="translate(32,59)"/>
<path d="M0 0 C1.65 0 3.3 0 5 0 C5 1.32 5 2.64 5 4 C6.32 4 7.64 4 9 4 C9 5.65 9 7.3 9 9 C7.68 9 6.36 9 5 9 C5 10.32 5 11.64 5 13 C3.68 13 2.36 13 1 13 C1 11.68 1 10.36 1 9 C-0.65 9 -2.3 9 -4 9 C-4 7.35 -4 5.7 -4 4 C-2.68 4 -1.36 4 0 4 C0 2.68 0 1.36 0 0 Z " fill="#FBFBFC" transform="translate(58,81)"/>
<path d="M0 0 C5.445 0.495 5.445 0.495 11 1 C11 1.99 11 2.98 11 4 C10.01 4 9.02 4 8 4 C8 4.99 8 5.98 8 7 C0.74 7 -6.52 7 -14 7 C-14 6.34 -14 5.68 -14 5 C-11.03 5 -8.06 5 -5 5 C-5 4.34 -5 3.68 -5 3 C-3.35 3 -1.7 3 0 3 C0 2.01 0 1.02 0 0 Z " fill="#DCCFF5" transform="translate(69,96)"/>
<path d="M0 0 C1.9375 0.375 1.9375 0.375 4 1 C5.26237731 3.52475462 5.09856404 5.31200466 5.0625 8.125 C5.05347656 9.03507812 5.04445313 9.94515625 5.03515625 10.8828125 C5.02355469 11.58148438 5.01195312 12.28015625 5 13 C6.32 13 7.64 13 9 13 C9 14.65 9 16.3 9 18 C7.35 18 5.7 18 4 18 C4 16.68 4 15.36 4 14 C2.68 14 1.36 14 0 14 C0 11.03 0 8.06 0 5 C-1.32 4.67 -2.64 4.34 -4 4 C-3.01 3.67 -2.02 3.34 -1 3 C-0.67 2.01 -0.34 1.02 0 0 Z " fill="#57545E" transform="translate(36,81)"/>
<path d="M0 0 C8.58 0 17.16 0 26 0 C26 0.99 26 1.98 26 3 C18.41 2.67 10.82 2.34 3 2 C2.34 3.65 1.68 5.3 1 7 C-2.3 7.33 -5.6 7.66 -9 8 C-9 7.01 -9 6.02 -9 5 C-6.36 4.67 -3.72 4.34 -1 4 C-0.67 2.68 -0.34 1.36 0 0 Z " fill="#E4975D" transform="translate(59,36)"/>
<path d="M0 0 C0.88300781 0.00902344 1.76601562 0.01804687 2.67578125 0.02734375 C3.67158203 0.04474609 3.67158203 0.04474609 4.6875 0.0625 C4.6875 0.7225 4.6875 1.3825 4.6875 2.0625 C-1.7475 2.5575 -1.7475 2.5575 -8.3125 3.0625 C-8.3125 4.3825 -8.3125 5.7025 -8.3125 7.0625 C-12.9325 7.0625 -17.5525 7.0625 -22.3125 7.0625 C-22.3125 5.7425 -22.3125 4.4225 -22.3125 3.0625 C-21.10013672 2.86333984 -21.10013672 2.86333984 -19.86328125 2.66015625 C-18.79464844 2.48355469 -17.72601563 2.30695313 -16.625 2.125 C-15.56925781 1.95097656 -14.51351562 1.77695313 -13.42578125 1.59765625 C-11.52665234 1.27120624 -9.63216892 0.91315903 -7.75 0.5 C-5.11494415 0.02704126 -2.67463998 -0.03566187 0 0 Z " fill="#C36046" transform="translate(94.3125,78.9375)"/>
<path d="M0 0 C1.65 0 3.3 0 5 0 C5 1.32 5 2.64 5 4 C6.32 4 7.64 4 9 4 C9 5.65 9 7.3 9 9 C11.64 9 14.28 9 17 9 C16.01 10.485 16.01 10.485 15 12 C15 11.34 15 10.68 15 10 C12.03 10.66 9.06 11.32 6 12 C6 11.01 6 10.02 6 9 C4.02 9 2.04 9 0 9 C0 6.03 0 3.06 0 0 Z " fill="#684F3D" transform="translate(36,72)"/>
<path d="M0 0 C2.64 0 5.28 0 8 0 C8.33 1.32 8.66 2.64 9 4 C10.32 4 11.64 4 13 4 C13 5.65 13 7.3 13 9 C10.03 9 7.06 9 4 9 C4 7.68 4 6.36 4 5 C2.68 5 1.36 5 0 5 C0 3.35 0 1.7 0 0 Z " fill="#6C6B76" transform="translate(45,99)"/>
<path d="M0 0 C1.65 0 3.3 0 5 0 C5 1.65 5 3.3 5 5 C3.68 5 2.36 5 1 5 C1 7.64 1 10.28 1 13 C-0.65 13.33 -2.3 13.66 -4 14 C-4 10.7 -4 7.4 -4 4 C-2.68 4 -1.36 4 0 4 C0 2.68 0 1.36 0 0 Z " fill="#6E4E32" transform="translate(40,45)"/>
<path d="M0 0 C3.3 0 6.6 0 10 0 C9.67 1.65 9.34 3.3 9 5 C6.36 5 3.72 5 1 5 C1 6.32 1 7.64 1 9 C-0.65 9 -2.3 9 -4 9 C-4 7.35 -4 5.7 -4 4 C-2.68 4 -1.36 4 0 4 C0 2.68 0 1.36 0 0 Z " fill="#6F4D31" transform="translate(49,36)"/>
<path d="M0 0 C1.3303125 0.4021875 1.3303125 0.4021875 2.6875 0.8125 C2.6875 2.1325 2.6875 3.4525 2.6875 4.8125 C1.0375 4.8125 -0.6125 4.8125 -2.3125 4.8125 C-2.3125 6.1325 -2.3125 7.4525 -2.3125 8.8125 C-4.9525 8.8125 -7.5925 8.8125 -10.3125 8.8125 C-8.31714561 3.91481194 -5.62191329 -0.31822151 0 0 Z " fill="#575B64" transform="translate(96.3125,85.1875)"/>
<path d="M0 0 C1.25683594 0.00322266 2.51367188 0.00644531 3.80859375 0.00976562 C5.12730469 0.01814453 6.44601563 0.02652344 7.8046875 0.03515625 C9.14452961 0.04017136 10.4843735 0.04473424 11.82421875 0.04882812 C15.10941956 0.06064539 18.39453147 0.07712008 21.6796875 0.09765625 C21.6796875 0.42765625 21.6796875 0.75765625 21.6796875 1.09765625 C13.0996875 1.09765625 4.5196875 1.09765625 -4.3203125 1.09765625 C-4.3203125 2.41765625 -4.3203125 3.73765625 -4.3203125 5.09765625 C-7.6203125 5.09765625 -10.9203125 5.09765625 -14.3203125 5.09765625 C-14.6503125 3.77765625 -14.9803125 2.45765625 -15.3203125 1.09765625 C-14.3509375 1.28328125 -13.3815625 1.46890625 -12.3828125 1.66015625 C-11.3721875 1.80453125 -10.3615625 1.94890625 -9.3203125 2.09765625 C-8.9903125 1.76765625 -8.6603125 1.43765625 -8.3203125 1.09765625 C-5.50207058 -0.31146471 -3.14779968 -0.01417928 0 0 Z " fill="#C6C7C3" transform="translate(63.3203125,30.90234375)"/>
<path d="M0 0 C1.32 0 2.64 0 4 0 C4 1.65 4 3.3 4 5 C8.62 5 13.24 5 18 5 C18 3.68 18 2.36 18 1 C19.98 0.67 21.96 0.34 24 0 C22.25 4.875 22.25 4.875 20 6 C18.55151418 6.08342159 17.09929131 6.10732861 15.6484375 6.09765625 C14.79765625 6.09443359 13.946875 6.09121094 13.0703125 6.08789062 C12.18085937 6.07951172 11.29140625 6.07113281 10.375 6.0625 C9.4778125 6.05798828 8.580625 6.05347656 7.65625 6.04882812 C5.43743352 6.03702591 3.21874982 6.02056155 1 6 C0.67 4.02 0.34 2.04 0 0 Z " fill="#734A40" transform="translate(68,81)"/>
<path d="M0 0 C1.65 0.33 3.3 0.66 5 1 C5 2.32 5 3.64 5 5 C4.01 5 3.02 5 2 5 C2 7.64 2 10.28 2 13 C1.34 13 0.68 13 0 13 C-0.33 12.01 -0.66 11.02 -1 10 C-1.66 10 -2.32 10 -3 10 C-3.33 10.99 -3.66 11.98 -4 13 C-4 10.36 -4 7.72 -4 5 C-2.68 5 -1.36 5 0 5 C0 3.35 0 1.7 0 0 Z " fill="#E9B552" transform="translate(45,45)"/>
<path d="M0 0 C0.33 0 0.66 0 1 0 C1 2.31 1 4.62 1 7 C2.98 7.495 2.98 7.495 5 8 C5 9.32 5 10.64 5 12 C8.3 12 11.6 12 15 12 C15 10.35 15 8.7 15 7 C16.32 7.33 17.64 7.66 19 8 C18.9375 9.8125 18.9375 9.8125 18 12 C13.52150929 14.45877921 10.18273404 15.49359372 5 15 C4 14 4 14 3.9375 11.4375 C3.958125 10.633125 3.97875 9.82875 4 9 C2.68 8.67 1.36 8.34 0 8 C0 5.36 0 2.72 0 0 Z " fill="#EFA133" transform="translate(44,51)"/>
<path d="M0 0 C1.32 0 2.64 0 4 0 C4 2.64 4 5.28 4 8 C-0.455 8.495 -0.455 8.495 -5 9 C-5 7.35 -5 5.7 -5 4 C-3.35 4 -1.7 4 0 4 C0 2.68 0 1.36 0 0 Z " fill="#7D4D3E" transform="translate(104,72)"/>
<path d="M0 0 C1.65 0 3.3 0 5 0 C5 5.94 5 11.88 5 18 C4.01 18 3.02 18 2 18 C2.020625 16.845 2.04125 15.69 2.0625 14.5 C2.11334509 7.02491653 2.11334509 7.02491653 0 0 Z " fill="#F68645" transform="translate(90,45)"/>
<path d="M0 0 C1.134375 0.020625 2.26875 0.04125 3.4375 0.0625 C3.4375 2.3725 3.4375 4.6825 3.4375 7.0625 C0.7975 7.0625 -1.8425 7.0625 -4.5625 7.0625 C-4.60504356 5.06295254 -4.60330783 3.06208364 -4.5625 1.0625 C-3.5625 0.0625 -3.5625 0.0625 0 0 Z " fill="#FFFACB" transform="translate(54.5625,50.9375)"/>
<path d="M0 0 C4.29 0 8.58 0 13 0 C13 1.32 13 2.64 13 4 C8.71 4 4.42 4 0 4 C0 2.68 0 1.36 0 0 Z " fill="#574F43" transform="translate(54,77)"/>
<path d="M0 0 C0.66 0 1.32 0 2 0 C2.33 2.64 2.66 5.28 3 8 C7.455 8.99 7.455 8.99 12 10 C12 10.99 12 11.98 12 13 C8.7 13 5.4 13 2 13 C2 11.68 2 10.36 2 9 C1.34 9 0.68 9 0 9 C0 6.03 0 3.06 0 0 Z " fill="#F7CA55" transform="translate(47,50)"/>
<path d="M0 0 C3.96 0 7.92 0 12 0 C12.33 1.32 12.66 2.64 13 4 C8.71 4 4.42 4 0 4 C0 2.68 0 1.36 0 0 Z " fill="#7C7989" transform="translate(54,95)"/>
<path d="M0 0 C0 0.99 0 1.98 0 3 C1.32 3.66 2.64 4.32 4 5 C4 5.33 4 5.66 4 6 C2.02 6 0.04 6 -2 6 C-2 4.68 -2 3.36 -2 2 C-6.62 2 -11.24 2 -16 2 C-16 1.34 -16 0.68 -16 0 C-14.08416353 -0.1958009 -12.16727461 -0.38132214 -10.25 -0.5625 C-8.64898437 -0.71912109 -8.64898437 -0.71912109 -7.015625 -0.87890625 C-4.35858796 -0.98560074 -2.50039428 -0.81930395 0 0 Z " fill="#D28F50" transform="translate(70,75)"/>
<path d="M0 0 C0.66 0 1.32 0 2 0 C2 7.26 2 14.52 2 22 C0.68 22 -0.64 22 -2 22 C-2 19.36 -2 16.72 -2 14 C-1.34 14 -0.68 14 0 14 C0 9.38 0 4.76 0 0 Z " fill="#212022" transform="translate(110,63)"/>
<path d="M0 0 C0.721875 0.00257812 1.44375 0.00515625 2.1875 0.0078125 C2.909375 0.00523438 3.63125 0.00265625 4.375 0 C6.1875 0.1328125 6.1875 0.1328125 7.1875 1.1328125 C7.25955511 2.81890216 7.27136068 4.50781909 7.25 6.1953125 C7.24097656 7.11441406 7.23195313 8.03351562 7.22265625 8.98046875 C7.21105469 9.69074219 7.19945312 10.40101562 7.1875 11.1328125 C0.5625 11.3828125 0.5625 11.3828125 -2.8125 9.1328125 C-3.28364738 6.3900617 -2.99055784 3.93722353 -2.8125 1.1328125 C-1.8125 0.1328125 -1.8125 0.1328125 0 0 Z M-1.8125 3.1328125 C-1.85330783 5.13239614 -1.85504356 7.13326504 -1.8125 9.1328125 C0.8275 9.1328125 3.4675 9.1328125 6.1875 9.1328125 C6.1875 6.8228125 6.1875 4.5128125 6.1875 2.1328125 C1.86429914 1.62914749 1.86429914 1.62914749 -1.8125 3.1328125 Z " fill="#FAE593" transform="translate(51.8125,48.8671875)"/>
<path d="M0 0 C1.32 0 2.64 0 4 0 C4 1.32 4 2.64 4 4 C5.32 4 6.64 4 8 4 C8 5.65 8 7.3 8 9 C2.25 8.25 2.25 8.25 0 6 C-0.125 2.875 -0.125 2.875 0 0 Z " fill="#743D2E" transform="translate(95,41)"/>
<path d="M0 0 C1.65 0 3.3 0 5 0 C5 1.32 5 2.64 5 4 C6.32 4 7.64 4 9 4 C9 5.65 9 7.3 9 9 C8.34 8.01 7.68 7.02 7 6 C5.0480428 5.0950739 5.0480428 5.0950739 3 5 C2.34 5.66 1.68 6.32 1 7 C1 6.34 1 5.68 1 5 C0.01 5.495 0.01 5.495 -1 6 C-1.33 6.99 -1.66 7.98 -2 9 C-2.66 9 -3.32 9 -4 9 C-4 7.35 -4 5.7 -4 4 C-2.68 4 -1.36 4 0 4 C0 2.68 0 1.36 0 0 Z " fill="#EFF4F7" transform="translate(58,81)"/>
<path d="M0 0 C2.64 0 5.28 0 8 0 C8 1.65 8 3.3 8 5 C5.36 4.67 2.72 4.34 0 4 C0 2.68 0 1.36 0 0 Z " fill="#E8E5EF" transform="translate(41,90)"/>
<path d="M0 0 C1.65 0 3.3 0 5 0 C5 1.32 5 2.64 5 4 C6.32 4 7.64 4 9 4 C9 5.32 9 6.64 9 8 C7.0625 7.625 7.0625 7.625 5 7 C4.67 6.34 4.34 5.68 4 5 C1.97536745 4.34786708 1.97536745 4.34786708 0 4 C0 2.68 0 1.36 0 0 Z " fill="#AA5D35" transform="translate(36,72)"/>
<path d="M0 0 C1.32 0 2.64 0 4 0 C4 2.97 4 5.94 4 9 C2.68 9 1.36 9 0 9 C0 6.03 0 3.06 0 0 Z " fill="#392611" transform="translate(36,50)"/>
<path d="M0 0 C2.97 0 5.94 0 9 0 C9 1.32 9 2.64 9 4 C6.03 4 3.06 4 0 4 C0 2.68 0 1.36 0 0 Z " fill="#392612" transform="translate(50,36)"/>
<path d="M0 0 C2.64 0 5.28 0 8 0 C8 1.65 8 3.3 8 5 C5.36 4.67 2.72 4.34 0 4 C0 2.68 0 1.36 0 0 Z " fill="#401E13" transform="translate(86,36)"/>
<path d="M0 0 C2.64 0 5.28 0 8 0 C8 1.32 8 2.64 8 4 C5.69 4.33 3.38 4.66 1 5 C0.67 3.35 0.34 1.7 0 0 Z " fill="#BFBACE" transform="translate(95,90)"/>
<path d="M0 0 C1.65 0 3.3 0 5 0 C5.33 0.66 5.66 1.32 6 2 C6.66 2 7.32 2 8 2 C8 4.31 8 6.62 8 9 C6.68 9 5.36 9 4 9 C3.67 6.36 3.34 3.72 3 1 C2.01 0.67 1.02 0.34 0 0 Z " fill="#6A686A" transform="translate(37,81)"/>
<path d="M0 0 C1.32 0 2.64 0 4 0 C4 1.32 4 2.64 4 4 C2.68 4 1.36 4 0 4 C0 5.32 0 6.64 0 8 C-1.32 8 -2.64 8 -4 8 C-4 6.68 -4 5.36 -4 4 C-3.01 3.67 -2.02 3.34 -1 3 C-0.67 2.01 -0.34 1.02 0 0 Z " fill="#28252D" transform="translate(99,95)"/>
<path d="M0 0 C0.33 1.32 0.66 2.64 1 4 C2.32 4 3.64 4 5 4 C5 5.32 5 6.64 5 8 C3.68 8 2.36 8 1 8 C0.67 7.01 0.34 6.02 0 5 C-2.64 4.67 -5.28 4.34 -8 4 C-8 3.34 -8 2.68 -8 2 C-5.36 2 -2.72 2 0 2 C0 1.34 0 0.68 0 0 Z " fill="#B89E8B" transform="translate(53,77)"/>
<path d="M0 0 C2.64 0 5.28 0 8 0 C8 1.32 8 2.64 8 4 C5.36 4 2.72 4 0 4 C0 2.68 0 1.36 0 0 Z " fill="#202027" transform="translate(86,104)"/>
<path d="M0 0 C2.64 0 5.28 0 8 0 C8 1.32 8 2.64 8 4 C5.36 4 2.72 4 0 4 C0 2.68 0 1.36 0 0 Z " fill="#201F24" transform="translate(50,104)"/>
<path d="M0 0 C2.64 0 5.28 0 8 0 C8 1.32 8 2.64 8 4 C5.36 4 2.72 4 0 4 C0 2.68 0 1.36 0 0 Z " fill="#A8A3BE" transform="translate(86,99)"/>
<path d="M0 0 C1.32 0 2.64 0 4 0 C3.34 4.29 2.68 8.58 2 13 C1.34 13 0.68 13 0 13 C0 8.71 0 4.42 0 0 Z " fill="#E39764" transform="translate(36,59)"/>
<path d="M0 0 C1.32 0 2.64 0 4 0 C4 2.64 4 5.28 4 8 C2.68 8 1.36 8 0 8 C0 5.36 0 2.72 0 0 Z " fill="#341911" transform="translate(104,50)"/>
<path d="M0 0 C1.32 0.33 2.64 0.66 4 1 C4 3.31 4 5.62 4 8 C2.68 8 1.36 8 0 8 C0 5.36 0 2.72 0 0 Z " fill="#1F1E22" transform="translate(104,86)"/>
<path d="M0 0 C0.99 0 1.98 0 3 0 C3 2.64 3 5.28 3 8 C1.68 8 0.36 8 -1 8 C-1.04241723 5.66705225 -1.04092937 3.33297433 -1 1 C-0.67 0.67 -0.34 0.34 0 0 Z " fill="#201F26" transform="translate(37,86)"/>
<path d="M0 0 C1.32 0.33 2.64 0.66 4 1 C4 1.66 4 2.32 4 3 C10.93 3.495 10.93 3.495 18 4 C18 4.33 18 4.66 18 5 C12.39 5 6.78 5 1 5 C0.67 3.35 0.34 1.7 0 0 Z " fill="#A4A3B7" transform="translate(58,103)"/>
<path d="M0 0 C0.33 1.32 0.66 2.64 1 4 C2.32 4.33 3.64 4.66 5 5 C3.68 5 2.36 5 1 5 C0.67 6.32 0.34 7.64 0 9 C0 7.68 0 6.36 0 5 C-2.64 5 -5.28 5 -8 5 C-8 7.64 -8 10.28 -8 13 C-8.33 13 -8.66 13 -9 13 C-9 10.03 -9 7.06 -9 4 C-6.03 4 -3.06 4 0 4 C0 2.68 0 1.36 0 0 Z " fill="#787682" transform="translate(94,99)"/>
<path d="M0 0 C6.93 0.495 6.93 0.495 14 1 C14 1.66 14 2.32 14 3 C9.38 3 4.76 3 0 3 C0 2.01 0 1.02 0 0 Z " fill="#A26054" transform="translate(72,83)"/>
<path d="M0 0 C1.65 0 3.3 0 5 0 C5 1.32 5 2.64 5 4 C6.32 4.33 7.64 4.66 9 5 C6.03 5 3.06 5 0 5 C0 3.35 0 1.7 0 0 Z " fill="#ADADB3" transform="translate(54,90)"/>
<path d="M0 0 C1.9375 0.375 1.9375 0.375 4 1 C5.35439668 3.70879335 5.06501451 6.00933268 5 9 C4.67 7.68 4.34 6.36 4 5 C3.13375 5.309375 3.13375 5.309375 2.25 5.625 C-0.51967567 6.08661261 -1.64561267 5.42944945 -4 4 C-3.01 3.67 -2.02 3.34 -1 3 C-0.67 2.01 -0.34 1.02 0 0 Z " fill="#525253" transform="translate(36,81)"/>
<path d="M0 0 C0.33 1.32 0.66 2.64 1 4 C2.32 4.33 3.64 4.66 5 5 C3.68 5 2.36 5 1 5 C1 6.32 1 7.64 1 9 C-0.65 9 -2.3 9 -4 9 C-4 7.68 -4 6.36 -4 5 C-2.68 5 -1.36 5 0 5 C0 3.35 0 1.7 0 0 Z " fill="#A86952" transform="translate(94,36)"/>
<path d="M0 0 C0.33 1.32 0.66 2.64 1 4 C2.32 4.33 3.64 4.66 5 5 C3.35 5.66 1.7 6.32 0 7 C0.33 7.66 0.66 8.32 1 9 C-0.65 9 -2.3 9 -4 9 C-4 7.68 -4 6.36 -4 5 C-2.68 5 -1.36 5 0 5 C0 3.35 0 1.7 0 0 Z " fill="#CFCCD5" transform="translate(49,90)"/>
<path d="M0 0 C0.268125 0.639375 0.53625 1.27875 0.8125 1.9375 C1.88667752 4.33131686 1.88667752 4.33131686 5 5 C4.67 6.32 4.34 7.64 4 9 C3.01 9 2.02 9 1 9 C1 7.68 1 6.36 1 5 C-0.98 5 -2.96 5 -5 5 C-5 4.67 -5 4.34 -5 4 C-3.35 4 -1.7 4 0 4 C0 2.68 0 1.36 0 0 Z " fill="#A9A2B6" transform="translate(94,90)"/>
<path d="M0 0 C0.33 1.32 0.66 2.64 1 4 C2.32 4.33 3.64 4.66 5 5 C3.68 5 2.36 5 1 5 C1 7.64 1 10.28 1 13 C2.32 13.33 3.64 13.66 5 14 C3.02 14.33 1.04 14.66 -1 15 C-0.67 10.05 -0.34 5.1 0 0 Z " fill="#935C4D" transform="translate(103,45)"/>
<path d="M0 0 C0.5534764 2.07553648 1 3.84365964 1 6 C-0.65 6 -2.3 6 -4 6 C-4 4.35 -4 2.7 -4 1 C-2.68 0.67 -1.36 0.34 0 0 Z " fill="#515558" transform="translate(49,84)"/>
<path d="M0 0 C1.65 0 3.3 0 5 0 C5 1.32 5 2.64 5 4 C3.02 4 1.04 4 -1 4 C-0.67 2.68 -0.34 1.36 0 0 Z " fill="#FCFEED" transform="translate(52,52)"/>
<path d="M0 0 C0 2.31 0 4.62 0 7 C-0.99 7.495 -0.99 7.495 -2 8 C-2.66 5.69 -3.32 3.38 -4 1 C-2 0 -2 0 0 0 Z " fill="#CA634F" transform="translate(103,50)"/>
<path d="M0 0 C0.99 0 1.98 0 3 0 C3 1.32 3 2.64 3 4 C1.02 4.33 -0.96 4.66 -3 5 C-3.33 4.34 -3.66 3.68 -4 3 C-3.01 3 -2.02 3 -1 3 C-0.67 2.01 -0.34 1.02 0 0 Z " fill="#534B45" transform="translate(99,81)"/>
<path d="M0 0 C4.29 0 8.58 0 13 0 C13 0.66 13 1.32 13 2 C12.31292969 1.98839844 11.62585938 1.97679688 10.91796875 1.96484375 C10.01691406 1.95582031 9.11585937 1.94679688 8.1875 1.9375 C7.29417969 1.92589844 6.40085937 1.91429688 5.48046875 1.90234375 C2.86586209 1.88990033 2.86586209 1.88990033 0 3 C0 2.01 0 1.02 0 0 Z " fill="#714927" transform="translate(54,77)"/>
<path d="M0 0 C1.98 0.99 3.96 1.98 6 3 C5.01 3.495 5.01 3.495 4 4 C4 4.66 4 5.32 4 6 C2.68 6 1.36 6 0 6 C0 4.02 0 2.04 0 0 Z " fill="#CD6037" transform="translate(95,47)"/>
<path d="M0 0 C1.98 0 3.96 0 6 0 C5.319375 0.61875 5.319375 0.61875 4.625 1.25 C2.94049626 3.06408095 2.00734029 4.75285627 1 7 C0.67 7 0.34 7 0 7 C0 4.69 0 2.38 0 0 Z " fill="#DB622A" transform="translate(90,63)"/>
<path d="M0 0 C1.5 1.25 1.5 1.25 3 3 C3 4.32 3 5.64 3 7 C1.35 7 -0.3 7 -2 7 C-1.34 4.69 -0.68 2.38 0 0 Z " fill="#FAF7F2" transform="translate(33,51)"/>
<path d="M0 0 C1.32 0 2.64 0 4 0 C4 1.32 4 2.64 4 4 C1.03 3.505 1.03 3.505 -2 3 C-1.34 2.01 -0.68 1.02 0 0 Z " fill="#F6F4FA" transform="translate(50,95)"/>
<path d="M0 0 C0.33 0 0.66 0 1 0 C1 1.65 1 3.3 1 5 C0.01 5.495 0.01 5.495 -1 6 C-1.33 6.99 -1.66 7.98 -2 9 C-2.66 9 -3.32 9 -4 9 C-4 7.35 -4 5.7 -4 4 C-2.68 4 -1.36 4 0 4 C0 2.68 0 1.36 0 0 Z " fill="#E3E4EB" transform="translate(58,81)"/>
<path d="M0 0 C1.32 0.33 2.64 0.66 4 1 C3.67 2.32 3.34 3.64 3 5 C2.34 5 1.68 5 1 5 C0.67 5.99 0.34 6.98 0 8 C0 5.36 0 2.72 0 0 Z " fill="#DF975C" transform="translate(41,50)"/>
<path d="M0 0 C0.99 0 1.98 0 3 0 C3 2.64 3 5.28 3 8 C2.01 8 1.02 8 0 8 C0 5.36 0 2.72 0 0 Z " fill="#FDC74C" transform="translate(60,50)"/>
<path d="M0 0 C0.99 0 1.98 0 3 0 C3 1.65 3 3.3 3 5 C1.68 5 0.36 5 -1 5 C-0.67 3.35 -0.34 1.7 0 0 Z " fill="#511C12" transform="translate(100,45)"/>
<path d="M0 0 C1.65 0 3.3 0 5 0 C4.67 1.32 4.34 2.64 4 4 C2.68 4 1.36 4 0 4 C0 2.68 0 1.36 0 0 Z " fill="#9A513B" transform="translate(99,76)"/>
<path d="M0 0 C0.66 0 1.32 0 2 0 C2.1875 2.375 2.1875 2.375 2 5 C1.01 5.66 0.02 6.32 -1 7 C-1.33 5.68 -1.66 4.36 -2 3 C-1.34 3 -0.68 3 0 3 C0 2.01 0 1.02 0 0 Z " fill="#F39541" transform="translate(42,55)"/>
<path d="M0 0 C0.33 1.32 0.66 2.64 1 4 C2.32 4.33 3.64 4.66 5 5 C3.68 5 2.36 5 1 5 C0.67 6.32 0.34 7.64 0 9 C0 7.68 0 6.36 0 5 C-1.32 4.67 -2.64 4.34 -4 4 C-2.68 4 -1.36 4 0 4 C0 2.68 0 1.36 0 0 Z " fill="#7A777E" transform="translate(103,90)"/>
<path d="M0 0 C0 1.65 0 3.3 0 5 C-1.32 5 -2.64 5 -4 5 C-4 3.68 -4 2.36 -4 1 C-1 0 -1 0 0 0 Z " fill="#777B7E" transform="translate(54,89)"/>
<path d="M0 0 C3 1 3 1 4.1875 3.0625 C4.455625 3.701875 4.72375 4.34125 5 5 C3.35 5 1.7 5 0 5 C0 3.35 0 1.7 0 0 Z " fill="#584D42" transform="translate(36,76)"/>
<path d="M0 0 C1.65 0 3.3 0 5 0 C4.67 1.32 4.34 2.64 4 4 C2.68 4 1.36 4 0 4 C0 2.68 0 1.36 0 0 Z " fill="#925228" transform="translate(36,72)"/>
</svg>
