<?xml version="1.0" encoding="UTF-8"?>
<svg id="left_facing" data-name="left facing" xmlns="http://www.w3.org/2000/svg" viewBox="0 0 250 175">
  <defs>
    <style>
      .cls-1 {
        fill: none;
      }

      .cls-2 {
        fill: #4b3f8b;
      }

      .cls-3 {
        fill: #3d3aa3;
      }

      .cls-4 {
        fill: #faffe7;
      }

      .cls-5 {
        fill: #e1ef60;
      }

      .cls-6 {
        fill: #ff9af5;
      }

      .cls-7 {
        fill: #282d89;
      }

      .cls-8 {
        fill: #2a2148;
      }

      .cls-9 {
        fill: #5f81d6;
      }

      .cls-10 {
        fill: #f354dd;
      }

      .cls-11 {
        fill: #7a9cff;
      }
    </style>
  </defs>
  <g id="Backlegs">
    <g>
      <polygon class="cls-11" points="17.32 111.89 28.22 104.06 36.67 101.99 43.11 104.6 47.23 111.58 47.82 117.72 37.97 127.16 33.6 129.08 27.15 130.24 26.38 121.29 24.08 116.11 17.32 111.89"/>
      <polygon class="cls-10" points="17.32 111.89 8.88 119.03 3.35 129.83 1.74 137.91 2.2 138.68 3.2 138.3 13.48 132 22.08 129.39 27.15 130.24 26.38 121.29 24.08 116.11 17.32 111.89"/>
      <polygon class="cls-10" points="232.68 117.48 241.12 124.62 246.65 135.43 248.26 143.51 247.8 144.27 246.8 143.89 236.52 137.6 227.92 134.99 222.85 135.83 223.62 126.88 225.92 121.71 232.68 117.48"/>
      <polygon class="cls-11" points="233.11 117.59 222.21 109.76 213.76 107.69 207.31 110.3 203.2 117.29 202.61 123.43 212.46 132.87 216.83 134.79 223.28 135.94 224.05 126.99 226.35 121.82 233.11 117.59"/>
    </g>
  </g>
  <g id="Body">
    <g>
      <polygon class="cls-11" points="45.24 46.82 71.4 28.49 89.25 23.11 120.05 20.42 158.43 26.77 191.43 36.31 213.67 64.16 214.9 104.27 207.08 119.92 193.88 132.87 152.07 138.5 103.91 138.5 59.42 130.18 45.24 116.49 40.6 109.4 36.69 81.78 45.24 46.82"/>
      <polygon class="cls-8" points="65.3 52.84 55.52 85.35 60.41 117.86 67.49 119.06 109.78 107.69 162.63 122.65 169.21 121.05 173.8 90.54 170.81 59.42 114.66 49.45 65.3 52.84"/>
      <g>
        <circle class="cls-5" cx="83.55" cy="77.87" r="5.47"/>
        <circle class="cls-5" cx="80.78" cy="93.48" r="5.47"/>
        <polygon class="cls-5" points="78.22 76.61 75.31 92.6 86.09 94.84 88.96 78.66 78.22 76.61"/>
      </g>
      <g>
        <circle class="cls-5" cx="137.05" cy="78.25" r="5.47"/>
        <circle class="cls-5" cx="139.81" cy="93.85" r="5.47"/>
        <polygon class="cls-5" points="142.38 76.98 145.29 92.97 134.51 95.21 131.64 79.04 142.38 76.98"/>
      </g>
      <polygon class="cls-3" points="152.07 138.5 103.91 138.5 59.42 130.18 45.24 116.49 40.6 109.4 60.41 117.86 67.49 119.06 109.78 107.69 162.63 122.65 169.21 121.05 182.66 112.87 185.18 134.04 178.7 134.85 152.07 138.5"/>
      <polygon class="cls-4" points="191.43 36.31 184.54 60.08 182.61 90.26 182.66 112.87 185.18 134.04 187.04 133.79 184.54 113.06 184.54 90.26 186.86 60.56 192.84 37.93 191.43 36.31"/>
      <polygon class="cls-5" points="101.23 1.83 100.7 18.09 105.5 23.27 117.94 28.84 117.94 19.01 117.05 11.6 101.23 1.83"/>
      <polygon class="cls-5" points="134.64 1.83 135.18 18.09 130.38 23.27 117.94 28.84 117.94 19.01 118.83 11.6 134.64 1.83"/>
      <path class="cls-1" d="M104.69,102.87c3.17.05,6.35.1,9.52.14"/>
      <g>
        <polygon class="cls-3" points="205.06 60.78 192.84 75.78 192.84 107.21 201.75 120.33 206.6 120.33 215.75 104.45 216.97 77.32 209.14 60.78 205.06 60.78"/>
        <ellipse class="cls-4" cx="210.77" cy="91.05" rx="3.86" ry="12.85"/>
      </g>
    </g>
  </g>
  <g id="Shading">
    <path class="cls-9" d="M179.09,36.44c0,1.08-.88,1.95-1.95,1.95s-1.95-.88-1.95-1.95.87-1.95,1.95-1.95,1.95.88,1.95,1.95"/>
    <path class="cls-9" d="M185.81,36.44c0,1.08-.88,1.95-1.95,1.95s-1.95-.88-1.95-1.95.87-1.95,1.95-1.95,1.95.88,1.95,1.95"/>
    <path class="cls-9" d="M179.11,42.47c0,1.08-.88,1.95-1.95,1.95s-1.95-.88-1.95-1.95.87-1.95,1.95-1.95,1.95.88,1.95,1.95"/>
    <path class="cls-9" d="M185.83,42.47c0,1.08-.88,1.95-1.95,1.95s-1.95-.88-1.95-1.95.87-1.95,1.95-1.95,1.95.88,1.95,1.95"/>
    <path class="cls-9" d="M172.41,48.5c0,1.08-.88,1.95-1.95,1.95s-1.95-.88-1.95-1.95.87-1.95,1.95-1.95,1.95.88,1.95,1.95"/>
    <path class="cls-9" d="M179.13,48.5c0,1.08-.88,1.95-1.95,1.95s-1.95-.88-1.95-1.95.87-1.95,1.95-1.95,1.95.88,1.95,1.95"/>
    <path class="cls-9" d="M185.85,48.5c0,1.08-.88,1.95-1.95,1.95s-1.95-.88-1.95-1.95.87-1.95,1.95-1.95,1.95.88,1.95,1.95"/>
    <path class="cls-2" d="M71.49,57.54c0,1.08-.88,1.95-1.95,1.95s-1.95-.88-1.95-1.95.87-1.95,1.95-1.95,1.95.88,1.95,1.95"/>
    <path class="cls-2" d="M78.21,57.54c0,1.08-.88,1.95-1.95,1.95s-1.95-.88-1.95-1.95.87-1.95,1.95-1.95,1.95.88,1.95,1.95"/>
    <path class="cls-9" d="M165.71,54.53c0,1.08-.88,1.95-1.95,1.95s-1.95-.88-1.95-1.95.87-1.95,1.95-1.95,1.95.88,1.95,1.95"/>
    <path class="cls-9" d="M172.43,54.53c0,1.08-.88,1.95-1.95,1.95s-1.95-.88-1.95-1.95.87-1.95,1.95-1.95,1.95.88,1.95,1.95"/>
    <path class="cls-9" d="M179.15,54.53c0,1.08-.88,1.95-1.95,1.95s-1.95-.88-1.95-1.95.87-1.95,1.95-1.95,1.95.88,1.95,1.95"/>
    <path class="cls-2" d="M71.51,63.57c0,1.08-.88,1.95-1.95,1.95s-1.95-.88-1.95-1.95.87-1.95,1.95-1.95,1.95.88,1.95,1.95"/>
    <path class="cls-2" d="M78.23,63.57c0,1.08-.88,1.95-1.95,1.95s-1.95-.88-1.95-1.95.87-1.95,1.95-1.95,1.95.88,1.95,1.95"/>
    <path class="cls-9" d="M179.63,60.55c0,1.08-.88,1.95-1.95,1.95s-1.95-.88-1.95-1.95.87-1.95,1.95-1.95,1.95.88,1.95,1.95"/>
    <path class="cls-2" d="M84.69,57.54c0,1.08-.88,1.95-1.95,1.95s-1.95-.88-1.95-1.95.87-1.95,1.95-1.95,1.95.88,1.95,1.95"/>
    <path class="cls-2" d="M150.51,114.47c0,1.08-.88,1.95-1.95,1.95s-1.95-.88-1.95-1.95.87-1.95,1.95-1.95,1.95.88,1.95,1.95"/>
    <path class="cls-2" d="M157.23,114.47c0,1.08-.88,1.95-1.95,1.95s-1.95-.88-1.95-1.95.87-1.95,1.95-1.95,1.95.88,1.95,1.95"/>
    <path class="cls-9" d="M179.65,66.58c0,1.08-.88,1.95-1.95,1.95s-1.95-.88-1.95-1.95.87-1.95,1.95-1.95,1.95.88,1.95,1.95"/>
    <path class="cls-9" d="M179.67,72.61c0,1.08-.88,1.95-1.95,1.95s-1.95-.88-1.95-1.95.87-1.95,1.95-1.95,1.95.88,1.95,1.95"/>
    <path class="cls-9" d="M33.86,116.43c0,1.08-.88,1.95-1.95,1.95s-1.95-.88-1.95-1.95.87-1.95,1.95-1.95,1.95.88,1.95,1.95"/>
    <path class="cls-9" d="M40.58,116.43c0,1.08-.88,1.95-1.95,1.95s-1.95-.88-1.95-1.95.87-1.95,1.95-1.95,1.95.88,1.95,1.95"/>
    <path class="cls-9" d="M179.69,78.64c0,1.08-.88,1.95-1.95,1.95s-1.95-.88-1.95-1.95.87-1.95,1.95-1.95,1.95.88,1.95,1.95"/>
    <path class="cls-9" d="M33.88,122.45c0,1.08-.88,1.95-1.95,1.95s-1.95-.88-1.95-1.95.87-1.95,1.95-1.95,1.95.88,1.95,1.95"/>
    <path class="cls-9" d="M40.6,122.45c0,1.08-.88,1.95-1.95,1.95s-1.95-.88-1.95-1.95.87-1.95,1.95-1.95,1.95.88,1.95,1.95"/>
    <path class="cls-9" d="M179.71,84.66c0,1.08-.88,1.95-1.95,1.95s-1.95-.88-1.95-1.95.87-1.95,1.95-1.95,1.95.88,1.95,1.95"/>
    <path class="cls-9" d="M195.64,42.9c0,1.08-.88,1.95-1.95,1.95s-1.95-.88-1.95-1.95.87-1.95,1.95-1.95,1.95.88,1.95,1.95"/>
    <path class="cls-9" d="M45.95,94.32c0,1.08-.88,1.95-1.95,1.95s-1.95-.88-1.95-1.95.87-1.95,1.95-1.95,1.95.88,1.95,1.95"/>
    <path class="cls-9" d="M179.73,90.69c0,1.08-.88,1.95-1.95,1.95s-1.95-.88-1.95-1.95.87-1.95,1.95-1.95,1.95.88,1.95,1.95"/>
    <path class="cls-9" d="M195.66,48.93c0,1.08-.88,1.95-1.95,1.95s-1.95-.88-1.95-1.95.87-1.95,1.95-1.95,1.95.88,1.95,1.95"/>
    <path class="cls-9" d="M45.97,100.35c0,1.08-.88,1.95-1.95,1.95s-1.95-.88-1.95-1.95.87-1.95,1.95-1.95,1.95.88,1.95,1.95"/>
    <path class="cls-9" d="M195.84,54.53c0,1.08-.88,1.95-1.95,1.95s-1.95-.88-1.95-1.95.87-1.95,1.95-1.95,1.95.88,1.95,1.95"/>
    <path class="cls-9" d="M202.56,54.53c0,1.08-.88,1.95-1.95,1.95s-1.95-.88-1.95-1.95.87-1.95,1.95-1.95,1.95.88,1.95,1.95"/>
    <path class="cls-9" d="M45.99,106.38c0,1.08-.88,1.95-1.95,1.95s-1.95-.88-1.95-1.95.87-1.95,1.95-1.95,1.95.88,1.95,1.95"/>
    <path class="cls-9" d="M195.87,60.55c0,1.08-.88,1.95-1.95,1.95s-1.95-.88-1.95-1.95.87-1.95,1.95-1.95,1.95.88,1.95,1.95"/>
    <path class="cls-9" d="M202.58,60.55c0,1.08-.88,1.95-1.95,1.95s-1.95-.88-1.95-1.95.87-1.95,1.95-1.95,1.95.88,1.95,1.95"/>
    <path class="cls-9" d="M215.86,117.48c0,1.08-.88,1.95-1.95,1.95s-1.95-.88-1.95-1.95.87-1.95,1.95-1.95,1.95.88,1.95,1.95"/>
    <path class="cls-9" d="M179.7,96.72c0,1.08-.88,1.95-1.95,1.95s-1.95-.88-1.95-1.95.87-1.95,1.95-1.95,1.95.88,1.95,1.95"/>
    <path class="cls-7" d="M198.32,82.99c0,1.08-.88,1.95-1.95,1.95s-1.95-.88-1.95-1.95.87-1.95,1.95-1.95,1.95.88,1.95,1.95"/>
    <path class="cls-7" d="M205.04,82.99c0,1.08-.88,1.95-1.95,1.95s-1.95-.88-1.95-1.95.87-1.95,1.95-1.95,1.95.88,1.95,1.95"/>
    <path class="cls-9" d="M179.72,102.75c0,1.08-.88,1.95-1.95,1.95s-1.95-.88-1.95-1.95.87-1.95,1.95-1.95,1.95.88,1.95,1.95"/>
    <path class="cls-7" d="M198.34,89.02c0,1.08-.88,1.95-1.95,1.95s-1.95-.88-1.95-1.95.87-1.95,1.95-1.95,1.95.88,1.95,1.95"/>
    <path class="cls-7" d="M205.06,89.02c0,1.08-.88,1.95-1.95,1.95s-1.95-.88-1.95-1.95.87-1.95,1.95-1.95,1.95.88,1.95,1.95"/>
    <path class="cls-9" d="M179.74,108.77c0,1.08-.88,1.95-1.95,1.95s-1.95-.88-1.95-1.95.87-1.95,1.95-1.95,1.95.88,1.95,1.95"/>
    <path class="cls-9" d="M41.19,124.61c0,1.08-.88,1.95-1.95,1.95s-1.95-.88-1.95-1.95.87-1.95,1.95-1.95,1.95.88,1.95,1.95"/>
    <path class="cls-9" d="M47.91,124.61c0,1.08-.88,1.95-1.95,1.95s-1.95-.88-1.95-1.95.87-1.95,1.95-1.95,1.95.88,1.95,1.95"/>
    <path class="cls-9" d="M54.62,124.61c0,1.08-.88,1.95-1.95,1.95s-1.95-.88-1.95-1.95.87-1.95,1.95-1.95,1.95.88,1.95,1.95"/>
    <path class="cls-7" d="M181.09,121.65c0,1.08-.88,1.95-1.95,1.95s-1.95-.88-1.95-1.95.87-1.95,1.95-1.95,1.95.88,1.95,1.95"/>
    <path class="cls-7" d="M205.08,95.05c0,1.08-.88,1.95-1.95,1.95s-1.95-.88-1.95-1.95.87-1.95,1.95-1.95,1.95.88,1.95,1.95"/>
    <path class="cls-9" d="M41.21,130.63c0,1.08-.88,1.95-1.95,1.95s-1.95-.88-1.95-1.95.87-1.95,1.95-1.95,1.95.88,1.95,1.95"/>
    <path class="cls-9" d="M47.93,130.63c0,1.08-.88,1.95-1.95,1.95s-1.95-.88-1.95-1.95.87-1.95,1.95-1.95,1.95.88,1.95,1.95"/>
    <path class="cls-9" d="M54.65,130.63c0,1.08-.88,1.95-1.95,1.95s-1.95-.88-1.95-1.95.87-1.95,1.95-1.95,1.95.88,1.95,1.95"/>
    <path class="cls-7" d="M181.11,127.68c0,1.08-.88,1.95-1.95,1.95s-1.95-.88-1.95-1.95.87-1.95,1.95-1.95,1.95.88,1.95,1.95"/>
    <path class="cls-9" d="M193.03,123.77c0,1.08-.88,1.95-1.95,1.95s-1.95-.88-1.95-1.95.87-1.95,1.95-1.95,1.95.88,1.95,1.95"/>
    <path class="cls-9" d="M199.75,123.77c0,1.08-.88,1.95-1.95,1.95s-1.95-.88-1.95-1.95.87-1.95,1.95-1.95,1.95.88,1.95,1.95"/>
    <path class="cls-9" d="M208.82,123.77c0,1.08-.88,1.95-1.95,1.95s-1.95-.88-1.95-1.95.87-1.95,1.95-1.95,1.95.88,1.95,1.95"/>
    <path class="cls-7" d="M150.62,123.61c0,1.08-.88,1.95-1.95,1.95s-1.95-.88-1.95-1.95.87-1.95,1.95-1.95,1.95.88,1.95,1.95"/>
    <path class="cls-7" d="M157.34,123.61c0,1.08-.88,1.95-1.95,1.95s-1.95-.88-1.95-1.95.87-1.95,1.95-1.95,1.95.88,1.95,1.95"/>
    <path class="cls-9" d="M176.28,135.48c0,1.08-.88,1.95-1.95,1.95s-1.95-.88-1.95-1.95.87-1.95,1.95-1.95,1.95.88,1.95,1.95"/>
    <path class="cls-9" d="M183,135.48c0,1.08-.88,1.95-1.95,1.95s-1.95-.88-1.95-1.95.87-1.95,1.95-1.95,1.95.88,1.95,1.95"/>
    <path class="cls-9" d="M215.55,123.77c0,1.08-.88,1.95-1.95,1.95s-1.95-.88-1.95-1.95.87-1.95,1.95-1.95,1.95.88,1.95,1.95"/>
    <path class="cls-9" d="M222.27,123.77c0,1.08-.88,1.95-1.95,1.95s-1.95-.88-1.95-1.95.87-1.95,1.95-1.95,1.95.88,1.95,1.95"/>
    <path class="cls-7" d="M150.64,129.63c0,1.08-.88,1.95-1.95,1.95s-1.95-.88-1.95-1.95.87-1.95,1.95-1.95,1.95.88,1.95,1.95"/>
    <path class="cls-7" d="M157.36,129.63c0,1.08-.88,1.95-1.95,1.95s-1.95-.88-1.95-1.95.87-1.95,1.95-1.95,1.95.88,1.95,1.95"/>
    <path class="cls-7" d="M70.09,122.65c0,1.08-.88,1.95-1.95,1.95s-1.95-.88-1.95-1.95.87-1.95,1.95-1.95,1.95.88,1.95,1.95"/>
    <path class="cls-7" d="M76.81,122.65c0,1.08-.88,1.95-1.95,1.95s-1.95-.88-1.95-1.95.87-1.95,1.95-1.95,1.95.88,1.95,1.95"/>
    <path class="cls-7" d="M83.53,122.65c0,1.08-.88,1.95-1.95,1.95s-1.95-.88-1.95-1.95.87-1.95,1.95-1.95,1.95.88,1.95,1.95"/>
    <path class="cls-9" d="M176.3,141.51c0,1.08-.88,1.95-1.95,1.95s-1.95-.88-1.95-1.95.87-1.95,1.95-1.95,1.95.88,1.95,1.95"/>
    <path class="cls-9" d="M183.02,141.51c0,1.08-.88,1.95-1.95,1.95s-1.95-.88-1.95-1.95.87-1.95,1.95-1.95,1.95.88,1.95,1.95"/>
    <path class="cls-9" d="M215.57,129.8c0,1.08-.88,1.95-1.95,1.95s-1.95-.88-1.95-1.95.87-1.95,1.95-1.95,1.95.88,1.95,1.95"/>
    <path class="cls-9" d="M222.29,129.8c0,1.08-.88,1.95-1.95,1.95s-1.95-.88-1.95-1.95.87-1.95,1.95-1.95,1.95.88,1.95,1.95"/>
    <path class="cls-7" d="M150.66,135.66c0,1.08-.88,1.95-1.95,1.95s-1.95-.88-1.95-1.95.87-1.95,1.95-1.95,1.95.88,1.95,1.95"/>
    <path class="cls-7" d="M157.38,135.66c0,1.08-.88,1.95-1.95,1.95s-1.95-.88-1.95-1.95.87-1.95,1.95-1.95,1.95.88,1.95,1.95"/>
    <path class="cls-7" d="M70.11,128.68c0,1.08-.88,1.95-1.95,1.95s-1.95-.88-1.95-1.95.87-1.95,1.95-1.95,1.95.88,1.95,1.95"/>
    <path class="cls-7" d="M76.83,128.68c0,1.08-.88,1.95-1.95,1.95s-1.95-.88-1.95-1.95.87-1.95,1.95-1.95,1.95.88,1.95,1.95"/>
    <path class="cls-7" d="M83.55,128.68c0,1.08-.88,1.95-1.95,1.95s-1.95-.88-1.95-1.95.87-1.95,1.95-1.95,1.95.88,1.95,1.95"/>
  </g>
  <g id="Middle_Legs" data-name="Middle Legs">
    <g>
      <polyline class="cls-11" points="184.91 127.84 190.58 124.66 197.11 125.22 203.72 129.23 210.24 137.81 204.65 140.78 199.97 146.47 198.69 153.73 186.96 148.75 182.01 142.09 180.69 132.39 184.91 127.84"/>
      <polygon class="cls-6" points="198.69 153.73 199.97 146.47 204.65 140.78 210.24 137.81 229.12 163.61 229.12 164.74 227.92 165.19 198.69 153.73"/>
      <polyline class="cls-11" points="50 117.36 43.76 115.53 37.53 117.54 31.98 122.93 27.55 132.75 33.66 134.4 39.5 138.88 42.38 145.68 52.7 138.19 56.02 130.59 55.14 120.85 50 117.36"/>
      <polygon class="cls-6" points="42.38 145.68 39.5 138.88 33.66 134.4 27.55 132.75 14.94 162.13 15.19 163.23 16.46 163.4 42.38 145.68"/>
    </g>
  </g>
  <g id="Front_Legs" data-name="Front Legs">
    <g>
      <polygon class="cls-11" points="46.73 127.71 57.61 121.1 64.9 121.1 73.27 129.37 78.22 142.01 69.47 143.95 62.48 148.04 58.68 155.04 46.73 143.47 44 132.38 46.73 127.71"/>
      <polygon class="cls-10" points="58.68 155.04 68.13 164.54 82.68 169.74 91.25 170.26 91.68 168.87 86.14 162.65 80.95 156.58 77.83 149.13 78.22 142.01 69.47 143.95 62.48 148.04 58.68 155.04"/>
      <polygon class="cls-11" points="183.41 130.63 172.53 124.02 165.24 124.02 156.88 132.29 151.92 144.93 160.67 146.87 167.67 150.96 171.46 157.96 183.41 146.39 186.15 135.3 183.41 130.63"/>
      <polygon class="cls-10" points="171.46 157.96 162.01 167.46 147.47 172.66 138.9 173.17 138.46 171.79 144 165.57 149.2 159.5 152.31 152.05 151.92 144.93 160.67 146.87 167.67 150.96 171.46 157.96"/>
    </g>
  </g>
  <g id="Shading2">
    <path class="cls-9" d="M178.71,133.36c0,1.08-.88,1.95-1.95,1.95s-1.95-.88-1.95-1.95.87-1.95,1.95-1.95,1.95.88,1.95,1.95"/>
    <path class="cls-9" d="M185.43,133.36c0,1.08-.88,1.95-1.95,1.95s-1.95-.88-1.95-1.95.87-1.95,1.95-1.95,1.95.88,1.95,1.95"/>
    <path class="cls-9" d="M178.73,139.39c0,1.08-.88,1.95-1.95,1.95s-1.95-.88-1.95-1.95.87-1.95,1.95-1.95,1.95.88,1.95,1.95"/>
    <path class="cls-9" d="M185.45,139.39c0,1.08-.88,1.95-1.95,1.95s-1.95-.88-1.95-1.95.87-1.95,1.95-1.95,1.95.88,1.95,1.95"/>
    <path class="cls-9" d="M64.78,126.72c0,1.08-.88,1.95-1.95,1.95s-1.95-.88-1.95-1.95.87-1.95,1.95-1.95,1.95.88,1.95,1.95"/>
    <path class="cls-9" d="M160.39,142.01c0,1.08-.88,1.95-1.95,1.95s-1.95-.88-1.95-1.95.87-1.95,1.95-1.95,1.95.88,1.95,1.95"/>
    <path class="cls-9" d="M167.11,142.01c0,1.08-.88,1.95-1.95,1.95s-1.95-.88-1.95-1.95.87-1.95,1.95-1.95,1.95.88,1.95,1.95"/>
    <path class="cls-9" d="M166.83,135.48c0,1.08-.88,1.95-1.95,1.95s-1.95-.88-1.95-1.95.87-1.95,1.95-1.95,1.95.88,1.95,1.95"/>
  </g>
</svg>