<?xml version="1.0" encoding="UTF-8"?>
<svg xmlns="http://www.w3.org/2000/svg" viewBox="0 0 439.07 573.24">
  <defs>
    <style>
      .cls-1 {
        fill: #1b1421;
      }

      .cls-2 {
        fill: #b4b6c0;
      }

      .cls-3 {
        fill: #7a9cff;
      }
    </style>
  </defs>
  <g id="Layer_1" data-name="Layer 1">
    <rect class="cls-1" y="82.12" width="41.72" height="104.3"/>
    <rect class="cls-1" x="41.72" y="70.2" width="53.31" height="161.92"/>
    <rect class="cls-1" x="52.32" y="49.67" width="37.09" height="25.5"/>
    <rect class="cls-1" x="130.79" y="37.75" width="47.02" height="175.83"/>
    <rect class="cls-1" x="145.7" y="23.84" width="18.21" height="18.21"/>
    <rect class="cls-1" x="68.38" y="20.53" width="2.48" height="41.89"/>
    <rect class="cls-1" x="152.32" width="3.97" height="30.79"/>
    <rect class="cls-1" x="289.74" y="77.15" width="47.02" height="112.58"/>
    <rect class="cls-1" x="95.03" y="98.68" width="40.73" height="114.9"/>
    <rect class="cls-1" x="177.81" y="106.95" width="31.46" height="104.97"/>
    <rect class="cls-1" x="244.7" y="35.26" width="46.69" height="157.45"/>
    <rect class="cls-1" x="209.27" y="72.52" width="35.43" height="147.02"/>
    <rect class="cls-1" x="336.75" y="42.05" width="56.95" height="161.92"/>
    <rect class="cls-1" x="393.71" y="66.89" width="45.36" height="149.34"/>
    <polygon class="cls-1" points="336.75 42.05 365.23 20.53 393.71 42.05 336.75 42.05"/>
    <rect class="cls-1" y="154.8" width="439.07" height="418.44"/>
    <rect class="cls-2" x="7.78" y="134.84" width="8.53" height="8.53"/>
    <rect class="cls-2" x="7.78" y="155.48" width="8.53" height="8.53"/>
    <rect class="cls-2" x="26.53" y="134.84" width="8.53" height="8.53"/>
    <g>
      <rect class="cls-2" x="26.53" y="93.54" width="8.53" height="8.53"/>
      <rect class="cls-2" x="26.53" y="114.19" width="8.53" height="8.53"/>
    </g>
    <rect class="cls-2" x="26.53" y="155.48" width="8.53" height="8.53"/>
    <rect class="cls-2" x="254.41" y="92.44" width="8.53" height="8.53"/>
    <g>
      <rect class="cls-2" x="254.41" y="51.15" width="8.53" height="8.53"/>
      <rect class="cls-2" x="254.41" y="71.8" width="8.53" height="8.53"/>
    </g>
    <rect class="cls-2" x="254.41" y="113.09" width="8.53" height="8.53"/>
    <rect class="cls-2" x="273.16" y="92.44" width="8.53" height="8.53"/>
    <rect class="cls-2" x="273.16" y="71.8" width="8.53" height="8.53"/>
    <rect class="cls-2" x="273.16" y="113.09" width="8.53" height="8.53"/>
    <rect class="cls-2" x="140.67" y="90.96" width="8.53" height="8.53"/>
    <g>
      <rect class="cls-2" x="140.67" y="49.67" width="8.53" height="8.53"/>
      <rect class="cls-2" x="140.67" y="70.32" width="8.53" height="8.53"/>
    </g>
    <rect class="cls-2" x="159.42" y="90.96" width="8.53" height="8.53"/>
    <g>
      <rect class="cls-2" x="159.42" y="49.67" width="8.53" height="8.53"/>
      <rect class="cls-2" x="159.42" y="70.32" width="8.53" height="8.53"/>
    </g>
    <g>
      <rect class="cls-2" x="189.28" y="118.45" width="8.53" height="8.53"/>
      <rect class="cls-2" x="189.28" y="139.1" width="8.53" height="8.53"/>
    </g>
    <rect class="cls-2" x="224.34" y="127.73" width="8.53" height="8.53"/>
    <g>
      <rect class="cls-2" x="224.34" y="86.44" width="8.53" height="8.53"/>
      <rect class="cls-2" x="224.34" y="107.08" width="8.53" height="8.53"/>
    </g>
    <rect class="cls-2" x="140.67" y="112.56" width="8.53" height="8.53"/>
    <rect class="cls-2" x="159.42" y="112.56" width="8.53" height="8.53"/>
    <rect class="cls-2" x="159.42" y="133.21" width="8.53" height="8.53"/>
    <rect class="cls-2" x="108.65" y="115.15" width="8.53" height="8.53"/>
    <rect class="cls-2" x="401.59" y="80.32" width="8.53" height="8.53"/>
    <rect class="cls-2" x="420.34" y="80.32" width="8.53" height="8.53"/>
    <rect class="cls-2" x="189.28" y="159.44" width="8.53" height="8.53"/>
    <rect class="cls-2" x="224.34" y="148.38" width="8.53" height="8.53"/>
    <rect class="cls-2" x="351.59" y="94.43" width="8.53" height="8.53"/>
    <g>
      <rect class="cls-2" x="351.59" y="53.14" width="8.53" height="8.53"/>
      <rect class="cls-2" x="351.59" y="73.79" width="8.53" height="8.53"/>
    </g>
    <rect class="cls-2" x="370.34" y="94.43" width="8.53" height="8.53"/>
    <g>
      <rect class="cls-2" x="370.34" y="53.14" width="8.53" height="8.53"/>
      <rect class="cls-2" x="370.34" y="73.79" width="8.53" height="8.53"/>
    </g>
    <rect class="cls-2" x="351.59" y="116.03" width="8.53" height="8.53"/>
    <rect class="cls-2" x="300.43" y="133.74" width="8.53" height="8.53"/>
    <g>
      <rect class="cls-2" x="300.43" y="92.44" width="8.53" height="8.53"/>
      <rect class="cls-2" x="300.43" y="113.09" width="8.53" height="8.53"/>
    </g>
    <rect class="cls-2" x="319.18" y="133.74" width="8.53" height="8.53"/>
    <rect class="cls-2" x="319.18" y="113.09" width="8.53" height="8.53"/>
    <rect class="cls-2" x="55.98" y="122.41" width="8.53" height="8.53"/>
    <g>
      <rect class="cls-2" x="55.98" y="81.11" width="8.53" height="8.53"/>
      <rect class="cls-2" x="55.98" y="101.76" width="8.53" height="8.53"/>
    </g>
    <rect class="cls-2" x="74.73" y="122.41" width="8.53" height="8.53"/>
    <g>
      <rect class="cls-2" x="74.73" y="81.11" width="8.53" height="8.53"/>
      <rect class="cls-2" x="74.73" y="101.76" width="8.53" height="8.53"/>
    </g>
    <rect class="cls-2" x="55.98" y="144" width="8.53" height="8.53"/>
    <rect class="cls-2" x="74.73" y="144" width="8.53" height="8.53"/>
    <rect class="cls-2" x="351.59" y="136.27" width="8.53" height="8.53"/>
    <rect class="cls-2" x="370.34" y="136.27" width="8.53" height="8.53"/>
    <rect class="cls-2" x="370.2" y="116.03" width="8.53" height="8.53"/>
  </g>
  <g id="Layer_2" data-name="Layer 2">
    <rect class="cls-2" x="7.78" y="134.84" width="8.53" height="8.53"/>
    <rect class="cls-2" x="7.78" y="155.48" width="8.53" height="8.53"/>
    <rect class="cls-2" x="26.53" y="134.84" width="8.53" height="8.53"/>
    <g>
      <rect class="cls-2" x="26.53" y="93.54" width="8.53" height="8.53"/>
      <rect class="cls-2" x="26.53" y="114.19" width="8.53" height="8.53"/>
    </g>
    <rect class="cls-2" x="26.53" y="155.48" width="8.53" height="8.53"/>
    <rect class="cls-2" x="254.41" y="92.44" width="8.53" height="8.53"/>
    <g>
      <rect class="cls-2" x="254.41" y="51.15" width="8.53" height="8.53"/>
      <rect class="cls-2" x="254.41" y="71.8" width="8.53" height="8.53"/>
    </g>
    <rect class="cls-2" x="254.41" y="113.09" width="8.53" height="8.53"/>
    <rect class="cls-2" x="273.16" y="92.44" width="8.53" height="8.53"/>
    <rect class="cls-2" x="273.16" y="71.8" width="8.53" height="8.53"/>
    <rect class="cls-2" x="273.16" y="113.09" width="8.53" height="8.53"/>
    <rect class="cls-2" x="140.67" y="90.96" width="8.53" height="8.53"/>
    <g>
      <rect class="cls-2" x="140.67" y="49.67" width="8.53" height="8.53"/>
      <rect class="cls-2" x="140.67" y="70.32" width="8.53" height="8.53"/>
    </g>
    <rect class="cls-2" x="159.42" y="90.96" width="8.53" height="8.53"/>
    <g>
      <rect class="cls-2" x="159.42" y="49.67" width="8.53" height="8.53"/>
      <rect class="cls-2" x="159.42" y="70.32" width="8.53" height="8.53"/>
    </g>
    <g>
      <rect class="cls-2" x="189.28" y="118.45" width="8.53" height="8.53"/>
      <rect class="cls-2" x="189.28" y="139.1" width="8.53" height="8.53"/>
    </g>
    <rect class="cls-2" x="224.34" y="127.73" width="8.53" height="8.53"/>
    <g>
      <rect class="cls-2" x="224.34" y="86.44" width="8.53" height="8.53"/>
      <rect class="cls-2" x="224.34" y="107.08" width="8.53" height="8.53"/>
    </g>
    <rect class="cls-2" x="140.67" y="112.56" width="8.53" height="8.53"/>
    <rect class="cls-2" x="159.42" y="112.56" width="8.53" height="8.53"/>
    <rect class="cls-2" x="159.42" y="133.21" width="8.53" height="8.53"/>
    <rect class="cls-2" x="108.65" y="115.15" width="8.53" height="8.53"/>
    <rect class="cls-2" x="401.59" y="80.32" width="8.53" height="8.53"/>
    <rect class="cls-2" x="420.34" y="80.32" width="8.53" height="8.53"/>
    <rect class="cls-2" x="189.28" y="159.44" width="8.53" height="8.53"/>
    <rect class="cls-2" x="224.34" y="148.38" width="8.53" height="8.53"/>
    <rect class="cls-2" x="351.59" y="94.43" width="8.53" height="8.53"/>
    <g>
      <rect class="cls-2" x="351.59" y="53.14" width="8.53" height="8.53"/>
      <rect class="cls-2" x="351.59" y="73.79" width="8.53" height="8.53"/>
    </g>
    <rect class="cls-2" x="370.34" y="94.43" width="8.53" height="8.53"/>
    <g>
      <rect class="cls-2" x="370.34" y="53.14" width="8.53" height="8.53"/>
      <rect class="cls-2" x="370.34" y="73.79" width="8.53" height="8.53"/>
    </g>
    <rect class="cls-2" x="351.59" y="116.03" width="8.53" height="8.53"/>
    <rect class="cls-2" x="300.43" y="133.74" width="8.53" height="8.53"/>
    <g>
      <rect class="cls-2" x="300.43" y="92.44" width="8.53" height="8.53"/>
      <rect class="cls-2" x="300.43" y="113.09" width="8.53" height="8.53"/>
    </g>
    <rect class="cls-2" x="319.18" y="133.74" width="8.53" height="8.53"/>
    <rect class="cls-2" x="319.18" y="113.09" width="8.53" height="8.53"/>
    <rect class="cls-2" x="55.98" y="122.41" width="8.53" height="8.53"/>
    <g>
      <rect class="cls-2" x="55.98" y="81.11" width="8.53" height="8.53"/>
      <rect class="cls-2" x="55.98" y="101.76" width="8.53" height="8.53"/>
    </g>
    <rect class="cls-2" x="74.73" y="122.41" width="8.53" height="8.53"/>
    <g>
      <rect class="cls-2" x="74.73" y="81.11" width="8.53" height="8.53"/>
      <rect class="cls-2" x="74.73" y="101.76" width="8.53" height="8.53"/>
    </g>
    <rect class="cls-2" x="55.98" y="144" width="8.53" height="8.53"/>
    <rect class="cls-2" x="74.73" y="144" width="8.53" height="8.53"/>
    <rect class="cls-2" x="351.59" y="136.27" width="8.53" height="8.53"/>
    <rect class="cls-2" x="370.34" y="136.27" width="8.53" height="8.53"/>
    <rect class="cls-2" x="370.2" y="116.03" width="8.53" height="8.53"/>
    <rect class="cls-2" x="7.78" y="134.84" width="8.53" height="8.53"/>
    <rect class="cls-3" x="7.78" y="155.48" width="8.53" height="8.53"/>
    <rect class="cls-3" x="26.53" y="134.84" width="8.53" height="8.53"/>
    <g>
      <rect class="cls-2" x="26.53" y="93.54" width="8.53" height="8.53"/>
      <rect class="cls-2" x="26.53" y="114.19" width="8.53" height="8.53"/>
    </g>
    <rect class="cls-2" x="26.53" y="155.48" width="8.53" height="8.53"/>
    <rect class="cls-2" x="254.41" y="92.44" width="8.53" height="8.53"/>
    <g>
      <rect class="cls-3" x="254.41" y="51.15" width="8.53" height="8.53"/>
      <rect class="cls-3" x="254.41" y="71.8" width="8.53" height="8.53"/>
    </g>
    <rect class="cls-2" x="254.41" y="113.09" width="8.53" height="8.53"/>
    <rect class="cls-2" x="273.16" y="92.44" width="8.53" height="8.53"/>
    <rect class="cls-3" x="273.16" y="71.8" width="8.53" height="8.53"/>
    <rect class="cls-3" x="273.16" y="113.09" width="8.53" height="8.53"/>
    <rect class="cls-3" x="140.67" y="90.96" width="8.53" height="8.53"/>
    <g>
      <rect class="cls-2" x="140.67" y="49.67" width="8.53" height="8.53"/>
      <rect class="cls-2" x="140.67" y="70.32" width="8.53" height="8.53"/>
    </g>
    <rect class="cls-2" x="159.42" y="90.96" width="8.53" height="8.53"/>
    <g>
      <rect class="cls-3" x="159.42" y="49.67" width="8.53" height="8.53"/>
      <rect class="cls-3" x="159.42" y="70.32" width="8.53" height="8.53"/>
    </g>
    <rect class="cls-2" x="189.28" y="118.45" width="8.53" height="8.53"/>
    <rect class="cls-3" x="189.28" y="139.1" width="8.53" height="8.53"/>
    <rect class="cls-2" x="224.34" y="127.73" width="8.53" height="8.53"/>
    <rect class="cls-2" x="224.34" y="86.44" width="8.53" height="8.53"/>
    <rect class="cls-3" x="224.34" y="107.08" width="8.53" height="8.53"/>
    <rect class="cls-2" x="140.67" y="112.56" width="8.53" height="8.53"/>
    <rect class="cls-3" x="159.42" y="112.56" width="8.53" height="8.53"/>
    <rect class="cls-2" x="159.42" y="133.21" width="8.53" height="8.53"/>
    <rect class="cls-2" x="108.65" y="115.15" width="8.53" height="8.53"/>
    <rect class="cls-2" x="401.59" y="80.32" width="8.53" height="8.53"/>
    <rect class="cls-3" x="420.34" y="80.32" width="8.53" height="8.53"/>
    <rect class="cls-2" x="189.28" y="159.44" width="8.53" height="8.53"/>
    <rect class="cls-3" x="224.34" y="148.38" width="8.53" height="8.53"/>
    <rect class="cls-2" x="351.59" y="94.43" width="8.53" height="8.53"/>
    <g>
      <rect class="cls-2" x="351.59" y="53.14" width="8.53" height="8.53"/>
      <rect class="cls-2" x="351.59" y="73.79" width="8.53" height="8.53"/>
    </g>
    <rect class="cls-2" x="370.34" y="94.43" width="8.53" height="8.53"/>
    <g>
      <rect class="cls-3" x="370.34" y="53.14" width="8.53" height="8.53"/>
      <rect class="cls-3" x="370.34" y="73.79" width="8.53" height="8.53"/>
    </g>
    <rect class="cls-3" x="351.59" y="116.03" width="8.53" height="8.53"/>
    <rect class="cls-2" x="300.43" y="133.74" width="8.53" height="8.53"/>
    <g>
      <rect class="cls-3" x="300.43" y="92.44" width="8.53" height="8.53"/>
      <rect class="cls-3" x="300.43" y="113.09" width="8.53" height="8.53"/>
    </g>
    <rect class="cls-3" x="319.18" y="133.74" width="8.53" height="8.53"/>
    <rect class="cls-2" x="319.18" y="113.09" width="8.53" height="8.53"/>
    <rect class="cls-2" x="55.98" y="122.41" width="8.53" height="8.53"/>
    <g>
      <rect class="cls-3" x="55.98" y="81.11" width="8.53" height="8.53"/>
      <rect class="cls-3" x="55.98" y="101.76" width="8.53" height="8.53"/>
    </g>
    <rect class="cls-3" x="74.73" y="122.41" width="8.53" height="8.53"/>
    <g>
      <rect class="cls-3" x="74.73" y="81.11" width="8.53" height="8.53"/>
      <rect class="cls-3" x="74.73" y="101.76" width="8.53" height="8.53"/>
    </g>
    <rect class="cls-2" x="55.98" y="144" width="8.53" height="8.53"/>
    <rect class="cls-2" x="74.73" y="144" width="8.53" height="8.53"/>
    <rect class="cls-2" x="351.59" y="136.27" width="8.53" height="8.53"/>
    <rect class="cls-3" x="370.34" y="136.27" width="8.53" height="8.53"/>
    <rect class="cls-2" x="370.2" y="116.03" width="8.53" height="8.53"/>
  </g>
</svg>