<?xml version="1.0" encoding="UTF-8"?>
<svg id="Layer_3" data-name="Layer 3" xmlns="http://www.w3.org/2000/svg" viewBox="0 0 576.32 593.2">
  <defs>
    <style>
      .cls-1 {
        fill: #6e6c99;
      }
    </style>
  </defs>
  <path class="cls-1" d="M519.41,26.38h0c.45-1.21,2.16-1.21,2.61,0h0c1.31,3.55,4.12,6.35,7.67,7.67h0c1.21.45,1.21,2.16,0,2.61h0c-3.55,1.31-6.35,4.12-7.67,7.67h0c-.45,1.21-2.16,1.21-2.61,0h0c-1.31-3.55-4.12-6.35-7.67-7.67h0c-1.21-.45-1.21-2.16,0-2.61h0c3.55-1.31,6.35-4.12,7.67-7.67Z"/>
  <path class="cls-1" d="M35.01,100.62h0c.45-1.21,2.16-1.21,2.61,0h0c1.31,3.55,4.12,6.35,7.67,7.67h0c1.21.45,1.21,2.16,0,2.61h0c-3.55,1.31-6.35,4.12-7.67,7.67h0c-.45,1.21-2.16,1.21-2.61,0h0c-1.31-3.55-4.12-6.35-7.67-7.67h0c-1.21-.45-1.21-2.16,0-2.61h0c3.55-1.31,6.35-4.12,7.67-7.67Z"/>
  <path class="cls-1" d="M151.03.91h0c.45-1.21,2.16-1.21,2.61,0h0c1.31,3.55,4.12,6.35,7.67,7.67h0c1.21.45,1.21,2.16,0,2.61h0c-3.55,1.31-6.35,4.12-7.67,7.67h0c-.45,1.21-2.16,1.21-2.61,0h0c-1.31-3.55-4.12-6.35-7.67-7.67h0c-1.21-.45-1.21-2.16,0-2.61h0c3.55-1.31,6.35-4.12,7.67-7.67Z"/>
  <path class="cls-1" d="M381.02,56.13h0c.45-1.21,2.16-1.21,2.61,0h0c1.31,3.55,4.12,6.35,7.67,7.67h0c1.21.45,1.21,2.16,0,2.61h0c-3.55,1.31-6.35,4.12-7.67,7.67h0c-.45,1.21-2.16,1.21-2.61,0h0c-1.31-3.55-4.12-6.35-7.67-7.67h0c-1.21-.45-1.21-2.16,0-2.61h0c3.55-1.31,6.35-4.12,7.67-7.67Z"/>
  <path class="cls-1" d="M565.14,174.68h0c.45-1.21,2.16-1.21,2.61,0h0c1.31,3.55,4.12,6.35,7.67,7.67h0c1.21.45,1.21,2.16,0,2.61h0c-3.55,1.31-6.35,4.12-7.67,7.67h0c-.45,1.21-2.16,1.21-2.61,0h0c-1.31-3.55-4.12-6.35-7.67-7.67h0c-1.21-.45-1.21-2.16,0-2.61h0c3.55-1.31,6.35-4.12,7.67-7.67Z"/>
  <path class="cls-1" d="M529.29,277.42h0c.45-1.21,2.16-1.21,2.61,0h0c1.31,3.55,4.12,6.35,7.67,7.67h0c1.21.45,1.21,2.16,0,2.61h0c-3.55,1.31-6.35,4.12-7.67,7.67h0c-.45,1.21-2.16,1.21-2.61,0h0c-1.31-3.55-4.12-6.35-7.67-7.67h0c-1.21-.45-1.21-2.16,0-2.61h0c3.55-1.31,6.35-4.12,7.67-7.67Z"/>
  <path class="cls-1" d="M8.58,277.42h0c.45-1.21,2.16-1.21,2.61,0h0c1.31,3.55,4.12,6.35,7.67,7.67h0c1.21.45,1.21,2.16,0,2.61h0c-3.55,1.31-6.35,4.12-7.67,7.67h0c-.45,1.21-2.16,1.21-2.61,0h0c-1.31-3.55-4.12-6.35-7.67-7.67h0c-1.21-.45-1.21-2.16,0-2.61h0c3.55-1.31,6.35-4.12,7.67-7.67Z"/>
</svg>