<?xml version="1.0" encoding="UTF-8"?>
<svg id="Electricity_Sign" data-name="Electricity Sign" xmlns="http://www.w3.org/2000/svg" viewBox="0 0 385.47 333.89">
  <defs>
    <style>
      .cls-1 {
        fill: #ff9af5;
      }

      .cls-2 {
        fill: #3c3aa3;
        stroke: #7a9cff;
        stroke-width: 18px;
      }

      .cls-3 {
        fill: #e1f060;
      }
    </style>
  </defs>
  <path class="cls-2" d="M192.73,18l177.15,306.89H15.59L192.73,18Z"/>
  <path class="cls-3" d="M179.01,110.32l-31.19,110.4,48.03-25.57-11.85,74.23-9.98-13.72,9.36,44.91,25.57-38.05-14.35,8.73,28.07-102.3-49.9,26.82,36.8-85.45"/>
  <g>
    <path class="cls-1" d="M150.5,196.57c.04.13.15.17.24.24v1.44s-.72-.96-.72-.96c-2.61,1.9-2.72-2.27-.72-1.32.33.16.58.77,1.21.6Z"/>
    <path class="cls-1" d="M147.14,164.65c-.05-.13-.15-.17-.24-.24.05-3.73,1.49.2.24.24Z"/>
    <path class="cls-1" d="M150.5,196.57c-.22-.82-.06-1.63.24-2.4-1.07-.68-2.6.36-3.47.25-1.57-.21-.5-2.38.92-1.9.41.14.24.89.74.69.28-.11.45-.53.36-.83-.11-.35-.92-.22-.71-.72l1.44-.48c-1.58.05-2.3-1.55-1.63-2.83.23-.44.69-.25.67-.64l-1.44-.24c-.31,3.03-4.63-.22-2.72-1.46.97-.63,2.06.46,2.24.26l-.03-.94-.69-.02c.49-1.02-.26-1.85-.72-2.76l.48-.23-1.32-1.08c-2.14,2.74-4.69-2.34-1.46-1.92.54.07,1.22.89,1.46.48.29-.48.49-1.52-.13-1.82-.73-.36-2.39,1.92-3.37.27-1.09-1.84,1.01-3,2.63-2.32l.51-.93-1.68.48.71-.6-.6-.84c-.17,0,.06,1.37-1.26,1.64-1.18.24-1.19-.65-2.22-.68v-.23c.81.07.61-1.56.48-2.16.94.49,1.86.28,2.64-.36l-.84-.54c-1.19,1.51-3.46.22-3.47-1.5l.7.22.5-.94c-1.61.07-2.28-1.93-1.21-2.95.32-.3.86-.15.97-.65-1.68.5-1.97-1.04-3.36-.96-.02,1.36.88,1.13,1.09,1.42.19.25.1,2.9-.23,3.16-1.87,1.51-1.37-2.12-1.59-2.72-.14-.37-.9-.31-.97-1.04-.08-.86.92-1.41,1.69-1.07-.84-1.39.45-1.57.72-1.93.12-.16-1.16-1.28-.49-2.28.89-1.33,1.47-.33,2.04-.33.16,0,.18-.44.39-.59.94-.65,1.74-1.26,2.75-.39.17.15,1.7,2.01,1.55,2.16l-1.08-.72c-.63,1.67-2.02.55-2.84.71-.13.03-.55.86-.87,1.12-.25.21-1.51.46-.74.71.42.13,1.62-.7,2.4.36-.09-1.85,2.46-2.21,3.24-.72,1.28-2.72,4.41-1.23,2.52,1.2.45.02,1.1.2,1.44.48l.24.24c.06.16-.08.53.05.78.6,1.17,1.75,2.61,1.15,4.02.47.03.97-.04,1.44,0-2.02-1.32-1.1-4.02,1.22-2.72.54,1.12.12,2.62-1.22,2.72.39.03.71,0,1.09.03,1.08.08,2.02,1.44,2.75,2.13-1.06-.17-1.15.05-1.68.84l1.92-.12-.24.96c.41-.11.4-.64.83-.97,2.49-1.91,3.39,3.48.24,2.17-.64-.27-.4-.6-.83-.72l.21,1.42-.45.02.96.95h.47c.25-2.1,2.75-1.59,3.08.18.12.64-.28,1.25-.18,1.59.03.1,1.33,1.53,1.42,1.6.08-1.35-.78-1.63-.72-2.88l.48,1.2c3.9-2.75,3.49,4.09.24,1.68-.02.27-.17.47-.24.72.3.19,2.78.03,3.42.3s1.34,1.24.9,1.86l.95.39c-.08,1.31-.38,3.1.85,3.92.69-.95,1.77-1.41,2.78-.61,1.49,1.17-.28,2.54-.02,2.78.91-.11,1.32.32,1.73,1.03.37.63-.18,1.1,1.14.88-.2-.49-.8-.37-.91-1.13-.52-3.44,5.61-.62,1.4,1.25.4.63.96.1,1.45.22.84.21.88,1.02,1.26,1.51.17.22.56.2.84.72.33.62.14,1.1.05,1.74.41-.1.3-.76.6-1.2,1.36-1.93,4.01,0,2.05,2.04l1.31.84c.05-.76.6-.84,1.08-1.32-4.34-2.96,2.32-4.88,1.21-.14l1.19.5c-.14-.81.31-1.11.72-1.68-1.77-.11-1.93-2.68-.1-2.88,1.69-.18,1.58,2.52,2.5,3.36.66-1.64-.96-1.84-.72-3.23.14-.82,1.22-1.01,1.56-1.81l.73.96c1.5-.75,2.21-2.5,3.95-.96.28-1.38,1.95-2.79,3.25-1.74.3-.02.45-.55.6-.66.08-.05.16-.17.24-.24.22-.17,1.72-1.14,1.86-1.16.48-.08.82.13,1.26.2-.24-.54-1.17-.39-1.39-1.13-.33-1.06.34-2.09,1.49-1.99.07,0,1.24.29,1.3.31.11.05-.11.51.28.4-.19-1.65,1.52-2.67,2.65-1.32.59.71.15.96.33,1.56.35,1.14,1.56.36,1.19-.26-1.51-.48-.66-2.14-1.29-3.34,1.16.84,2.18-.21,3.36.96-.71-1.17.5-1.82.49-2.28,0-.22-.46-.13-.6-.35-.53-.8.38-2.29,1.32-1.69l-.24-.72,1.2.84h-.72c.47.44.47,1.05.1,1.55-.19.25-.65.13-.59.49,1.01-.17,1.4.59,2.04,1.2.52-.63.56-1.57,1.56-1.68-.86-.91-2.65-.9-1.29-2.6,1.32-.1,2.91-.31,2.68,1.47-.13.98-1.77.59.52,1.61l.96-2.04c-2.38-.4-1.17-3.59.61-2.04,1.04.9.02,1.59.12,1.68l1.68.72.96-1.44c-1.5.19-1.85-.54-1.68-1.92l-.84.71c-.22-.92,2.25-1.34,2.76-1.08.36.18.58.94.96,1.21l-.48.47,1.32.78,1.79-1.14c-3.39.48-3.02-2.88.24-2.64.04.96.54,1.7-.21,2.53l1.26.62.87-1.46c-.54-.32-.94,1.4-1.32.72-.72-1.28.11-3.95,2.04-3.48l-.2-1.53c1.01-.82,1.66.69,1.8.7.28.04.72-.25,1.14-.24.92.03,1.71.85,1.83-.74l-.72-.24c.94.14,1.96.17,2.89-.11,1.13-.34,1.69-1.63,2.97-.82.42.26.26.93,1.1.69-.38-1.39.37-1.95.72-2.88-.29-.04-.63.09-.92-.04-1.08-2.34,1.89-2.53.92.04.13.02.32-.06.44.03l.29.92h.59s.13-.46.13-.46l.35-.02.14.46.46.03c.35-1.68,1.59-.78,2.46-1,1.04-.26,2.16-2.2,3.78-.68l.48-1.19c-1.04.06-.78-2.42-.38-2.91,1.3-1.58,2.04,1.38,1.34,2.42l1.44.48c-.41-2.18,2.43-1.94,3.6-.96.07-.67.47-1.38,1.2-1.44.27-.38-1.99-.52-1.41-2.24.95-1.25,2.64.26,2.35,1.39-.1.38-.76.21-.7.61.91,0,1.43.41,1.8,1.2.66-.89.55-2.13,2.04-1.92-.22-.03-.89-1.81-.12-1.44s.33,1.3.48,1.67c.12.29.62.54.74.96.16.6-.56,1.42.22,1.93.65-1.73,1.96-1.83,3.23-.58,1.35,1.32.18,2.68-1.21,2.41-.38-.08-.62-.99-.94-.62-.42.49.71.96.86,1.42.18.55.1,1.13.11,1.7l.58-1.69,2.54-.7c-.9.81.6,1.38-.22,2.54-.92,1.29-2.57-.15-2.9.1.49,1.32-1.39,1.87,1.2,1.68-.28,1.19.37,2.6-.96,3.24.24.47,1.12.74,1.28,1.14.79,1.9-1.67,2.42-2.2,1.57-.13-.2.04-.62-.09-.85-.17-.3-1.15-.19-.86-1.32.13-.49.82-.57-.29-1.14l-.48,1.91c1.42.05,1.01,1.18,1.34,1.94.2.46,1.12.75.81,1.67-.65.26-1.25-.97-1.34-.97s-1.68.35-1.76.38c-.36.16-.53.54-1.16.77-.9.32-1.79.27-2.71.16-1,2.99.47.64.61.64.09,0,.29.37.47.38.2,0,1.82-1.01,2.25.25.7,2.04-1.6,1.87-2.83,1.28-.11,1.88-1.65,2.25-2.89.96v1.68c-1.64.2-2.3.54-3.36-.96-.15.53.23,1.13.21,1.57s-.4.77-.39.95c.02.28,1.13.7.53,2.03-.3.67-.95.59-1.48.82-.23.1-.22.89-1.27-.09-.42,1.51-1.86,1.44-2.88.48.22,1.05-.75,1.4-1.2,2.16.86.24.66-.44,1.2-.72-.46.83.42.96.49,1.57.14,1.13-1.34,1.94-2.11,1.25-.32-.29-.2-1.07-.35-1.46s-1.05-.67-1.03-1.36l-1.32,1.56,2.15.36c.04.55-.84-.13-.71.59.13.76,1.09.63,1.19.97l-.23.72c-1.24.3-2.54.46-3.6-.36l.14,1.45c-1.18.53-2.22.5-3.26-.25-.06.8-.16,1.48-.96,1.8l1.41.63-.2,1.77c-1.43.93-2-.15-2.49-1.39-.18-.47.2-1.14-.64-1.38l.26,3-.72,2.18c-1.24.48-1.27-.61-1.82-1.33-.22,0-1.05,1.56-1.56,1.79-.79.36-1.55-.13-1.93.02-.52.19-1.49,1.7-2.63,1.31l.79.68c.49-.54,1.11-.34,1.67-.5.65-.19,1.9-1.01,2.69-.91.61.08.77.72,1.08.84s.77-.28,1.22,0c.61.38-.22,1.41-.83,1.32l-.38-.71c-1.34,1.06-2.05.02-3.35-.24.49.87.36,2.21-.84,2.18-.64-.01-1.24-.82-2.01-.47.23,1.28-1.81,1.54-1.92,1.68-.15.19.18,1.33-.63,1.65-1.19.47.08-1.88.07-1.99,0-.36-.46-1.16-.55-1.6-.78.55.19,1.02.08,1.74-.29,1.9-2.72,1.26-3.09,1.5-.46.29-.3.94-1.63,1.03-.6.04-1.39-.56-1.72-.19s.97.89.96,1.32l-.5.26c.53,1.2-.08,1.91-.85,2.75-1.47-.3-2.24-1.42-1.31-2.78l-1.18-.59c-.16.21.52,2.74.44,3.18-.2,1.11-1.16.95-1.43,1.3s0,1.25-.94.69c-.33-.2-.5-1.07-.71-.85-.05.05-.07.49-.35.73-1.18,1-2.47-.27-2.77,0,.04.74-.49,1.09-.96,1.55.39.59.89.35,1.43.12l.43,1.52c-.68,1.66-1.72,1.06-3.06.65-.4.35,2.55,1.69.54,2.5l-.06,2.53.72.25.24-.72c.27,1.48.92,2.31.24,3.84l.95-.96.24,1.68c.82.03.43-1.13,1.37-1.4,1.44-.41,2.64,1.25,1.4,2.14-.64.46-1.76.13-2.54.22v.95c1.59.49,3.21-1.01,4.56.37l-.47.46.69.98-.94.84c1.51.46,1.71,1.81,1.07,3.13l1.57.71c.18-1.5,1.65-2.08,2.5-.7.73,1.18-.04,1.33-.34,2.38l1.68-1.2c-.03,1.36.91,3.27-.23,4.2.68-.24,1.71-.88,2.03.12,1.58-1.5,3.35.4,1.81,1.92.82-.02,1.8,1.11,1.87,1.84s-.93,1.05-.9,1.76c.51-.03.98.2,1.49.18.81-.03,2.1-.69,2.45-.67.74.05,1.15,1.15.75,1.71s-1.43-.03-1.83.11c-.37.13-1.26,1.34-1.43,1.79.73-.11,1.08.19,1.55.67.51.05,1.26-1.81,2.52-1.03,1.65,1.01-.53,2.52-.24,2.76.96-.16,1.88.28,1.94,1.32.02.4-.23.83-.2,1.17.05.46,1.89,2.39,2.33,2.07-1.21-1.39.49-1.62.36-2.88.91,1.18,2.21,2.1.43,3.22l.2.83c.65.59,3.34-2.26,2.99.75-1.14.29-1.18,1.59-2.05,1.82-.93.25-1.14-.71-1.68-1.1.2.77.52,1.46-.24,2.04l.84.59.24-1.43.48.96c.34-.26.48-.89.84-1.08,1.09-.59,2.66,1.71,1.46,2.9-.56.55-1.34.02-1.21.82,2.32-.68,4.13.8,2.16,2.88,1.08-.11,1.51.38,2.04,1.2l-.6-1.43c1.62-.47,4.38-.18,2.73,1.9l-2.49,1.22c1.79.75,1.95-1.25,3.72,0,2.18,1.55-.61,3.28-2.28,1.92l-.48,1.44,1.08.72c.17,0,.91-1.94,2.27-1.32,1.91.87.64,2.84.74,2.98.03.04.58.19.84.49.8.91.75,1.67.11,2.65.62.06.72-.64,1.33-.72.14-.02,2.33.12,2.44.17.34.16.55.6.83.89.19.19.54.04.44.39-.49-.05-.66.41-.71.83l1.15.76c-.2.64.07,1.24.06,1.89-.02,1.26-.87,1.21,1.06,1.83.59-1.55,3.88-.61,2.8.83-.8,1.06-1.93.1-2.44.45l-.95,1.57,1.31-.48.6,1.2c.61-2.54,3.5-1.44,2.63.95l-1.5.06-1.37,1.15c.54-.23,1.27.5,1.53.46.42-.07.7-1.18,2.07-.57.77.34,1.22,2.14.48,2.75.92.15,1.37,1.07,1.1,1.93-.17.57-.9.8-.86,1.43,1.52-.34,1.61.97,2.88,1.08-.69,1.62-2.53,1.77-3.6,3l.81.21c.34-.07.77-1.6,2.15-1.14.45.35,1.75,2.67,1.36,3.09l-2.75-.46-.25.21c-.53,1.46-.12,1.16.3,2.1.56,1.24.07,1.52-.67,2.46,1.29-.21,1.49,1.34,2.88.96l-.02-1.03c2.13-1.26,2.34,2.22-.21,1.28.24,1.17-2.2,1.86-2.96,1.64-.37-.11-.54-.69-.89-.56.59.98-1.09,1.58.12,2.28l.48-.48.83,1.3c-.83.3-.82,1.57-1.6,1.78-.9.24-1.92-.77-1.98-.68v1.65s-.96.27-.96.27c-.19.83.57.29.92.52.5.32.63,1.62-.1,2.1-2.08,1.35-1.76-2.44-2.97-3.09.18.53-.26,1.4-.19,1.77.1.49,1.14.74.54,2.06-.66,1.48-2-.22-2.4,1.2l-.34-.02-.03-.43-.46-.03c-.13,1.09-1.23,1.17-2.11.8-.46-.19-.37-.92-1.01-.8.57,2.43-2.56,2.53-2.55.6,0-.79,1.51-1.15,1.11-1.56-.56.25-1.21.34-1.82.26-.54-.07-.14-.67-.82-.5l-.45,1.54,1.09,1.22c-.14.5-.47,1-1.01,1.08-2.07.32-.15-2.76-1.89-2.66-.17,0-.04.76-.61.5-.52-1.09.04-1.99-.02-3.1-1.53-.81-1.66.92-3.21.7-.62-.09-.81-.76-1.33-.97l-.72,1.32c-.03.08,1.22.45.6,1.08-.58-1.24-.84-.6-1.56-.81-.85-.25-1.47-1.13-1.03-2.01.25-.49.73-.37.79-.77-.5-.21-1.23-.15-1.67-.37-.56-.28-.58-1.13-.78-1.27s-.57.01-.67-.04c-.06-.07-.06-.22-.24-.24-.23-.21-.4-.64-.5-.95-1.01.3-2.16.98-3-.01-.3-.59,1.11-2.09,1.57-2.52-1.52-.27-2.43-.54-2.11-2.35.13-.73.52-.43.67-.89-1.66-.82-4.66,1.94-4.8-.96-.32-.13-.23.99-.72.48-.33-.35.43-.62.59-.73,1.42-.93,2.65-1.22,2.53.97l.72-.25-.49-1.77,1.21-1.1c-.68.33-1.79-.05-2.26,0-.14.01-.64,1.57-2.05.59-.36-.25-.4-.62-.62-.82-.7-.63-1.38-.21-1.07-1.93.78-.14.97.26.96.96.91-.89,1.5-.55,2.64-.48l-.48-.59.72-.84-1.2-.72c.04.9-.97,1.87-1.85,1.51-1.58-.65-.72-2.53-1.08-3.14-.07-.11-.5-.17-.68-.39-.38-.48-.29-1.15-.54-1.51-.17-.24-1.02-.54-1.13-1.15l-.24-.12c-.19,1.39-2.63.97-2.63-.36s1.5-1.15,1.66-2.04l1.43,1.68c-.19-.79-.43-1.38.24-2.04-.63.18-1.42.01-1.99.17-.52.15-.71,1-1.37.91l.24-.72c-1.8,0-1.02-1.47-1.24-2.22-.1-.34-.56-.58-.73-.97-.43-.96-.55-1.92.29-2.69-.77-.92-2.14.23-3.02.35-1.85.25-1.3-1.12-1.84-1.61-.19-.18-.92-.15-1.13-.66-.32-.79,1.45-.13,1.55.31l2.76-1.5-1.32-1.08c-.34,2.19-3.39,1.8-3-.35.08-.44.54-.62.48-1.09-.92.09-1.66-1-1.68-1.83,0-.5.44-.79.38-1.06-.09-.39-1.74-2.39-1.82-1.53.38,1.01-.5,1.43-.67,1.96-.1.29,0,.57-.05.78.47-.02.75-.45,1.33-.02.95.71.5,1.82-.54,2.12-1.35-.11-.99-1.15-.79-2.09-.78.03-.4-.39-.75-.81-.38-.47-1.1-.62-.83-1.6.16-.56,1.39-1.16.38-1.8-.67-.43-1.74.75-2.64.37-.19-1.34,1.34-1.41,1.43-2.86-2.15-.61-2.36-3.17,0-3.5-.41-.61-.93-.05-1.5-.15s-.94-.86-1.61-.69l-.22,1.1c-3.13.87-1.99-3.6.1-1.34l-.12-.72.48.24.72-1.68c-.95,0-1.59-.48-1.68-1.44l-.48.12.48,1.8c-1.54-.08-3.52.15-2.64-2.05l2.88-1.07-1.56-.72c-.88,1.63-3.75.33-3.19-1.51.39-1.31,2.17-.39,2.94.09l.58-1.42-1.02-.49c-1.64,2.15-4.08.18-2.55-1.94-1.89-.08-2.04-1.58-1.68-3.12-.47-.09-.73.38-1.13.45-.44.08-.77-.16-1.14-.16-.55,0-1.28.54-1.69-.29-.53-1.08.83-2.38,1.88-1.7.47.31.1,1.15.88.98.22-.87-.57-.77-.95-1.32l1.19-.48c-.2-.27-.63-.36-.83-.61-.42-.52-.12-1.34-.85-1.19.35,1.86-1.53,1.16-1.2,2.64-2.36-.13-.8-2.46-1.2-3.91-.07-.25-.74-.4-.98-.75-.81-1.21.75-2.21.5-2.54-1.33.77-2.49-.69-2.03-1.91.18-.48.83-.79,1.07-1.21-3.77-.08-1.72-1.82-1.95-2.71-.12-.44-1.18-1.15-1.17-1.85-.51.22-.09,1.14-.54,1.62-1.02,1.07-2.78.18-2.29-1.45.13-.44.78-.57.67-1.13-.97.46-1.83-.91-2.27-.71-.12.05-.78,1.24-.85,1.43.31.05.59-.07.95.12.93.48.26,3.28-.97,2.42l-.19-.29c-.16-.83-.05-1.47.2-2.24-3.19-.5-1.32-1.16-1.95-1.89-.14-.17-1.4-.08-1.17-1.23-.43-.01-.27.62-.54.9-.07.07-1.69.87-1.86.92-.7.19-1.4.36-2.09.53-.6.15-1.35,0-1.99.29,1.2.95.92,3.71-.72,3.84-.08.1.21.71.24.96.38-.03.67-.38,1.09-.03.92.77-.01,1.98-.87,1.37-.37-.26-.17-.96-.22-1.34-.16.01-.32,0-.48,0,.1-.76-.12-1.03-.73-1.37l-.71-2.47-.64,1.07.4,1.81.48-.24-.36,1.68-.49-.71c-1.02.74-1.54,0-2.13-.02-.21,0-1.68,2.86-3.49.73l-.63,1.93c-1.67.33-2-.72-2.97-1.69.43.87-.32,2.53-.19,3.21.07.36.75.51.68,1.21-.08.79-1.36,1.6-1.81.61-.21-.46,0-1.04-.24-1.44-.13-.21-.61-.31-.82-.62-.25-.37-.08-1.04-.5-1.06.06,1.2-1.21,2.34-2.4,1.8-.52-.24-.5-.95-.96-1.08.35,1.42-1.35,2.45-2.52,2.64-.79.13.32-1.07-.6-1.2l-.72,2.16c2.12.03,1.2,2.88-.55,2.36-1.09-.33-.5-1.79-.41-2.6l-1.08.95-.61-.71c-1.01.94-1.87.72-3.11.59l-1.09,1.09.25.48.73-.21.11.44h.47c0-.81,1.61-1.42,2.27-1.42,1.1,0,1.84,1.61.56,2.21-.2.1-1.55.54-1.81.6-.33.08-.66-.19-.88-.14-.3.06-.29.78-1.03.88-1.15.16-2.05-1.35-2.23.52l.96.36c-.2.19-.37.48-.65.57-.18.06-2.02-.47-2.22-.57-.52-.26-.5-1.34-1.44-1.08l.96.96c-1.1-.18-1.15,1.14-.96,1.92-.55-.6-1.48-.38-2.02-.74-.34-.23-.24-.73-.61-.7-.75,4.57-6.07-.08-.82-.96l.81.71.48-1.08c.06-.66-.15-.19-.41-.18-.74.04-2.63.3-3.12.84-.05.05-.71,1.21-.72,1.28-.05.26.2.61.17.92-.09,1.19-1.52,2.18-2.5,1.09-.42-.47-.08-1.02-.84-.83l.95-1.32-1.44-.48c-.19,1.47.68,2.39,1.2,3.6l-.68-.22c-.44,1.26-1.32.96-2.29.48-1.03,1.68-2.1,1.64-3.75.81-.17.38-.88,1.1-.87,1.45.02.51,1.58,2.39.48,2.75-.98.32-.96-.51-1.3-1.01-.19-.29-.7-.04-.43-.96.07-.24.51-.55.43-.65-1.59-.17-.89-2.35-2.4-1.92-.05.4.47.19.63.59.37.89-.05,2.42-1.25,2.52-1.99.17-1.67-3.34.38-3.11l-.36-.47c-.48.55-1.3.33-1.8.61-.26.14-.13.62-.89.77-1.2.25-2.17.03-3.26-.39l-1.73,1.17c-.97-.16-1.69-1.04-.95-1.9.14-.16,1.37-1.39,1.47-1.42.53-.18,1.03.15,1.41.1.45-.06.78-.4,1.43-.4.48,0,1.28.48,1.31.39.02-.05-.18-.75.25-1.08h-.96c.55-1.55-1.1-2.13.6-3.36.99-.71,1.32-.37,2.28.24l-.48-1.68,1.44-.12c0-.28-1.09.05-1.34-.82-.75-2.64,2.87-3.13,2.43-.49-.14.82-.52.66-.85,1.18l1.4-.03c.7-1.12-.65-1.85-.08-3.08.09-.2,1.28-1.34,1.49-1.4.86-.25,1.21.39,1.39.38.16,0,1.58-1.71,2.51-1.15-.28-.92-.19-3.45.78-3.9s1.09.31,1.36-1.28c.1-.08,1.88-.07,2.27-.07.27,0,.57.23.73.22.12,0,.38-.84,1.09-1.09,1.51-.54,3.11.59,3.37-1.31-2.81-1.06-.12-4.43,1.92-2.41l.5-2.02c-.02-.26-1.04-.09-.97-1.44.06-1.18.95-.87,1.14-1.15.16-.23-.02-.92.38-1.18.71-.61,1.23.15,1.76.22.75.1,1.78-.51,2.71.28l-.72-1.2c1.5.11,1.99-1.22,3.59-.36l-.47-.6c.46-.1,1.44-.22,1.44-.84,0-.16-.68-.25-.95-.49-1.7-1.49,1.68-4.16,2.39-.83.83-.31-.04-1.55-.02-2.29.02-.52.44-.84.44-.95,0-.2-.74-.47-.68-1.18.22-.91,1.31-.61.97-1.81.38-.03,1.03-.06,1.2.36.26.64-.47.61-.45.7.02.19.22.41.22.73-.01.56-.42,1.04.13,1.56.38.36,1.02.18,1.25,1.14s-.17,1.14-.42,1.98c.43.15.59-.4.84-.4.27,0,.7.92.84-.32-.32.44-.98-1.02-1.05-1.25-.55-1.85,1.93-2.84,3.21-1.39-.12-1.2,1.02-1.84-.48-2.64.01,1.12-.47,1.5-1.57,1.46-2.82-.09-1.05-3.93,1.2-1.71l.58-1.57c.38-.26,1.11,0,1.53-.1.26-.06.28-.66.64-.85.63-.32,2.24-.66,2.87-.23.43.3.33.78.73.83l.02-2.15c.82.27,1.64-.49,2.52-.38.25.03.44.45.58.37.1-.05.81-1.48,1.68-1.2l-.12-.48c-.93.44-1.84-.18-2.75.39-.21.13-.23.51-.55.66-1.63.74-2.52-1.57-1.38-2.13.66-.32,1.12.14,1.53.07,1.04-.18,2.01-2.87,3.99-.42-.23-.69.06-2.18-.05-2.7-.06-.29-.44-.51-.45-1.02-.03-.99,1.07-1.45,1.84-.84.25,1.29.38,2.31,1.54,3.12l.96-2.16c-2.56-.38-1.6-3.92.96-2.64v-.96c.44.25.92.29.97-.36-.78-.35-1.27-.83-1.92,0l.36.36c-3.34,1.81-4.26-3.47-.12-2.16-.14-.45-1.14-.62-1.2-1.2.22-.1.55-.07.72-.36l-.36-.36c-.14,0-.38.53-.36.72-.64.27-1.47.73-2.04.24-.08-.07-1.27-1.72-1.29-1.83-.07-.37.4-.7.38-.93-.01-.2-.76-.69-.86-1.25-.11-.62.37-1.24.18-1.82-.14-.43-.67-.44-.93-.64l-.24-.24ZM145.22,163.94c-.39-.03-.74.22-1.13.06-.64-.25-.55-.84-1.02-1.02v1.2c.91-.2.94.11,1.55.48l.6-.72ZM254.18,164.17l-.72-.47-.48.96,1.2-.48ZM144.26,164.9h-.48v.48h.48v-.48ZM247.45,165.37v-.48h-.24v.48h.24ZM250.58,165.37l-.12-.48-.36.48h.48ZM141.38,165.14c-.12-.09-1.89-.06-1.92.48l1.66.23.26-.71ZM248.06,165.62l-.36.36.36.36.36-.36-.36-.36ZM240.73,166.34h-.48c.55.87.74,1.57,0,2.4l1.16-1.08-.68-1.32ZM141.58,169.67c1.15-1.33-.63-1.79-1.05-3.09.46,1.16.29,1.86-.59,2.76l1.64.33ZM145.21,168.97c-.04-.77.75-2-.56-1.88l-.88.8,1.43,1.08ZM244.82,168.01l-.48-.48v.48s.48,0,.48,0ZM255.62,167.54h-.48s.36.48.36.48l.12-.48ZM237.86,168.5h-.48v.24h.48v-.24ZM237.86,169.69l-.24-.72h-.23l-.24.72h.72ZM233.06,170.9l-1.68.24.46.26-.23.7c.27.26,1.33-.89,1.44-1.2ZM256.82,170.9l-.12.71.36-.36v-.36h-.24ZM224.64,171.39l-.7-.02c.43.92.62,1.59.48,2.64l1.68-.72c-.03-.44-.61-.18-.98-.58-.28-.31-.34-.93-.48-1.32ZM143.05,172.33v-.72h-.24v.72h.24ZM229.46,172.1l-1.92-.48,1.19.84-.47.84,1.2-1.2ZM253.34,171.85v.24c.16-.08.16-.16,0-.24ZM150.49,173.77c.8-1.86-1.42-1.12-.96-.48l.96.48ZM142.81,173.53v-.48h-.24v.48h.24ZM229.7,175.69c.12-.09-.42-.64-.72-.48-.12.09.42.64.72.48ZM254.66,175.46l-1.2-.24c.15.55.76.51,1.2.48v-.23ZM215.66,177.61v.24c.16-.08.16-.16,0-.24ZM154.82,178.81c1.74.53,2.09-1.41,0-.71v.71ZM219.14,179.05c.35.08.5-.11.72-.36l-.6-.84-.12,1.2ZM222.62,178.09v.24c.16-.08.16-.16,0-.24ZM249.38,180.97c-.27-.55-1.05-1-1.44-.36.34.49.89.37,1.44.36ZM210.5,181.94l-.84-.48-.6.95c.1.08,1.47-.03,1.44-.47ZM206.54,182.17v.24c.16-.08.16-.16,0-.24ZM246.02,182.18h-.48s.36.48.36.48l.12-.48ZM242.9,182.42h-.48v.24h.48v-.24ZM160.7,183.38c-.1.03-.24.27-.36.36.96,1.37,1.65-.69.36-.36ZM150.02,184.33v-.72s-.72.24-.72.24v.48s.72,0,.72,0ZM200.18,185.77c-.34-.69-.06-1.23-.12-1.92-.44.25-.24.84-.43,1.13s-1.09.32-1.13.78h1.68ZM202.22,184.33v.24c.16-.08.16-.16,0-.24ZM244.34,185.54c-1.08-.53-1.68-.51-1.94.82l1.21.86.72-1.68ZM240.01,186.97l.24-.6-.47-.36v.96s.23,0,.23,0ZM147.37,187.21v-.36s-.36-.36-.36-.36l.12.71h.24ZM167.06,188.9c-1.19-.5-2.03.01-.84.95l.84-.95ZM198.5,189.37l-.48-.48v.48s.48,0,.48,0ZM233.78,189.14h-.48v.24h.48v-.24ZM194.3,190.33v.24c.16-.08.16-.16,0-.24ZM192.01,192.25l.24-.96c-.37-.06-.32.61-.72.84l.47.12ZM189.38,192.02c-.92-.19-1.63-.39-1.92.72l1.44.48.48-1.2ZM235.46,192.5h-1.68v.24h1.68v-.24ZM232.22,192.97v.24c.16-.08.16-.16,0-.24ZM172.34,194.42l-1.2-.24.6,1.19.6-.95ZM228.73,195.37v-.48h-.24v.48h.24ZM175.45,196.81c.2-.53.2-.9,0-1.44h-.23s0,1.44,0,1.44h.23ZM152.42,197.53l1.68-1.32-.71-.36c.1.79-.63,1.09-.96,1.68ZM228.86,195.85v.24c.16-.08.16-.16,0-.24ZM154.46,196.57v.24c.16-.08.16-.16,0-.24ZM227.06,198.26l-.95-.24c-.78,1.29.04,1.21.23,2.4.45-.11.18-1.04.29-1.51.05-.22.52-.57.43-.65ZM155.29,201.14l.47-1.3-1.42-1.34-.21,1.75,1.16.88ZM158.42,199.45l-.36-.72-.36.36v.36s.72,0,.72,0ZM223.7,199.22c-.56-.15-1.45-.33-1.19.59s1.46-.34,1.19-.59ZM177.14,199.7h-.48v.24h.48v-.24ZM220.46,202.81v.24c.16-.08.16-.16,0-.24ZM220.22,203.29v.24c.16-.08.16-.16,0-.24ZM219.61,204.49v-.48h-.24v.48h.24ZM218.54,204.49v.24c.16-.08.16-.16,0-.24ZM160.58,205.22h-.48v.24h.48v-.24ZM215.06,205.7h-.48s-.24.72-.24.72h.48s.24-.72.24-.72ZM214.1,206.18h-.72v.24h.72v-.24ZM211.46,207.85c-.61-1.73-1.39-.41-.36,0,.1.04.24,0,.36,0ZM158.9,209.3l-1.2-.72-.42,1.09.74.57.87-.94ZM161.53,209.05v-.48h-.24v.48h.24ZM206.17,213.85l.12-1.45c-.46-.61-1.15-.46-1.55.14l1.43,1.32ZM155.78,212.89l-.48-.48v.48s.48,0,.48,0ZM203.06,213.14l-.96-.24.24,1.44.72-1.2ZM155.18,213.85v.24c.16-.08.16-.16,0-.24ZM200.41,217.22l-.95.6,1.43,1.08-.48-1.68ZM153.74,217.45v.24c.16-.08.16-.16,0-.24ZM143.78,218.9h-.36s-.36.36-.36.36l.24.6h.48s0-.96,0-.96ZM148.1,220.09l-.84-.96h-.36c-.31.29.77,1.09,1.2.96ZM150.86,219.13v.24c.16-.08.16-.16,0-.24ZM144.26,222.25l.71-1.08-1.67-.11c.2.49,1.02.43.96,1.2ZM199.46,221.3c-.71.1-1.14-.06-1.68-.48l.61,1.22,1.06-.73ZM198.62,224.65v.24c.16-.08.16-.16,0-.24ZM199.45,226.09c.12-.33-.34-1.5-.48-1.2-.04.45-.07,1.05.48,1.2ZM141.5,225.61v.24c.16-.08.16-.16,0-.24ZM196.09,226.33v-.48h-.24v.48h.24ZM135.98,227.05v.24c.16-.08.16-.16,0-.24ZM134.41,228.25v-.72h-.24v.72h.24ZM135.61,228.49v-.48h-.24v.48h.24ZM200.41,228.73c.08-.35-.1-.5-.36-.72l-.36.36.72.36ZM129.38,232.82c.39.85,1.26.49,1.67-.12-.53-.78-1.02.24-1.67.12ZM166.22,232.33v.24c.16-.08.16-.16,0-.24ZM126.69,232.64c-.21-.12-.45-.05-.67-.06l.24,1.92,1.68-.84c-.67.02-1.04-.89-1.25-1.02ZM166.1,233.06l-.96-.48v.48s.84.48.84.48l.12-.47ZM206.66,233.06l-1.44-.48-.48,1.44,1.16.22.75-1.18ZM173.29,234.49c.08-.64-.08-1.07-.6-1.44l-1.32.96c.35.87,1.35-.79,1.68-.48l-.48.72.72.24ZM162.74,233.3c-.3-.16-.84.38-.72.48.3.16.84-.38.72-.48ZM169.45,235.45c-.03-.61.28-.96.72-1.32l-.6-.6c0,.42-.63,1.69-.12,1.92ZM162.62,234.01v.24c.16-.08.16-.16,0-.24ZM168.26,235.45c.09.12.64-.42.48-.72-.09-.12-.64.42-.48.72ZM176.78,235.69v.24c.16-.08.16-.16,0-.24ZM130.94,236.17v.24c.16-.08.16-.16,0-.24ZM127.46,237.13l.47-.36-.36-.36-.12.72ZM175.22,236.42c-.43-.1-2.07.18-2.16.6l1.57.31.59-.91ZM206.66,236.42h-.48s0,.48,0,.48l.48-.48ZM211.45,238.34c-.67-.12-1.16.43-1.44.95l1.44.72v-1.68ZM154.1,239.3h-.72c-.2.93.24,1.05.96,1.44l.48-1.2-.84.47.12-.71ZM178.58,239.3h-.48s.36.48.36.48l.12-.48ZM151.94,240.5l-1.2-.12.62.59.58-.46ZM150.98,241.46c-.78.02-.58-1.22-1.19-.36l1.19.36ZM178.58,242.42h-.48v.24h.48v-.24ZM216.91,243.67c-.21-.2-.7-.2-.9-.41-.31-.32-.04-.88-.47-.85l-.22,2.25.82.88.6-.17c.11-.59.75-1.15.18-1.69ZM144.98,242.9c-.65-.19-.73.36-1.2.6l.72.6.48-1.2ZM141.86,243.86l-.96-.24.24.72h.35s.36-.48.36-.48ZM115.46,243.86l.6,1.44.6-.83-1.2-.61ZM180.02,245.29l.48-.36-.36-.6-.12.96ZM141.37,245.29v-.72h-.24v.72h.24ZM138.02,244.82h-.48s0,.48,0,.48l.48-.48ZM114.26,245.06h-.48s0,.48,0,.48l.48-.48ZM138.01,246.25v-.48h-.24v.48h.24ZM179.9,245.77v.24c.16-.08.16-.16,0-.24ZM217.22,246.97v-.36s-.6-.6-.6-.6l.12.96h.48ZM113.3,246.26h-.48s0,.48,0,.48l.48-.48ZM134.89,247.45l-.23-1.08h-.96s1.19,1.08,1.19,1.08ZM130.82,246.74c-.15.15.11.95.36.95.93,0,.26-1.57-.36-.95ZM181.93,250.09l-.12-1.91c.03.63-.71,1.56.12,1.91ZM109.7,250.33c1.79.72,2.29-.97.48-1.44l-.48,1.44ZM114.01,249.61v-.48h-.24v.48h.24ZM121.94,250.57l-.36-.48-.6.36.96.12ZM129.23,251.94c-.32-.69-.24-1.3-.7-1.84-.02.43.1.59-.14,1.03-.34.61-.9.63-1.18,1.12,1.13-.45,1.44.16,2.4.48.26-.67-.34-.7-.38-.8ZM185.06,251.29l.71-.84-.36-.36-.36,1.2ZM223.7,252.5l-1.05-.26c-.23.03-.24.57-.49.76-.33.25-.89.05-.86.46l1.68.96.72-1.92ZM124.82,252.74h-.36s-.36.36-.36.36l.71-.12v-.24ZM111.26,253.45v.24c.16-.08.16-.16,0-.24ZM220.1,253.7l-.96-.24c-.08.35.1.5.36.72l.6-.48ZM105.03,254.66l-.35.56.81,1.11.84-1.08c-.32-.37-.8-.62-1.3-.59ZM114.74,256.1l-1.8.71-.24-.95c-.73,1.28-2.09,1.7-3.36.95l-.12.48c1.43.92.87.47,1.97.16,1.3-.36,1.51.62,2.59,1.05-.53-1.31.12-1.59.96-2.4ZM223.94,257.05c-.8-1.55-1.89-.6-.36,0,.1.04.24,0,.36,0ZM188.42,257.53c.09-.61-.61-.83-1.06-.98l-.85,1.1,1.91-.12ZM107.42,258.49v.24c.16-.08.16-.16,0-.24ZM228.74,258.74c-.7.23-1.81-.63-2.16.24.81-.14,1.12.31,1.68.72l.48-.96ZM192.14,259.93v.24c.16-.08.16-.16,0-.24ZM221.66,260.41v.24c.16-.08.16-.16,0-.24ZM192.86,262.34l-.36.36.11.11c.13-.15.48-.31.24-.47ZM229.46,264.73l.68-.6-.92-1.56.24,2.16ZM194.66,265.94l-.96.24v.23l.96.24v-.72ZM226.94,265.93v.24c.16-.08.16-.16,0-.24ZM195.61,270.49l-.12-.96-.36.6.48.36ZM195.85,271.45v-.48h-.24v.48h.24ZM233.06,270.98h-1.2s.24.96.24.96l.96-.96ZM199.69,271.93v-.48h-.24v.48h.24ZM196.33,273.13c-.09-.53.48-1.24-.23-1.44l-.48.96-.24-.72-.14.96,1.09.23ZM196.94,274.33v.24c.16-.08.16-.16,0-.24ZM236.66,277.21l.81.21c.62-.35.86-1.36-.1-1.05l-.11.59-.61.24ZM202.34,277.46l-.96-.24.6.71.36-.47ZM201.38,281.53c.97.15,1.31.27,1.92-.6l-1.06-.62-.86,1.21ZM242.42,280.58h-.48s.36.48.36.48l.12-.48ZM244.34,281.54c-.78-.3-1.38-.29-2.16,0l.72,1.68c.43-.01.3-.67.6-.97.35-.35,1.01.03.84-.71ZM243.5,284.65v.24c.16-.08.16-.16,0-.24ZM244.69,288.74c-.24.17.13.33.24.47.24-.16-.11-.32-.24-.47ZM209.3,290.41c-.39-.57.02-.68.11-.96.28-.88-1.4-.28-1.06.72l.96.24ZM250.57,295.22l.46-1.29-1.06-.86-.83,1.42,1.44.73ZM214.34,294.97v-.48s-.48.36-.48.36l.48.12ZM212.41,295.93v-.48h-.24v.48h.24ZM251.78,297.38h-1.2s0,.48,0,.48l1.2-.24v-.23ZM216.26,297.86l-1.2-.24.48,1.2.72-.96ZM252.01,300.25v-.48h-.24v.48h.24ZM219.26,300.49v.24c.16-.08.16-.16,0-.24ZM250.82,304.58l-.96-.24.36,1.2.6-.96ZM221.54,307.45l-.48-.48v.48s.48,0,.48,0ZM251.3,308.17l-.6-.48-.6.84,1.19-.37ZM222.74,310.33l-.24-.96c.14.81-.31,1.11-.72,1.68.29,0,.63.04.86.22.46.36.06,1.17.81.98v-2.28s-.72.36-.72.36ZM249.38,312.97l-.84-.95-.6.84,1.44.12ZM250.1,312.02h-.48v.24h.48v-.24ZM226.82,312.73l-.36-.47-.36.36.72.12ZM229.46,315.14h-.72v.24h.72v-.24ZM246.14,315.13v.24c.16-.08.16-.16,0-.24ZM228.74,315.62c-1.76.34-.68.48-.24,1.44l.24-1.44ZM235.94,316.57l-.48-.48v.48s.48,0,.48,0ZM239.29,316.57v-.48h-.24v.48h.24ZM244.31,317.81l-1.4-.75-1.2,1.44c.37,0,.74.08,1.05.27.52.3.43.81.86.93l.69-1.89ZM236.17,317.77v-.48h-.24v.48h.24ZM240.98,318.26c-.66.09-.96-.43-1.44-.72-.06.93-.52,1.69.36,2.4l1.08-1.68Z"/>
    <path class="cls-1" d="M190.82,187.21c-.05-.34-.26-.65-.2-1.03.27-1.61,1.97-1.29,2.47.07l.56-.28c-.45-3.15,3.36-1.99,2.33.05-.15.3-.6.34-.78.54-.12.13-.04.38-.06.41-.09.07-.15.18-.24.24-1.03.61-1.47-.47-2.04-.49-.12,0-.15.8-2.04.49.06.4.41.9.24,1.44-1.07.38-1.37-.67-1.44-.72-.08-.05-.68.81-1.87.31-.34-.14-.41-.93-1.49-.56.23-2.16,3.22-.7,4.56-.48Z"/>
    <path class="cls-1" d="M223.46,314.17c.08.07.11.17.24.24.75.84.21,1.66.24,2.64-1.24-.38-2.4-.89-1.81-2.41l1.33-.47Z"/>
    <path class="cls-1" d="M166.9,237.29c.24.24.67.35.87.68-.61,1.02-2.21,1.18-3.11.46-.46-.37.13-.73-1.21-.34.84,2.39-2.85,2.71-2.47.3.23-.49,1.6-1.2,2.13-1.27.5-.06,1.21.24,1.27.21.18-.13.1-.7.93-.88,1.23-.27,1.05.3,1.59.83Z"/>
    <path class="cls-1" d="M143.14,249.04c-.08-.04-.06-.38-.23-.39l-1.03.28c.1,1.08-.47,2.16-1.61,1.42-1.53-1,.15-3.14,1.57-1.69-.09-1.79,3.53-2.05,3.37-.37-.33.97-1.23,1.22-2.09.75Z"/>
    <path class="cls-1" d="M119,236.93c1.94-.35,2.36,2.48.6,2.8-1.94.35-2.36-2.48-.6-2.8Z"/>
    <path class="cls-1" d="M242.12,274.52c-.46.47-1.26-.03-1.38.06l.48,1.68c2.34-1.93,3.57,1.95,1.07,1.94-1.3,0-.85-1.39-1.12-1.66-.13-.13-.9.19-.9-.9,0-.59.38-.87.4-1.21.06-.72-.21-1.85.07-2.73.57-.58,2.36,1.8,1.38,2.82Z"/>
    <path class="cls-1" d="M256.05,306.68c-2.18,1.07-2.68-1.25-1.58-2.77,1.97-.33,2.11,1.27,1.58,2.77Z"/>
    <path class="cls-1" d="M136.49,159.07c-.33.29-.77-.3-.75,1.27l-.85.23c-.38-1.08.67-1.37.72-1.44.06-.1-.43-.48-.48-.85-.08-.54.02-2.51.88-2.46l.58.3c.16,1.09.95,2.01-.1,2.94Z"/>
    <path class="cls-1" d="M166.28,182.69c1.51-.15,1.92,2.74-.06,2.74s-2.11-2.53.06-2.74Z"/>
    <path class="cls-1" d="M101.94,260.47c1-.09,2.08,1.56,1.03,2.46-1.9,1.64-3.32-2.26-1.03-2.46Z"/>
    <path class="cls-1" d="M145.64,182.95c.33.33.48,1.71.07,2-.74.52-2.68.04-2.6-1.18.09-1.04,1.87-1.49,2.53-.82Z"/>
    <path class="cls-1" d="M230.23,320.6c-1.2-1.2.67-3.07,2.11-1.76s-1,2.87-2.11,1.76Z"/>
    <path class="cls-1" d="M209.94,296.94c.27-.08.6-.1.87,0,.42.14,1.39,2.39.63,2.73-1,.45-2.55-.89-2.3-1.81.17-.34.4-.79.79-.91Z"/>
    <path class="cls-1" d="M101.24,256.04c-.53.94-3.15.64-2.73-.92.5-1.88,3.71-.81,2.73.92Z"/>
    <path class="cls-1" d="M110.11,243.66c2.53-.75,2.61,2.54.46,2.35-1.49-.13-1.45-2.06-.46-2.35Z"/>
    <path class="cls-1" d="M116.83,238.16c1.04.99.34,3.36-1.39,2.46-.65-.94-.69-2.17.48-2.67.3-.09.68,0,.9.21Z"/>
    <path class="cls-1" d="M169.97,187.49c-.2.22.16.97-.15,1.17-1.59-.58-.67-4.82,1.2-3.12.77,1.77-.77,1.65-1.05,1.95Z"/>
    <path class="cls-1" d="M209.79,235.2l-.14-1.9c2.4-2.17,3.49,2.49.14,1.9Z"/>
    <path class="cls-1" d="M131.24,226.87c1.27,1.29-1.01,2.63-2.34,2.1l.28-1.88c.6-.28,1.49-.8,2.06-.22Z"/>
    <path class="cls-1" d="M261.06,169.73c2.17-.75,2.4,2.54.46,2.36-1.56-.14-1.29-2.07-.46-2.36Z"/>
    <path class="cls-1" d="M163.6,180.83c-.46-.51-.85-.46-.62-1.53.89,0,3.81.63,2.66,2.06-.73.9-1.53.04-2.04-.53Z"/>
    <path class="cls-1" d="M146.35,189.17c1.27-.36,2.04,1.56.69,2.38-1.91,1.16-2.1-1.6-.69-2.38Z"/>
    <path class="cls-1" d="M213.79,210.05c1.72-.52,2.45,1.97.61,2.32-1.53.3-1.91-1.93-.61-2.32Z"/>
    <path class="cls-1" d="M248.6,159.66l.31.06c1.07,2.53-3.03,3.66-1.95.47l1.64-.53Z"/>
    <path class="cls-1" d="M174.49,189.86l.25.96c.84-1.01,2.41-.18,2.06.97-.13.8-1.5,1.02-1.95.48-.09-.11-1.49-2.72-.36-2.4Z"/>
    <path class="cls-1" d="M247.35,184.34c1.8-.42,3.22,1.77,1.55,2.52-1.25.56-1.17-1.06-1.34-1.57-.07-.2-.98-.77-.21-.95Z"/>
    <path class="cls-1" d="M203.71,288.05c1.13-.17,1.94,2.11.41,2.37-2.02.34-1.85-2.15-.41-2.37Z"/>
    <path class="cls-1" d="M203.45,223.71c1.67-.49,3.01,2.81.46,2.38-1.17-.2-1.08-2.2-.46-2.38Z"/>
    <path class="cls-1" d="M98.78,260.91c.52.73,1.45,1.4.96,2.39-.9,1.79-3.46-1.46-.96-2.39Z"/>
    <path class="cls-1" d="M241.46,191.77c.01-.51-.2-1.45.39-1.64,3.41-.47,2.83,2.69-.39,1.64Z"/>
    <path class="cls-1" d="M217.26,211.89l-1.01-1.52c-.05-.52.34-1.03.86-1.08,1.06-.25,1.63,2.17,1.08,2.54l-.93.06Z"/>
    <path class="cls-1" d="M159.71,174.16c.21.21.54.28.69.62.66,1.4-.64,2.55-1.48,1.48-.98-1.24.33-1.45.22-2.73.32.03.37.43.57.63Z"/>
    <path class="cls-1" d="M204.74,220.57c.25,1.32-.22,1.65-1.33,2.17-2.4-.62-.31-2.68,1.33-2.17Z"/>
    <path class="cls-1" d="M172.82,240.74c2.37-.72,3.16,2.58.85,2.16-1.32-.24-.52-1.32-.85-2.16Z"/>
    <path class="cls-1" d="M102.23,252.7c-.89.51-1.5-1.44-1.05-2.12.5-1,1.97-.28,1.96.6,0,.1-.83,1.48-.91,1.52Z"/>
    <path class="cls-1" d="M236.15,264.29c.25,1.13-.63,2.45-1.89,2.37l.42-.59c-1.33-1.43-.17-2.52,1.47-1.77Z"/>
    <path class="cls-1" d="M152.42,169.93c.42-1.87,4.29-.62,2.54.74-1.27,1-1.48-.84-2.54-.74Z"/>
    <path class="cls-1" d="M122.34,233.13c1.36,1.16-.37,2.89-1.53,1.53-.81-.95.59-2.34,1.53-1.53Z"/>
    <path class="cls-1" d="M241.89,162.31c.11.06.58.9.44,1.15l-.88,1.04-.57.14c-.75-.53-.74-1.49-.41-2.24.18-.25,1.18-.22,1.42-.09Z"/>
    <path class="cls-1" d="M113.72,239.83v1.33c-.53-.13-2.08,1.66-2.34.65-.12-.45,1.44-3.08,2.34-1.98Z"/>
    <path class="cls-1" d="M183.62,257.77c.26-.06.7-.01.85.23l.11,1.21c-.61-.26-.83-.84-.96-1.44-.53.12-.71.85-1.75.01-1.27-1.02,1.2-2.89,1.7-1.28.14.43-.02.91.05,1.26Z"/>
    <path class="cls-1" d="M176.36,247.5c1.34-.27,2.07.86,1.02,1.76-1.59.72-2.89-1.38-1.02-1.76Z"/>
    <path class="cls-1" d="M217.35,309.02c.19-.17.07-.57.66-.34.93.36.89,2.09,0,2.33l-.79-.08c-.86-.82-.61-1.25.14-1.92Z"/>
    <path class="cls-1" d="M206.14,218.62l-1.77.05c-.79-2.55,2.93-2.62,1.77-.05Z"/>
    <path class="cls-1" d="M176.42,244.1c.01,1.05-.33,3.02-1.82,1.94-1.57-1.14.65-2.01,1.82-1.94Z"/>
    <path class="cls-1" d="M254.22,295l.38-.06c-.31-.75-.06-1.05.54-1.53,1.4.01,1.03,1.64.5,2.42-.61.32-1.1-.01-1.45-.5l.04-.33Z"/>
    <path class="cls-1" d="M215.46,238.13c1.59-.54,2.37,2.03.44,1.91-1.26-.08-1.27-1.63-.44-1.91Z"/>
    <path class="cls-1" d="M139.58,155.86c1.37,0,1.36,2.72-.68,2.04-.89-.3-.28-2.05.68-2.04Z"/>
    <path class="cls-1" d="M259.43,160.12v1.62c-.5.23-1.08.45-1.55.06-.39-.32-.48-1.04-.22-1.47.52-.58,1.12-.39,1.78-.21Z"/>
    <path class="cls-1" d="M148.82,246.01c-.2-.28,1.75-1.21,2.42-.38.56.69.02,1.67-.85,1.59-.77-.07-.76-1.19-1.57-1.22Z"/>
    <path class="cls-1" d="M233.57,198.22c-.94-1.5,2.24-2.53,2.07-.61-.1,1.15-1.82,1.01-2.07.61Z"/>
    <path class="cls-1" d="M253.25,313.18c-.49-.79.11-2.11,1.4-1.52,1.95.89-.7,2.64-1.4,1.52Z"/>
    <path class="cls-1" d="M252.44,317.47c-.51.39-1.07.26-1.51-.18l.13-1.92c1.23-.26,1.97,1.1,1.38,2.1Z"/>
    <path class="cls-1" d="M148.98,163.51c1.35-.12,1.41,2.01.19,2.11-1.31.12-1.53-2-.19-2.11Z"/>
    <path class="cls-1" d="M183.2,261.79c-.46-.57-.64-2.8.75-2.31,1.02.35.3,3.6-.75,2.31Z"/>
    <path class="cls-1" d="M142.72,159.47c-.14-.15-.46-.03-.38-.21.57-.53,1.02-1.42,1.92-.97l.45.54c0,1.5-1.01,1.7-1.99.64Z"/>
    <path class="cls-1" d="M251.06,183.13c2.06-.49,1.85,3.26.23,2.29-.72-.44-.16-1.62-.23-2.29Z"/>
    <path class="cls-1" d="M256.61,178.37c1.28-.8,2.42,1.14,1.16,1.77-1.39.7-1.78-1.38-1.16-1.77Z"/>
    <path class="cls-1" d="M203.23,178.13c1.54-.43,1.94,2.42,0,1.84-.89-.26-.86-1.6,0-1.84Z"/>
    <path class="cls-1" d="M107.23,244.86c2.06-.62,1.43,2.57-.17,1.76-.73-.37-.62-1.53.17-1.76Z"/>
    <path class="cls-1" d="M214.49,234.59c.25.19,1.23.95,1.26,1.02.27.82-.45,1.37-1.17.93-.98-.6-1.42-2.99-.08-1.95Z"/>
    <path class="cls-1" d="M154.28,245.71c-.56.57-1.5.27-1.62-.55-.32-2.1,2.97-.8,1.62.55Z"/>
    <path class="cls-1" d="M247.28,281.6c1.03-1.03,2.84,1.35,1.01,1.62-1.07.16-1.63-1-1.01-1.62Z"/>
    <path class="cls-1" d="M133.63,161.33c1.52-.43,1.92,1.95-.3,2.12-.12-.69-.81-1.81.3-2.12Z"/>
    <path class="cls-1" d="M143.95,215.09c1.32-.37,1.75,1.54.62,1.85-1.32.37-1.75-1.54-.62-1.85Z"/>
    <path class="cls-1" d="M238.78,163.25c.44.28.35,1.95-.76,1.82-1.77-.21-.7-2.75.76-1.82Z"/>
    <path class="cls-1" d="M231.29,322.39l1.78.05c1.32,2.01-3.58,1.6-1.78-.05Z"/>
    <path class="cls-1" d="M127.64,229.4c-1.09,1.08-2.25-1.16-1.38-1.75.52-.35,2.34.8,1.38,1.75Z"/>
    <path class="cls-1" d="M211.88,300.79c1.03,1.04-.8,1.99-1.86,1.62l.48-1.56c.37-.32,1.02-.43,1.39-.05Z"/>
    <path class="cls-1" d="M204.43,291.89c1.71-.42,1.63,2.56-.11,1.71-.87-.42-.64-1.53.11-1.71Z"/>
    <path class="cls-1" d="M191.72,272.83c-.86.84-2.19-.31-1.4-1.28.89-1.1,2.22.48,1.4,1.28Z"/>
    <path class="cls-1" d="M227.95,319.97c1.31-.37,1.56,1.55.63,1.86-1.17.39-1.79-1.53-.63-1.86Z"/>
    <path class="cls-1" d="M210.2,229.76c.54.54.14,1.66-.74,1.56-1.82-.22-.47-2.75.74-1.56Z"/>
    <path class="cls-1" d="M150.5,201.14l-1.32-.48c-1.02-1.72,2.47-2.43,1.32.48Z"/>
    <path class="cls-1" d="M97.4,255.67c.77.77-.35,2.14-1.28,1.4-1-.79.41-2.27,1.28-1.4Z"/>
    <path class="cls-1" d="M200.11,179.33c.9-.26,1.74.73.92,1.42-1.46,1.23-2.12-1.08-.92-1.42Z"/>
    <path class="cls-1" d="M220.64,245.47c-.92-.95.53-2.3,1.4-1.27.55.65-.61,2.09-1.4,1.27Z"/>
    <path class="cls-1" d="M209.24,217.16c-.83.84-2.16-.49-1.32-1.32.91-.89,2.21.41,1.32,1.32Z"/>
    <path class="cls-1" d="M156.64,243.4c.26-.09.59-.06.83.09.64.44-.26,1.81-.62,2.29-.69.18-.82-2.17-.21-2.38Z"/>
    <path class="cls-1" d="M231.31,165.66c2.03-.61,1.39,2.29-.17,1.52-.72-.36-.58-1.3.17-1.52Z"/>
    <polygon class="cls-1" points="263.3 174.74 261.72 174.51 261.86 172.82 263.19 173.29 263.3 174.74"/>
    <path class="cls-1" d="M220.34,170.41c-.22-.19,1.32-1.66,1.56-1.69.26-.03.57,0,.73.24.62,1.49-1.25,1.29-2.29,1.45Z"/>
    <path class="cls-1" d="M233.7,261.17c1.97-.66,1.47,2.31-.16,1.53-.69-.33-.44-1.33.16-1.53Z"/>
    <path class="cls-1" d="M257,296.71c.84.84-.48,2.16-1.32,1.32s.48-2.16,1.32-1.32Z"/>
    <path class="cls-1" d="M112.5,261.17c2.08-.62.53,3.01-.79,1.15.19-.42.29-1,.79-1.15Z"/>
    <path class="cls-1" d="M241.44,195.84c-.78.12-1.21.1-.94-.78.06-.2.68-.06.34-1.12.5-.71.88-.53,1.32.15l-.72,1.75Z"/>
    <path class="cls-1" d="M137.74,172.78l-1.4.04.03-1.41c1.27-.52,2.02.12,1.38,1.38Z"/>
    <path class="cls-1" d="M149.1,211.42c-.59-1.88,1.72-1.78,1.59-.36-.11,1.15-.88.73-1.59.36Z"/>
    <path class="cls-1" d="M227.93,166.61c1.89-.62,1.5,2.13.15,1.48-.67-.33-.83-1.25-.15-1.48Z"/>
    <path class="cls-1" d="M253.49,158.21c1.25-.79,1.98,1.38,1.04,1.65-.8.23-1.69-1.24-1.04-1.65Z"/>
    <path class="cls-1" d="M219.91,208.4c1.13-1.06,1.92.73,1.16,1.28-.83.59-1.8-.68-1.16-1.28Z"/>
    <path class="cls-1" d="M142.91,188.28c-.09.05-.11.27-.17.3-.91.38-1.03,0-.87-.86l.91-.06c.13-1.56,1.34-.82.98.14-.11.3-.57.32-.85.48Z"/>
    <path class="cls-1" d="M119.02,234.53c.8.5-.43,1.95-1.39,1.39-.6-.94.63-1.86,1.39-1.39Z"/>
    <path class="cls-1" d="M197.84,283.52c.78-.78,1.8.41,1.27,1.15s-2.16-.26-1.27-1.15Z"/>
    <path class="cls-1" d="M264.45,165.91c.08.05.38.72.53.9-3.06,1.63-2.11-1.84-.53-.9Z"/>
    <path class="cls-1" d="M228.5,253.93c-3.22.2-.65-2.8-.05-1.03.11.32.05.69.05,1.03Z"/>
    <path class="cls-1" d="M163.28,176.96c.78-.78,1.8.41,1.27,1.15s-2.16-.26-1.27-1.15Z"/>
    <path class="cls-1" d="M99.59,251.56c.42.68-.32,1.93-1.19,1.31-1.13-.82.66-2.15,1.19-1.31Z"/>
    <path class="cls-1" d="M132.29,159.82c-.55-.89.69-2.03,1.3-1.18.66.93-.87,1.88-1.3,1.18Z"/>
    <path class="cls-1" d="M176.83,251.09c.5-.14.86.05,1.16.44.14,1.22-1.25,1.13-1.81.36-.07-.29.4-.73.65-.8Z"/>
    <path class="cls-1" d="M139.91,177.65c.55.89-.69,2.03-1.3,1.18-.66-.93.87-1.88,1.3-1.18Z"/>
    <path class="cls-1" d="M133.19,224.14c-.44.7-1.96-.25-1.3-1.18.61-.85,1.86.29,1.3,1.18Z"/>
    <path class="cls-1" d="M138.98,174.49l-.22,1.34c-1,.43-1.64-.43-1.19-1.31l1.42-.02Z"/>
    <path class="cls-1" d="M185.77,189.37c-1.68.12-1.62-2.4.14-1.45l-.14,1.45Z"/>
    <path class="cls-1" d="M224.63,319.42c-.44.7-1.96-.25-1.3-1.18.61-.85,1.86.29,1.3,1.18Z"/>
    <path class="cls-1" d="M122.09,258.03c.89-.28,1.82.82.81,1.3-1.31.62-1.58-1.06-.81-1.3Z"/>
    <path class="cls-1" d="M257.21,299.79c.68-.1,1.23,1.38.42,1.64-1.4.46-1.26-1.52-.42-1.64Z"/>
    <path class="cls-1" d="M178.49,189.87c.89-.28,1.82.82.81,1.3-1.31.62-1.58-1.06-.81-1.3Z"/>
    <path class="cls-1" d="M237.52,195.64c1.4-.46,1.26,1.52.42,1.64-.68.1-1.23-1.38-.42-1.64Z"/>
    <path class="cls-1" d="M218.35,312.53c1.43-.41,1.42,1.77,0,1.36-.8-.23-.8-1.14,0-1.36Z"/>
    <path class="cls-1" d="M102.91,264.29c1.43-.41,1.42,1.77,0,1.36-.8-.23-.8-1.14,0-1.36Z"/>
    <path class="cls-1" d="M224.9,167.53c.06.07.76.06.92.64.35,1.22-1.16,1.35-1.39.65l.46-1.29-.48-.12.48-.36c.04.14-.04.43,0,.48Z"/>
    <path class="cls-1" d="M115.6,260.2c1.4-.46,1.26,1.52.42,1.64-.68.1-1.23-1.38-.42-1.64Z"/>
    <polygon class="cls-1" points="173.78 187.7 175.11 187.92 175.11 188.91 174 189.03 173.78 187.7"/>
    <path class="cls-1" d="M131.78,256.1c-.19-1.06.11-1.36,1.07-1.68.93.88.03,1.89-1.07,1.68Z"/>
    <polygon class="cls-1" points="169.94 183.61 168.6 183.39 168.6 182.4 169.72 182.28 169.94 183.61"/>
    <polygon class="cls-1" points="152.66 207.13 151.32 206.91 151.32 205.92 152.44 205.8 152.66 207.13"/>
    <path class="cls-1" d="M240.16,269.8c1.04-.33,1.42.9.83,1.31-1.04.73-1.75-1.02-.83-1.31Z"/>
    <path class="cls-1" d="M118.96,259.24c1.04-.33,1.42.9.83,1.31-1.04.73-1.75-1.02-.83-1.31Z"/>
    <path class="cls-1" d="M253.84,290.2c1.04-.33,1.42.9.83,1.31-1.04.73-1.75-1.02-.83-1.31Z"/>
    <path class="cls-1" d="M147.52,160.6c1.04-.33,1.42.9.83,1.31-1.04.73-1.75-1.02-.83-1.31Z"/>
    <path class="cls-1" d="M196.72,180.28c1.04-.33,1.42.9.83,1.31-1.04.73-1.75-1.02-.83-1.31Z"/>
    <path class="cls-1" d="M181.84,188.92c1.04-.33,1.42.9.83,1.31-1.04.73-1.75-1.02-.83-1.31Z"/>
    <path class="cls-1" d="M228.88,202.12c1.04-.33,1.42.9.83,1.31-1.04.73-1.75-1.02-.83-1.31Z"/>
    <path class="cls-1" d="M150.4,202.6c1.04-.33,1.42.9.83,1.31-1.04.73-1.75-1.02-.83-1.31Z"/>
    <path class="cls-1" d="M106,263.32c1.04-.33,1.42.9.83,1.31-1.04.73-1.75-1.02-.83-1.31Z"/>
    <path class="cls-1" d="M260.08,177.64c1.04-.33,1.42.9.83,1.31-1.04.73-1.75-1.02-.83-1.31Z"/>
    <path class="cls-1" d="M158.32,171.4c1.04-.33,1.42.9.83,1.31-1.04.73-1.75-1.02-.83-1.31Z"/>
    <path class="cls-1" d="M246.4,278.44c1.04-.33,1.42.9.83,1.31-1.04.73-1.75-1.02-.83-1.31Z"/>
    <path class="cls-1" d="M140.8,216.28c1.04-.33,1.42.9.83,1.31-1.04.73-1.75-1.02-.83-1.31Z"/>
    <path class="cls-1" d="M153.04,166.12c1.04-.33,1.42.9.83,1.31-1.04.73-1.75-1.02-.83-1.31Z"/>
    <path class="cls-1" d="M205.6,295.24c1.04-.33,1.42.9.83,1.31-1.04.73-1.75-1.02-.83-1.31Z"/>
    <path class="cls-1" d="M152.18,203.54c1.05-.33,1.66,1.42.84,1.68-.98.3-.9-1.14-.84-1.68Z"/>
    <path class="cls-1" d="M232.81,201.14c.14.15,0,1.08-.36,1.19l-.87-.69-.44.21c-.22-.87,1.43-.99,1.67-.71Z"/>
    <path class="cls-1" d="M163.12,241.24c1.35-.42,1.24,1.27.42,1.4-.59.09-1.23-1.15-.42-1.4Z"/>
    <path class="cls-1" d="M94.5,259.97c1-.27,1.02,1.24.43,1.4-.84.24-1.55-1.1-.43-1.4Z"/>
    <path class="cls-1" d="M242.78,322.34c.84-.24,1.55,1.1.43,1.4-1,.27-1.02-1.24-.43-1.4Z"/>
    <path class="cls-1" d="M226.5,249.41c1-.27,1.02,1.24.43,1.4-.84.24-1.55-1.1-.43-1.4Z"/>
    <polygon class="cls-1" points="264.52 170.39 264.26 169.22 265.21 169.08 265.7 170.05 264.52 170.39"/>
    <path class="cls-1" d="M126.26,258.49c-1.87.04-1.31-2.41.13-.95l-.13.95Z"/>
    <path class="cls-1" d="M209.3,226.82c.04,1.87-2.41,1.31-.95-.13l.95.13Z"/>
    <path class="cls-1" d="M262.12,162.76c.3-.42,1.51-.13,1.4.55-.18,1.17-2.11.43-1.4-.55Z"/>
    <path class="cls-1" d="M128.81,256.11c1.03-.17.92,1.74-.27,1.42-.66-.18-.28-1.33.27-1.42Z"/>
    <path class="cls-1" d="M238.82,268.09l-.24-.24c.07-.09-.04-.82.48-1.1.95-.5,1.44,1.56-.24,1.34Z"/>
    <path class="cls-1" d="M238.58,267.85l.24.24.24,1.2c-.55.11-1.3-.55-1.19-1.06.07-.32.68-.34.71-.38Z"/>
    <path class="cls-1" d="M246.94,189.41c.45.28.13,1.51-.54,1.39-1.01-.17-.52-2.06.54-1.39Z"/>
    <path class="cls-1" d="M211.58,214.82c.97-.26,1.45,1.25.44,1.42-.64.11-1.17-1.23-.44-1.42Z"/>
    <path class="cls-1" d="M156.16,169.72c.89-.27,1.45.63.82,1.07-.94.66-1.75-.78-.82-1.07Z"/>
    <path class="cls-1" d="M217.97,170.86c-.67-1.06,1.22-1.54,1.39-.54.11.67-1.11.98-1.39.54Z"/>
    <path class="cls-1" d="M246.94,321.41c.45.28.13,1.51-.54,1.39-1.01-.17-.52-2.06.54-1.39Z"/>
    <path class="cls-1" d="M199.37,286.59c.64-.11,1.17,1.23.44,1.42-.97.26-1.45-1.25-.44-1.42Z"/>
    <path class="cls-1" d="M193.85,181.47c.64-.11,1.17,1.23.44,1.42-.97.26-1.45-1.25-.44-1.42Z"/>
    <polygon class="cls-1" points="255.62 183.14 255.02 184.57 254.42 183.5 255.62 183.14"/>
    <polygon class="cls-1" points="255.62 315.14 255.37 316.81 254.66 316.82 254.66 315.13 255.62 315.14"/>
    <path class="cls-1" d="M123.14,230.41c-.4-.52.9-1.91,1.42-.57l-.62.76-.8-.19Z"/>
    <path class="cls-1" d="M139.7,180.98c.52-.4,1.91.9.57,1.42l-.76-.62.19-.8Z"/>
    <path class="cls-1" d="M193.13,277.96c.67-.12,1.15,1.28.44,1.42-.86.17-1.52-1.23-.44-1.42Z"/>
    <path class="cls-1" d="M192.74,275.06c.4.52-.9,1.91-1.42.57l.62-.76.8.19Z"/>
    <path class="cls-1" d="M184.49,262.83c.74-.13,1.09,1.25.18,1.4-.74.13-1.09-1.25-.18-1.4Z"/>
    <path class="cls-1" d="M232.97,258.03c.74-.13,1.09,1.25.18,1.4-.74.13-1.09-1.25-.18-1.4Z"/>
    <path class="cls-1" d="M104.33,246.03c.74-.13,1.09,1.25.18,1.4-.74.13-1.09-1.25-.18-1.4Z"/>
    <path class="cls-1" d="M212.09,303.87c.74-.13,1.09,1.25.18,1.4-.74.13-1.09-1.25-.18-1.4Z"/>
    <path class="cls-1" d="M141.29,184.11c.74-.13,1.09,1.25.18,1.4-.74.13-1.09-1.25-.18-1.4Z"/>
    <path class="cls-1" d="M167.06,240.49v1.2c-1.42,0-1.71-1.38,0-1.2Z"/>
    <path class="cls-1" d="M110.18,240.98l-.04.92c-1.59.8-1.61-1.23.04-.92Z"/>
    <polygon class="cls-1" points="143.02 155.57 143.28 156.35 142.46 156.73 142.1 155.54 143.02 155.57"/>
    <polygon class="cls-1" points="219.89 241.89 219.86 240.98 221.06 241.34 220.68 242.16 219.89 241.89"/>
    <path class="cls-1" d="M258.02,304.34v-1.2c1.42,0,1.71,1.38,0,1.2Z"/>
    <path class="cls-1" d="M142.58,190.34c2.01.11.97,2.39.18.9-.15-.28-.22-.58-.18-.9Z"/>
    <path class="cls-1" d="M223.22,208.57l.04-.92c1.59-.8,1.61,1.23-.04.92Z"/>
    <path class="cls-1" d="M261.14,159.62c.64-.61,1.87.88.59,1.2-.59.15-.74-1.06-.59-1.2Z"/>
    <path class="cls-1" d="M129.02,223.94c1.03-.29.95,1.04.23,1.2-.63.14-.84-1.03-.23-1.2Z"/>
    <path class="cls-1" d="M135.82,254.21c.55,1.09.1,1.26-.88.89l-.03-.92.92.04Z"/>
    <path class="cls-1" d="M99.38,266.65c-.08-.06-.33-.84.12-.95,1.79-.46.83,1.68-.12.95Z"/>
    <path class="cls-1" d="M252.74,288.25v-.96c1.59-.17,1.61,1.13,0,.96Z"/>
    <path class="cls-1" d="M214.34,214.33l1.2-.24v.96c-1.15.34-1.08-.62-1.2-.72-.04-.04-.33.02-.48,0l.36-.48.12.48Z"/>
    <path class="cls-1" d="M257.78,311.77h-.96c-.17-1.59,1.13-1.61.96,0Z"/>
    <path class="cls-1" d="M138.26,218.65h-.96c-.17-1.59,1.13-1.61.96,0Z"/>
    <path class="cls-1" d="M146.9,212.17h-.96c-.17-1.59,1.13-1.61.96,0Z"/>
    <path class="cls-1" d="M215.06,172.09v-.96c1.59-.17,1.61,1.13,0,.96Z"/>
    <polygon class="cls-1" points="167.54 180.02 167.42 180.98 166.58 181.21 166.69 180.25 167.54 180.02"/>
    <path class="cls-1" d="M178.82,254.42c.43.43-.58,1.91-.93.81-.32-1.02.71-1.03.93-.81Z"/>
    <path class="cls-1" d="M246.26,275.3v.96c-1.59.17-1.61-1.13,0-.96Z"/>
    <path class="cls-1" d="M206.42,299.77v-.96c1.59-.17,1.61,1.13,0,.96Z"/>
    <path class="cls-1" d="M191.06,182.66c.43.43-.58,1.91-.93.81-.32-1.02.71-1.03.93-.81Z"/>
    <path class="cls-1" d="M207.5,223.7c.65-.15.82,1.06.23,1.2-.62.14-1.09-1.01-.23-1.2Z"/>
    <path class="cls-1" d="M250.1,320.42c.39.38-.37,1.68-.94.93s.56-1.31.94-.93Z"/>
    <rect class="cls-1" x="114.74" y="235.7" width=".96" height=".96"/>
    <rect class="cls-1" x="213.38" y="232.34" width=".96" height=".96"/>
    <rect class="cls-1" x="211.7" y="172.1" width=".96" height=".96"/>
    <rect class="cls-1" x="95.06" y="263.54" width=".96" height=".96"/>
    <rect class="cls-1" x="239.54" y="323.78" width=".96" height=".96"/>
    <polygon class="cls-1" points="101.9 248.18 102.62 248.18 102.97 248.53 102.17 249.11 101.54 248.53 101.9 248.18"/>
    <rect class="cls-1" x="138.02" y="252.98" width=".96" height=".96"/>
    <rect class="cls-1" x="134.66" y="154.34" width=".96" height=".96"/>
    <rect class="cls-1" x="257.06" y="157.46" width=".96" height=".96"/>
    <rect class="cls-1" x="231.38" y="254.9" width=".96" height=".96"/>
    <rect class="cls-1" x="212.9" y="307.46" width=".96" height=".96"/>
    <rect class="cls-1" x="185.3" y="266.42" width=".96" height=".96"/>
    <rect class="cls-1" x="205.94" y="220.34" width=".96" height=".96"/>
    <path class="cls-1" d="M209.54,173.06c.4.39-.61,1.52-.96.6-.31-.83.85-.7.96-.6Z"/>
    <path class="cls-1" d="M186.62,264.74c.54.39.52,1.07,0,1.43-.54-.39-.52-1.07,0-1.43Z"/>
    <path class="cls-1" d="M265.46,173.77c-.21-1,.6-1.8.96-.6l-.96.6Z"/>
    <path class="cls-1" d="M163.46,173.78c.17.17-.09,1.07-.6.96-.89-.2.13-1.42.6-.96Z"/>
    <path class="cls-1" d="M186.98,183.62c.46-.46,1.48.76.6.96-.51.11-.77-.78-.6-.96Z"/>
    <path class="cls-1" d="M171.38,242.66c.17.17-.09,1.07-.6.96-.89-.2.13-1.42.6-.96Z"/>
    <path class="cls-1" d="M220.1,316.1c.17.17-.09,1.07-.6.96-.89-.2.13-1.42.6-.96Z"/>
    <path class="cls-1" d="M144.5,252.01c-.46-.46.76-1.48.96-.6.11.51-.78.77-.96.6Z"/>
    <path class="cls-1" d="M193.7,282.49c-.17-.17.09-1.07.6-.96.89.2-.13,1.42-.6.96Z"/>
    <path class="cls-1" d="M168.14,179.3c.59-.13.8.83.23.96s-.8-.83-.23-.96Z"/>
    <path class="cls-1" d="M141.74,252.02c.59-.13.8.83.23.96s-.8-.83-.23-.96Z"/>
    <path class="cls-1" d="M205.58,174.26c.59-.13.8.83.23.96s-.8-.83-.23-.96Z"/>
    <path class="cls-1" d="M218.3,212.9c.59-.13.8.83.23.96s-.8-.83-.23-.96Z"/>
    <path class="cls-1" d="M173.42,184.58c.59-.13.8.83.23.96s-.8-.83-.23-.96Z"/>
    <path class="cls-1" d="M224.78,321.38c.59-.13.8.83.23.96s-.8-.83-.23-.96Z"/>
    <path class="cls-1" d="M258.14,295.46c.59-.13.8.83.23.96s-.8-.83-.23-.96Z"/>
    <path class="cls-1" d="M236.78,324.74c.59-.13.8.83.23.96s-.8-.83-.23-.96Z"/>
    <path class="cls-1" d="M200.54,290.18c.59-.13.8.83.23.96s-.8-.83-.23-.96Z"/>
    <path class="cls-1" d="M143.18,212.42c.59-.13.8.83.23.96s-.8-.83-.23-.96Z"/>
    <path class="cls-1" d="M249.74,156.26c.59-.13.8.83.23.96s-.8-.83-.23-.96Z"/>
    <path class="cls-1" d="M238.22,263.54c.59-.13.8.83.23.96s-.8-.83-.23-.96Z"/>
    <path class="cls-1" d="M179.18,257.78c.59-.13.8.83.23.96s-.8-.83-.23-.96Z"/>
    <path class="cls-1" d="M225.5,246.26c.59-.13.8.83.23.96s-.8-.83-.23-.96Z"/>
    <path class="cls-1" d="M246.62,157.46c.59-.13.8.83.23.96s-.8-.83-.23-.96Z"/>
    <path class="cls-1" d="M123.85,235.69c-.68-.23-.46-1.09-.48-1.68.68.23.46,1.09.48,1.68Z"/>
    <path class="cls-1" d="M93.5,257.06c.59-.13.8.83.23.96s-.8-.83-.23-.96Z"/>
    <path class="cls-1" d="M148.22,249.86c.59-.13.8.83.23.96s-.8-.83-.23-.96Z"/>
    <path class="cls-1" d="M219.02,237.62c.59-.13.8.83.23.96s-.8-.83-.23-.96Z"/>
    <path class="cls-1" d="M243.26,158.42c.59-.13.8.83.23.96s-.8-.83-.23-.96Z"/>
    <path class="cls-1" d="M229.1,323.54c.59-.13.8.83.23.96s-.8-.83-.23-.96Z"/>
    <path class="cls-1" d="M106.46,242.18c.59-.13.8.83.23.96s-.8-.83-.23-.96Z"/>
    <path class="cls-1" d="M146.78,157.7c.59-.13.8.83.23.96s-.8-.83-.23-.96Z"/>
    <path class="cls-1" d="M157.34,168.5c.59-.13.8.83.23.96s-.8-.83-.23-.96Z"/>
    <path class="cls-1" d="M100.94,247.46c.59-.13.8.83.23.96s-.8-.83-.23-.96Z"/>
    <path class="cls-1" d="M235.58,200.18c.59-.13.8.83.23.96s-.8-.83-.23-.96Z"/>
    <path class="cls-1" d="M226.94,206.66c.59-.13.8.83.23.96s-.8-.83-.23-.96Z"/>
    <path class="cls-1" d="M251.9,283.94c.59-.13.8.83.23.96s-.8-.83-.23-.96Z"/>
    <path class="cls-1" d="M138.14,153.38c.59-.13.8.83.23.96s-.8-.83-.23-.96Z"/>
    <path class="cls-1" d="M152.06,162.98c.59-.13.8.83.23.96s-.8-.83-.23-.96Z"/>
    <path class="cls-1" d="M186.62,269.54c.59-.13.8.83.23.96s-.8-.83-.23-.96Z"/>
    <path class="cls-1" d="M131.66,155.3c.59-.13.8.83.23.96s-.8-.83-.23-.96Z"/>
    <path class="cls-1" d="M259.34,306.74c.59-.13.8.83.23.96s-.8-.83-.23-.96Z"/>
    <path class="cls-1" d="M263.66,176.9c.59-.13.8.83.23.96s-.8-.83-.23-.96Z"/>
    <path class="cls-1" d="M258.14,306.02c.59-.13.8.83.23.96s-.8-.83-.23-.96Z"/>
    <path class="cls-1" d="M130.7,162.98c.59-.13.8.83.23.96s-.8-.83-.23-.96Z"/>
    <path class="cls-1" d="M258.14,182.18c.59-.13.8.83.23.96s-.8-.83-.23-.96Z"/>
    <path class="cls-1" d="M95.66,252.74c.59-.13.8.83.23.96s-.8-.83-.23-.96Z"/>
    <path class="cls-1" d="M244.7,272.18c.59-.13.8.83.23.96s-.8-.83-.23-.96Z"/>
    <path class="cls-1" d="M144.38,194.18c.59-.13.8.83.23.96s-.8-.83-.23-.96Z"/>
    <polygon class="cls-1" points="224.66 249.13 223.93 249.02 223.7 248.18 224.65 248.78 224.66 249.13"/>
    <path class="cls-1" d="M249.5,188.42c.59-.13.8.83.23.96s-.8-.83-.23-.96Z"/>
    <path class="cls-1" d="M120.38,230.42c.59-.13.8.83.23.96s-.8-.83-.23-.96Z"/>
    <path class="cls-1" d="M131.66,166.1c.59-.13.8.83.23.96s-.8-.83-.23-.96Z"/>
    <path class="cls-1" d="M146.18,249.13h-.48c-.59-1.49.66-1.56.48,0Z"/>
    <path class="cls-1" d="M211.62,230.97c.09.09.35.62.32.64-.74.11-1.07-.22-.96-.96.02-.03.55.22.64.32Z"/>
    <path class="cls-1" d="M245.54,160.57h-.36c-1.08-1.15.44-1.45.36,0Z"/>
    <path class="cls-1" d="M251.54,286.57h-.36c-1.08-1.15.44-1.45.36,0Z"/>
    <path class="cls-1" d="M140.66,176.89l-1.2-.24v-.48c.55-.1,1,.21,1.2.72Z"/>
    <path class="cls-1" d="M262.34,164.18c-.23.7-.67.33-1.2.23.23-.7.67-.33,1.2-.23Z"/>
    <polygon class="cls-1" points="244.46 193.94 244.82 194.3 244.46 194.89 244.1 194.53 244.46 193.94"/>
    <rect class="cls-1" x="241.7" y="322.58" width=".48" height=".96"/>
    <path class="cls-1" d="M137.06,252.26c-.14.55-.75.5-1.2.48.14-.55.75-.5,1.2-.48Z"/>
    <path class="cls-1" d="M139.7,218.65v-.36s.72-.6.72-.6c.09.58-.11,1.02-.72.96Z"/>
    <path class="cls-1" d="M120.25,259.21c-.55-.14-.5-.75-.48-1.2.55.14.5.75.48,1.2Z"/>
    <path class="cls-1" d="M96.26,258.02v.48c-.44.06-.7,0-.96-.36l.96-.12Z"/>
    <path class="cls-1" d="M200.9,177.61c-.25.25-.96-.48-.72-.72s.96.48.72.72Z"/>
    <path class="cls-1" d="M146.42,159.38c.24.24-.47.96-.72.72s.47-.96.72-.72Z"/>
    <path class="cls-1" d="M237.14,261.13c-.36-.36.71-1.02.71-.36,0,.16-.58.5-.71.36Z"/>
    <polygon class="cls-1" points="123.14 230.66 122.77 231.13 122.18 230.77 123.14 230.66"/>
    <rect class="cls-1" x="132.5" y="169.46" width=".48" height=".72"/>
    <rect class="cls-1" x="129.14" y="159.86" width=".72" height=".48"/>
    <polygon class="cls-1" points="258.01 299.77 257.54 299.41 257.9 298.82 258.01 299.77"/>
    <path class="cls-1" d="M177.86,190.82l-.24.72h-.48c-.08-.45.28-.8.72-.72Z"/>
    <path class="cls-1" d="M146.9,201.37c-.36.36-1.02-.71-.36-.71.16,0,.5.58.36.71Z"/>
    <rect class="cls-1" x="133.7" y="172.82" width=".48" height=".72"/>
    <rect class="cls-1" x="217.7" y="234.74" width=".72" height=".48"/>
    <rect class="cls-1" x="236.9" y="160.82" width=".72" height=".48"/>
    <rect class="cls-1" x="220.58" y="319.46" width=".72" height=".48"/>
    <path class="cls-1" d="M153.38,208.57c-.08-.43.32-.79.72-.96.08.43-.32.79-.72.96Z"/>
    <path class="cls-1" d="M170.42,184.57c-.45.06-.83,0-.96-.48.45-.06.83,0,.96.48Z"/>
    <path class="cls-1" d="M206.65,293.53c-.48-.13-.54-.51-.48-.96.48.13.54.51.48.96Z"/>
    <rect class="cls-1" x="214.1" y="310.58" width=".48" height=".72"/>
    <polygon class="cls-1" points="231.14 252.49 230.66 252.49 230.66 252.14 231.02 251.78 231.14 252.49"/>
    <polygon class="cls-1" points="256.1 180.5 255.85 181.21 255.38 181.21 255.62 180.5 256.1 180.5"/>
    <polygon class="cls-1" points="112.82 237.86 112.7 238.57 112.34 238.21 112.34 237.86 112.82 237.86"/>
    <polygon class="cls-1" points="191.06 184.1 190.69 184.57 190.34 184.57 190.34 184.1 191.06 184.1"/>
    <polygon class="cls-1" points="208.34 302.18 208.34 302.65 207.62 302.65 207.98 302.18 208.34 302.18"/>
    <polygon class="cls-1" points="258.74 293.29 258.26 293.29 258.26 292.57 258.73 292.94 258.74 293.29"/>
    <path class="cls-1" d="M208.1,296.42c-.12.46-.53.54-.96.48-.25-.12.65-.57.96-.48Z"/>
    <rect class="cls-1" x="233.3" y="325.94" width=".48" height=".48"/>
    <rect class="cls-1" x="243.38" y="269.3" width=".48" height=".48"/>
    <rect class="cls-1" x="247.22" y="324.98" width=".48" height=".48"/>
    <rect class="cls-1" x="150.98" y="160.1" width=".48" height=".48"/>
    <rect class="cls-1" x="233.54" y="161.78" width=".48" height=".48"/>
    <rect class="cls-1" x="161.06" y="246.02" width=".48" height=".48"/>
    <rect class="cls-1" x="171.62" y="246.02" width=".48" height=".48"/>
    <rect class="cls-1" x="141.38" y="152.42" width=".48" height=".48"/>
    <rect class="cls-1" x="265.7" y="162.02" width=".48" height=".48"/>
    <path class="cls-1" d="M235.22,323.3c.12.09-.42.64-.72.48-.12-.09.42-.64.72-.48Z"/>
    <rect class="cls-1" x="230.42" y="162.74" width=".48" height=".48"/>
    <rect class="cls-1" x="167.54" y="243.86" width=".48" height=".48"/>
    <rect class="cls-1" x="224.42" y="243.38" width=".48" height=".48"/>
    <rect class="cls-1" x="102.98" y="243.38" width=".48" height=".48"/>
    <rect class="cls-1" x="157.7" y="246.98" width=".48" height=".48"/>
    <path class="cls-1" d="M238.82,322.81c-.3.16-.84-.38-.72-.48.3-.16.84.38.72.48Z"/>
    <rect class="cls-1" x="227.06" y="163.94" width=".48" height=".48"/>
    <rect class="cls-1" x="223.94" y="164.9" width=".48" height=".48"/>
    <rect class="cls-1" x="252.74" y="319.7" width=".48" height=".48"/>
    <rect class="cls-1" x="156.26" y="165.38" width=".48" height=".48"/>
    <rect class="cls-1" x="266.9" y="165.38" width=".48" height=".48"/>
    <rect class="cls-1" x="154.58" y="248.18" width=".48" height=".48"/>
    <rect class="cls-1" x="220.58" y="165.86" width=".48" height=".48"/>
    <rect class="cls-1" x="217.46" y="167.06" width=".48" height=".48"/>
    <rect class="cls-1" x="258.02" y="314.42" width=".48" height=".48"/>
    <rect class="cls-1" x="97.7" y="248.66" width=".48" height=".48"/>
    <path class="cls-1" d="M138.97,249.37c-.09.12-.64-.42-.48-.72.09-.12.64.42.48.72Z"/>
    <rect class="cls-1" x="215.06" y="313.94" width=".48" height=".48"/>
    <rect class="cls-1" x="108.5" y="238.1" width=".48" height=".48"/>
    <rect class="cls-1" x="151.22" y="249.14" width=".48" height=".48"/>
    <rect class="cls-1" x="172.82" y="249.38" width=".48" height=".48"/>
    <rect class="cls-1" x="260.42" y="156.74" width=".48" height=".48"/>
    <rect class="cls-1" x="267.86" y="168.5" width=".48" height=".48"/>
    <rect class="cls-1" x="111.62" y="236.9" width=".48" height=".48"/>
    <rect class="cls-1" x="260.18" y="310.1" width=".48" height=".48"/>
    <rect class="cls-1" x="161.54" y="170.9" width=".48" height=".48"/>
    <rect class="cls-1" x="208.82" y="305.3" width=".48" height=".48"/>
    <rect class="cls-1" x="240.02" y="159.62" width=".48" height=".48"/>
    <rect class="cls-1" x="260.42" y="299.3" width=".48" height=".48"/>
    <rect class="cls-1" x="202.34" y="175.46" width=".48" height=".48"/>
    <rect class="cls-1" x="134.66" y="175.94" width=".48" height=".48"/>
    <rect class="cls-1" x="173.78" y="252.5" width=".48" height=".48"/>
    <rect class="cls-1" x="145.7" y="154.58" width=".48" height=".48"/>
    <rect class="cls-1" x="202.34" y="296.66" width=".48" height=".48"/>
    <rect class="cls-1" x="166.82" y="176.18" width=".48" height=".48"/>
    <rect class="cls-1" x="117.14" y="231.62" width=".48" height=".48"/>
    <rect class="cls-1" x="259.22" y="296.18" width=".48" height=".48"/>
    <rect class="cls-1" x="198.98" y="176.42" width=".48" height=".48"/>
    <rect class="cls-1" x="212.66" y="229.22" width=".48" height=".48"/>
    <rect class="cls-1" x="201.38" y="293.54" width=".48" height=".48"/>
    <rect class="cls-1" x="92.18" y="253.94" width=".48" height=".48"/>
    <rect class="cls-1" x="252.98" y="155.54" width=".48" height=".48"/>
    <path class="cls-1" d="M204.26,177.85c-.3.16-.84-.38-.72-.48.3-.16.84.38.72.48Z"/>
    <rect class="cls-1" x="195.86" y="177.62" width=".48" height=".48"/>
    <rect class="cls-1" x="135.86" y="179.3" width=".48" height=".48"/>
    <rect class="cls-1" x="122.42" y="226.34" width=".48" height=".48"/>
    <rect class="cls-1" x="211.46" y="226.1" width=".48" height=".48"/>
    <rect class="cls-1" x="257.3" y="289.7" width=".48" height=".48"/>
    <rect class="cls-1" x="261.38" y="181.22" width=".48" height=".48"/>
    <rect class="cls-1" x="172.34" y="181.7" width=".48" height=".48"/>
    <rect class="cls-1" x="125.78" y="225.38" width=".48" height=".48"/>
    <rect class="cls-1" x="136.82" y="182.42" width=".48" height=".48"/>
    <rect class="cls-1" x="131.06" y="220.1" width=".48" height=".48"/>
    <rect class="cls-1" x="194.9" y="284.9" width=".48" height=".48"/>
    <rect class="cls-1" x="209.54" y="219.62" width=".48" height=".48"/>
    <rect class="cls-1" x="250.82" y="281.06" width=".48" height=".48"/>
    <rect class="cls-1" x="134.42" y="218.9" width=".48" height=".48"/>
    <rect class="cls-1" x="235.94" y="257.3" width=".48" height=".48"/>
    <rect class="cls-1" x="184.1" y="185.06" width=".48" height=".48"/>
    <rect class="cls-1" x="249.86" y="277.94" width=".48" height=".48"/>
    <rect class="cls-1" x="212.66" y="218.42" width=".48" height=".48"/>
    <rect class="cls-1" x="180.74" y="186.02" width=".48" height=".48"/>
    <path class="cls-1" d="M145.94,216.74c.12.09-.42.64-.72.48-.12-.09.42-.64.72-.48Z"/>
    <rect class="cls-1" x="188.66" y="276.26" width=".48" height=".48"/>
    <rect class="cls-1" x="177.62" y="186.98" width=".48" height=".48"/>
    <rect class="cls-1" x="187.7" y="273.14" width=".48" height=".48"/>
    <rect class="cls-1" x="252.74" y="187.7" width=".48" height=".48"/>
    <rect class="cls-1" x="139.7" y="213.62" width=".48" height=".48"/>
    <rect class="cls-1" x="241.46" y="268.82" width=".48" height=".48"/>
    <rect class="cls-1" x="103.94" y="268.1" width=".48" height=".48"/>
    <rect class="cls-1" x="221.3" y="212.18" width=".48" height=".48"/>
    <rect class="cls-1" x="247.22" y="192.98" width=".48" height=".48"/>
    <rect class="cls-1" x="107.06" y="267.14" width=".48" height=".48"/>
    <rect class="cls-1" x="96.5" y="266.9" width=".48" height=".48"/>
    <rect class="cls-1" x="148.34" y="207.14" width=".48" height=".48"/>
    <rect class="cls-1" x="110.42" y="265.94" width=".48" height=".48"/>
    <rect class="cls-1" x="113.54" y="264.98" width=".48" height=".48"/>
    <rect class="cls-1" x="229.94" y="205.7" width=".48" height=".48"/>
    <rect class="cls-1" x="126.5" y="260.66" width=".48" height=".48"/>
    <rect class="cls-1" x="92.18" y="264.74" width=".48" height=".48"/>
    <rect class="cls-1" x="181.22" y="264.5" width=".48" height=".48"/>
    <rect class="cls-1" x="145.22" y="197.54" width=".48" height=".48"/>
    <rect class="cls-1" x="180.26" y="261.14" width=".48" height=".48"/>
    <rect class="cls-1" x="238.58" y="199.46" width=".48" height=".48"/>
    <rect class="cls-1" x="90.98" y="261.62" width=".48" height=".48"/>
    <path class="cls-1" d="M119.78,262.09c-.3.16-.84-.38-.72-.48.3-.16.84.38.72.48Z"/>
    <rect class="cls-1" x="123.38" y="261.86" width=".48" height=".48"/>
    <rect class="cls-1" x="116.9" y="263.78" width=".48" height=".48"/>
    <rect class="cls-1" x="120.02" y="262.82" width=".48" height=".48"/>
    <rect class="cls-1" x="147.38" y="204.02" width=".48" height=".48"/>
    <polygon class="cls-1" points="204.5 295.94 204.02 296.41 204.02 295.94 204.5 295.94"/>
    <rect class="cls-1" x="184.34" y="190.1" width=".24" height=".72"/>
    <rect class="cls-1" x="234.26" y="258.98" width=".48" height=".24"/>
    <rect class="cls-1" x="145.94" y="213.62" width=".48" height=".24"/>
    <rect class="cls-1" x="132.5" y="166.58" width=".48" height=".24"/>
    <rect class="cls-1" x="135.38" y="169.94" width=".24" height=".48"/>
    <rect class="cls-1" x="214.1" y="309.86" width=".48" height=".24"/>
    <polygon class="cls-1" points="237.13 320.65 236.9 320.65 236.77 319.94 237.13 320.3 237.13 320.65"/>
    <rect class="cls-1" x="261.62" y="302.66" width=".24" height=".48"/>
    <polygon class="cls-1" points="142.33 183.85 142.1 183.85 142.1 183.5 142.46 183.14 142.33 183.85"/>
    <rect class="cls-1" x="214.34" y="231.62" width=".48" height=".24"/>
    <rect class="cls-1" x="149.3" y="203.78" width=".48" height=".24"/>
    <rect class="cls-1" x="224.18" y="245.3" width=".48" height=".24"/>
    <path class="cls-1" d="M265.1,176.89c.16.08.16.16,0,.24v-.24Z"/>
    <path class="cls-1" d="M105.02,262.81c.16.08.16.16,0,.24v-.24Z"/>
    <path class="cls-1" d="M215.18,175.93c.16.08.16.16,0,.24v-.24Z"/>
    <path class="cls-1" d="M197.66,282.97c.16.08.16.16,0,.24v-.24Z"/>
    <path class="cls-1" d="M251.66,282.73c.16.08.16.16,0,.24v-.24Z"/>
    <path class="cls-1" d="M140.3,251.29c.16.08.16.16,0,.24v-.24Z"/>
    <path class="cls-1" d="M194.54,183.13c.16.08.16.16,0,.24v-.24Z"/>
    <path class="cls-1" d="M176.78,183.85c.16.08.16.16,0,.24v-.24Z"/>
    <path class="cls-1" d="M159.74,170.65c.16.08.16.16,0,.24v-.24Z"/>
    <path class="cls-1" d="M139.82,153.61c.16.08.16.16,0,.24v-.24Z"/>
    <path class="cls-1" d="M251.42,186.97c.16.08.16.16,0,.24v-.24Z"/>
    <path class="cls-1" d="M251.18,319.21c.16.08.16.16,0,.24v-.24Z"/>
    <path class="cls-1" d="M140.78,247.69c.16.08.16.16,0,.24v-.24Z"/>
    <path class="cls-1" d="M106.22,247.45c.16.08.16.16,0,.24v-.24Z"/>
    <path class="cls-1" d="M261.74,176.41c.16.08.16.16,0,.24v-.24Z"/>
  </g>
</svg>