<?xml version="1.0" encoding="UTF-8"?>
<svg id="No_U" data-name="No U" xmlns="http://www.w3.org/2000/svg" viewBox="0 0 382.1 382.1">
  <defs>
    <style>
      .cls-1 {
        fill: #f353dd;
      }

      .cls-2 {
        fill: #7a9cff;
      }

      .cls-3 {
        fill: #2c2551;
      }

      .cls-4 {
        fill: #e1f060;
      }
    </style>
  </defs>
  <g>
    <path class="cls-3" d="M358.66,0c12.94.01,23.43,10.5,23.44,23.44v335.21c-.01,12.94-10.5,23.43-23.44,23.44H23.44c-12.94-.01-23.43-10.5-23.44-23.44V23.44C.01,10.5,10.5.01,23.44,0h335.21Z"/>
    <g>
      <path class="cls-2" d="M174.06,198.6l-42.87,13.39-43.17-13.39c-7.1-2.85-13.75,5.49-9.31,11.85l52.55,76.37,52.33-76.37c4.44-6.36-2.22-14.7-9.54-11.85Z"/>
      <path class="cls-2" d="M270.86,286.83h-39.91v-131.69c0-22-17.9-39.91-39.91-39.91s-39.91,17.9-39.91,39.91v56.86h-39.91v-56.86c0-44.08,35.73-79.81,79.81-79.81s79.81,35.73,79.81,79.81v131.69Z"/>
    </g>
    <path class="cls-1" d="M191.05,23.44C98.48,23.44,23.44,98.48,23.44,191.05s75.04,167.61,167.61,167.61,167.61-75.04,167.61-167.61S283.62,23.44,191.05,23.44ZM191.05,326.73c-74.94,0-135.68-60.75-135.68-135.68-.05-30.48,10.21-60.08,29.11-83.99l190.56,190.56c-23.91,18.9-53.51,29.16-83.99,29.11ZM297.62,275.04L107.06,84.48c23.91-18.9,53.51-29.16,83.99-29.11,74.94,0,135.68,60.75,135.68,135.68.05,30.48-10.21,60.08-29.11,83.99h0Z"/>
  </g>
  <g>
    <path class="cls-4" d="M335.36,90.23c-.28.12-.28-.36,0-.24.01,0,.01.24,0,.24Z"/>
    <path class="cls-4" d="M223.04,64.55c-.54-1.18.66-2.82-1.09-3.09l-.83.69.5-2.52c-1.2-1.27-1.91-2.21-.99-3.96l-.84-.24c.2.88-.23.84-.84,1.32,1.44.49,1.48,2.6-.15,2.76-1.25.12-1.8-1.25-1.17-2.15.3-.43.78-.33.83-.73-.86.36-1.57-.62-2.07-.68-.72-.08-1.96,1.88-2.93.52-.64-2.32,2-1.6,2.8-2.06.1-.06.22-.56.53-.79.53-.39,1.22-.15,1.44-.6-.62-.07-1.18.27-1.79.25-.53-.02-1.2-.44-1.45-.41-.38.04-.87,1.23-1.86,1.08-1.28-.19-1.14-2.06-1.16-3.06-.59-.3-.7-.12-1.18.22.29-.69-.07-1.32.03-1.98.05-.34.42-.64.45-.78.02-.12-.35-.09-.39-.19-.13-.3-.1-.61-.22-.86s-.48-.42-.55-.67c-.28-1,1.4-2.07,2.13-1.09.32.87.28,1.59,0,2.46l.96-.48c.5,1.47.63,2.13,0,3.6,1.12-.19.54-1.45,1.79-.48l.37-.48c-1.46.03-2-3.25-.85-3.38.93-.11,1.87-.09,2.41.73l1.08-1.79c-1.87-.77-1.48-3.42.49-2.4.4.21.39.76.62,1.06.45.6,1.18.22.39,1.34.22.38.67.63.81,1.07.24.79-.66,2.05.33,1.93,0-1.61-.6-4,1.68-4.08l-.48-1.2c2.58-.11,1.22,1.12,1.31,1.69.04.24.3,1.24.38,1.54.31,1.08,1.05.65.73-.23-.1-.27-.47-.47-.51-.97-.09-1.26,2.05-2.39,2.78-1.81.28.22.2.77.58.74-.05-1.35,1.85-1.97,2.65-1.08.25.28.17.68.32,1.01.04.08.38.09.4.23.08.5-.55,1.2-.49,1.28l.96.48c.01-.41.09-.87.37-1.2.35-.41.99-.28,1.07-.72l-1.58-.22c-.91-1.2-.12-2.57,1.41-2.19.12.03,1.44,1.82,1.48,1.93.19.43.06.88.19,1.25s.32,1.24.66,1.38c0-1.11-.77-2.31.36-3.12l.23.48,1.33-.61.95,1.09c.1-1.22,1.29-1.66,2.42-1.33.44.13,1.45,1.85,2.02,2.29l.6-.71-1.28-.54c-.6-1.36.6-1.75.08-2.82,2.44.43,2.36.79,2.75,2.89.05.25.02.77.36.71.62-1.46.16-1.23-.14-2.15-.26-.8.94-2.95,2.06-2.65-.25.74.61,1.34.66,1.83.04.39-.33.78-.07,1.29.72,1.41,1.42.08,1.96-.21,1.62-.86,2.63.56,2.73.45.53-1.18-.16-1.68-.37-2.62-.71-3.25,3.49-1.8,1.57.58l1.92,1.08c.04-.64.56-1.64.37-2.28-.13-.42-.68-.53-.62-1.19.07-.78,1.38-1.39,1.82-.62.22.39.03.9.16,1.28.1.32.62.41.87.81.65,1.01.55,1.79.33,2.87-.19.93,1.2-.69,1.64-.4-.46-.63-1.16-.54-1.22-1.56-.16-2.72,4.49-1.57,2.42,1.08l1.68.24c-.01-.42-.48-.13-.62-.7-.36-1.4.52-4.3,2.3-4.09-.43,1.41,1.21,1.95,0,3.6h1.92s-1.15-2.48-1.15-2.48c.29-1.09,1.62-1.96,2.46-.86.47.61-.11,3.43,1.47,2.4s1.69-1.62,3.47-.01c.06-.78,1.26-2.74,2.04-2.88.83-.15-.01.97.14,1.17.06.08.45.1.59.26.26.29.26.74.59.73l.12-1.68c1.95-1.66,3.34.2,2.52,2.28l.48.12c.02-.21.09-.44.25-.58,1.1-.93.42.65,1.19-.26-4.23-3.08,2.69-4.35,1.64-1.01-.19.6-.84.42-.92.88l1.91.48.72-1.32-.96.25c-1.87-2.23,1.57-4.59,2.3-1.83.31,1.16-.16,1.37,1.18,2.17-.32-.67-.82-1.05-.6-1.91.94.43,2.18.49,3.2.25.38-.09-.04-1.15,1.48-1.22.96-.04,1.45.28,2.28.62l1.44-1.46c-.54-.17-1.48-.66-1.64-1.25-.63-2.26,4.27-1.07,2.13,1.37.73-.04,1.33.49,1.44,1.2l.53-2.34c1.77-1.03,3.09,1.12,2.35,2.7l.48.12c-.04-.48.61-.8.68-1.11.09-.44-.58-1.03-.34-1.78.04-.12.94-1.19,1.02-1.2,1.66-.19,2.08,2.2.81,3.13.64.45,2.35.03,2.64-.6.19-.42-.85-.57-1.08-1.08-1.18-2.59,3.77-2.61,2.04.72l1.68.97c-.44-.75.48-1.93.48-2.04,0-.09-1.03-.4-.89-1.41.16-1.16,1.7-1.39,2.23-.39.3.58-.75,2.1,1.2,2.33l1.31-1.85,1.56.9c1.31-1.32,2.48-1.99,3.95-.43-.06-.56.37-.98.41-1.51.05-.81-1.3-2.44-.26-2.79,1.8-.6.64,2.2.81,2.38,1.82-.07,2.15,1.08,1.69,2.63l1.3.5.85-1.21h-1.44c.7-.66-.05-1.44.03-2.37.95-.77,2.67-.54,2.8.85.05.52-1.07,1.34-.31,1.52.62.15,1.92-.9,2.92-.95.78-.04.96.43,1.64.47.77-.8-.44-.85-.34-2.25.22-2.96,2.94-2.12,1.9.56l1.56.72-.12-1.43,2.17-.14,1.67,1.1-.24-1.68c.66-.17,1.34-.37,2.04-.24.63.12.7.76,1.32.72.6-3.06,3.57-1.84,2.4,1.08l.6.13c.38-1.86,3.23-1.4,4.44-.48l-.24-1.44c.67.19,1.47-.28,2.03-.24.44.03.85.5,1.18.44.37-.07.75-.87,1.12-1.04,1.46-.67,2.86.88,1.92,2.35-.14.22-.57.04-.48.41.9.19,1.08-.84,1.81-.96.15-.03,2.31.35,2.45.42.51.24.46,1,1.26.79l-.95,1.56c.58-.06,1.17-.04,1.43.59l-.72.36c.73.53.44,1.26.18,1.98-1.55,1.11-2.9-.91-1.52-1.88.44-.31,1.07-.02,1.1-.46-1.01-.6-1.97-.52-3.12-.48,1.29,1.28,1.63,4.07-.24,4.92,2.5-.95,2.87,2.84.62,2.76-.84-.03-.81-.64-1.34-.96.43,2.03-1.16,1.77-2.16,2.88.64-.05.75-.57,1.54-.48.64.07,1.36.84,2.06.96v-1.2c-1.88.62-1.92-.94-.1-.99.52-.01.99.75,1.69.72,1.46,2.34-1.98,1.38-2.3,1.71-.43.68,1.2,1.72.35,1.92s-3.38-1.04-3.44,1.17c2.72,1.24.26,4.19-1.95,2.43v1.68c.66.21.36-.43.6-.48.54-.12.33.79.6.48.31-.36.16-1.03,1.21-.86,1.25.2,1.44,1.24,1.07,2.31-.71.7-1.66.46-2.53.35l-1.19,1.56c.78-.28,2.22.29,2.74.25.17-.01,1.59-2.55,2.03.3-.32,1.15-1.65.33-1.84.44-.06.04-.1.39-.31.54-.56.4-.76.67-1.17.98-.98.74-1.48.17-2.4-.24v2.04s.59-.73.59-.73c.97-.53.13,1.73.2,2.52.1,1.16.92,2.33.6,3.32-.09.29-.45.45-.54.66-.29.72-.03,1.53-1.09,1.81-.72.19-.98-.57-1.55-.6-.15,0-1.82.25-1.82.34l.25.84c1.75-1.53,2.96-.49,3.1,1.58.03.42-.28.85-.24,1.14.02.18.6.28.81.69.68,1.37-.78,1.58-1.74,1.86-.64-1.24-.46-1.86.47-2.88-.73-.21-1.28-.48-1.8.24-.24-.32.03-.61-.59-.48-.07.48-.14,1.02-.72.96l1.46.62c.81,2.24-.51,3.28-2.65,2.5l-.5,1.31.6.37c.74-1.49,2.2-1.47,3.37-.48.72,1.94-1.28,2.42-2.76,1.92-.01.67-.2,1.37-.96,1.44.27.67,1.68-.71,2.16-.24.17,2.1-.9,4.66-3.12,2.64-.07.77.58,1.07.7,1.82.13.78-.28,2.92-.18,3.29.14.56,1.51.97.81,2.33-.2.39-.84.42-1.19.73-.28.25-.44.88-.86,1.06-.5.22-1.16.09-1.75.18-.23.04-.54.42-.65.42-.04,0-.12-.42-.72-.24v.84s.36.12.36.12c.2-.08.27-.42.36-.48,2.66-1.73,3.43,1.86,1.75,2.35-.67.2-2.05-.32-2.23.18l.48.48-.72.48c2.65,1.27.75,4.55-1.68,3l-.72,1.44c.27.21,2.7-1.59,3.98-.49.3.26.32.71.35.73.06.05.47-.41,1.43-.24.06-.32-.12-.85.22-1.1.91-.64,1.72.72.99,1.23-.48.34-.87-.07-1.21-.14-.15.85-.45,2.26-1.32.96-.8.98-1.82,1.13-2.76.24.55,1.16-.47,1.3-.96,2.16l1.44-.24c.69,2.36-.15,3.9-2.64,2.64.41.81.24,1.49.35,2.16.04.23.32.51.37.86.23,1.88-1.41,2.57-2.87,1.54-.22.49.73.82.96.86.66.11.9-.43,1.51-.34,1.56.23,1.54,2.6,0,2.8-1.15.15-1.4-.69-2.01,1.35,1.16.4.92,1.05,1.3,1.74.11.2.91.51.64,1.27l-3.12-.24c.37.76-.4,1.1-.72,1.67,1.44.29,1.27,2.78-.18,3.08-1.16.24-1.54-.66-2.22,1,.18.14,3.98-1.55,4.09.48l.84-.48c.46.45-.44.68-.72.96-.78.79-.87,1.1-2.16,1.43.19-1.01-.91-1.32-.36-2.39-1.19.12-.39.57-.29,1.13.23,1.25-.23,1.36-.91,2.23,1.58-.19,1.46,1.12,2.15,2.05,0,.22-1.26.8-1.57.83-.66.07-1.43-.61-1.66-.24l-.38,1.53c1.3.52,1.48,2.12.43,2.97-.75.61-1.45-.29-1.14,1.75,1.99-2.89,3.7.88,1.99,1.39-1.15.34-1.82-.3-1.99-1.39-.65.94-.05,1.05-.34,1.93-.21.64-.73.49-.86.94l2.4-.48c-.39.78-.3,1.7-.53,2.47-.1.34-.63.61-.63.76,0,.19,2.45,2.67.51,3.21-1.74.49-1.18-2.19-1.8-3.16-.41-.64-1.24-.6-.91-1.85l-.71.36c1.43.92.26,2.38.3,2.88.03.41,1.24.54.83,2.34-.46,2.01-2.52-.05-3.05,1.74.43.08,1.11,1.39,1.44,1.08.3-2,2.58-2.02,2.77.02-.21,1.01-2.6,1.5-3.47,1.8-.83.28-1.17.98-2.42.34l.96,1.2c.33.25,1.11-1.07,2.15-.6,2.36,1.07-.38,4.5-2.39,1.56l-.72,2.4c1.29-.39,2.23,1.9.96,2.52-1.7.83-1.79-1.04-2.86-1.72.5-1.23-.82-1.55-.7-2.67.06-.63.41-.71.44-1.25l-1.67.6c1.37.72,1.1,1.9,1.43,3.24-.97-.51-1.91.56-2.78-.46-.7-.82-.16-1.51-.1-2.42l-1.44-.48-.47,1.08c-3.82.29-2.5-4.08.22-1.8l-.48-.96.72-.48c-1.5-.61-2.28.7-3.59-.14-1.11-.71-1.6-1.89-.73-2.98-1.28-.25-1.34-1.81-.98-2.85l-1.42-.99.72,2.16c-.65.24-.98-.58-1.31-.62-.36-.05-.62.23-1.32.01-1.34-.41-1.09-1.9-.25-2.75l-1.43.84c1-1.02-.01-1.16-.31-1.87-.12-.29.09-.68-.05-.89-.31-.46-1.46-.33-1.33-1.44l-1.6.9c-2.68-.4-1.05-3.32.57-2.65.47.2.93,1.4,1.16.79.21-.57.26-1.78-.36-2.06-.28-.13-1.52,1.03-2.4.76-1.32-.41-1.62-2.05-.72-3.02-.6-.02-1.16-.34-1.78-.24-.91.14-2.63,1.93-2.78-.72l-.96.24c-.13-.7.41-1.02.84-1.44l.12.72c.04.06.82-.65,1.32-.63.64.03.9.92,1.55.86l-.03-1.77-1.15-.62c-.17.92-1.34,1.48-2.18,1.07-.51-.25-.52-1.03-.79-1.26-.16-.13-.54-.09-.76-.3-.69-.66-.1-1.36-.18-1.99-.09-.73-.59-1.7-.43-2.57-3.16,2.35-5.94-1.56-1.68-2.4l-.36-.71c-.93,1.21-2.55.89-3.78,1.01-.29.03-.56.35-.82.38-.54.06-1.39-1.04-2.24-.67,0-.49-.18-1.49.39-1.66.11-.03,2.13.05,2.26.07.56.12.49.71.94.87-.07-.78-.04-1.32.48-1.91-.28-.12-1.59-.78-1.67-.73-.11.08-.23,1.13-1.34,1.2-1.19.07-2.47-1.95-1.88-3.01l-.62-.59c-.64,1.37.97,2.89,0,3.97-.45.51-.96.04-.49,1.06-.44,0-1.26.14-1.42-.39.29-.67-.15-1.51,0-2.08.19-.67,1.09-.38.93-1.13h-1.77s-.62-.96-.62-.96c0,.57.05,1.14-.11,1.7s-.59.29-.62.69l.9.3c.73,1.85-.3,1.85-1.62,2.1.14.19.23.27.48.24v.23s-1.2,0-1.2,0c.06-.39.4-.42.72-.48-.69-.95-.62-1.4,0-2.4l-1.68-.72c-.37,1.95-2.26,1.79-3.36.48l-.24,2.4c.77.05.57-.89,1.43-1.1.41-.1,2.21.2,2.43.54.78,2.21-1.04,2.32-2.65,1.52-.07,1.93-1.86,1.16-2.37,1.48-.16.1-.16,1.22-1.14,1.33-.27.03-1.94-.22-2.21-.33-.37-.15-.14-.62-.52-.56.1,2.38-1.34,2.03-3.12,1.92l-.24-.96c.54,1.68-1.76,1.99-1.89,2.19s.04.85-.08,1.24c-.1.35-.57.49-.67,1.01-.19.99.38,2.94-1.45,2.41-.34-.95-1.29-1.66-.78-2.72.28-.57.93-.33.79-1.01l-2.4.24.72.84-.48.24c2.64,3.32-3.56,4.14-1.68.12h-1.68c.39,1.11,1.34,2.3.35,3.35-1.28,1.35-2.4-.33-2.5-.23.08.48-.41.87-.42,1.27-.03.97,1.64,2.2.42,2.93-1.55.93-2.37-1.11-1.44-2.28l-.94.03-.38.69c-.78-.36.19-1.65-.6-1.92.09,3.69-2.11,1.68-2.9,2.04-.13.06-.99,1.25-.94,1.31,1.7,1.35,3.13-2.23,4.53.18.3,1.1-1.01,1.58-1.84,1.7-1.14.17-.55-.26-1.43.28-1.43.88-2.66-.12-3.18,1.45l.96.12c-.96,1.03-2.68.21-3.84-.12-.6,1.21.55,2.26.5,3.24-.08,1.85-2.38.94-2.07-.38.1-.43.69-.65.6-1.17-.73-.12-1.13.18-1.56.71l-.6-1.19c-.05,1.76-1.89,1.27-3.12,1.44,1.4,1.06,1.18,3.04-.24,3.84.38.47,1.89,2.5.81,2.86-1.26.41-1.01-.94-1.2-1.18-.39-.51-1.33-.33-.39-1.32-1-.91-1.24-1.41-.91-2.76l-1.44.24c-.05.44.89.38.96.49.05.07-.08,1.54-.11,1.69-.15.83-.74,1.33-1.57,1.43.25.98,1.67.47,2.05,1.19.5.97-.64,1.91-1.47,1.23-.53-.43-.21-1.22-.38-1.43-.08-.1-.93-.09-1.16-.64-.3-.43.76-.34.48-.59-.12-.11-.54-.03-.79-.54-.27-.54-.05-1.14-.29-1.63l-.56.6c1.88,2.07-.8,4.36-2.68,2.28.41,1.38-1.6,1.28-1.68,2.4,1.08-1.32,1.37.18,2.62-.24.84,2.72-3.24,3.53-2.74.48-1.24.69-.27,1.49-.87,2.49-.33.56-.72.49-1.16.77-.19.13-.22.56-.41.59-.46.08-.95-.46-1.17-.44-.27.02-.49.57-.71.68-1.18.58-2.68,1.33-4.09,1.42-.34.02-1.67-.58-1.45.25.12.47.6.98.38,1.67.34.44,1.11-1.31,1.37-1.45.34-.2,1.41-.38,1.71-.19,1.08,1.3-.14,3.01-1.65,2.24-.42-.21-.29-.83-.71-.84-.51,1.03-.67,2.64-2.17,2.4v1.2s-1.61-3.3-1.61-3.3c-.07-.72-.91,0-.79.18,1.82.38.89,2.49,1.03,3.44.05.31.47.56.44,1.24-.04.81-.45.62-.67.92-.31.43-.15,1.32-1.28.76-.97-.48.2-2.62.72-3.24-.59-.05-1.92.1-1.92-.72h-.23c.05,1.06-.93,2.1-2.03,1.92-1.01-.16-.9-1.18-1.79.84.83.42,1.11,1.53,2.13,1.44l-.84-1.56c.62-.44,2.06-.77,2.65-.24,1.03,1.92-.35,2.17-1.96,2.38-.29.04-.73-.23-.78-.2-.04.03-.2.61-.48.84-1.18.97-2.22-.35-2.42-.14l.19.68-.44.16c.54.54.77,3.02.26,3.37-1.2.46-2.12-.11-1.66-1.43.13-.38,1.05-.35.68-1.35-.87.1-.6.88-1.2,1.2l-.48-1.2-.96,1.32c.67.56,2.43,2.67,1.06,3.22-.64.26-.56-.42-.69-.43-.75-.02-1,.3-1.81-.52-.43,1.61-2.22,2.63-3.6,1.2l-.11,1.69c-1.46.65-2.38.25-3.25-.97.51.82-.45,1.56-.22,2.24.14.41,1.16.55,1.16,1.48,0,.67-1.04,1.43-1.17,2.17v-.61s-1.07-.25-1.07-.25l-.39.96c-1.43-.45-2.16,1.29-3.59-.24.04.92-.59,1.47-1.2,2.04.7.55,1.43-.22,1.87-.31s.78.17,1.09.12c.27-.04.49-.46.99-.42.78.05,1.01,1.03.82,1.66-1.14.34-1.9.01-3.07.66-.19.11-.24.47-.42.58-1.01.63-2.2-.54-2.47-.25-.35.38.22,1.19.71,1.32-1.09,1.39-2.62.11-3.83-.36.14.77-.43,1.75-.25,2.47.07.29.83.32.93.8.47,2.29-4.09,1.8-1.64-.87-1.7-.88-1.94.04-3.36.72.11.44.83.21,1.29.5.79.49.82,2.05-.02,2.34-1.74.6-3.21-1.37-2-2.84l-1.2-.48c.7,1.88.96,3.22.22,5.15l.87.35c.24.88.33,1.67-.73,1.72-1.36.07-.92-.71-1.38-1.16-.16-.16-.6-.23-.89-.44-.26-.19-.15-.81-.83-.59l-.86,1.21c1.6-.37,1.78.82,2.86,1.58.05.22-.2.62-.36.8-.63.73-2.57-.21-3.46-.47-.02.79-.31,1.41-1.08,1.7-.52.2-1.91.22-1.81-.5h-.23c0,1.36-.93,1.81-2.16,1.68-.1.08.22.73.24.96.24-.23.96-.7,1.28-.67l1.59,1.03c-.54.8-.57,1.67-1.77,1.56-1.39-.13-1-.99-1.11-1.92-.52.51-.88,3.39-.71,4.15.02.1,1.23.73.41,1.55-1.09,1.09-1.47-.66-1.76-1.13-.49-.77-1.22-1.67-1.29-2.79-.03-.44.42-.96.12-1.31l-1.08,1.08c1.98,1.73-.39,4.12-2.4,2.76l-.48,1.19c1.46,1.07,1.64-.3,2.63-.62,1.78-.56,2.47,2.25.61,2.33-.7.03-1.16-.52-1.4-.48-.69.11-1.52,3.02-3.51,1.18-.02,1.49-.52,1.51-1.68,2.04.47.71.56-.21,1.2-.03.73.21.77,1.09,1.43,1.12v.23c-.64-.1-.46.68-.81.99-.67.6-2.27.07-2.07-.99l-.72.25c.39.96.08,1.89.26,2.97.19,1.13,1.28,2.13-1.19,2.03-.39-.76-.36-1.24.21-1.88l-1.8-1.44c-.25,1.54-1.82,2.65-3.12,1.44-.9.72.17,1.72.31,2.58.29,1.84-.89,1.92-.91,2.1-.07.9,2.81.43,1.46,2.18-.71.92-2.2-.43-2.53-1.11-.27-.56,0-1.82-.85-1.67.04.35.23.68.02,1.02-.31.52-1.26.41-1.46.89,2.23.02,1.55.74,2.15,1.76.2.33,1.24.14.97,1.01-.13.42-1.15.45-1.51.36-.18-.05-.14-.45-.33-.48-.12-.02-1.92.05-2.01.1-1.07.71,1,2.91.2,3.68-1.08,1.05-2.88-.74-1.64-1.76.39-.32.94-.18.98-.58h-2.16s-.12-.48-.12-.48l-.12.48c-.8.91-2.18,1.32-3.36.84l.96,1.32c.45-.15.3-.64.94-.86,2.31-.79,3.07,3.34-.25,2.43-.62-.17-.24-.77-.93-.62.19.56-.39,1.21-.39,1.56-.01,1.07,2.38,3.24-.81,3.48.46.86.23,1.8-.82,1.91l-.5-1.19c-.81,1.13-3.82-.13-2.52,1.68-.82-.32-3.58.03-3.55,1.09,0,.19.52.48.68.72.41.61-.1.59.71.84-.02-.81-.75-1.36-.72-2.16.79.57,1.27-.28,2.02-.24s1.38.78,1.33,1.54c-.08,1.5-1.59,1.18-2.63.86.02.71-.83.69-1.2,1.32,1.32.03,1.83,2.3.86,3.02s-2.74-.72-1.12-2.08c.78-.66-1.63-.66-1.89-1.06l.2.69-.44.15c.73.74.97,2.76.26,3.56-.4.44-1.32.08-.98,1.61-.76.1-1.35-.15-1.44-.96l-.95.84c1.2.06,2.23,1.5,1.31,2.51-.08.09-1.91,1.08-2.02,1.11-.28.06-.47-.32-.61-.31-.09,0-.7.63-1.36.75-.6.11-1.05-.1-1.63-.09-.16.56.15.41.31.55,1.3,1.17,1.14.09,2.42.18,2.43.17,1.46,2.96-.63,2.35-.47-.14-.89-1.21-1.26-.68l-.56,2.28c1.86.68.64,3.21-.78,1.94-.31-.28-.31-.61-.48-.9-.12-.2-.45-.22-.46-.35-.02-.3.27-.66.22-.91s-.53-.31-.7-.54c-.19-.26-.06-.83-.46-.79-.13.43.23,1.11.1,1.45-.18.51-1.12.73-1.31,1.19,3.09-.65,2.52,3.88,0,2.76-1-.45-.45-2.12-1.68-2.51-.71.73,1.51,1.51.49,3.19-.6.99-2.5.98-3.37,1.49l1.68.84-.96-.96c.92.41,1.82-.31,2.5-.25.34.03,2.42,1.07,2.06,1.45-1.04-.55-.89.58-1.43.84s-1.08,0-1.52.11c-.23.06-.23.48-.42.58-1.38.74-2.09.84-3.59.39l-.24,1.68,1.2-.24c.11.11-.5,2.46-.47,2.99.06.99,1.41,1.21.67,2.37-.95,1.49-2.96-.53-1.88-1.99l-1.08.96-.6-.72-.22.93c.94.23,1.21,1.06,1.19,1.94l1.57.23v.99s-1.43.19-1.43.19l-.39-.93c-.57.27-1.12.63-1.73.81-.52.15-1.2-.29-1.38.39l.48.24-.96.24c.58-.04,1.63.25,1.7.84.35,2.8-3.18,2.68-2.9.12l-.72.24c1.16.93.15,2.24.22,2.73.02.15,1.69.81.93,2.61-.76,1.81-3.98-.56-1.87-2.11l-.71.36-.72-.72c.2,1.48.85,2.78,0,4.15-.14.23-.57.04-.48.41,1.28.11,2.62.82,1.56,2.16-1,1.26-2.51.03-2.76.24-.75,1.49,1.34,3.09.6,4.07-1.07,1.4-2.02.02-2.28.25.1,1.77-2.14,1.97-3.36,1.2-.42.94-.05,1.67.6,2.4.24-.81.46-1.59,1.48-1.62,2.39-.06,1.14,4.47-1.36,2.1.01.45-.13.82-.37,1.19-.51.77-1.31.45-1.31,1.21.4.14.63-.4.83-.4.16,0,.36.32.54.34.79.08,1.77-.5,1.13,1.25-.54,1.48-1.96,1.62-2.99.49.04.8.01,1.78-.96,1.92.6.96,1.07-.86,1.56-.96,1.69.75-.48,2.3-.27,3.49.05.3.51.43.57.74.04.23-.19.55-.13.87.07.36,1.08,1.51-.17,1.64-.96.1-.69-.62-.98-1.19-.32-.63-.5-1.42-.63-1.65-.08-.14-.7-.25-.97-.84-.38-.85.43-1.2.79-1.85-.21-.2-1.16.81-1.21.89-.55.89.53,1.43.44,2.06l-1.15,1.36c2.85.71,1.57,3.69-1.18,2.66l-.98,1.54c.94.28,1.68.52,1.67,1.66-.02,1.71-2.35.75-3.1,1.7l.94.73.02.47-.48.13c1.03,1.05-.01,1.88-.21,2.99.92.52,1.75,1.29.68,2.17-1.02.51-2.63-1.13-2.4-1.32.76.32.95-.06,1.43-.6l-1.19.12c.07-.62-.09-1.07-.6-1.44l-.83,1.8.7-.12c.6,1.51,1.52,2.53-.46,3.48l1.57.83-.11,1.59c-.84.21-1.82-.09-2.41.72l.48,1.3-.72.24c.85.07,1.2,1.25.85,1.93-.3.57-1.27.22-1.1,1.02-.35.73-.95-.79-1.02-1.07-.15-.57-.38-1.21.17-1.66.31-.25.89-.04.86-.45l-1.53-.44-1.35.92c2.85,1.69.86,4.88-1.68,2.88l-.24,1.68.96-.24v1.2s.72-1.32.72-1.32c3.25-.84,2.76,3.07-.24,2.52l-.24-.96c.04.86-.24,1.77-1.2,1.92l2.29.7c1.37,1.22-2.11,3.43-3.25,1.69.42.88-.24,1.3-.24,2.16l.71-.6c.13-.23.48.19.48.25.06.45-.42,2.24-.35,3.03.09.98.81,1.25.84,1.99.05,1.1-.76,1.05-.92,1.49-.26.68.13,1.49-1.14,1.54-.73.03-1.02-.46-1.42-.48-.47-.03-1.22.4-1.81.22l.24.96c.68.16,1.05-.58,1.59-.65,1.64-.24,2.28,3.02.95,3.04-.48,0-1.91-.17-1.94-.71-.49.54-.4,1.39-1.32,1.44.12.49.96.15,1.38.54,1.55,1.45-.77,3.82-2.34,2.34l-.48,1.31.59.38c.53-1.29,3.64-.96,3.49.58-.18,1.83-2.75.75-2.88.85-.1.08-.49,1.82-1.45,1.68.16.72,1.12-.11,1.38-.18,1.84-.48,1.25,1.36.63,2.32-1.32,2.06-2.63.13-2.73.26-.13.75.67,1.13.71,1.81.08,1.26-.87,2.5-.47,3.71-1.35.56-2.61-2.09-1.94-3.02.33-.45,1.09-.35,1.22-.82-.8.26-1.47.35-2.27,0l-.25.23c.04.66.12,1.07-.59,1.32,3.1,2.27-2.92,4.2-.96.23l-.41-.16.16-.42-1.31-.74c-.6,1.22-2.04,2.32-3.14.98-.32-.39-.18-.94-.57-.98-.16,1.09-1.26,2.08-.48,2.99-1.52,1.11-1.13-.09-1.35-.6-.28-.64-.95-1.02-.54-2.12l1.17-.28-.24-.72c-.89.83-1.98-.03-2.95.24-.25.07-.34.84-1.04.9-.44.04-.88-.37-1.17-.35s-.55.75-1.2.88c-.36.07-1.58.08-1.89-.03-.36-.13-.31-.68-.53-.69-.2-.01-.52.29-.89.21-.57-.13-1.36-1.36-.5-1.63s1.2.65,1.41.65c.1,0,.45-.41.96-.45s1.46.21,2.03.25c.11-.36.16-.88.39-1.18.34-.44.99-.27,1.07-.73l-2.16.72-.36-.96c-1.22,2.19-4.15,1.39-3.24-1.2l-.68.63c1.13,2.34-.72,2.64-2.67,2.72-.15-1,.57,0,.96-.36-.2-.58-1.44-1.1-1.19-1.67l1.43-.85c-.99.13-1.65-.11-2.4-.72.27.91-1.92,2.31-2.39,1.91-.24-1.35-1.06-1.71-.25-3.11l-1.32-.72-1.32,1.32c2.67,1.03,1.82,4.02-.73,2.36l.48-2.12c-.37-.48-1.01-.26-1.45-.7-.36-.36-.31-.9-.54-1.26-.21-.33-1.15-.61-.88-1.51l.96.96c.97-.39-1.04-1.58-1.2-1.44,0,1.06-.38,1.44-1.44,1.44l.26.71h2.14s-.24,2.64-.24,2.64c-3.45.17-1.77-1.9-2.45-3.18-.22-.42-.67-.48-.89-.8-.92-1.39,1.03-2.4.69-2.74h-1.44c.17,1.6-1.18,1.61-1.39.16.06-.7,1.41-1.02,1.39-2.43l-1.08-.6c.24-.83-.64-2.54.73-2.66,1.51-.14,1,2.25.83,3.13,1.15-.44,1.44.6,2.16,1.2l-.91-1.56c.07-.45,1.33-.64,1.16-1.31-1.44.08-1.19-1.82-1.2-2.88.95.19,1.65-.52,2.64.24l-.48-1.2.6.44.6-.56c-1.01-.83-1.88-.72-1.38-2.35.33-1.08,1.79-.86,2.35-1.61-1.69.7-2.87.36-4.01-1.08-.07-.54,1.64-1.28,1.98-1.32.69-.07,1.19.48,1.78.6l.24-2.02-.92-.29c-.02-.61-.18-1.6.08-2.13.21-.42.84-.29.84-.71-3.07-.76-2.2-3.67.8-2.62l.4-.74c-1.33.48-2.87-1.14-1.08-1.23.98-.05,1.15.63,1.43.67.32.04,1.08-.52,1.57-.4l-.24-1.2c-.36-.09-.18.33-.41.48-2.93,1.84-2.82-2.6-1.15-2.88.17-.03.06.34.28.48.26.17.75.2.92.47.31.51-.25,1.4.59,1.21.03-1.06-.3-2.09.72-2.76-1.28.17-2.09-1.11-1.55-2.28.24-.53.94-.5,1.07-.96l-.67-.12.19-.36c-2.72-.72-.69-3.53,1.44-1.69.43-1.42-.8-1.11-.96-2.16,1.84.31,2.72.19,4.32-.72l-1.32-1.68c-.41.24-.12.62-.26.93-.7,1.56-2.37,1.33-2.69-.3.61-1.51,1.35-1.6,2.59-.64.18-1.45,2.13-2.53,3.36-1.44l-.24-1.44c-.64.95-.64.45-1.03.56-.91.27-1.3.84-2.09-.2-.96-1.26.02-2.63,1.45-2.18.44.14.67.7,1.19.62l.48-2.16c-1.13-.52-3.36,1.18-3.97,0-.57-2.14,1.66-1.04,2.35-1.43.32-.18.22-1.33,1.52-1.45,1.36-.13.81.86,1.78.96-.76-.78-.27-1.6-.36-2.28-.16-1.27-1.09-3.1-1.1-4.81,0-.31.59-2.22.73-2.39.49-.57,1.61-.24,1.7.5-.37.88-.34,1.79-.5,2.58-.01.07-.79.64-.71,1.13l1.44-.72.48.96c-.21-.53.42-1.28.4-1.56-.01-.22-.56-.65-.63-1.22-.24-1.75,1.26-2.58,2.63-1.54l-.72-.96c.93.54.96.1,1.67-.25-.25-.79-1.02-.1-1.38-.04s-.71-.13-.91-.1c-.29.05-.45.5-.76.59-1.08.32-2.23-1.62-1.99-2.61.62-.31.77.46.82.46.65-.05,1.24-.61,1.94.22.91-1.09,1.21-2.51,2.99-2l-.48-.84c-.55-.07-.87.62-1.35.67-.3.03-1.66-.56-1.75-.82-.35-1.02,1.27-2.07,2.33-1.61.46.2.41,1.06,1.26.8-.49-.63-.02-1.24-.07-1.77-.09-.92-1.39-2.04-.67-3.11.18-.27.67-.29.96-.53.56-.46,1.37-1.96,2.06-.59.53-.77,1.16-.8,2.04-.72v-1.08s.71,0,.71,0c-1.05-.53-1.2-1.49-.72-2.52l-.96-.48,3.84-.49-.48-.6.48-.36-.72-.72c-.73,1.07-1.54,2.49-2.77.98-.78-.96.09-1.39.15-2.4.47-.1.87.04,1.27.26.61.33.63.9,1.11,1.17-.17-1.08.34-1.64.96-2.4-2.78-.72-1.39-3.66,1.2-2.4.08-.43.19-1.01.47-1.34s1.1-.28.61-.82c-.62.46-1.5.04-1.57-.73-.41.46-3.37,2.04-3.02.47.28-1.25,1.44-.4,2.05-.59,1.07-.34,1.22-2.25,2.9-1.44.49.24.24,1.02.95.84.04-.63-.69-.86-.86-1.43-.28-.93.26-1.07.34-1.62.07-.49-.3-.86-.1-1.52.06-.2,1.12-1.61,1.25-1.66l.7.22c1.08,1.12-.72,3.16.96,3.61,1.85-.77,0-1.42-.23-2.18-.53-1.69,1.48-2.59,2.89-1.99l.58-1.36-1.44.48c.27-1.75-.4-3.07,1.92-3.6-.14-.31-.25-.6-.24-.95-.77.22-1.85,1.42-2.66.86-.87-.61.7-2.42,1.34-2.54.86-.15,1.49.18,1.53,1.09.01.27-.21.51-.21.6.66-.19,1.26-.14,1.92,0,.03-.42-.55-.21-.86-.46-.84-.67-.57-3.76,1.58-2.78.67.3.68,1.24,1.2,1.55.03-.43-.26-.84-.19-1.27.1-.69,1.15-1.08.8-1.61l-1.32.96c-.15-.42.45-.82.43-1.08-.02-.2-.53-.43-.63-.77-.3-.98.7-1.79.92-2.71-1.89.31-1.91-2.18-.14-1.93,1.04.15.91,1.14.38,1.81l1.19-.12c-.25.77-.37,1.16.36,1.68.13-1.44,1.89-2.61,3.24-1.68l.24-.72c-.85.16-3.18.13-3.69-.46-.29-.34-.05-.77-.19-.94s-1.11-.03-.92-.76c.97-.08,3.44-.17,4.09-.83.34-.35.12-.25,0-.49-.43-.88-1.43-2.11-.42-2.93,1.07-.88,2.39.33,2.71,1.36.2.63-.35,1.24.09,1.45l.45-1.28c-.25-.36-.53-.54-.68-1-.13-.4-.76-3.55-.74-3.83.04-.41.49-.63.67-1.03.22-.47-.12-1.21.77-1.4.96-.26,1.24.9,1.32.86.46-.48.98-1.04,1.63-1.26.74-.25,1.41.02,1.63-.07.3-.13.61-.88,1.18-.84l-.11-.47c-.72.53-2.02.22-2.65.34-.39.07-.53.77-1.43.63-.48-.08-1.18-1.08-1.08-1.57,1.03-.7,2.25-.69,2.76.59.65-.28-.05-1.9,1.02-2.39,1.18-.54,1.35.16,2.46.23-.19-1.88,2.01-1.54,2.16-1.68.22-.22.11-3.76.74-4.42-3.4-1.15.3-3.48.79-1.99.09.27-.12.71.03.9s1.33.66,1.66.94l1.35-1.07c-1.16.52-3.66-1.14-2.51-2.29.23-.23,3.18-.95,3,.25h.23c-.14-1,.7-1.9,1.68-1.92l-3-.12c-1.78,1.93-2.97-1.37-1.21-1.33.32,0,.73.27.96.22.24-.06.28-.5.45-.6,1.35-.85,2.28-1.36,3.4.15.11-1.12-.56-2.13.13-2.99-1.74-1.16.29-2.61,1.67-2.76-.96.85.15,1.11.02,2.03l-.74.84,1.91.96c1.47-2.07-1.26-2.34-.21-4.17.53-.93,1.04-.46,1.73-.63.25-.06-.01-.77,1.09-.26.16-.63.62-.88,1.23-.94.02-.48-.56.02-.97-.1s-1.16-.79-1.2-1.23c.74-2.19,2.24-.63,3.85-2.75-2.58-.28-1.31-3.6.48-2.52,1.15.69,0,1.49-.25,1.92-.13.22-.19.55-.23.6.46.05.96-.21,1.42-.01-.16-.55.66-1.35.66-1.54,0-.43-.99-.93-.35-2.11.41-.75.99-.65,1.73-.9.91,1.15,1.21,1.95.14,3.12l1.68.48c.79-1.69-2.31-3.14.24-4.44-.95-.63-2.03-.52-1.57-2.04,1.88-1.81,3.15.2,1.57,1.92l2.12.22.75-1.06c-2.74-1.32-1.15-4.34,1.44-2.76l-.14-.72c-.5-.06-1.23.31-1.06-.48.42.13,3.21-.39,3.33-.51.06-.06.41-1.45.41-1.53.02-.59-.66-1.1-.14-2.04.07-.08.21-.16.24-.24,1.15-1.12,1.43-.15,2.02-.22.19-.02.24-.57.48-.76.06-.05,1.4-.44,1.47-.45.67-.09,1.16.09,1.78.23.41-.78-.28-.98-.43-1.61-.4-1.74.76-4.15,2.83-3.67.21.64-.93,1.1,0,1.44,0-.47.14-.99.47-1.33.58-.6,1.63-.29,1.45-1.07-.93.78-2.52.46-2.63-.86-.15-1.88,3.37-2.01,2.64.13l.83.25c-.44-.89-1.02-1.62-.13-2.52.73-.74,1.31-.29,1.91-.48.45-.14,1.57-.91,1.94-1.31-1.08-.08-1.98-.22-1.91-1.54.11-2.12,4.41-1.14,1.91,1.54.47.04.96-.02,1.44,0-.97-1.36.12-3.25.96-4.44-.97-.2-1.51-.29-1.46-1.44.07-1.68,2.91-.83,1.94.84h.96c.11.11-.29,1.55.48,1.68-.1-1.07-.11-1.3.72-1.92-2.59-.6-1.1-3.87.81-2.62.91.59.36,1.4.51,1.66.5.88,1.7.78,2.03-.25-2.06.24-2.64-2.35-.58-2.86,1.67-.41,1.33.28,2.9-.96.45-.35,1.02-.02.8-.99-1.3,1-2.16.58-2.86-.81.6-.87,1.4-1.53,2.46-.89.33.2.37,1.18,1.01.5l.83-2.77-.99-.26c-.98-1.71,1.49-2.52,1.7-.93.03.25-.14.55-.09.86.18,1.13,1.06,1.45,1.29.08.71.19,1.18-.33,1.82-.37.86-.05,1.54.67,2.02-.79-.55-.62-1.23-1.14-1.08-2.08.41-2.53,4.2-.72,2.3,1.45l1.44.48c.01-1.99-1.88-3.81,1.2-4.44l-.38-.59c-1.18.45-2.69-.47-1.67-1.71,1.14-1.39,2.15,1.26,2.77.74.07-.06-.25-.96-.17-1.28.13-.5.56-.84.67-1.34,1.04.53,1.24.08,1.78-.74l.7.46c.95-1.06,2.2.24,3.14-.94.49-.61-.8-.43-.87-1.56-.21-3.36,4.42-2.2,1.94.6,1.04.33,1.11-.52,1.92-.48-1-1.31-.96-4.23,1.27-3.55,1.25.38.55,1.99,1.01,2.83,1.06-.84.18-1.38.1-2.28-.16-2.02,1.6-2.34,3.02-1.58l1.07-1.06c.24-.48-1.34-.8-1.65-.86-.63-2.34,2.85-3.09,2.87-.81,0,.59-.68,1.74.23,1.55-.12-.45.41-1.02.39-1.32-.01-.27-.54-.7-.53-1.21.03-1.09,2.42-2.61,3.5-2.28-.25-.8-.82-1.15-.91-2.11-.25-2.57,4.25-.6,1.39,1.39,1.44.56,1.71-.89,3.12-.72-.25-.48-1-.27-1.31-.96-.84-1.87,1.5-2.85,2.75-1.44.3-1.49.95-2.67,2.59-1.76.38.21.17.59.53.55-.01-.64.47-1.74.38-2.29s-1.53-1.1-.37-2.14c.11-.1,1.51-1.03,1.6-1.06.67-.2.97.39,1.15.39.4,0,1.68-2.13,2.88.29l-.6-1.68.81.26c.55-1.18,1.73-.63,2.77-.51.45-1.18.61-1.58-.26-2.59-1.23.01-1.23,1.63-2.48,1.42-1.18-.2-.63-2.28.66-1.9.33.1.58.63.77.64.82.03,2.03-3.88,3.27-.44h.81s.36,1.93.36,1.93l.96-1.68c-1.03.18-2.43-2.74-1.69-3.26.9-.63,1.9.79,2.53.76.89-.03,1.3-2.34,3.01-1.47.42.21.29.83.71.84-.02-1.39,1.13-2.85,2.54-1.93.66.43.3,1.31,1.06,1.21-.48-1.3-.25-2.06.96-2.76l-1.19.6-.5-1.79c-.11-.46,1.55-2.94,1.94-2.53l-.48,1.19c1.55.34.37,1.97,2.04,2.64l.84-.95c-.93-.07-1.56-.92-1.7-1.81.55-1.12,2.4-1.62,3.02-.35.18.37-.06.98.36.95-.15-1.18-.46-1.8.6-2.65.23-.18.71-.17.79-.28.3-.38-.36-1.27,1.13-1.17.46.03.78.42,1.09.39.45-.04,1.06-.51,1.65-.38v-1.19c1.73.21,2.9.35,4.57-.24.26-.23-1.11-1.68-1.44-1.44-.78,3.56-4.48.12-2.1-1.03.92-.44,1.25.35,1.72.32.13,0,.26-.5.52-.7,2.15-1.63,2.46.08,3.09-.03.76-.58-.06-1.35-.11-1.82-.06-.58-.06-2.35.48-2.62,1.47-.73,1.91,1.04.96,1.92l1.8,1.08c.16-.64.23-1.17.84-1.56-1.46-.73-1.45-3.04.34-2.76,1.95.3.55,1.39.61,2.02l1.33,1.1c.85-1.54,1.93-1.91,3.47-.95-.19-1.19,1.24-1.78-.44-1.89-.13,1.12-1.43.06-1,1.17l-2.06-.45c-.54-.41-.5-1.76.14-2.07.78-.37,1.95,0,2.47-.11.23-.05.98-1.96,2.47-.98.66.43.3,1.31,1.06,1.21-.34-.98-.94-2.15.12-2.88l.24.48,1.17-.7,1.35,1.41c-.26-2.22,1.69-2.01,3.18-2.46.79-.24,1.39-.87,2.34-.66l-.49-.96c-.66.24-1.04.87-1.75.46-2.29-1.31.68-3.78,1.88-1.42.62-1.07,1.09-2.03,1.68-3.11.83,1.4,1.87,1.7,1.08,3.59l1.92-.48c0-.36-.43-.27-.69-.62-.33-.45-1.3-2.06-.75-2.49.76.89,1.12-.27,2-.18.32.03,1.31.72,1.35.66-.14-.88.38-1.27.96-1.8.06-.12-1.21-.35-1.4-1.01-.83-2.8,4.58-2.16,1.64.89.81-.1,1.31.29,1.92.72,1.18-1.94-1.92-2.43-.7-4.18.24-.34.72-.24.7-.61-.93-.25-.79.84-1.6.91-.53.04-.82-.53-1.2-.6-.33-.06-3.02-.13-3.17-.05-.09.05-.26.84-.66.93-1.46-.49-.62-1.77.62-1.19-.4-1.32.64-1.03,1.42-1.33.29-.11.55-.51.89-.54.18-.02,1.2.4,1.25.48.27.43-.42,1.15.76.91l-.72-1.08.47-.12v-.35s-.73-.5-.73-.5c-.04-.49.85-.88.14-1.3-.17,1.26-2.98,2.05-3.43.55-.58-1.9,1.61-2.5,2.83-1.27.28-1.06.35-1.47-.6-2.16-.53,1.15-2.27,1.53-3.14.5-.33-.39-.17-.95-.57-.98-.23.57-.18,1.35-.41,1.87-.18.42-.76.11-.55.76,1.01.44,1.71,1.25,1.44,2.41l-1.42-.02c-.33-.73.1-1.77-.26-2.44-.27-.48-1.51-.34-1.4-1.43.14-1.48,1.39-1.45,2.36-.67l-.24-1.44.6.48.6-.72-1.68-.72c.08.48.31.64.02,1.08-1.2,1.89-4.03-1.16-2.43-2.76-.78.02-1.32-.4-1.8-.96l-.1.7c1.1.04,1.3.72,1.18,1.7-.95.45-1.68-.92-1.85-.96-.31-.07-3.02-.05-3.16.04-.08.05-.09.55-.41.66-.81.29-1.35-.44-.95-1.19.52-.75,1.52.33,1.57.25-.27-1.25,1-1.23,1.44-2.16-.95.23-2.01-1.2-1.88-1.99.08-.52.73-.79.68-1.37l-1.92-.72c.15.79-.57.97-.96,1.44,1.4.53,1.88.9,1.22,2.53-2.15.57-2.35-1.16-1.22-2.53-.99-.37-1.98-.12-1.92-1.68-.87.12-.88,1.54-1.1,1.7-.88.66-2.14-.09-1.32-1.13.06-.08,1.51-.89,1.69-.95.6-.21,1.05.42,1.68-.95-1.08-.05-2.13-.61-2.16-1.8-.75.34-.2,1.68-.81,2.18s-1.23.02-1.82-.02c.27,1.8-1.53,1.22-.74.14.18-.25.48-.16.74-.14ZM337.04,32.63l-.63-.69-1.04.46,1.68.23ZM334.88,32.63c-.74.08-1.3-.1-1.92-.48l-.24,1.2c.08.1.43-.38.65-.43.47-.11,1.39.16,1.51-.29ZM347.36,32.15h-.48v.24h.48v-.24ZM329.96,32.39v.24c.16-.08.16-.16,0-.24ZM351.92,33.11l-.48-.48v.48s.48,0,.48,0ZM331.28,33.59h-1.08s-.12.47-.12.47l.95.48.24-.96ZM341.84,33.83h-.48v.24h.48v-.24ZM313.04,34.31c-.7-.62-.26.85-.29,1.02-.06.4-.29.76-.43,1.13l1.68-.72c.13-.18-.58-.45-.74-.65s-.17-.74-.23-.79ZM316.76,34.31v.24c.16-.08.16-.16,0-.24ZM316.16,35.51l-.36-.48-.6.36.96.12ZM349.52,36.71l.24-1.44-1.19.6.95.84ZM316.52,35.51v.24c.16-.08.16-.16,0-.24ZM323.84,35.99v-.48h-.24v.48h.24ZM295.52,38.39h-.48v.24h.48v-.24ZM350.48,40.07c.15-.78-.29-1.35-.96-1.68l-.14.72,1.09.96ZM292.88,39.59l-.6-.71c-.66.45-.09.81.6.71ZM293.24,39.35v.24c.16-.08.16-.16,0-.24ZM347.36,39.59h-.96s0,.48,0,.48l.96-.24v-.23ZM276.29,40.58l-.92-.51-.24,1.44c.72.09,1.4-.05,1.16-.93ZM286.64,41.27c.08-.45-.28-.8-.72-.72v.96s.72-.24.72-.24ZM297.2,41.27v-.48h-.24v.48h.24ZM272,42.23h-.36s-.36.36-.36.36l.71-.12v-.24ZM347.84,43.43l-.36-.48h-.36s0,.48,0,.48h.72ZM348.2,43.43v.24c.16-.08.16-.16,0-.24ZM228.18,45.75c-.32-.35-.52-.83-.94-1.11l-.84,1.91,1.42.47.74-1.06c.08-.18-.26-.06-.38-.2ZM241.04,44.87h-.48v.72h.48v-.72ZM238.38,45.86c-.8-.43-.84-.05-1.18.69l1.2.24-.02-.93ZM248.96,46.79l-.12-.96-.6.72.72.24ZM259.76,46.07h-.48v.48h.48v-.48ZM346.28,47.03v.24c.16-.08.16-.16,0-.24ZM216.56,49.91l1.44-.36-.95-.6-.48.96ZM218.48,52.31v-.48h-.24v.48h.24ZM343.76,52.31v-.48h-.24v.48h.24ZM347.24,52.07v.24c.16-.08.16-.16,0-.24ZM227.36,57.35h-.48v.24h.48v-.24ZM341.96,59.04c-.24.17.13.33.24.47.24-.16-.11-.32-.24-.47ZM225.92,61.19l-.48.12.48.36v-.48ZM224.24,61.43h-.36c-.38.25-.42.52-.36.96h.72s0-.96,0-.96ZM344,64.31v-2.4s-.6.71-.6.71l-.6-.48.23.85.96,1.31ZM232.52,62.87v.24c.16-.08.16-.16,0-.24ZM229.04,64.31l.12-1.2-.6,1.08.48.12ZM340.4,63.59l-.36-.48h-.36s0,.48,0,.48h.72ZM230,63.35h-.48v.24h.48v-.24ZM232.04,66.23v.24c.16-.08.16-.16,0-.24ZM233.84,66.71v-.48h-.24v.48h.24ZM237.92,68.63l.12-.72-.6.24.48.48ZM235.28,70.55l-1.32-1.67-.6.6,1.91,1.08ZM339.92,70.56l-1.19-.37.48.84h.35s.36-.48.36-.48ZM243.68,73.43h-1.2c-.28.13,1.04.88,1.2,0ZM336.44,75.11v.24c.16-.08.16-.16,0-.24ZM338.48,79.91l.24-1.68c-.74.22-1,1.29-.24,1.68ZM248.96,78.47c-1.13.13-1.29.44-.36,1.2l.36-1.2ZM337.64,81.83v.24c.16-.08.16-.16,0-.24ZM337.16,82.07v.24c.16-.08.16-.16,0-.24ZM336.8,82.31h-.48v.24h.48v-.24ZM336.32,83.03h-.48v.48h.48v-.48ZM332.6,83.75v.24c.16-.08.16-.16,0-.24ZM336.8,86.87l.72-.6-1.19-1.32-.48,1.67c.3.11.66.14.95.25l.36.72.36-.36c-.17-.29-.48-.27-.72-.36ZM248.72,89.75l.12-.71-.84.24.36.48h.36ZM245.36,90.47l-.72-.72-.24.96.96-.24ZM239,93.35v.24c.16-.08.16-.16,0-.24ZM332.96,94.79c.31-.77.17-1.02-.72-.96l.24.96h.47ZM332.6,95.03v.24c.16-.08.16-.16,0-.24ZM236.72,96.47l-.48-.48-.24.6.72-.12ZM236.96,97.19l.12-.71-.36.36v.36h.24ZM234.08,97.2l-1.2-.48c-.27.79,1.88,1.26,1.2.48ZM232.28,97.91v.24c.16-.08.16-.16,0-.24ZM230.6,98.15v.24c.16-.08.16-.16,0-.24ZM330.56,102.47c1.32.57,1.62-.42.6-1.19l-.6,1.19ZM231.09,101.52l-.36.36.11.11c.13-.15.48-.31.24-.47ZM332.36,101.51v.24c.16-.08.16-.16,0-.24ZM224.72,104.15l-.36-.47-.36.36.72.12ZM221.84,105.83v-.48h-.24v.48h.24ZM218.6,105.59v.24c.16-.08.16-.16,0-.24ZM329.6,106.31v-.48h-.24v.48h.24ZM329.24,106.79v.24c.16-.08.16-.16,0-.24ZM329.24,109.67v.24c.16-.08.16-.16,0-.24ZM209.12,110.39l-.48.12.48.36v-.48ZM330.44,110.64c-.24.17.13.33.24.47.24-.16-.11-.32-.24-.47ZM209.13,111.59c-.5,1.19.01,2.03.95.84l-.95-.84ZM205.28,113.99l1.29.46c.81-.19.89-2.51-.7-.46l-.12-.48-.48.48ZM270.8,114.23l.36.48.59-.36-.36-.36-.6.24ZM274.64,114.71l-.12-.72-.36.36.47.36ZM282.08,114.23l-.95-.13-1.21,1.09,1.05-.23.62.71.48-1.44ZM328.4,114.47v-.48s-.48.36-.48.36l.48.12ZM264.92,116.39v.24c.16-.08.16-.16,0-.24ZM284.84,116.87v.24c.16-.08.16-.16,0-.24ZM204.32,117.35c-.45-.08-.8.28-.72.72h.72s0-.72,0-.72ZM261.32,117.36l-.36.36.36.36.36-.36-.36-.36ZM326.72,117.59c-1.53-.64-2.21.78-.51.94l.51-.94ZM197.6,119.51v-.36s-.48-.36-.48-.36v.72s.48,0,.48,0ZM266.17,120.31c-.27-.38-1.11-.88-1.6-.56.1.95,1.28.48,1.22,1.66l.7.02c.06-.06-.2-.95-.32-1.12ZM197.6,120.71l-.62-.7-.58.35,1.2.36ZM196.16,120.47c-.6.38-1.72-.03-2.02.03-.26.05-.3.52-.54.7-.26.19-.83.06-.79.46.64.16.97-.47,1.43-.61.58-.17,1.67.02,1.93-.59ZM262.88,120.95c-.23.07-1.71-.45-1.67.12.03.5,1.6.46,1.67-.12ZM259.76,122.39l.37-.96-.84.24v.36s.47.36.47.36ZM194.6,121.67v.24c.16-.08.16-.16,0-.24ZM190.16,122.15h-.36s-.36.48-.36.48h.72s0-.48,0-.48ZM199.04,123.35l-.36-.47-.36.36.72.12ZM295.52,124.79c.16-.3-.38-.84-.48-.72-.16.3.38.84.48.72ZM192.08,124.79v-.48h-.24v.48h.24ZM291.9,125.98l.43-1.07-.53-.59-1.32,1.67h1.41ZM324.44,124.79v.24c.16-.08.16-.16,0-.24ZM325.76,125.03h-.48v.24h.48v-.24ZM184.16,127.91c-.92.03-1.39-.74-1.8-1.44l-1.02,2.04,1.5,1.05,1.31-1.65ZM186.8,126.95s-.77-.25-.94-.13l-1.45,1.08c.62.49,2.97-.2,2.4-.96ZM193.4,128.39v.24c.16-.08.16-.16,0-.24ZM248.24,128.87l-1.44-.24c-.13.86,1.2.87,1.44.24ZM244.64,130.31h-.48s0,1.2,0,1.2h.23s.24-1.2.24-1.2ZM247.64,130.55v.24c.16-.08.16-.16,0-.24ZM183.21,130.79l-.12.96.6-.6-.47-.36ZM241.04,132.23l.22-.85-.57-.35-.36.6.72.6ZM319.4,131.03v.24c.16-.08.16-.16,0-.24ZM180.08,131.75v-.48h-.24v.48h.24ZM297.56,131.27v.24c.16-.08.16-.16,0-.24ZM177.92,133.19c-.33.15-1.81.28-1.68.84,1,1.08,1.65.45,1.68-.84ZM320.72,133.91h-.36s-.36.48-.36.48h.72s0-.48,0-.48ZM238.4,135.11v-.48h-.24v.48h.24ZM239.12,136.32c-.56-.06-.9-.4-.97-.96l-.94.84,1.8.6.12-.47ZM302.72,135.83h-.36s-.6.6-.6.6c.26.06,1.16-.5.95-.6ZM322.52,136.79v.24c.16-.08.16-.16,0-.24ZM171.32,137.75v.24c.16-.08.16-.16,0-.24ZM235.88,137.99v.24c.16-.08.16-.16,0-.24ZM172.4,138.71c-.36-.18-1.61.49-1.44.72l1.2.48.24-1.2ZM304.4,138.95c-.05-.05-1.14.4-1.32.48-.24.11-.48-.2-.36.47.65-.09.96.44,1.44.72l.24-1.68ZM169.4,139.67v.24c.16-.08.16-.16,0-.24ZM168.68,140.87v.24c.16-.08.16-.16,0-.24ZM229.64,140.87v.24c.16-.08.16-.16,0-.24ZM308.48,142.07l.24-.6-.95-.36c-.21.32.63,1.05.72.96ZM319.76,141.11c-1.12-.24-1.51.53-.6,1.19l.6-1.19ZM166.84,144.28l-.91-.77-.48,1.2,1.19.24.2-.67ZM224.12,143.75v.24c.16-.08.16-.16,0-.24ZM309.68,144.48l-1.2-.49c-.02.65-.5.79-.96,1.08l1.92.84.24-1.44ZM221.12,144.71l-.65-.21-.55.33.6,1.31.6-1.44ZM313.16,146.39v.24c.16-.08.16-.16,0-.24ZM157.28,148.79h-.48s.36.48.36.48l.12-.48ZM160.64,150.23h.36s.36-.36.36-.36l-.71.12v.24ZM217.16,149.75v.24c.16-.08.16-.16,0-.24ZM215.6,150.23l-.96-.24.48,1.92.48-1.68ZM157.88,150.23v.24c.16-.08.16-.16,0-.24ZM155.36,151.44c-.84.02-.92-.6-1.44-.96l-.48,1.56.55.32,1.21-.44.16-.48ZM211.52,152.15c.14-.14-.2-.71-.36-.71-.66,0,0,1.08.36.71ZM152.36,152.39v.24c.16-.08.16-.16,0-.24ZM155.84,154.79h-.48v.24h.48v-.24ZM207.08,156.47v.24c.16-.08.16-.16,0-.24ZM203.36,158.87l.37-1.19-.84.84.47.36ZM144.08,162.71l-.96-1.44c.07.64-.17,1.15-.48,1.68l1.44-.24ZM138.56,168.47c.31-.76-.02-1.18-.6-1.68l-.6,1.43,1.2.24ZM194.24,167.99c-1.53.15-2.73-.79-3.12,1.2l.6-.49c1.76.94,1.02.24,1.65-.25.33-.25.89-.05.86-.46ZM134.12,168.95v.24c.16-.08.16-.16,0-.24ZM133.64,169.19v.24c.16-.08.16-.16,0-.24ZM190.16,169.19h-.48v.24h.48v-.24ZM189.44,170.15h-.48v.24h.48v-.24ZM135.45,172.31l.71-.6-.36-.36-.36.96ZM133.28,173.51l-.72-1.2-.48,1.2h1.2ZM184.36,175.01l-1.16-.77-.72,1.2c.7.05,1.03.37,1.32.96l.56-1.39ZM180.8,175.91l-.59-.47-.36,1.2.96-.72ZM177.21,177.59c.09.12.64-.42.48-.72-.09-.12-.64.42-.48.72ZM127.52,177.59c-.7-.17-.61.8-.96,1.2h1.2s-.24-1.2-.24-1.2ZM125.12,179.03h-.48s.36.48.36.48l.12-.48ZM178.88,181.67c.49-.61-1.6-1.87-1.92-1.08l1.92,1.08ZM128.6,181.67v.24c.16-.08.16-.16,0-.24ZM125.36,182.63c.16-.3-.38-.84-.48-.72-.16.3.38.84.48.72ZM172.29,182.16l-.36.36.11.11c.13-.15.48-.31.24-.47ZM175.52,182.15h-.48s.36.48.36.48l.12-.48ZM122.48,184.31l-.6-1.19-.6.95,1.2.24ZM166.88,189.59c-.1-.86-.26-1.34.13-2.15l-.85.36.72,1.8ZM116.96,189.59c.15-.14,0-1.35-.6-1.2-.12.03-.6.79-.6.84,0,.32,1.06.49,1.19.36ZM163.28,188.63h-.36s-.36.48-.36.48l.72.24v-.72ZM164.96,192.23c-.66.09-1.58-.65-1.92.23.51.04,1.62.42,1.92-.23ZM161.24,193.19v.24c.16-.08.16-.16,0-.24ZM111.68,195.35c-.07-.39.34-.87.13-1.2-.57-.88-2.6.68-.13,1.2ZM154.52,194.87v.24c.16-.08.16-.16,0-.24ZM158.36,196.07v.24c.16-.08.16-.16,0-.24ZM108.32,199.19c.16.15.95-.11.95-.36,0-.72-1.41-.07-.95.36ZM152.96,198.95l-1.2.47.6.48.6-.96ZM149,200.39v.24c.16-.08.16-.16,0-.24ZM149.72,202.79v.24c.16-.08.16-.16,0-.24ZM150.56,203.99h-.48v.24h.48v-.24ZM100.88,205.91c-.05-.55.52-1.04-.12-1.43l-1.32.83c.36.42.88.65,1.43.6ZM143.72,205.67v.24c.16-.08.16-.16,0-.24ZM147.56,206.87v.24c.16-.08.16-.16,0-.24ZM98.33,208.71c-.19-.2-.24-.6-.56-.63l-.47,1.32.83.54.83-.78c-.15-.22-.45-.26-.63-.45ZM101.6,209.03v-.48h-.24v.48h.24ZM146,208.55l-1.44.84.72.6.72-1.44ZM138.44,210.95v.24c.16-.08.16-.16,0-.24ZM93.8,214.31v.24c.16-.08.16-.16,0-.24ZM135.8,215.52l-.11.11.6.6.11-.11-.6-.6ZM93.56,217.43v.24c.16-.08.16-.16,0-.24ZM137.12,217.91l-.48-.48v.48s.48,0,.48,0ZM91.52,218.63l-1.44.71.97.13.47-.84ZM137.6,219.35h-.48v.24h.48v-.24ZM88.64,223.19l-.72-.96-.48,1.44,1.2-.48ZM125.6,226.55v-.48h-.24v.48h.24ZM81.92,228.95c.53.04,1.09-.16,1.41-.59l-.81-1.32-.6,1.92ZM130.64,230.39c.12-.1-1.25-2.03-1.34-2.39-.09-.41.36-.98-.1-.96-1.12,1.92.66,1.85.48,3.6l.96-.24ZM125.72,229.2c-.23.27.6.67.84.6l-.84-.6ZM77.9,234.3c.11-.17.64-.25.66-.42.03-.3-1.38-1.44-1.31-2.04l-.84,2.64c.56.02,1.31-.27,1.2.48h.23c.01-.21-.05-.48.06-.65ZM81.2,233.51c.44-1.4-.28-1.49-1.19-.6l1.19.6ZM78.68,237.59v.24c.16-.08.16-.16,0-.24ZM74.72,238.79l-.36-.72-.36.36v.36s.72,0,.72,0ZM119.12,240.23c.02-.54.13-1.09-.36-1.43l-.33.56.45.88h.23ZM115.76,240.47c.2-.16.27-1.09-.35-.96-.74.16-.08,1.3.35.96ZM117.92,242.87c-.12-1.04-2.39.2-2.39.36.21.48,1.04.26,1.17.39.16.17-.2.77.26.69.05-.56.29-1.43.96-1.44ZM113.24,244.55v.24c.16-.08.16-.16,0-.24ZM71.59,246.25l-1.18-.98c-.05,1.04-.4,1.51.6,2.16l.58-1.18ZM74.48,246.23v-.48h-.24v.48h.24ZM111.92,248.15l-.96.24.24.72h.48s.24-.96.24-.96ZM72.08,250.07v-.48h-.24v.48h.24ZM65.96,253.19v.24c.16-.08.16-.16,0-.24ZM106.16,253.43c-.78-.28-1.02-.2-.96.72h.36s.6-.72.6-.72ZM66.08,255.59c.27.36,1.32-.01,1.2-.6-.18-.85-1.71-.08-1.2.6ZM64.64,260.15l-.36-.96-.6.72.96.24ZM101.84,263.27v-.72h-.24v.72h.24ZM98.48,263.99l-.12-.72-.36.36.47.36ZM60.08,264.47h-.48s0,.48,0,.48l.48-.48ZM100.16,266.16l-1.19-.48-.46,1.05.45.52.72-.13-.48-.72.96-.24ZM57.2,270.23c.01-.61.88-1.16.13-1.68l-.84,1.32.71.36ZM56.24,269.51h-.72v.24h.72v-.24ZM98.24,270.23l-.96.12.6.36.36-.48ZM61.16,271.19v.24c.16-.08.16-.16,0-.24ZM94.16,271.43h-.48v.24h.48v-.24ZM57.32,272.39v.24c.16-.08.16-.16,0-.24ZM55.28,276.47l.6.71c.47-.35.49-.58,0-.95l-.6.24ZM50,279.83l-.71.36.95,1.32-.96.6,1.44.84.42-1.08c-.53-.64-1.2-1.1-1.14-2.04ZM54.08,280.55l-.72-.24c-.08.35.1.5.36.72h.36s0-.47,0-.47ZM93.44,280.55l-.71-.12.36.36h.36v-.24ZM92.24,282.95c-1.03-.38-1.02.71-1.67.86-.36.08-.84-.92-.97.34.96-.16.77.96,1.68.72,0-.31-.02-.67.12-.96.25-.51,1.01-.25.84-.96ZM49.16,285.83v.24c.16-.08.16-.16,0-.24ZM83.6,292.79h-.72s0,.35,0,.35l.36.36.36-.72ZM86.48,293.51v-.48h-.24v.48h.24ZM47.01,293.27l-.6.6.36.6c.45.1.6-.58.83-.84l-.59-.36ZM44.78,297.79c-.19-.17-.02-.86-.54-.91l-.48,1.44,1.44.24.24-.72c-.19,0-.52.07-.66-.05ZM81.68,297.11l-1.2.36.58.35.62-.7ZM82.16,301.91c.65-1.14.27-1.78-.95-2.16l-.72,1.44,1.68.72ZM79.16,304.31v.24c.16-.08.16-.16,0-.24ZM80.96,304.55h-.48v.24h.48v-.24ZM80,306.23l-.6-1.44-.34.7.94.74ZM79.04,308.63l-1.92-.24.48,2.16c.42-.1.28-.78.6-1.2.29-.39.8-.32.84-.72ZM74.36,310.79v.24c.16-.08.16-.16,0-.24ZM76.76,312.95v.24c.16-.08.16-.16,0-.24ZM75.68,314.16l-1.2-.48,1.08.96.12-.47ZM36.26,313.98c-.3-.13-.59-.07-.9-.07v.72c.39.04.8-.22.72.36-.1.78-.81.56-.96,1.08,2.13-.13.79,1.95,2.16,2.64.5-1.32-1.27-1.93-.71-3.6l.71-.12c-.29-.09-.95-.98-1.02-1.01ZM39.56,314.15v.24c.16-.08.16-.16,0-.24ZM76.64,316.31l-.6-.48-.6,1.2,1.2-.72ZM40.64,317.27h-.36s-.36.48-.36.48h.72s0-.48,0-.48ZM76.86,317.53l-.7.1c.2.49.44.56.84.84l-.14-.94ZM71.6,321.83h-.48s0,.48,0,.48l.48-.48ZM33.67,326.4l-1.67-.97v2.16s1.2-.48,1.2-.48l-.72.6.71.36.48-1.67ZM33.92,330.71l-.24-.72h-.23s0,.72,0,.72h.48ZM66.92,333.83v.24c.16-.08.16-.16,0-.24ZM68,334.55v-.72s-.24,0-.24,0l-.24.72h.48ZM64.88,334.79h-.48s0,.48,0,.48l.48-.48ZM69.44,336.47c-.78-.12-.94.69-1.68.84l1.32,1.56.36-2.4ZM32.49,337.19c-.06.44-.01.7.36.96.03-.37.09-.89-.36-.96ZM65.36,338.39l-.48-.48v.48s.48,0,.48,0ZM30.32,342.47l.49-1.07-.72-.37-.25,1.32.48.12ZM65.48,341.51v.24c.16-.08.16-.16,0-.24ZM65.12,345.11l-1.2-.24.6,1.19.6-.95ZM29.36,346.07c-.64.56-1.57-.39-1.92.48l1.68.48.24-.96ZM32.49,348.95l.95-.36c-.25-.37-.51-.42-.95-.36v.72ZM61.76,350.15v-.48h-.24v.48h.24ZM37.52,352.07l-.36-1.44-.36.38.03.42.69.64ZM43.76,352.55c.48.07.94-.03.96-.6l-.36-.36-.6.6v.36ZM40.88,353.51l.12-1.68c-.01.46-1.17,1.85-.12,1.68ZM63.44,354.47l.48-1.92-1.44.96.96.96ZM48.81,354.23l.47-.36-.71-.6.24.96ZM52.4,353.75h-.48s.36.48.36.48l.12-.48ZM59.84,354.23v-.48h-.24v.48h.24ZM57.2,354.95c-.95.19-1.69-.14-2.16.96.84-.05,2.35.42,2.16-.96ZM49.28,355.67v-.48h-.24v.48h.24ZM54.56,355.92l-1.92-.72,1.32,1.68.6-.96Z"/>
    <polygon class="cls-4" points="134.72 222.23 134.96 222.23 134.84 222.47 134.72 222.23"/>
    <path class="cls-4" d="M113.12,187.19h-.72c-.17-.49.36-.82.41-1.12.1-.62.02-1.17.2-2.12.04-.21-.23-.66-.12-.82.06-.08.83-.39,1.08-.02.12.17-.05.52.03.72.32.76,1.05,1.34.09,2.24-.23.22-.6.12-.68.2-.17.19,0,.54-.05.68-.08.07-.2.16-.24.24Z"/>
    <path class="cls-4" d="M204.09,109.43l-.23.61c-2.41.41-1.31-2.35.46-.85-.08-.33,1.72-1.61,1.86-1.65.94-.27,1.68.78,1.05,1.55-.06.07-1.54,1-1.64,1.02-.88.25-1.34-.81-1.5-.68Z"/>
    <path class="cls-4" d="M112.34,188.22c1.36,1.22-.65,3.13-2,2.36-1.13-1.29.64-3.58,2-2.36Z"/>
    <path class="cls-4" d="M145.47,213.17c.77.77.2,2.27-1.03,2.24-.07,0-1.41-.29-1.44-.36-.92-1.58,1.49-2.87,2.47-1.88Z"/>
    <path class="cls-4" d="M215.07,43.71c.97-.12,1.53.58,1.22,1.48-.13.4-1.72,1.14-2.14,1.02-1.74-.91-.64-2.3.91-2.5Z"/>
    <path class="cls-4" d="M116.17,182.68c2.89-.87,2.29,3.32.14,2.41-1.06-.45-1.12-2.12-.14-2.41Z"/>
    <path class="cls-4" d="M233.56,142.6c.98,1.69-3.62,2.65-2.79-.11.35-1.18,2.42-.52,2.79.11Z"/>
    <path class="cls-4" d="M51.62,275.81c.42.42.49,2.31-.66,2.25-1.53-.09-2.24-.93-1.34-2.33.45-.36,1.64-.29,2.01.08Z"/>
    <path class="cls-4" d="M84.56,224.63c-.61-.46-1.04.23-1.52.19-1.3-.09-1.69-2.35-.18-2.63l-.21-.44c1.48.25,1.74,1.53,1.92,2.88Z"/>
    <path class="cls-4" d="M268.81,37c2.85-.85,2.9,2.64.08,2.24-.87-.44-1.09-1.94-.08-2.24Z"/>
    <path class="cls-4" d="M236.24,93.35c-.55.32-1.45-.42-1.56-.42-.25,0-.56.67-.82.77-.73.29-2.85-1.2-2.41-1.55,1.08.32.91-.81,1.93-.62.94.17.85.77,1.2.97.48.28,1.43-.03,1.67.84Z"/>
    <path class="cls-4" d="M28.58,336.29c.82.81-.24,3.57-1.85,2.21-.46-.39-.56-1.31-.19-1.73.15-.17.52-.15.73-.29.23-.16.47-1.03,1.31-.18Z"/>
    <path class="cls-4" d="M169.46,134.21c.85.85-.34,1.34-.52,1.63-.3.49-.1,1.36-1,1.44l-.73-.23c-1.1-1.43.35-1.25.57-1.51.09-.1.36-2.65,1.67-1.33Z"/>
    <path class="cls-4" d="M248.06,40.13c.82-.82,2.29-.28,2.09,1.24-.32,2.49-3.56.22-2.09-1.24Z"/>
    <path class="cls-4" d="M285.71,34.58c2.24-.45,2.61,3.03.33,2.61-1.23-.23-.8-1.89-.33-2.61Z"/>
    <path class="cls-4" d="M352.05,27.69c1.13.05,1.67,2,.37,2.44-2.16.72-2.26-2.52-.37-2.44Z"/>
    <path class="cls-4" d="M106.1,260.92c2.27-.46,1.95,2.95-.25,2.32-.92-.27-1.04-2.05.25-2.32Z"/>
    <path class="cls-4" d="M340.8,27.87c2.2-.76,2.54,2.79.21,2.37-1.07-.19-1.06-2.07-.21-2.37Z"/>
    <path class="cls-4" d="M143.52,155.8c1.71-.33,2.11,2.42.44,2.59-1.82.18-1.59-2.37-.44-2.59Z"/>
    <path class="cls-4" d="M336.64,95.44c-1.51-2.04,3.15-3.38,1.73.8-.19.59-1.61-.64-1.73-.8Z"/>
    <path class="cls-4" d="M61.22,254.2c2.23-.45,1.98,2.94-.19,2.26-1.11-.35-1.04-2.01.19-2.26Z"/>
    <path class="cls-4" d="M189.4,173.55c.66.42.6,2.12-.62,2.32s-1.34-1.28-1.74-2.12l2.36-.2Z"/>
    <path class="cls-4" d="M351.62,46.37l.27,1.45-1.29,1.13c-1.62-1.19-1.26-3.67,1.02-2.58Z"/>
    <path class="cls-4" d="M164.48,138.71c-.54.73.2,1.42-.12,2.15-.67,1.54-2.96.37-1.91-1.18.16-.24,1.82-1.15,2.03-.97Z"/>
    <path class="cls-4" d="M304.4,146.39c-3.55-1.01-.22-4.69.63-1.93.28.91-.72,1.01-.63,1.93Z"/>
    <path class="cls-4" d="M323.18,30.05c1.24-1.24,2.99,1.17,1.62,1.98s-2.52-1.09-1.62-1.98Z"/>
    <path class="cls-4" d="M333.26,105.41c.17-.16.52-.15.73-.29s.16-.46.18-.48c.3-.19,1.86,1.16.82,2.38-1.1,1.3-2.66-.71-1.73-1.62Z"/>
    <path class="cls-4" d="M286.03,124.39c.04-.1.37,0,.25-.56.44.33,1.05.29,1.43.72,1.75,1.95-3.15,3.27-1.68-.16Z"/>
    <path class="cls-4" d="M342.32,81.85c-.04,1.59-1.63,2.43-2.6,1.01-.17-.62.24-1.23.67-1.63l1.93.62Z"/>
    <path class="cls-4" d="M224.18,148.37c1.26,1.26-1.62,3.35-2.09,1.25-.32-1.42,1.46-1.88,2.09-1.25Z"/>
    <path class="cls-4" d="M289.7,33.63c.35-.09.66-.06.94.19.61.7.2,2.33-.76,2.42l-.73-.23c-.73-.6-.31-2.15.56-2.39Z"/>
    <path class="cls-4" d="M260.72,126.23c.08,2.15-3.21,2.69-2.83.63.23-1.26,1.99-.65,2.83-.63Z"/>
    <path class="cls-4" d="M198.73,114.06c.22.18,1.28,1.59,1.03,1.85-.44.18-.87-.4-1.08-.39-.16,0-.35.29-.54.34-1.95.49-1.55-3.52.59-1.79Z"/>
    <path class="cls-4" d="M208.68,108.2v-1.85c2.93-1.22,2.92,3.08,0,1.85Z"/>
    <path class="cls-4" d="M299.84,140.63c-.66-.37-1.75-.25-2.18-.83-1.19-1.59,3.05-2.86,2.18.83Z"/>
    <path class="cls-4" d="M330.35,116.9c2.13-.5,2.26,2.65.34,2.37-1.31-.19-.77-1.58-.34-2.37Z"/>
    <path class="cls-4" d="M218.66,155.21c-.54.55-1.61.18-1.55-.74.07-1,.99-.63,1.31-.94.17-.16.17-.95.66-1.13.35.29.66.57.61,1.06-.01.1-.96,1.68-1.03,1.75Z"/>
    <path class="cls-4" d="M71.86,332.4c2.12-.06,2.55,2.77.35,2.39-1.36-.23-.71-1.55-.35-2.39Z"/>
    <path class="cls-4" d="M348.5,58.13c1.09,1.07-.88,2.76-1.88,1.52-.91-1.11.81-2.58,1.88-1.52Z"/>
    <path class="cls-4" d="M313.57,156.41c-.46-.43-.08-2.39,1.15-2,2.15.67.15,3.23-1.15,2Z"/>
    <path class="cls-4" d="M327.35,128.41c.57.09,1.19.47,1.3,1.07.47,2.7-3.91,1.21-1.3-1.07Z"/>
    <path class="cls-4" d="M235.52,40.31c0,.88,1.42,1.72.23,2.51-1.95,1.29-2.41-1.94-.23-2.51Z"/>
    <path class="cls-4" d="M214.58,154.59c1.12-.15,1.97,2.09.37,2.32s-1.8-2.13-.37-2.32Z"/>
    <path class="cls-4" d="M345.39,27.17c.66.75-.37,2.96-1.62,1.73s.69-2.77,1.62-1.73Z"/>
    <path class="cls-4" d="M66.73,246.06c.41.49-.03,1.26.54,1.73h-1.92c-1.32-1.31.22-3.11,1.37-1.73Z"/>
    <path class="cls-4" d="M98.42,278.69c.59.59.08,1.79-.9,1.52-.6-.17-1.09-1.7-1.67-2.3.4-.51,2.24.44,2.58.78Z"/>
    <path class="cls-4" d="M102.77,269.78c.2.12.32,1.59.35,1.94.02.39.36.55-.2.91l-.37-.95c-1.89.48-1.98-2.41.22-1.89Z"/>
    <path class="cls-4" d="M272.57,38.25c-.17.12.02.61-.33.26-1.47-1.44-.56-3.16.85-2.3,1.29.79.22,1.48-.53,2.03Z"/>
    <path class="cls-4" d="M133.28,163.67c.83.2.89-.64,1.2-.84.71-.46,1.55.12,1.9.76-.53,1.61-2.18,1.1-3.1.09Z"/>
    <path class="cls-4" d="M28.33,329.07c.92-.26,1.86.78,1.24,1.74-1.13,1.74-2.92-1.27-1.24-1.74Z"/>
    <path class="cls-4" d="M39.37,297.15c.77-.24,1.29.08,1.46.84l-1.02,1.46-1.24-1.01c.1-.48.3-1.13.8-1.29Z"/>
    <path class="cls-4" d="M124.35,172.86s.75.71.78.75c.89,1.18-.96,2.26-1.65,1.18s.53-1.15.2-1.99c.23,0,.45-.05.67.07Z"/>
    <path class="cls-4" d="M319.8,152.67c.37-.59,2.76-.33,2.01,1.17-.61,1.22-2.9.25-2.01-1.17Z"/>
    <path class="cls-4" d="M177.13,127.71c1.37-.39,1.84,1.76.88,2.1-1.51.53-2.08-1.76-.88-2.1Z"/>
    <path class="cls-4" d="M83.81,309.56l-1.71.47-.54-.44c-.27-.52-.1-1.02.37-1.33.7-.46,2.3.56,1.88,1.3Z"/>
    <path class="cls-4" d="M333.2,109.43c-.35-1.95,2.82-.91,2.9-.12-.34,2.05-1.78-.32-2.9.12Z"/>
    <path class="cls-4" d="M154.09,145.46c1.2-.3,2.23,1.71.86,2.09s-2.14-1.78-.86-2.09Z"/>
    <path class="cls-4" d="M192.74,174.41l-.57.24c-3.89-1.8,1.41-3.49.57-.24Z"/>
    <path class="cls-4" d="M309.5,31.01c1.23-1.28,2.82,2.01.54,1.88-1.1-.06-1.08-1.32-.54-1.88Z"/>
    <path class="cls-4" d="M68.75,346.58c-.12.1.14.55-.27.45-.71-2.61,2.18-3.54,1.8-.72-.43.7-1.43.18-1.53.27Z"/>
    <path class="cls-4" d="M239.06,40.37c.56.54-.05,1.27-.2,1.85l-1.56-.45c-.62-1.24.83-2.29,1.76-1.4Z"/>
    <path class="cls-4" d="M208.81,49.48c1.76-.53,1.67,1.95.39,2.06s-1.45-1.74-.39-2.06Z"/>
    <path class="cls-4" d="M146.97,153.58l1.19.13c.47.25-.02.57-.37.62-.97.14-1.53-.7-2.52-.49v-1.44s1.46.1,1.46.1l.23,1.09Z"/>
    <path class="cls-4" d="M32.93,317.79c.73,1.16-1.05,2.58-1.77,1.41-.85-1.39,1.28-2.17,1.77-1.41Z"/>
    <path class="cls-4" d="M348.51,26.21c.36.38.56,1.81.29,2.34-.37.08-.21-.41-.48-.59-.75-.5-2.13.12-1.2-1.7.32-.33,1.07-.4,1.39-.06Z"/>
    <path class="cls-4" d="M117.92,180.23c-.06.27-.1.54-.22.79-.33.48-3.5.79-2.56-.81.26-.35,1.53-.46,1.34.25.73-.67.77-.38,1.44-.24.06-.27-.07-.66.05-1.02.36-1.11,1.68-.69,2.07.22l-.6,1.01c-.65.22-1.01-.09-1.52-.2Z"/>
    <path class="cls-4" d="M260.24,37.19v1.44s-2.37-.02-2.37-.02c-.4-1.1-.27-1.63,1.04-1.41.6.1.59.74,1.33,0Z"/>
    <path class="cls-4" d="M263.06,125.33c.92.88-.74,2.42-1.64,1.28-1-1.26.7-2.19,1.64-1.28Z"/>
    <path class="cls-4" d="M220.61,61.88c-.7,1.12-3.35-.63-1.4-1.52,1.29-.59,1.89.73,1.4,1.52Z"/>
    <path class="cls-4" d="M65.47,356.21l1.47.4c.52,1.3-.75,2.37-1.7,1.22-.2-.37-.27-1.53.23-1.62Z"/>
    <path class="cls-4" d="M56.9,359.81c.43.42.26,1.4-.41,1.52-3,.06-1.04-2.95.41-1.52Z"/>
    <path class="cls-4" d="M337.25,102.68c-.3.47-2.38.31-2.1-.76.46-1.72,2.93-.55,2.1.76Z"/>
    <path class="cls-4" d="M128.89,232.35c.96-.27,1.58.64,1.04,1.54-1.04,1.73-2.68-1.08-1.04-1.54Z"/>
    <path class="cls-4" d="M292.44,132.99c1.18-.74,2.62,1.04,1.16,1.77s-1.78-1.39-1.16-1.77Z"/>
    <path class="cls-4" d="M163.69,196.36c1.82-.54,1.82,2.37,0,1.83-.87-.26-.88-1.57,0-1.83Z"/>
    <path class="cls-4" d="M121.2,241.94c1.67-.56,2.3,2.17.46,1.9-.99-.15-1.19-1.65-.46-1.9Z"/>
    <path class="cls-4" d="M170.78,190.61c.94-.82,3.67-.79,2.18.89h-2.1s-.27-.47-.27-.47c.07-.13.09-.33.19-.42Z"/>
    <path class="cls-4" d="M99.61,274.11c1.36-.38,2.06,2.01.19,1.91-1.33-.07-.98-1.69-.19-1.91Z"/>
    <path class="cls-4" d="M344.24,79.19c-.76.12-1.4.41-2.13-.03-.24-2.32,1.89-2.15,2.13.03Z"/>
    <path class="cls-4" d="M108.74,189.65c1.02,1.84-1.15,1.51-2.34,1.62,1-.54.47-1.65,1.6-1.86l.74.24Z"/>
    <path class="cls-4" d="M331.25,28.1c.6.38.26,2.88-1.31,1.67-1.08-.83.42-2.23,1.31-1.67Z"/>
    <path class="cls-4" d="M24.01,348.51c1.54-.43,1.94,2.42,0,1.84-.89-.26-.86-1.6,0-1.84Z"/>
    <path class="cls-4" d="M112.58,256.13c.97.96-.89,2.38-1.5,1.13-.34-.7.32-1.16-1.08-.95.13-.59,2.35-.41,2.58-.18Z"/>
    <path class="cls-4" d="M282.24,33.13c.22-.04,2.49,1.43,1.54,2.03-.83.58-3.06-1.46-1.54-2.03Z"/>
    <path class="cls-4" d="M28.22,322.6c.22-.16,1.82-.6,2.11-.42,1.69,1.08-2.18,2.14-2.34.97,0-.05.18-.52.24-.56Z"/>
    <path class="cls-4" d="M242.66,86.81c-.62.64-1.83-.03-1.58-.97.09-.35.73-.63.69-1.13l1.17.88c.1.31-.05.99-.28,1.22Z"/>
    <path class="cls-4" d="M94.46,204.53c1.03-1.01,2.55.47,1.28,1.4-1.07.79-2.08-.6-1.28-1.4Z"/>
    <path class="cls-4" d="M127.95,169.48l.05,1.39c-2.87.09-3.07-2.36-.05-1.39Z"/>
    <path class="cls-4" d="M346.09,65.79c1.32-.37,1.75,1.54.62,1.85-1.32.37-1.75-1.54-.62-1.85Z"/>
    <path class="cls-4" d="M339.37,89.31c1.32-.37,1.75,1.54.62,1.85-1.32.37-1.75-1.54-.62-1.85Z"/>
    <path class="cls-4" d="M194.06,116.57c-.63-.62.02-1.83.97-1.58,1.73.45.33,2.85-.97,1.58Z"/>
    <path class="cls-4" d="M36.73,355.23c1.32-.37,1.75,1.54.62,1.85-1.32.37-1.75-1.54-.62-1.85Z"/>
    <path class="cls-4" d="M234.24,73.46c1.41-.46,2,2.21.21,1.91-.98-.17-.99-1.65-.21-1.91Z"/>
    <path class="cls-4" d="M229.93,92.67c1.32-.37,1.75,1.54.62,1.85-1.32.37-1.75-1.54-.62-1.85Z"/>
    <path class="cls-4" d="M80.66,223.73c1.04,1.02-.76,2.05-1.86,1.38l.72-1.57c.33-.17.89-.05,1.14.2Z"/>
    <path class="cls-4" d="M276.54,35.05v1.89c-1.15.14-2.27-.59-1.32-1.69l1.32-.2Z"/>
    <path class="cls-4" d="M84.08,305.75v.72c-.12.14-1.04-.76-.67-1.4,1.12-1.03,2.84-1.14,1.76.71l-1.09-.03Z"/>
    <path class="cls-4" d="M239.06,141.53c-.95.95-2.31-.57-1.28-1.4s2.12.56,1.28,1.4Z"/>
    <path class="cls-4" d="M309.84,152.42c1.25-.41,1.82,1.52.63,1.86-1.32.37-1.56-1.56-.63-1.86Z"/>
    <path class="cls-4" d="M312.62,31.61c-.84-.84.29-2.19,1.28-1.4s-.33,2.35-1.28,1.4Z"/>
    <path class="cls-4" d="M318.08,156.23v.72c1.11-.6,2.02.61,1.06,1.42-.92.3-2.83-1.94-1.06-2.14Z"/>
    <path class="cls-4" d="M283.76,121.67l-.72.24c-.08.06,1.05.96.14,1.7-2.38.72-1.41-2.3.58-1.94Z"/>
    <path class="cls-4" d="M251.06,132.77c.82.8-.51,2.38-1.4,1.28-.78-.97.54-2.12,1.4-1.28Z"/>
    <path class="cls-4" d="M133.52,228.95c-.02-.38.07-.75.22-1.09,1-2.32,3.34,1.48-.22,1.09Z"/>
    <path class="cls-4" d="M68.9,352.37l.3,1.62-1.44-.11c-.96-1.02-.09-2.24,1.14-1.52Z"/>
    <path class="cls-4" d="M340.71,85.25c.83-.79,2.3-.02,1.75,1.15-.43.62-2.84-.12-1.75-1.15Z"/>
    <path class="cls-4" d="M333.86,114.41c-.89.9-2.22-.41-1.32-1.32s2.22.41,1.32,1.32Z"/>
    <path class="cls-4" d="M24.82,354.22l-.23-1.75c1.17-1.17,1.69.23,1.38,1.37l-.35.37h-.8Z"/>
    <path class="cls-4" d="M327.14,137.93c-.96.98-2.63-1-.9-1.52,1.05-.32,1.56.85.9,1.52Z"/>
    <path class="cls-4" d="M330.5,124.85c.9.9-.42,2.21-1.32,1.32s.42-2.21,1.32-1.32Z"/>
    <path class="cls-4" d="M152.54,208.49c-.65-.67-.15-1.84.9-1.52,1.72.52.06,2.51-.9,1.52Z"/>
    <path class="cls-4" d="M36.02,307.37c-.54.55-1.84.15-1.52-.91.5-1.63,2.6-.2,1.52.91Z"/>
    <path class="cls-4" d="M74.31,328.85c.65-.67,2.12.15,1.5,1.14s-2.58-.05-1.5-1.14Z"/>
    <path class="cls-4" d="M221.54,42.29c.55.55.14,1.84-.91,1.52-1.71-.53-.07-2.49.91-1.52Z"/>
    <path class="cls-4" d="M322.46,149.69c-.54-.54-.14-1.66.74-1.56,1.82.22.47,2.75-.74,1.56Z"/>
    <path class="cls-4" d="M46.1,282.9c-.95.99-2.7-1.67-.78-1.65.9.01,1.34,1.06.78,1.65Z"/>
    <path class="cls-4" d="M288.5,127.73c1.19,1.21-1.33,2.57-1.56.74-.11-.88,1.02-1.28,1.56-.74Z"/>
    <path class="cls-4" d="M84.08,220.79c-.78-.24-3.17.65-2.62-1.05.37-1.13,2.29.46,2.62,1.05Z"/>
    <path class="cls-4" d="M208.6,46.36l.5,1.22c-2.09,2.33-2.2-2.19-.5-1.22Z"/>
    <path class="cls-4" d="M89.51,209.77l.82.09c.74.63.4,1.91-.6,1.82l-.57-.41c-.08-.43-.18-1.33.35-1.51Z"/>
    <path class="cls-4" d="M70.85,239c-.38.61-2.39-.1-1.43-1.31.91-1.14,1.99.41,1.43,1.31Z"/>
    <path class="cls-4" d="M214.46,101.34c.74-.74,2.07.48,1.4,1.28-.91,1.1-2.2-.47-1.4-1.28Z"/>
    <path class="cls-4" d="M280.16,33.83c-.65.68.07,1.33-.83,1.93-.81.55-1.38-.66-.98-1.23l1.81-.71Z"/>
    <path class="cls-4" d="M240.59,40.76c-.59-.67.39-2.2,1.3-1.44,1.21,1-.62,2.22-1.3,1.44Z"/>
    <path class="cls-4" d="M210.05,161.72c-.62.39-2.21-.38-1.43-1.31,1.05-1.27,2.16.85,1.43,1.31Z"/>
    <path class="cls-4" d="M94.1,287.09c.52.51.06,1.07-.22,1.57l-.93-.06-.19-1.54c.4-.21,1-.32,1.35.03Z"/>
    <path class="cls-4" d="M177.61,184.59c1.2-.35,1.32,1.17.81,1.54-1.25.88-2.16-1.15-.81-1.54Z"/>
    <path class="cls-4" d="M88.47,295.73c.7-.69,1.97,0,1.51.9-.6,1.16-2.47.04-1.51-.9Z"/>
    <path class="cls-4" d="M127.73,236.91c.4.25.34,1.39-.37,1.61-1.78.53-1.1-2.55.37-1.61Z"/>
    <path class="cls-4" d="M49.46,358.61c.57.57.02,1.98-.9,1.51-1.15-.59-.05-2.46.9-1.51Z"/>
    <path class="cls-4" d="M269.11,123.1v-.95c1.58,1.37-1.3,4.07-1.09,1.18l1.09-.23Z"/>
    <path class="cls-4" d="M52.34,269.94c-.79.84-2.16-.86-.9-1.51.89-.46,1.58.79.9,1.51Z"/>
    <path class="cls-4" d="M242.18,139c.41-.04.51-.06.77.31-1.08,3.08-3.3-.05-.77-.31Z"/>
    <path class="cls-4" d="M354.96,27.15c.75-.14,1.51,1.06.82,1.53-1.35.94-2.06-1.31-.82-1.53Z"/>
    <path class="cls-4" d="M355.32,31.64c-.79-1.31,1.5-1.95,1.65-.55.13,1.18-1.47.86-1.65.55Z"/>
    <path class="cls-4" d="M216.06,58.34c.2.99-.1,1.75-1.19,1.31l-.46-1.58,1.65.26Z"/>
    <path class="cls-4" d="M227.54,95.21c-.86.86-2.22-.51-1.15-1.27.74-.53,1.93.5,1.15,1.27Z"/>
    <path class="cls-4" d="M28.94,355.62c-.83-.86.54-2.33,1.27-1.15.58.93-.69,1.74-1.27,1.15Z"/>
    <path class="cls-4" d="M159.6,140.66c.32-.1.97-.11,1.18.19.21.49.22,1.12-.26,1.46l-1.2-.72-.12-.36c-.04-.27.16-.49.41-.57Z"/>
    <path class="cls-4" d="M200.04,168.2l.19-1.3c.5-.21,1.12-.22,1.46.26l-.72,1.21-.92-.17Z"/>
    <path class="cls-4" d="M266,125.75l-1.41-.03c-.25-.46-.25-.91,0-1.38l1.31.2.11,1.21Z"/>
    <path class="cls-4" d="M77.81,324.5l.22.61c-.03.7-1.03,1.16-1.61.77l.2-1.31,1.18-.07Z"/>
    <path class="cls-4" d="M144.84,217.98c-.09.03.1.53-.64.42-.87-.13,1.74-2.69,2.02-1.05.17,1-1.29.6-1.38.63Z"/>
    <path class="cls-4" d="M347.91,61.74c.78-.78,1.8.41,1.27,1.15s-2.16-.26-1.27-1.15Z"/>
    <path class="cls-4" d="M94.95,284.33c-.78-.78.41-1.8,1.15-1.27s-.26,2.16-1.15,1.27Z"/>
    <path class="cls-4" d="M90.35,291.62c.35-.57,2.39-.23,1.55.95-.51.72-2.14,0-1.55-.95Z"/>
    <path class="cls-4" d="M351.26,51.29c-.76-.73.67-2,1.28-1.15.52.73-.47,1.93-1.28,1.15Z"/>
    <path class="cls-4" d="M46.64,278.63l.22-1.34c.76-.55,1.71.6,1.35,1.1l-1.57.23Z"/>
    <path class="cls-4" d="M72.99,234.65c-.8.78-1.8-.42-1.28-1.15.61-.85,2.04.42,1.28,1.15Z"/>
    <path class="cls-4" d="M334.34,27.17c.78.8-.42,1.8-1.15,1.28-.85-.61.42-2.04,1.15-1.28Z"/>
    <path class="cls-4" d="M211.67,54.01c.89-.28,1.74.85,1.06,1.31-1.2.81-2.06-.99-1.06-1.31Z"/>
    <path class="cls-4" d="M295.91,32.17c1.31-.43,1.32,1.47.68,1.66-.9.26-1.55-1.37-.68-1.66Z"/>
    <path class="cls-4" d="M195.4,173.95c-.23.14-.63,0-.92.04-.04-.75-.13-1.51.63-1.91l.77.62c.03.15-.43,1.21-.48,1.24Z"/>
    <path class="cls-4" d="M252.86,133.14c-.78-.8.42-1.8,1.15-1.28.85.61-.42,2.04-1.15,1.28Z"/>
    <path class="cls-4" d="M344.54,74.81c-.76-.73.67-2,1.28-1.15.52.73-.47,1.93-1.28,1.15Z"/>
    <path class="cls-4" d="M102.59,196.58c-.23.25.35,1.13-.51.93.43-1.08.24-1.17.01-2.25.18-.58,1.29-.63,1.43.22.22,1.28-.75.9-.94,1.11Z"/>
    <path class="cls-4" d="M300.32,143.27c.26-.05.48-.13.72-.24l-.36.72h-.36c0-.16-.02-.32,0-.48-.54.11-.88.26-1.33-.23-.55-1.1.67-1.67,1.35-.86.35.41.01.71-.03,1.09Z"/>
    <path class="cls-4" d="M174.77,128.9c.84.53-.49,2.32-1.31,1.19-.63-.87.63-1.61,1.31-1.19Z"/>
    <path class="cls-4" d="M354.62,38.21c.8-.78,1.8.42,1.28,1.15-.61.85-2.04-.42-1.28-1.15Z"/>
    <path class="cls-4" d="M55.31,261.32c-.55-.89.69-2.03,1.3-1.18.66.93-.87,1.88-1.3,1.18Z"/>
    <path class="cls-4" d="M110.45,261.8c-.44.7-1.96-.25-1.3-1.18.61-.85,1.86.29,1.3,1.18Z"/>
    <path class="cls-4" d="M139.31,223.4c-.55-.89.69-2.03,1.3-1.18.66.93-.87,1.88-1.3,1.18Z"/>
    <path class="cls-4" d="M262.59,37.62c-.63.63-1.87-.33-1.28-1.16s2.03.41,1.28,1.16Z"/>
    <path class="cls-4" d="M306.94,150.14c-.04.07-.33.07-.37.26-.09.4.03.86,0,1.27-1.3.39-1.44-1.17-.24-.96-.81-1.68,1.63-2.27.62-.57Z"/>
    <path class="cls-4" d="M72.29,340.58c.7.44-.25,1.96-1.18,1.3-.85-.61.29-1.86,1.18-1.3Z"/>
    <path class="cls-4" d="M42.38,285.65c.75-.75,2.01.68,1.16,1.28s-1.79-.65-1.16-1.28Z"/>
    <path class="cls-4" d="M116.24,252.23c-.25-1.06.41-1.15,1.28-1.4,1.51,1.09-.17,1.44-1.28,1.4Z"/>
    <path class="cls-4" d="M209.4,53.06c.89-.55,2.03.69,1.18,1.3-.93.66-1.88-.87-1.18-1.3Z"/>
    <path class="cls-4" d="M328.33,132.27c1.43-.41,1.42,1.77,0,1.36-.8-.23-.8-1.14,0-1.36Z"/>
    <path class="cls-4" d="M144.8,153.11c.08,1.13-1.09.73-1.16.77-.2.13-.23,1-1.24.67v-.95s2.4-.48,2.4-.48Z"/>
    <path class="cls-4" d="M238.55,86.41c1.4-.46,1.26,1.52.42,1.64-.68.1-1.23-1.38-.42-1.64Z"/>
    <path class="cls-4" d="M294.2,136.14c1.26-.11,1.05,2.38-.36,1.5-.72-.45-.16-1.46.36-1.5Z"/>
    <path class="cls-4" d="M119.27,246.49c1.39-.45,1.24,1.61.7,1.64-.92.05-1.61-1.35-.7-1.64Z"/>
    <path class="cls-4" d="M225.2,41.52l-.47,1.09-.37.12c-1.05.12-1.1-1.07-.36-1.59l1.21.38Z"/>
    <path class="cls-4" d="M151.4,146.69c.76-.05,1.27,1.34.46,1.6-1.42.46-1.22-1.55-.46-1.6Z"/>
    <polygon class="cls-4" points="48.8 272.87 50.14 273.09 50.02 274.21 49.03 274.21 48.8 272.87"/>
    <path class="cls-4" d="M57.83,255.61c1.04-.33,1.42.9.83,1.31-1.04.73-1.75-1.02-.83-1.31Z"/>
    <path class="cls-4" d="M191.52,116.07c.2-.18.23-.61.56-.64-.02.61.16,1.29-.22,1.81-.51.71-1.29-.08-1.21-.47.06-.29.64-.5.87-.71Z"/>
    <path class="cls-4" d="M26.15,333.85c1.04-.33,1.42.9.83,1.31-1.04.73-1.75-1.02-.83-1.31Z"/>
    <path class="cls-4" d="M32.87,310.33c1.04-.33,1.42.9.83,1.31-1.04.73-1.75-1.02-.83-1.31Z"/>
    <path class="cls-4" d="M41.03,357.61c1.04-.33,1.42.9.83,1.31-1.04.73-1.75-1.02-.83-1.31Z"/>
    <path class="cls-4" d="M120.95,174.73c1.04-.33,1.42.9.83,1.31-1.04.73-1.75-1.02-.83-1.31Z"/>
    <path class="cls-4" d="M40.55,289.93c1.04-.33,1.42.9.83,1.31-1.04.73-1.75-1.02-.83-1.31Z"/>
    <path class="cls-4" d="M233.6,145.67l-.04.92c-.57.16-1.18.87-1.64.16-.04-1.03.85-1.18,1.68-1.07Z"/>
    <path class="cls-4" d="M331.67,120.49c1.04-.33,1.42.9.83,1.31-1.04.73-1.75-1.02-.83-1.31Z"/>
    <path class="cls-4" d="M186.23,178.33c1.04-.33,1.42.9.83,1.31-1.04.73-1.75-1.02-.83-1.31Z"/>
    <path class="cls-4" d="M304.55,147.13c1.04-.33,1.42.9.83,1.31-1.04.73-1.75-1.02-.83-1.31Z"/>
    <path class="cls-4" d="M299.03,31.21c1.04-.33,1.42.9.83,1.31-1.04.73-1.75-1.02-.83-1.31Z"/>
    <path class="cls-4" d="M166.79,195.37c1.04-.33,1.42.9.83,1.31-1.04.73-1.75-1.02-.83-1.31Z"/>
    <path class="cls-4" d="M227.03,40.33c1.04-.33,1.42.9.83,1.31-1.04.73-1.75-1.02-.83-1.31Z"/>
    <path class="cls-4" d="M96.95,200.17c1.04-.33,1.42.9.83,1.31-1.04.73-1.75-1.02-.83-1.31Z"/>
    <path class="cls-4" d="M182.39,122.65c1.04-.33,1.42.9.83,1.31-1.04.73-1.75-1.02-.83-1.31Z"/>
    <path class="cls-4" d="M324.95,144.01c1.04-.33,1.42.9.83,1.31-1.04.73-1.75-1.02-.83-1.31Z"/>
    <path class="cls-4" d="M350.63,25.21c1.04-.33,1.42.9.83,1.31-1.04.73-1.75-1.02-.83-1.31Z"/>
    <path class="cls-4" d="M22.79,345.61c1.04-.33,1.42.9.83,1.31-1.04.73-1.75-1.02-.83-1.31Z"/>
    <path class="cls-4" d="M131.75,163.93c1.04-.33,1.42.9.83,1.31-1.04.73-1.75-1.02-.83-1.31Z"/>
    <path class="cls-4" d="M244.31,38.17c1.04-.33,1.42.9.83,1.31-1.04.73-1.75-1.02-.83-1.31Z"/>
    <polygon class="cls-4" points="66.24 359.78 67.52 360.59 67.14 361.18 65.6 360.59 66.24 359.78"/>
    <path class="cls-4" d="M164.24,135.59c.42.05.89-.3,1.27-.2,1.5.36-.27,2.73-1.27.2Z"/>
    <path class="cls-4" d="M62.63,247.21c.82-.14,1.11,1.49.18,1.65-.82.14-1.11-1.49-.18-1.65Z"/>
    <path class="cls-4" d="M28.16,326.15c.74,1.47-.9,2.5-1.18.63l1.18-.63Z"/>
    <path class="cls-4" d="M160.64,201.59l.86-.94c.45-.14.83.27,1.04.62l-.63.78-1.27-.46Z"/>
    <path class="cls-4" d="M181.76,183.11l.14,1.45c-1.63.98-1.61-1.22-.14-1.45Z"/>
    <path class="cls-4" d="M74.22,337.65c-.91.65-1.74-1.16-.81-1.42.86-.24,1.31,1.06.81,1.42Z"/>
    <path class="cls-4" d="M38.27,295.65c-.31-.21-.49-1.64.54-1.38,1.26.32.37,2.01-.54,1.38Z"/>
    <path class="cls-4" d="M264.69,35.27c.84-.24,1.55,1.1.43,1.4-1,.27-1.02-1.24-.43-1.4Z"/>
    <path class="cls-4" d="M137.27,158.65c.59-.09,1.23,1.15.42,1.4-1.35.42-1.24-1.27-.42-1.4Z"/>
    <path class="cls-4" d="M212.13,159.35c.84-.24,1.55,1.1.43,1.4-1,.27-1.02-1.24-.43-1.4Z"/>
    <path class="cls-4" d="M320.46,28.33c.71.97-1.22,1.72-1.4.55-.1-.68,1.1-.96,1.4-.55Z"/>
    <path class="cls-4" d="M79.74,321.81c-.97.71-1.72-1.22-.55-1.4.68-.1.96,1.1.55,1.4Z"/>
    <path class="cls-4" d="M23.61,339.35c-.43-.59,1.04-1.9,1.4-.56.28,1.06-1.23.79-1.4.56Z"/>
    <path class="cls-4" d="M106.9,265.89c-.71-.97,1.22-1.72,1.4-.55.1.68-1.1.96-1.4.55Z"/>
    <path class="cls-4" d="M337.76,27.35c.15-.05.43-.31.48-.24l-.36,1.2c-.27-.15-.06-.69-.12-.96-.39.14-.73.36-1.18.22-.74-.53.64-2.72,1.18-.22Z"/>
    <path class="cls-4" d="M133.25,231.87c.67,1.06-1.22,1.54-1.39.54-.11-.67,1.11-.98,1.39-.54Z"/>
    <path class="cls-4" d="M303.42,30.5c.74,1.19-1.35,1.49-1.38.3-.02-.83,1.26-.5,1.38-.3Z"/>
    <path class="cls-4" d="M199.92,109.93c.64-.11,1.17,1.23.44,1.42-.97.26-1.45-1.25-.44-1.42Z"/>
    <path class="cls-4" d="M204.53,165.87c.67,1.06-1.22,1.54-1.39.54-.11-.67,1.11-.98,1.39-.54Z"/>
    <path class="cls-4" d="M212.45,102.51c.45.28.13,1.51-.54,1.39-1.01-.17-.52-2.06.54-1.39Z"/>
    <path class="cls-4" d="M110.69,186.68c-1.06.67-1.54-1.22-.54-1.39.67-.11.98,1.11.54,1.39Z"/>
    <path class="cls-4" d="M59.97,251.51c.97-.26,1.45,1.25.44,1.42-.64.11-1.17-1.23-.44-1.42Z"/>
    <polygon class="cls-4" points="220.16 64.07 220.97 63.88 221.58 64.64 220.79 65.26 220.16 64.07"/>
    <path class="cls-4" d="M221.84,153.11c.4.52-.9,1.91-1.42.57l.62-.76.8.19Z"/>
    <path class="cls-4" d="M310.64,156.95c-.4-.52.9-1.91,1.42-.57l-.62.76-.8-.19Z"/>
    <polygon class="cls-4" points="70.88 347.99 71.07 348.8 70.32 349.41 69.7 348.62 70.88 347.99"/>
    <path class="cls-4" d="M223.68,95.05c.74-.13,1.09,1.25.18,1.4-.74.13-1.09-1.25-.18-1.4Z"/>
    <path class="cls-4" d="M74.4,228.97c.74-.13,1.09,1.25.18,1.4-.74.13-1.09-1.25-.18-1.4Z"/>
    <path class="cls-4" d="M288.96,130.81c.74-.13,1.09,1.25.18,1.4-.74.13-1.09-1.25-.18-1.4Z"/>
    <path class="cls-4" d="M256.56,130.57c.74-.13,1.09,1.25.18,1.4-.74.13-1.09-1.25-.18-1.4Z"/>
    <path class="cls-4" d="M212.96,44.63l-1.13.09-.54-.69c.56-.76,1.68-.27,1.67.6Z"/>
    <path class="cls-4" d="M33.84,356.41c.74-.13,1.09,1.25.18,1.4-.74.13-1.09-1.25-.18-1.4Z"/>
    <path class="cls-4" d="M278.16,120.01c.74-.13,1.09,1.25.18,1.4-.74.13-1.09-1.25-.18-1.4Z"/>
    <path class="cls-4" d="M315.6,157.93c.74-.13,1.09,1.25.18,1.4-.74.13-1.09-1.25-.18-1.4Z"/>
    <path class="cls-4" d="M63.84,360.97c.74-.13,1.09,1.25.18,1.4-.74.13-1.09-1.25-.18-1.4Z"/>
    <path class="cls-4" d="M350.27,58.53c-.79-1.27,1.53-1.52,1.18-.1-.12.5-1.07.26-1.18.1Z"/>
    <path class="cls-4" d="M235.04,89.03v-1.2c1.66-.2,1.63,1.41,0,1.2Z"/>
    <path class="cls-4" d="M358.4,34.07c.18,1.03-.66,1.03-1.44.96v-.96s1.44,0,1.44,0Z"/>
    <path class="cls-4" d="M331.28,128.15c.22,1.91-1.17,1.94-.96,0h.96Z"/>
    <path class="cls-4" d="M156.8,206.39c.28,1.32-1.14,1.79-1.2.36l1.2-.36Z"/>
    <path class="cls-4" d="M343.52,81.11l1.2.36c-.06,1.43-1.48.96-1.2-.36Z"/>
    <polygon class="cls-4" points="156.36 142.75 156.32 141.83 157.52 142.19 157.14 143.02 156.36 142.75"/>
    <polygon class="cls-4" points="30.6 315.79 30.56 314.87 31.76 315.23 31.38 316.06 30.6 315.79"/>
    <path class="cls-4" d="M235.28,77.03c.64-.61,1.87.88.59,1.2-.59.15-.74-1.06-.59-1.2Z"/>
    <polygon class="cls-4" points="125.33 241.46 125.36 242.39 124.17 242.03 124.51 241.24 125.33 241.46"/>
    <path class="cls-4" d="M283.98,125.78c.6.97-.96,1.53-1.16.54-.11-.58.92-.93,1.16-.54Z"/>
    <path class="cls-4" d="M84.08,311.99l-.02.93c-.74.42-.91-.06-1.41-.57l1.44-.36Z"/>
    <path class="cls-4" d="M75.44,332.39c.14-.15,1.34,0,1.2.59-.32,1.28-1.81.04-1.2-.59Z"/>
    <path class="cls-4" d="M151.52,212.63l-1.09-.24.14-.96c.91-.14,1.05.41.96,1.2Z"/>
    <path class="cls-4" d="M137.37,226.56c.29-.37,1.32.02,1.19.59-.22.99-1.87.29-1.19-.59Z"/>
    <path class="cls-4" d="M249.33,37.43c1.03-.29.95,1.04.23,1.2-.63.14-.84-1.03-.23-1.2Z"/>
    <path class="cls-4" d="M322.4,155.99v.96s-1.2,0-1.2,0c-.14-.91.41-1.05,1.2-.96Z"/>
    <path class="cls-4" d="M99.89,196.1c.42.32-.01,1.28-.57,1.17-.73-.14-.41-1.92.57-1.17Z"/>
    <path class="cls-4" d="M69.65,355.94c.42.32-.01,1.28-.57,1.17-.73-.14-.41-1.92.57-1.17Z"/>
    <path class="cls-4" d="M84.77,215.3c.42.32-.01,1.28-.57,1.17-.73-.14-.41-1.92.57-1.17Z"/>
    <path class="cls-4" d="M354.56,45.83c.14.13,0,1.35-.6,1.2-1.11-.29-.12-1.84.6-1.2Z"/>
    <path class="cls-4" d="M347.82,69.38c.74.98-1.03,1.29-1.17.57-.11-.55.85-.99,1.17-.57Z"/>
    <path class="cls-4" d="M226.64,69.35v.96c-1.59.17-1.61-1.13,0-.96Z"/>
    <path class="cls-4" d="M176.24,190.31h-.96c-.17-1.59,1.13-1.61.96,0Z"/>
    <path class="cls-4" d="M221.12,96.23v.96c-1.59.17-1.61-1.13,0-.96Z"/>
    <path class="cls-4" d="M246.8,137.03c-.11.14-1.58.36-1.44-.35.39-.82,1.82-.14,1.44.35Z"/>
    <path class="cls-4" d="M272.24,122.39c.43.43-.58,1.91-.93.81-.32-1.02.71-1.03.93-.81Z"/>
    <path class="cls-4" d="M338,104.63c.43.43-.58,1.91-.93.81-.32-1.02.71-1.03.93-.81Z"/>
    <path class="cls-4" d="M327.92,141.11h-.96c-.17-1.59,1.13-1.61.96,0Z"/>
    <path class="cls-4" d="M37.04,298.79v.96c-1.59.17-1.61-1.13,0-.96Z"/>
    <path class="cls-4" d="M188.72,117.35c.43.43-.58,1.91-.93.81-.32-1.02.71-1.03.93-.81Z"/>
    <path class="cls-4" d="M322.64,28.31v-.96c1.59-.17,1.61,1.13,0,.96Z"/>
    <path class="cls-4" d="M334.64,117.35h-.96c-.17-1.59,1.13-1.61.96,0Z"/>
    <path class="cls-4" d="M301.04,145.19c.43.43-.58,1.91-.93.81-.32-1.02.71-1.03.93-.81Z"/>
    <path class="cls-4" d="M211.76,56.39c.43.43-.58,1.91-.93.81-.32-1.02.71-1.03.93-.81Z"/>
    <path class="cls-4" d="M115.52,256.31h-.96c-.17-1.59,1.13-1.61.96,0Z"/>
    <path class="cls-4" d="M294.56,132.71c-.21.19-1.64-.32-1.44-.96.67-.1,1.45.16,1.44.96Z"/>
    <path class="cls-4" d="M178.05,125.27c.53-.12,1.21,1.03.47,1.2-.53.12-1.21-1.03-.47-1.2Z"/>
    <path class="cls-4" d="M231.18,40.29c-1.08.82-1.54-1.68.03-.82.3.16.04.77-.03.82Z"/>
    <path class="cls-4" d="M144.32,221.51c-.4-.06-1.22,1.37-1.44.36-.12-.54,1.3-1.24,1.44-.36Z"/>
    <path class="cls-4" d="M260.24,129.59c.55.42-.08,1.68-.72,1.2-.5-.37.3-1.52.72-1.2Z"/>
    <path class="cls-4" d="M341.36,93.83h-.96c-.29-1.41,1.21-1.61.96,0Z"/>
    <path class="cls-4" d="M102.92,193.2l.58.63-.58.8c-.42-.28-.41-.61-.36-1.07l.36-.36Z"/>
    <rect class="cls-4" x="80.96" y="316.31" width=".96" height=".96"/>
    <rect class="cls-4" x="25.04" y="330.71" width=".96" height=".96"/>
    <rect class="cls-4" x="267.68" y="34.31" width=".96" height=".96"/>
    <rect class="cls-4" x="104.96" y="269.27" width=".96" height=".96"/>
    <rect class="cls-4" x="244.4" y="138.23" width=".96" height=".96"/>
    <rect class="cls-4" x="209.84" y="42.47" width=".96" height=".96"/>
    <rect class="cls-4" x="60.08" y="362.15" width=".96" height=".96"/>
    <rect class="cls-4" x="147.68" y="148.31" width=".96" height=".96"/>
    <rect class="cls-4" x="250.64" y="36.47" width=".96" height=".96"/>
    <rect class="cls-4" x="52.64" y="361.19" width=".96" height=".96"/>
    <rect class="cls-4" x="76.16" y="224.87" width=".96" height=".96"/>
    <rect class="cls-4" x="170.48" y="130.31" width=".96" height=".96"/>
    <rect class="cls-4" x="212.96" y="41.51" width=".96" height=".96"/>
    <rect class="cls-4" x="104.48" y="190.79" width=".96" height=".96"/>
    <rect class="cls-4" x="91.52" y="205.67" width=".96" height=".96"/>
    <rect class="cls-4" x="102.8" y="273.59" width=".96" height=".96"/>
    <rect class="cls-4" x="247.28" y="37.43" width=".96" height=".96"/>
    <rect class="cls-4" x="189.44" y="177.59" width=".96" height=".96"/>
    <rect class="cls-4" x="284.96" y="32.39" width=".96" height=".96"/>
    <rect class="cls-4" x="339.68" y="25.19" width=".96" height=".96"/>
    <path class="cls-4" d="M46.16,359.99c.61.61-1.22,1.61-1.19.36,0-.32,1.06-.49,1.19-.36Z"/>
    <rect class="cls-4" x="64.4" y="243.11" width=".96" height=".96"/>
    <rect class="cls-4" x="179.12" y="123.83" width=".96" height=".96"/>
    <path class="cls-4" d="M232.88,88.79v.96c-1.26.1-1.48-1.29,0-.96Z"/>
    <path class="cls-4" d="M29.36,319.91h-.96s0-.96,0-.96l.72.11c.31.21.25.49.23.84Z"/>
    <path class="cls-4" d="M323.84,151.91c1.1-.07,1.25.56.36,1.19-.45-.29-.39-.69-.36-1.19Z"/>
    <polygon class="cls-4" points="134.72 161.03 134 160.92 133.76 160.07 134.49 160.19 134.72 161.03"/>
    <path class="cls-4" d="M152,207.59h-.36c-1.56-1.45.28-1.75.36,0Z"/>
    <path class="cls-4" d="M79.52,220.79v.96c-1.27.12-1.28-1.07,0-.96Z"/>
    <path class="cls-4" d="M123.92,171.59c-1.1.06-1.24-.56-.36-1.2l.36,1.2Z"/>
    <path class="cls-4" d="M69.08,350.15c.41-.12.85,0,1.07.36-.38.53-1.05.53-1.43,0,.12-.09.25-.33.36-.36Z"/>
    <path class="cls-4" d="M89.6,299.99v-.96c1.27-.12,1.28,1.07,0,.96Z"/>
    <path class="cls-4" d="M21.68,343.67v-.96c1.27-.12,1.28,1.07,0,.96Z"/>
    <path class="cls-4" d="M66.56,239.75v-.96c1.27-.12,1.28,1.07,0,.96Z"/>
    <polygon class="cls-4" points="354.8 24.23 354.57 25.08 353.84 25.19 354.08 24.35 354.8 24.23"/>
    <path class="cls-4" d="M170.96,194.63c.4.39-.61,1.52-.96.6-.31-.83.85-.7.96-.6Z"/>
    <path class="cls-4" d="M32.48,357.11h-.96c-.12-1.27,1.07-1.28.96,0Z"/>
    <path class="cls-4" d="M72.08,345.11v-.96c1.27-.12,1.28,1.07,0,.96Z"/>
    <path class="cls-4" d="M341.12,89.51c-.74.07-.78-.6-.72-1.2.74-.07.78.6.72,1.2Z"/>
    <path class="cls-4" d="M69.68,234.47c.46.46-.76,1.48-.96.6-.11-.51.78-.77.96-.6Z"/>
    <polygon class="cls-4" points="218.24 98.87 219.08 98.63 219.44 98.99 218.61 99.59 218.25 99.23 218.24 98.87"/>
    <path class="cls-4" d="M100.64,278.63c-.17-.17.09-1.07.6-.96.89.2-.13,1.42-.6.96Z"/>
    <path class="cls-4" d="M164.48,200.87c-.17-.17.09-1.07.6-.96.89.2-.13,1.42-.6.96Z"/>
    <path class="cls-4" d="M129.2,166.31c-.17.17-1.07-.09-.96-.6.2-.89,1.42.13.96.6Z"/>
    <path class="cls-4" d="M184.88,183.83c-.17.17-1.07-.09-.96-.6.2-.89,1.42.13.96.6Z"/>
    <path class="cls-4" d="M158.48,143.03c.07.74-.6.78-1.2.72-.07-.74.6-.78,1.2-.72Z"/>
    <path class="cls-4" d="M205.28,51.11c.46-.46,1.48.76.6.96-.51.11-.77-.78-.6-.96Z"/>
    <path class="cls-4" d="M106.64,187.43c-.46-.46.76-1.48.96-.6.11.51-.78.77-.96.6Z"/>
    <path class="cls-4" d="M275.6,121.43c.46.46-.76,1.48-.96.6-.11-.51.78-.77.96-.6Z"/>
    <path class="cls-4" d="M34.64,303.83c-.46.46-1.48-.76-.6-.96.51-.11.77.78.6.96Z"/>
    <polygon class="cls-4" points="100.4 278.39 100.4 279.35 100.05 279.35 99.45 278.75 99.44 278.39 100.4 278.39"/>
    <polygon class="cls-4" points="25.98 340.53 25.28 340.55 25.29 340.2 25.88 339.36 26.24 339.72 25.98 340.53"/>
    <path class="cls-4" d="M230.96,74.87c.46-.46,1.48.76.6.96-.51.11-.77-.78-.6-.96Z"/>
    <path class="cls-4" d="M236.72,144.71c.46.46-.76,1.48-.96.6-.11-.51.78-.77.96-.6Z"/>
    <polygon class="cls-4" points="25.76 332.63 25.76 333.59 25.41 333.59 24.81 332.99 24.8 332.63 25.76 332.63"/>
    <path class="cls-4" d="M99.2,281.99c.17.17-.09,1.07-.6.96-.89-.2.13-1.42.6-.96Z"/>
    <path class="cls-4" d="M154.64,210.47c.17.17-.09,1.07-.6.96-.89-.2.13-1.42.6-.96Z"/>
    <path class="cls-4" d="M205.28,47.75c.17.17-.09,1.07-.6.96-.89-.2.13-1.42.6-.96Z"/>
    <path class="cls-4" d="M228.56,94.79c.06.59.02,1.26-.72,1.2-.06-.59-.02-1.26.72-1.2Z"/>
    <path class="cls-4" d="M352.4,53.27c.17-.17,1.07.09.96.6-.2.89-1.42-.13-.96-.6Z"/>
    <path class="cls-4" d="M154.16,143.03c.17.17-.09,1.07-.6.96-.89-.2.13-1.42.6-.96Z"/>
    <path class="cls-4" d="M117.81,175.91c.59-.13.8.83.23.96s-.8-.83-.23-.96Z"/>
    <path class="cls-4" d="M87.81,303.35c.59-.13.8.83.23.96s-.8-.83-.23-.96Z"/>
    <path class="cls-4" d="M343.41,24.23c.59-.13.8.83.23.96s-.8-.83-.23-.96Z"/>
    <path class="cls-4" d="M130.29,236.15c.59-.13.8.83.23.96s-.8-.83-.23-.96Z"/>
    <path class="cls-4" d="M224.37,152.15c.59-.13.8.83.23.96s-.8-.83-.23-.96Z"/>
    <path class="cls-4" d="M290.13,132.71l.59.36c-.44.49-.7.92-1.19.24l.6-.6Z"/>
    <path class="cls-4" d="M326.13,26.15c.59-.13.8.83.23.96s-.8-.83-.23-.96Z"/>
    <path class="cls-4" d="M37.89,358.79c.59-.13.8.83.23.96s-.8-.83-.23-.96Z"/>
    <path class="cls-4" d="M345.2,75.83c-.48.13-1.03.3-1.44-.12.22-.52,1.3-.53,1.44.12Z"/>
    <path class="cls-4" d="M346.05,76.79c.59-.13.8.83.23.96s-.8-.83-.23-.96Z"/>
    <path class="cls-4" d="M289.89,134.39c.59-.13.8.83.23.96s-.8-.83-.23-.96Z"/>
    <path class="cls-4" d="M309.09,28.31c.59-.13.8.83.23.96s-.8-.83-.23-.96Z"/>
    <path class="cls-4" d="M332.85,124.07c.59-.13.8.83.23.96s-.8-.83-.23-.96Z"/>
    <path class="cls-4" d="M122.61,245.75c.59-.13.8.83.23.96s-.8-.83-.23-.96Z"/>
    <path class="cls-4" d="M198.45,171.11c.59-.13.8.83.23.96s-.8-.83-.23-.96Z"/>
    <path class="cls-4" d="M305.73,29.27c.59-.13.8.83.23.96s-.8-.83-.23-.96Z"/>
    <path class="cls-4" d="M329.49,135.83c.59-.13.8.83.23.96s-.8-.83-.23-.96Z"/>
    <path class="cls-4" d="M85.65,307.67c.59-.13.8.83.23.96s-.8-.83-.23-.96Z"/>
    <path class="cls-4" d="M288.69,31.43c.59-.13.8.83.23.96s-.8-.83-.23-.96Z"/>
    <path class="cls-4" d="M26.13,355.43c.59-.13.8.83.23.96s-.8-.83-.23-.96Z"/>
    <path class="cls-4" d="M349.41,65.03c.59-.13.8.83.23.96s-.8-.83-.23-.96Z"/>
    <path class="cls-4" d="M92.13,294.95c.59-.13.8.83.23.96s-.8-.83-.23-.96Z"/>
    <path class="cls-4" d="M162.21,136.55c.59-.13.8.83.23.96s-.8-.83-.23-.96Z"/>
    <path class="cls-4" d="M271.41,33.35c.59-.13.8.83.23.96s-.8-.83-.23-.96Z"/>
    <path class="cls-4" d="M148.53,215.99c.59-.13.8.83.23.96s-.8-.83-.23-.96Z"/>
    <path class="cls-4" d="M247.89,137.27c.59-.13.8.83.23.96s-.8-.83-.23-.96Z"/>
    <path class="cls-4" d="M334.05,118.79c.59-.13.8.83.23.96s-.8-.83-.23-.96Z"/>
    <path class="cls-4" d="M112.53,181.19c.59-.13.8.83.23.96s-.8-.83-.23-.96Z"/>
    <path class="cls-4" d="M306.93,153.83c.59-.13.8.83.23.96s-.8-.83-.23-.96Z"/>
    <path class="cls-4" d="M86.37,211.19c.59-.13.8.83.23.96s-.8-.83-.23-.96Z"/>
    <path class="cls-4" d="M216.45,61.91c.59-.13.8.83.23.96s-.8-.83-.23-.96Z"/>
    <path class="cls-4" d="M342.93,88.55c.59-.13.8.83.23.96s-.8-.83-.23-.96Z"/>
    <path class="cls-4" d="M254.13,35.27c.59-.13.8.83.23.96s-.8-.83-.23-.96Z"/>
    <path class="cls-4" d="M77.97,328.07c.59-.13.8.83.23.96s-.8-.83-.23-.96Z"/>
    <path class="cls-4" d="M94.05,201.59c.59-.13.8.83.23.96s-.8-.83-.23-.96Z"/>
    <path class="cls-4" d="M207.09,164.87c.59-.13.8.83.23.96s-.8-.83-.23-.96Z"/>
    <path class="cls-4" d="M229.17,89.99c.59-.13.8.83.23.96s-.8-.83-.23-.96Z"/>
    <path class="cls-4" d="M112.77,259.67c.59-.13.8.83.23.96s-.8-.83-.23-.96Z"/>
    <path class="cls-4" d="M295.17,139.67c.59-.13.8.83.23.96s-.8-.83-.23-.96Z"/>
    <path class="cls-4" d="M336.21,112.31c.59-.13.8.83.23.96s-.8-.83-.23-.96Z"/>
    <path class="cls-4" d="M206.85,43.43c.59-.13.8.83.23.96s-.8-.83-.23-.96Z"/>
    <path class="cls-4" d="M94.29,290.63c.59-.13.8.83.23.96s-.8-.83-.23-.96Z"/>
    <path class="cls-4" d="M196.77,111.11c.59-.13.8.83.23.96s-.8-.83-.23-.96Z"/>
    <path class="cls-4" d="M52.77,261.35c.59-.13.8.83.23.96s-.8-.83-.23-.96Z"/>
    <path class="cls-4" d="M71.25,351.59c.59-.13.8.83.23.96s-.8-.83-.23-.96Z"/>
    <path class="cls-4" d="M50.61,265.43c.59-.13.8.83.23.96s-.8-.83-.23-.96Z"/>
    <path class="cls-4" d="M356.13,41.51c.59-.13.8.83.23.96s-.8-.83-.23-.96Z"/>
    <path class="cls-4" d="M215.73,158.39c.59-.13.8.83.23.96s-.8-.83-.23-.96Z"/>
    <path class="cls-4" d="M96.45,286.31c.59-.13.8.83.23.96s-.8-.83-.23-.96Z"/>
    <path class="cls-4" d="M48.45,269.75c.59-.13.8.83.23.96s-.8-.83-.23-.96Z"/>
    <path class="cls-4" d="M237.09,37.43c.59-.13.8.83.23.96s-.8-.83-.23-.96Z"/>
    <path class="cls-4" d="M233.73,38.39c.59-.13.8.83.23.96s-.8-.83-.23-.96Z"/>
    <path class="cls-4" d="M159.33,205.19c.59-.13.8.83.23.96s-.8-.83-.23-.96Z"/>
    <path class="cls-4" d="M46.29,274.07c.59-.13.8.83.23.96s-.8-.83-.23-.96Z"/>
    <path class="cls-4" d="M208.53,103.67c.59-.13.8.83.23.96s-.8-.83-.23-.96Z"/>
    <path class="cls-4" d="M44.13,278.39c.59-.13.8.83.23.96s-.8-.83-.23-.96Z"/>
    <path class="cls-4" d="M317.01,159.59c.59-.13.8.83.23.96s-.8-.83-.23-.96Z"/>
    <path class="cls-4" d="M216.69,40.31c.59-.13.8.83.23.96s-.8-.83-.23-.96Z"/>
    <path class="cls-4" d="M339.57,100.31c.59-.13.8.83.23.96s-.8-.83-.23-.96Z"/>
    <path class="cls-4" d="M162.01,142.15c.2.26.36.54.31.89l-.95-.84c-.17-.65.58-.11.64-.04Z"/>
    <path class="cls-4" d="M185.36,118.79c0,.94-.95.96-.96,0h.96Z"/>
    <path class="cls-4" d="M35.84,357.59h-.96c0-.96.96-.94.96,0Z"/>
    <path class="cls-4" d="M45.69,279.59c.02-.26-.06-.6,0-.83.25-.83,1.36.25,0,.83Z"/>
    <polygon class="cls-4" points="229.04 92.39 228.32 92.39 228.33 92.04 228.92 91.43 229.04 92.39"/>
    <path class="cls-4" d="M137.84,164.63l-1.44-.24v-.23c.53-.02,1.25-.13,1.44.48Z"/>
    <path class="cls-4" d="M354.8,36.95c-.19.5-.66.8-1.2.72.19-.5.66-.8,1.2-.72Z"/>
    <path class="cls-4" d="M21.68,353.99c-.46-.43.96-1.07.95-.36,0,.25-.79.51-.95.36Z"/>
    <path class="cls-4" d="M49.76,357.59v.48s-1.2,0-1.2,0c.15-.54.74-.51,1.2-.48Z"/>
    <path class="cls-4" d="M26.24,350.15c.09.58-.11,1.02-.72.96l.24-.96h.47Z"/>
    <path class="cls-4" d="M85.77,303.11c-.02-.45-.07-1.06.48-1.2.02.45.07,1.06-.48,1.2Z"/>
    <path class="cls-4" d="M338.25,92.87c-.02-.45-.07-1.06.48-1.2.02.45.07,1.06-.48,1.2Z"/>
    <path class="cls-4" d="M123.92,175.91c-.14.55-.75.5-1.2.48.14-.55.75-.5,1.2-.48Z"/>
    <path class="cls-4" d="M155.12,208.07c-.55-.14-.5-.75-.48-1.2.55.14.5.75.48,1.2Z"/>
    <path class="cls-4" d="M263.36,129.11v.72c-.3.32-1.48-.97,0-.72Z"/>
    <rect class="cls-4" x="157.04" y="203.75" width=".48" height=".96"/>
    <path class="cls-4" d="M128.24,235.19c-.55-.14-.5-.75-.48-1.2.55.14.5.75.48,1.2Z"/>
    <path class="cls-4" d="M350.48,28.55h-.23s0-1.44,0-1.44h.23c.2.53.2.9,0,1.44Z"/>
    <path class="cls-4" d="M327.92,27.35v.72s-.72,0-.72,0c-.08-.44.26-.79.72-.72Z"/>
    <path class="cls-4" d="M114.08,258.71h-.72s0-.72,0-.72c.44-.08.79.26.72.72Z"/>
    <path class="cls-4" d="M218.96,156.23v.72s-.72,0-.72,0c-.08-.44.26-.79.72-.72Z"/>
    <path class="cls-4" d="M358.64,37.43c0,.88-.71.88-.72,0h.72Z"/>
    <path class="cls-4" d="M292.16,30.95h-.72c0-.88.71-.88.72,0Z"/>
    <path class="cls-4" d="M201.44,170.87v-.72c.88,0,.88.71,0,.72Z"/>
    <path class="cls-4" d="M32.24,313.43c-.25.25-.96-.48-.72-.72s.96.48.72.72Z"/>
    <path class="cls-4" d="M337.76,109.67c-.24.24-.96-.47-.72-.72s.96.47.72.72Z"/>
    <path class="cls-4" d="M40.16,287.27c0,.88-.71.88-.72,0h.72Z"/>
    <path class="cls-4" d="M130.88,163.91c-.25.25-.96-.48-.72-.72s.96.48.72.72Z"/>
    <path class="cls-4" d="M205.76,104.87v.72c-.88,0-.88-.71,0-.72Z"/>
    <path class="cls-4" d="M296.24,143.75c-.36-.36.71-1.02.71-.36,0,.16-.58.5-.71.36Z"/>
    <path class="cls-4" d="M323.6,143.99c-.48-.13-.54-.51-.48-.96.48.13.54.51.48.96Z"/>
    <polygon class="cls-4" points="239.6 37.91 239.24 38.39 238.64 38.03 239.6 37.91"/>
    <polygon class="cls-4" points="154.41 143.51 154.52 142.55 154.88 143.15 154.41 143.51"/>
    <path class="cls-4" d="M328.64,125.75c-.43.08-.79-.32-.96-.72.43-.08.79.32.96.72Z"/>
    <path class="cls-4" d="M193.76,112.31c.36.36-.71,1.02-.71.36,0-.16.58-.5.71-.36Z"/>
    <polygon class="cls-4" points="130.16 167.27 129.68 166.91 130.04 166.31 130.16 167.27"/>
    <path class="cls-4" d="M80.24,319.19c-.45.06-.83,0-.96-.48.45-.06.83,0,.96.48Z"/>
    <path class="cls-4" d="M351.92,60.95c.36.36-.71,1.02-.71.36,0-.16.58-.5.71-.36Z"/>
    <polygon class="cls-4" points="279.92 123.11 279.44 123.11 279.45 122.39 279.92 122.76 279.92 123.11"/>
    <polygon class="cls-4" points="127.28 240.95 127.28 241.43 126.56 241.43 126.93 240.95 127.28 240.95"/>
    <polygon class="cls-4" points="358.64 26.87 358.64 27.23 358.17 27.59 358.16 26.87 358.64 26.87"/>
    <polygon class="cls-4" points="202.4 106.55 201.92 106.55 201.93 105.83 202.4 106.2 202.4 106.55"/>
    <polygon class="cls-4" points="238.16 83.75 238.04 84.47 237.69 84.11 237.68 83.75 238.16 83.75"/>
    <polygon class="cls-4" points="347.12 23.51 346.76 23.99 346.4 23.99 346.4 23.51 347.12 23.51"/>
    <path class="cls-4" d="M222.08,67.43l.24,1.2c-.08.18-1.36-1.48-.24-1.2Z"/>
    <polygon class="cls-4" points="96.56 197.99 96.08 197.99 96.09 197.64 96.44 197.27 96.56 197.99"/>
    <rect class="cls-4" x="196.16" y="175.67" width=".48" height=".48"/>
    <rect class="cls-4" x="192.8" y="176.87" width=".48" height=".48"/>
    <rect class="cls-4" x="114.56" y="177.11" width=".48" height=".48"/>
    <rect class="cls-4" x="64.64" y="364.55" width=".48" height=".48"/>
    <rect class="cls-4" x="119.84" y="171.83" width=".48" height=".48"/>
    <rect class="cls-4" x="57.2" y="363.59" width=".48" height=".48"/>
    <rect class="cls-4" x="49.76" y="362.39" width=".48" height=".48"/>
    <rect class="cls-4" x="349.76" y="22.31" width=".48" height=".48"/>
    <rect class="cls-4" x="357.2" y="23.51" width=".48" height=".48"/>
    <rect class="cls-4" x="42.08" y="361.19" width=".48" height=".48"/>
    <rect class="cls-4" x="332.48" y="24.47" width=".48" height=".48"/>
    <rect class="cls-4" x="34.64" y="359.99" width=".48" height=".48"/>
    <rect class="cls-4" x="329.36" y="25.43" width=".48" height=".48"/>
    <rect class="cls-4" x="125.36" y="166.55" width=".48" height=".48"/>
    <rect class="cls-4" x="315.2" y="26.39" width=".48" height=".48"/>
    <rect class="cls-4" x="70.16" y="359.27" width=".48" height=".48"/>
    <rect class="cls-4" x="312.08" y="27.35" width=".48" height=".48"/>
    <rect class="cls-4" x="187.52" y="182.15" width=".48" height=".48"/>
    <rect class="cls-4" x="317.12" y="27.59" width=".48" height=".48"/>
    <rect class="cls-4" x="109.04" y="182.63" width=".48" height=".48"/>
    <rect class="cls-4" x="30.32" y="357.83" width=".48" height=".48"/>
    <rect class="cls-4" x="298.16" y="28.31" width=".48" height=".48"/>
    <rect class="cls-4" x="210.08" y="163.91" width=".48" height=".48"/>
    <rect class="cls-4" x="294.8" y="29.51" width=".48" height=".48"/>
    <rect class="cls-4" x="359.36" y="29.99" width=".48" height=".48"/>
    <rect class="cls-4" x="316.4" y="161.75" width=".48" height=".48"/>
    <rect class="cls-4" x="130.64" y="161.27" width=".48" height=".48"/>
    <rect class="cls-4" x="319.52" y="160.55" width=".48" height=".48"/>
    <rect class="cls-4" x="322.88" y="159.59" width=".48" height=".48"/>
    <rect class="cls-4" x="280.88" y="30.47" width=".48" height=".48"/>
    <rect class="cls-4" x="277.76" y="31.43" width=".48" height=".48"/>
    <rect class="cls-4" x="312.08" y="159.59" width=".48" height=".48"/>
    <rect class="cls-4" x="103.76" y="187.91" width=".48" height=".48"/>
    <rect class="cls-4" x="218.72" y="157.67" width=".48" height=".48"/>
    <rect class="cls-4" x="274.4" y="32.63" width=".48" height=".48"/>
    <rect class="cls-4" x="178.88" y="188.39" width=".48" height=".48"/>
    <rect class="cls-4" x="307.76" y="157.19" width=".48" height=".48"/>
    <rect class="cls-4" x="222.08" y="156.71" width=".48" height=".48"/>
    <rect class="cls-4" x="360.32" y="33.11" width=".48" height=".48"/>
    <rect class="cls-4" x="260.48" y="33.59" width=".48" height=".48"/>
    <path class="cls-4" d="M272.96,35.03c-.09.12-.64-.42-.48-.72.09-.12.64.42.48.72Z"/>
    <rect class="cls-4" x="136.16" y="155.99" width=".48" height=".48"/>
    <rect class="cls-4" x="325.04" y="155.27" width=".48" height=".48"/>
    <rect class="cls-4" x="101.36" y="192.23" width=".48" height=".48"/>
    <rect class="cls-4" x="257.36" y="34.55" width=".48" height=".48"/>
    <rect class="cls-4" x="243.44" y="35.51" width=".48" height=".48"/>
    <rect class="cls-4" x="139.28" y="154.79" width=".48" height=".48"/>
    <rect class="cls-4" x="173.36" y="193.67" width=".48" height=".48"/>
    <rect class="cls-4" x="240.08" y="36.47" width=".48" height=".48"/>
    <rect class="cls-4" x="226.16" y="37.43" width=".48" height=".48"/>
    <rect class="cls-4" x="20.72" y="350.39" width=".48" height=".48"/>
    <rect class="cls-4" x="222.8" y="38.63" width=".48" height=".48"/>
    <rect class="cls-4" x="227.36" y="151.19" width=".48" height=".48"/>
    <rect class="cls-4" x="230.72" y="150.23" width=".48" height=".48"/>
    <rect class="cls-4" x="73.28" y="347.51" width=".48" height=".48"/>
    <rect class="cls-4" x="19.76" y="347.03" width=".48" height=".48"/>
    <path class="cls-4" d="M69.93,347.51c-.16-.3.38-.84.48-.72.16.3-.38.84-.48.72Z"/>
    <rect class="cls-4" x="219.68" y="39.59" width=".48" height=".48"/>
    <rect class="cls-4" x="74.48" y="340.07" width=".48" height=".48"/>
    <rect class="cls-4" x="20.96" y="339.59" width=".48" height=".48"/>
    <path class="cls-4" d="M355.04,44.63c-.09.12-.64-.42-.48-.72.09-.12.64.42.48.72Z"/>
    <rect class="cls-4" x="144.8" y="149.51" width=".48" height=".48"/>
    <rect class="cls-4" x="76.64" y="335.75" width=".48" height=".48"/>
    <rect class="cls-4" x="167.84" y="199.19" width=".48" height=".48"/>
    <rect class="cls-4" x="23.12" y="335.27" width=".48" height=".48"/>
    <rect class="cls-4" x="301.52" y="148.55" width=".48" height=".48"/>
    <rect class="cls-4" x="203.6" y="44.87" width=".48" height=".48"/>
    <rect class="cls-4" x="326.24" y="147.83" width=".48" height=".48"/>
    <rect class="cls-4" x="90.56" y="202.79" width=".48" height=".48"/>
    <rect class="cls-4" x="356.96" y="44.87" width=".48" height=".48"/>
    <rect class="cls-4" x="354.8" y="49.19" width=".48" height=".48"/>
    <rect class="cls-4" x="150.08" y="144.23" width=".48" height=".48"/>
    <rect class="cls-4" x="239.36" y="143.75" width=".48" height=".48"/>
    <rect class="cls-4" x="162.56" y="204.47" width=".48" height=".48"/>
    <rect class="cls-4" x="78.8" y="331.43" width=".48" height=".48"/>
    <rect class="cls-4" x="328.4" y="143.51" width=".48" height=".48"/>
    <rect class="cls-4" x="24.08" y="327.83" width=".48" height=".48"/>
    <rect class="cls-4" x="242.48" y="142.79" width=".48" height=".48"/>
    <rect class="cls-4" x="206.72" y="54.47" width=".48" height=".48"/>
    <rect class="cls-4" x="80" y="323.99" width=".48" height=".48"/>
    <rect class="cls-4" x="26.24" y="323.51" width=".48" height=".48"/>
    <rect class="cls-4" x="88.4" y="207.11" width=".48" height=".48"/>
    <rect class="cls-4" x="353.6" y="56.87" width=".48" height=".48"/>
    <rect class="cls-4" x="82.16" y="319.67" width=".48" height=".48"/>
    <rect class="cls-4" x="212" y="59.99" width=".48" height=".48"/>
    <rect class="cls-4" x="27.44" y="316.07" width=".48" height=".48"/>
    <rect class="cls-4" x="84.32" y="315.35" width=".48" height=".48"/>
    <rect class="cls-4" x="157.04" y="209.75" width=".48" height=".48"/>
    <rect class="cls-4" x="217.28" y="65.27" width=".48" height=".48"/>
    <rect class="cls-4" x="29.6" y="311.75" width=".48" height=".48"/>
    <rect class="cls-4" x="31.76" y="307.43" width=".48" height=".48"/>
    <rect class="cls-4" x="348.32" y="72.71" width=".48" height=".48"/>
    <rect class="cls-4" x="290.72" y="137.75" width=".48" height=".48"/>
    <rect class="cls-4" x="83.12" y="212.39" width=".48" height=".48"/>
    <rect class="cls-4" x="226.88" y="72.95" width=".48" height=".48"/>
    <rect class="cls-4" x="232.16" y="78.23" width=".48" height=".48"/>
    <rect class="cls-4" x="32.96" y="299.99" width=".48" height=".48"/>
    <rect class="cls-4" x="347.12" y="80.39" width=".48" height=".48"/>
    <rect class="cls-4" x="236.48" y="80.63" width=".48" height=".48"/>
    <rect class="cls-4" x="151.76" y="215.03" width=".48" height=".48"/>
    <rect class="cls-4" x="158.72" y="137.75" width=".48" height=".48"/>
    <path class="cls-4" d="M40.89,299.03c-.16-.3.38-.84.48-.72.16.3-.38.84-.48.72Z"/>
    <rect class="cls-4" x="35.12" y="295.67" width=".48" height=".48"/>
    <rect class="cls-4" x="80.96" y="216.71" width=".48" height=".48"/>
    <rect class="cls-4" x="251.12" y="136.55" width=".48" height=".48"/>
    <rect class="cls-4" x="344.96" y="84.71" width=".48" height=".48"/>
    <rect class="cls-4" x="37.28" y="291.35" width=".48" height=".48"/>
    <rect class="cls-4" x="225.68" y="91.19" width=".48" height=".48"/>
    <rect class="cls-4" x="222.56" y="92.15" width=".48" height=".48"/>
    <rect class="cls-4" x="146.24" y="220.31" width=".48" height=".48"/>
    <rect class="cls-4" x="343.76" y="92.15" width=".48" height=".48"/>
    <rect class="cls-4" x="254.24" y="135.35" width=".48" height=".48"/>
    <rect class="cls-4" x="41.6" y="282.95" width=".48" height=".48"/>
    <rect class="cls-4" x="341.6" y="96.47" width=".48" height=".48"/>
    <rect class="cls-4" x="217.04" y="97.43" width=".48" height=".48"/>
    <rect class="cls-4" x="285.44" y="132.47" width=".48" height=".48"/>
    <path class="cls-4" d="M223.28,98.39c-.3.16-.84-.38-.72-.48.3-.16.84.38.72.48Z"/>
    <rect class="cls-4" x="213.92" y="98.63" width=".48" height=".48"/>
    <rect class="cls-4" x="164.24" y="132.47" width=".48" height=".48"/>
    <rect class="cls-4" x="210.56" y="99.59" width=".48" height=".48"/>
    <rect class="cls-4" x="104" y="276.95" width=".48" height=".48"/>
    <rect class="cls-4" x="140.96" y="225.83" width=".48" height=".48"/>
    <rect class="cls-4" x="73.28" y="226.31" width=".48" height=".48"/>
    <rect class="cls-4" x="331.76" y="131.75" width=".48" height=".48"/>
    <rect class="cls-4" x="106.16" y="272.63" width=".48" height=".48"/>
    <path class="cls-4" d="M49.04,272.63c-.09.12-.64-.42-.48-.72.09-.12.64.42.48.72Z"/>
    <rect class="cls-4" x="167.36" y="131.51" width=".48" height=".48"/>
    <rect class="cls-4" x="338.24" y="108.23" width=".48" height=".48"/>
    <rect class="cls-4" x="108.32" y="268.31" width=".48" height=".48"/>
    <rect class="cls-4" x="110.48" y="264.23" width=".48" height=".48"/>
    <path class="cls-4" d="M333.45,112.55c-.16-.3.38-.84.48-.72.16.3-.38.84-.48.72Z"/>
    <rect class="cls-4" x="71.12" y="230.63" width=".48" height=".48"/>
    <rect class="cls-4" x="135.44" y="231.11" width=".48" height=".48"/>
    <rect class="cls-4" x="190.16" y="113.51" width=".48" height=".48"/>
    <rect class="cls-4" x="54.8" y="257.27" width=".48" height=".48"/>
    <rect class="cls-4" x="284.48" y="129.11" width=".48" height=".48"/>
    <rect class="cls-4" x="118.16" y="254.63" width=".48" height=".48"/>
    <rect class="cls-4" x="337.04" y="115.67" width=".48" height=".48"/>
    <rect class="cls-4" x="266.24" y="127.91" width=".48" height=".48"/>
    <rect class="cls-4" x="133.28" y="235.43" width=".48" height=".48"/>
    <rect class="cls-4" x="269.36" y="126.95" width=".48" height=".48"/>
    <rect class="cls-4" x="172.88" y="126.23" width=".48" height=".48"/>
    <rect class="cls-4" x="56.96" y="252.95" width=".48" height=".48"/>
    <rect class="cls-4" x="120.32" y="250.31" width=".48" height=".48"/>
    <rect class="cls-4" x="181.52" y="119.75" width=".48" height=".48"/>
    <rect class="cls-4" x="59.12" y="248.63" width=".48" height=".48"/>
    <rect class="cls-4" x="334.88" y="119.99" width=".48" height=".48"/>
    <rect class="cls-4" x="279.2" y="123.83" width=".48" height=".48"/>
    <rect class="cls-4" x="176" y="125.03" width=".48" height=".48"/>
    <rect class="cls-4" x="63.44" y="240.23" width=".48" height=".48"/>
    <rect class="cls-4" x="125.84" y="245.03" width=".48" height=".48"/>
    <rect class="cls-4" x="128" y="240.71" width=".48" height=".48"/>
    <rect class="cls-4" x="61.28" y="244.31" width=".48" height=".48"/>
    <rect class="cls-4" x="58.64" y="360.95" width=".72" height=".24"/>
    <polygon class="cls-4" points="140.48 156.47 140 156.35 140.48 155.99 140.48 156.47"/>
    <rect class="cls-4" x="252.56" y="38.39" width=".72" height=".24"/>
    <rect class="cls-4" x="168.09" y="132.71" width=".24" height=".72"/>
    <rect class="cls-4" x="72.56" y="230.87" width=".72" height=".24"/>
    <rect class="cls-4" x="179.13" y="129.35" width=".24" height=".72"/>
    <rect class="cls-4" x="350.73" y="23.99" width=".24" height=".48"/>
    <rect class="cls-4" x="334.65" y="115.67" width=".24" height=".48"/>
    <rect class="cls-4" x="184.88" y="180.95" width=".48" height=".24"/>
    <rect class="cls-4" x="208.64" y="163.67" width=".48" height=".24"/>
    <rect class="cls-4" x="272.97" y="125.99" width=".24" height=".48"/>
    <rect class="cls-4" x="103.29" y="190.31" width=".24" height=".48"/>
    <rect class="cls-4" x="201.68" y="108.47" width=".48" height=".24"/>
    <rect class="cls-4" x="198.81" y="107.03" width=".24" height=".48"/>
    <rect class="cls-4" x="170.73" y="193.91" width=".24" height=".48"/>
    <rect class="cls-4" x="246.08" y="37.43" width=".48" height=".24"/>
    <rect class="cls-4" x="123.2" y="240.71" width=".48" height=".24"/>
    <rect class="cls-4" x="45.21" y="271.19" width=".24" height=".48"/>
    <rect class="cls-4" x="72.56" y="340.31" width=".48" height=".24"/>
    <rect class="cls-4" x="48.09" y="275.27" width=".24" height=".48"/>
    <rect class="cls-4" x="24.57" y="335.99" width=".24" height=".48"/>
    <rect class="cls-4" x="215.36" y="98.63" width=".48" height=".24"/>
    <rect class="cls-4" x="95.6" y="206.39" width=".48" height=".24"/>
    <rect class="cls-4" x="297.21" y="142.79" width=".24" height=".48"/>
    <polygon class="cls-4" points="96.56 281.51 96.56 281.75 95.85 281.87 96.21 281.51 96.56 281.51"/>
    <rect class="cls-4" x="150.8" y="210.23" width=".48" height=".24"/>
    <rect class="cls-4" x="99.68" y="285.59" width=".48" height=".24"/>
    <rect class="cls-4" x="330.56" y="139.43" width=".48" height=".24"/>
    <rect class="cls-4" x="116.72" y="173.27" width=".48" height=".24"/>
    <rect class="cls-4" x="241.29" y="77.99" width=".24" height=".48"/>
    <path class="cls-4" d="M239.24,81.59c.16.08.16.16,0,.24v-.24Z"/>
    <path class="cls-4" d="M86.12,213.59c.16.08.16.16,0,.24v-.24Z"/>
    <path class="cls-4" d="M345.09,72.24c.24.16-.11.32-.24.47l-.11-.11.36-.36Z"/>
    <path class="cls-4" d="M228.92,71.03c.16.08.16.16,0,.24v-.24Z"/>
    <path class="cls-4" d="M93.56,286.31c.16.08.16.16,0,.24v-.24Z"/>
    <path class="cls-4" d="M226.28,64.08c.13.15.48.31.24.47-.12-.14-.48-.3-.24-.47Z"/>
    <path class="cls-4" d="M322.28,139.91c.16.08.16.16,0,.24v-.24Z"/>
    <path class="cls-4" d="M83.24,319.43c.16.08.16.16,0,.24v-.24Z"/>
    <path class="cls-4" d="M96.44,279.83c.16.08.16.16,0,.24v-.24Z"/>
    <path class="cls-4" d="M144.2,224.63c.16.08.16.16,0,.24v-.24Z"/>
    <path class="cls-4" d="M327.08,131.99c.16.08.16.16,0,.24v-.24Z"/>
    <rect class="cls-4" x="161.88" y="196.01" width=".16" height=".85" transform="translate(-91.46 172.06) rotate(-45)"/>
    <path class="cls-4" d="M250.52,41.75c.16.08.16.16,0,.24v-.24Z"/>
    <path class="cls-4" d="M76.04,343.19c.16.08.16.16,0,.24v-.24Z"/>
    <path class="cls-4" d="M205.64,105.83c.16.08.16.16,0,.24v-.24Z"/>
    <path class="cls-4" d="M256.76,37.43c.16.08.16.16,0,.24v-.24Z"/>
    <path class="cls-4" d="M337.88,106.07c.16.08.16.16,0,.24v-.24Z"/>
    <path class="cls-4" d="M277.64,37.19c.16.08.16.16,0,.24v-.24Z"/>
    <path class="cls-4" d="M267.08,37.19c.16.08.16.16,0,.24v-.24Z"/>
    <path class="cls-4" d="M222.44,153.83c.16.08.16.16,0,.24v-.24Z"/>
    <path class="cls-4" d="M59.24,251.27c.16.08.16.16,0,.24v-.24Z"/>
    <path class="cls-4" d="M293,128.15c.16.08.16.16,0,.24v-.24Z"/>
    <path class="cls-4" d="M201.56,166.07c.16.08.16.16,0,.24v-.24Z"/>
    <path class="cls-4" d="M205.17,166.32c.24.16-.11.32-.24.47l-.11-.11.36-.36Z"/>
    <path class="cls-4" d="M65.72,241.67c.16.08.16.16,0,.24v-.24Z"/>
  </g>
</svg>